<?xml version="1.0" encoding="utf-8"?>

<!DOCTYPE svg PUBLIC "-//W3C//DTD SVG 1.1//EN" "http://www.w3.org/Graphics/SVG/1.1/DTD/svg11.dtd">
<svg version="1.1" id="Layer_1" xmlns="http://www.w3.org/2000/svg" xmlns:xlink="http://www.w3.org/1999/xlink" x="0px" y="0px"
	 viewBox="-1.6212 -5.9141 1928.6212 1943.3147" enable-background="new -1.6212 -5.9141 1928.6212 1943.3147" xml:space="preserve"
	>
<g>
	<path fill="#291A10" stroke="#5A381F" stroke-width="0.2" d="M708.92,53.35c6.39-10.15,11.59-21.06,17.79-31.3
		c-1.9,6.82-6.56,13.63-4.31,20.95c2.15,5.51,8.47,7.56,13.7599,8.69c13.89,2.49,27.75-1.8,40.9-5.89
		c13.1-4.33,26.1-9.38,39.82-11.4c18.83-3.2,38.48-2.13,56.62,3.98c13.21,4.47,25.89,10.7,37.22,18.85
		c8.1,4.67,16.3,9.4,23.01,16.02c10.68,9.71,18.55,22.23,23.39,35.78c7.22,19.76,8.81,41.11,7.89,61.99
		c-1.52,19.31-4.46,38.86-12.3,56.71c-5.13,11.14-12.06,22.47-23.39,28.16c0.29-3.62,1.08-7.43-0.18-10.95
		c-2.6-7.67-7.9-13.97-12.44-20.55c4.16,1.14,8.94,1.44,12.66-1.11c5.77-3.72,9.29-10.05,11.47-16.39
		c2.83-8.62,3.09-18.21,0.17-26.84c-1.72-5-5.07-9.98-10.36-11.6c-4.48-1.28-9.11,0.28-13.32,1.79c-0.59,0.24-1.79,0.72-2.39,0.95
		c-1.54-3.28-2.97-6.87-6.06-9.03c-5.06-3.84-11.75-4.4-17.88-4.09c-16.12,1-32.21,2.69-48.36,2.93c-4.39-1.44-9.04-0.9-13.56-0.92
		c-5.2,0.18-10.48-0.53-15.59,0.71c-28.92-4.3-58.11-10.26-84.56-23.17c-6.73-3.67-13.84-7.47-18.7-13.57
		c5.02,0.99,9.64,3.68,14.91,3.64c-10.25-6.25-21.13-12.73-27.56-23.24c-6.39-9.95-5.69-23.13-0.6-33.48
		c3.21-7.94,7.89-15.12,12.7-22.16C709.48,49.94,709.11,52.21,708.92,53.35z"/>
	<path fill="#9B6540" stroke="#9B6540" stroke-width="0.2" d="M727.34,142.14c0.21-1.52-0.06-3.72,1.58-4.52
		c26.45,12.91,55.64,18.87,84.56,23.17c9.64,1.43,19.44,0.38,29.15,0.21c16.15-0.24,32.24-1.93,48.36-2.93
		c6.13-0.31,12.82,0.25,17.88,4.09c3.09,2.16,4.52,5.75,6.06,9.03c0.6-0.23,1.8-0.71,2.39-0.95c-1.08,2.93,0.21,5.86,0.67,8.76
		c2.13,10.76-0.62,21.74-4.07,31.93c-1,3.35-3.2,6.31-3.74,9.78c1.9,1.65,4.26,2.62,6.52,3.68c4.54,6.58,9.84,12.88,12.44,20.55
		c0.38,1.93,0.17,3.92,0.1,5.88c-3.65,4.47-6.86,9.3-10.59,13.7c-2.9301,2.93-4.25,6.85-5.5,10.69c-0.39-0.51-1.16-1.53-1.54-2.03
		c-3.71,4.48-7.38,8.99-10.77,13.72c-6.57,8.63-14.26,16.35-22.45,23.41c-8.36,8.05-16.35,16.7-26.23,22.94
		c-5.93,3.82-13.11,4.52-19.8199,6.14c-14.44,3.33-29.03,5.93-43.58,8.72c-7.73,1.5-15.51,2.74-23.25,4.22
		c-11.52,1.96-23.03,3.94-34.56,5.81c-7.53,1.16-16.06,0.12-21.76-5.36c-6.3-6.08-7.59-15.43-7.31-23.77
		c0.98-23.4,12.57-44.45,16.53-67.28c-6.0699-0.65-12.22-1.29-18.05-3.2c-2.95-1.09-4.09-4.69-3.52-7.56
		c0.5-2.41,1.45-4.69,2.25-7.01c7.58-21.43,15.3-42.8,23.46-64.02c0.96-2.62,2.33-5.2,2.35-8.06
		C725.39,161.95,726.23,152.03,727.34,142.14 M737.96,155.13c-0.05,5.56,1.2599,12.53,7.16,14.71c9.08,3.17,18.79,0.31,28.09-0.2
		c7.99-0.61,16.02-0.74,24.02-0.02l-0.15,0.51c0.38-0.07,1.15-0.22,1.53-0.29c5.41,1.12,10.84,2.4,15.76,5.02
		c0.08-0.4,0.26-1.19,0.34-1.58c-2.67-2.88-6.71-4.1-10.13-5.93l-0.89,0.43l0.71-0.35c-6.39-2.12-13.1801-3.54-19.91-3.3
		c-7.85-0.55-15.74-0.36-23.59-0.71l0.11-0.2C752.79,162.64,744.54,160.25,737.96,155.13 M749.65,178.11
		c3.0099,5.96,6.49,12.08,11.87,16.22c5.18,3.35,11.14,6.64,17.55,5.54c8.51-1.54,16.3-5.66,24.79-7.29
		c1.11-4.44,0.99-9.07,1.41-13.61c-10.31,0.03-20.61-0.05-30.91-0.05l-0.2-0.5c-2.37-0.1-4.75-0.13-7.11-0.03
		C761.25,178.7,755.44,178.3,749.65,178.11 M793.04,278.1c-15.34,7.19-32.13,11.22-48.99,12.49c-10.34,0.41-22.3,0.39-30.13-7.48
		c0.48,1.44,1.31,2.7,2.6,3.56c4.1,3.09,7.2,7.32,11.46,10.24c5.5,4.05,12.3,6.01,19.06,6.41c10.13,0.63,20.16-1.68,29.78-4.64
		c7.47-2.25,15.32-3.24,22.56-6.25c3.02-1.31,6.25-3.18,7.43-6.45c1.08-4.88-1.32-9.88-4.45-13.51
		C799.46,274.67,796.32,276.54,793.04,278.1z"/>
	<path fill="#E0ED4C" stroke="#E0ED4C" stroke-width="0.2" d="M86.64,156.79c5.32-1.69,10.75-3.5,16.4-3.43
		c7.11-0.15,13.91,2.35,20.41,4.97c12.67,5.63,24.34,13.36,35.06,22.12c11.35,10.67,22.18,21.99,31.37,34.61
		c8.6,0.42,16.47,4.31,24.12,7.92c15.61,7.74,31.07,15.83,47.07,22.77c44.88,19.83,92.1,33.95,136.49,54.97
		c12.6,5.94,23.03,16.09,29.65,28.32c9.38,17.5,14.09,37.25,15.72,56.94c0.29,9.94,1.24,20.81-4.43,29.57
		c-6.66,10.32-18.13,15.97-28.93,20.96c-17.88,7.49-36.91,12.64-56.3,13.91c-4.61,0.18-9.25-0.13-13.77-1.11
		c-15.96-3.24-31.64-8.54-45.65-16.93c-13.35-7.88-24.86-18.6-34.59-30.6c-24.23-30.5-40.06-67.42-68.58-94.53
		c-5.29-4.74-9.49-10.55-14.49-15.53c-9.37,0.92-18.77,1.55-28.18,1.91c-15.17,1.32-30.03,4.71-44.93,7.66
		c-11.48,2.23-23.65,0.82-34.18-4.32c-7.54-3.6-14.04-9.03-19.75-15.06c0.78-8.06,1.57-16.19,3.18-24.13
		c-6.84-0.98-13.72-1.68-20.58-2.48c-2.56-7.21-5.7-14.5-5.49-22.3c0.09-6.4-0.85-13.07,1.58-19.17c2.04-5.5,3.57-11.3,6.84-16.24
		c4.61-7.74,11.16-14.08,17.94-19.9C62.57,168.73,74.15,161.59,86.64,156.79z"/>
	<path fill="#5A381F" stroke="#5A381F" stroke-width="0.2" d="M737.96,155.13c6.58,5.12,14.83,7.51,23.05,8.09l-0.11,0.2
		c-0.1801,0.34-0.54,1-0.72,1.33c8.09,0.11,16.32,0.96,24.31-0.62c6.73-0.24,13.52,1.18,19.91,3.3l-0.71,0.35
		c-1.65,0.79-3.33,1.55-5.08,2.06c-0.38,0.07-1.15,0.22-1.53,0.29l0.15-0.51c0.12-0.36,0.34-1.07,0.45-1.43
		c-8.89-0.05-17.83-0.62-26.7,0.28c0.56,0.29,1.67,0.88,2.23,1.17c-9.3,0.51-19.01,3.37-28.09,0.2
		C739.22,167.66,737.91,160.69,737.96,155.13z"/>
	<path fill="#45230C" stroke="#45230C" stroke-width="0.2" d="M813.48,160.79c5.11-1.24,10.39-0.53,15.59-0.71
		c4.52,0.02,9.17-0.52,13.56,0.92C832.92,161.17,823.12,162.22,813.48,160.79z"/>
	<path fill="#46240C" stroke="#46240C" stroke-width="0.2" d="M760.18,164.75c0.18-0.33,0.54-0.99,0.72-1.33
		c7.85,0.35,15.74,0.16,23.59,0.71C776.5,165.71,768.27,164.86,760.18,164.75z"/>
	<path fill="#47250E" stroke="#47250E" stroke-width="0.2" d="M770.98,168.47c8.87-0.9,17.81-0.33,26.7-0.28
		c-0.11,0.36-0.33,1.07-0.45,1.43c-8-0.72-16.03-0.59-24.02,0.02C772.65,169.35,771.54,168.76,770.98,168.47z"/>
	<path fill="#56341C" stroke="#56341C" stroke-width="0.2" d="M798.61,169.84c1.75-0.51,3.43-1.27,5.08-2.06l0.89-0.43
		c3.42,1.83,7.46,3.05,10.13,5.93c-0.08,0.39-0.26,1.18-0.34,1.58C809.45,172.24,804.02,170.96,798.61,169.84z"/>
	<path fill="#905F3D" stroke="#9B6540" stroke-width="0.2" d="M917.32,170.24c4.21-1.51,8.84-3.07,13.32-1.79
		c5.29,1.62,8.64,6.6,10.36,11.6c2.92,8.63,2.66,18.22-0.17,26.84c-2.18,6.34-5.7,12.67-11.47,16.39c-3.72,2.55-8.5,2.25-12.66,1.11
		c-2.26-1.06-4.62-2.03-6.52-3.68c0.54-3.47,2.74-6.43,3.74-9.78c3.45-10.19,6.2-21.17,4.07-31.93
		C917.53,176.1,916.24,173.17,917.32,170.24z"/>
	<path fill="#FFFFFF" stroke="#FFFFFF" stroke-width="0.2" d="M749.65,178.11c5.79,0.19,11.6,0.59,17.4,0.28
		c-1.78,3.66-2.81,7.94-1.14,11.84c2.2,6.27,9.69,9.79,15.95,7.66c4.07-1.12,6.91-4.57,8.52-8.32c-7.11,0.84-14.17-3.69-16.02-10.65
		c10.3,0,20.6,0.08,30.91,0.05c-0.42,4.54-0.3,9.17-1.41,13.61c-8.49,1.63-16.28,5.75-24.79,7.29c-6.41,1.1-12.37-2.19-17.55-5.54
		C756.14,190.19,752.66,184.07,749.65,178.11z"/>
	<path fill="#4E4E4E" stroke="#4E4E4E" stroke-width="0.2" d="M767.05,178.39c2.36-0.1,4.74-0.07,7.11,0.03l0.2,0.5
		c1.85,6.96,8.91,11.49,16.02,10.65c-1.61,3.75-4.45,7.2-8.52,8.32c-6.26,2.13-13.75-1.39-15.95-7.66
		C764.24,186.33,765.27,182.05,767.05,178.39z"/>
	<path fill="#FFFFFF" stroke="#FFFFFF" stroke-width="0.2" d="M793.04,278.1c3.28-1.56,6.42-3.43,9.32-5.63
		c3.13,3.63,5.53,8.63,4.45,13.51c-1.18,3.27-4.41,5.14-7.43,6.45c-7.24,3.01-15.09,4-22.56,6.25c-9.62,2.96-19.65,5.27-29.78,4.64
		c-6.7599-0.4-13.56-2.36-19.06-6.41c-4.26-2.92-7.36-7.15-11.46-10.24c-1.29-0.86-2.12-2.12-2.6-3.56
		c7.83,7.87,19.79,7.89,30.13,7.48C760.91,289.32,777.7,285.29,793.04,278.1z"/>
	<path fill="#764D32" stroke="#9B6540" stroke-width="0.2" d="M900.84,286.9c3.39-4.73,7.06-9.24,10.77-13.72
		c0.38,0.5,1.15,1.52,1.54,2.03c-7.53,20.34-6.86,42.28-7.88,63.6c-0.4,2.89-3.23,4.03-5.59,4.96
		c-11.47,4.27-22.16,10.43-33.85,14.11c-14.15,4.64-29.49,5.48-44.07,2.51c-11.55-2.34-22.67-6.63-33-12.28
		c14.55-2.79,29.14-5.39,43.58-8.72c6.71-1.62,13.89-2.32,19.8199-6.14c9.88-6.24,17.8701-14.89,26.23-22.94
		C886.58,303.25,894.27,295.53,900.84,286.9z"/>
	<path fill="#D94848" stroke="#D94848" stroke-width="0.2" d="M427.21,329.04c39.96,14.19,79.89,28.49,119.84,42.7
		c16.93,5.91,33.75,12.7,48.95,22.27c-2.93,3.95-5.69,8.16-7.11,12.92c-6.21,20.07-9.66,41.03-9.94,62.04
		c-0.75,41.18,7.92,81.95,20.39,121.01c-17.6801,1.66-35.47-1.49-52.28-6.89c-21.45-6.8701-41.66-17.3-60.26-29.94
		c-11.37-7.78-22-16.57-32.97-24.89c-33.49-25.98-67.19-51.71-100.56-77.84c19.39-1.27,38.42-6.42,56.3-13.91
		c10.8-4.99,22.27-10.64,28.93-20.96c5.67-8.76,4.72-19.63,4.43-29.57C441.3,366.29,436.59,346.54,427.21,329.04z"/>
	<path fill="#F25252" stroke="#F25252" stroke-width="0.2" d="M905.27,338.81c13.78,12.84,27.54,25.72,41.17,38.73
		c-3.75,1.63-7.8,2.25-11.75,3.09c-17.14,3.65-34.35,6.96-51.64,9.76c-3.51,0.63-6.09-2.81-9.51-2.93
		c-7.67-0.67-13.18,6.37-20.61,6.89c-21.69,2.31-43.78,2.97-65.33-0.9c-13.61-2.41-26.92-6.26-40.59-8.32
		c-9.45-1.54-19.01-2.16-28.56-2.57c16.55-8.61,32.96-17.88,47.06-30.23c7.74-1.48,15.52-2.72,23.25-4.22
		c10.33,5.65,21.45,9.94,33,12.28c14.58,2.97,29.92,2.13,44.07-2.51c11.69-3.68,22.38-9.84,33.85-14.11
		C902.04,342.84,904.87,341.7,905.27,338.81z"/>
	<path fill="#B43636" stroke="#B43636" stroke-width="0.2" d="M1126.92,355.17c12.9399-4.31,26.3199-8.1,40.09-7.95
		c8.63-0.43,16.8,2.84,24.98,5.08c15.9,5.22,31.86,11.27,45.5601,21.07c5.22,4.1,10.9199,8.84,12.5299,15.59
		c0.75,3.16-2.1899,5.57-4.96,6.19c-7.23,1.9-14.79,1.67-22.16,2.63c-13.23,1.47-25.9299,5.69-38.97,8.13
		c-37.76,4.9-74.4299,16.17-109.83,29.96c-30.37,11.32-59.4301,26.38-90.9901,34.38c-5.83,1.55-11.82,2.37-17.66,3.86
		c-17.73-6.39-37.84-9.46-55.95-2.92c-10.01-3.14-19.99-6.49-29.27-11.43c-4.49-2.03-8.32-5.48-13.21-6.57
		c-3.05-0.64-5.92-1.95-8.35-3.9c-9.35-7.22-17.48-15.86-25.27-24.7c-1.09-1.38-2.59-2.35-4.39-2.3
		c-42.62-3.51-83.93-16.07-123.45-31.91c-6.59-1.98-12.06,6.35-18.77,3.91c-7.78-2.63-16.11-3.87-23.45-7.64
		c14.03-2.7,28.45-2.58,42.7-2.5c1.48,0.3,2.59-0.76,3.6801-1.56c2.8799-0.02,5.78-0.06,8.67-0.03c9.55,0.41,19.11,1.03,28.56,2.57
		c13.67,2.06,26.98,5.91,40.59,8.32c21.55,3.87,43.64,3.21,65.33,0.9c7.43-0.52,12.94-7.56,20.61-6.89c3.42,0.12,6,3.56,9.51,2.93
		c17.29-2.8,34.5-6.11,51.64-9.76c3.95-0.84,8-1.46,11.75-3.09c0.72,0.2,1.45,0.41,2.2,0.62c2.12,3.27,5.49,5.28,8.3,7.84
		c2.13,3.32,5.28,5.68,8.06,8.41c0.04,1.77,0.06,3.56,0.09,5.35c-2.84-2.59-7.05-4.66-10.69-2.36
		c-20.41,10.96-42.54,18.59-65.34,22.63c0.69,8.52,1.42,17.03,2.11,25.55c15.88,0.96,31.84-1.44,46.91-6.5
		c17.61-5.9,34.08-14.63,50.43-23.32c-3.75-4.08-8.18-7.43-12.23-11.19c7.6,0.42,15.21-0.41,22.8199-0.58
		c2.5,0.28,4.64,1.85,6.94,2.81C1045.03,386.74,1085.45,369.43,1126.92,355.17z"/>
	<path fill="#F25252" stroke="#F25252" stroke-width="0.2" d="M626.51,384.84c9.45-1.08,19.12-1.73,28.52,0.14
		c2.79,0.52,5.47,1.76,8.37,1.67c7.34,3.77,15.67,5.01,23.45,7.64c6.71,2.44,12.1801-5.89,18.77-3.91
		c39.52,15.84,80.83,28.4,123.45,31.91c1.8-0.05,3.3,0.92,4.39,2.3c7.79,8.84,15.92,17.48,25.27,24.7c2.43,1.95,5.3,3.26,8.35,3.9
		c4.89,1.09,8.72,4.54,13.21,6.57c9.28,4.94,19.26,8.29,29.27,11.43c-3.01,1.42-5.81,3.22-8.59,5.01
		c-2.43-0.31-4.85-0.57-7.2599-0.83c-50.52-5.99-101.13-11.26-151.67-17.04c-12.54-1.65-26.07,0.57-36.28,8.41
		c-12.96,9.84-20.4,25.44-22.85,41.28c-3.8799,24.65,0.4901,50.15,10.08,73.03c51.3,3.17,102.61,6.21,153.9,9.4
		c2.18,0.12,2.42,2.77,2.75,4.44c0.28,3.21,0.17,7.14-2.25,9.54c-2.76,0.65-5.61-0.02-8.39-0.08
		c-58.32-3.14-116.64-6.49-174.97-9.52c5.7599,11.03,11.58,22.04,17.23,33.13c60.64,2.93,121.31,5.09,181.96,7.88
		c4.42,0.3799,9.02-0.26,12.79-2.75c9.61-6.07,15.56-16.55,18.78-27.21c3.76-12.13,2.12-25.4-2.64-37
		c-2.51-5.7-5.62-11.57-10.92-15.14c-2.71-1.91-6.16-1.86-9.31-2.18c-41.73-3.08-83.42-6.69-125.15-9.56
		c-1.35-3.21-0.43-6.71,0.5-9.89c1.27-4.39,3.47-8.42,5.81-12.31c42.93,3.42,85.81,7.4,128.72,11.07
		c3.15,28.19,18.13,54.41,39.37,72.96c11.97,10.48,24.89,20.52,39.93,26.16c3.75,1.6,8.22,1.74,11.37,4.6
		c5.8701,5.09,13.4,7.43,20.4,10.5c17.73,7.47,35.46,14.98,53.1801,22.5c-8.41,40.08-18.25,79.86-29.02,119.3799
		c-6.02,22.26-12.35,44.4301-18.39,66.6801c-1.37,5.38-3.12,10.67-4.09,16.15c-17.27-9.31-35.49-16.94-54.54-21.76
		c-44.92-12.05-92.36-12.53-138.06-4.87c-23.61,3.53-47.27,6.77-70.85,10.48c0.23-0.21,0.69-0.62,0.92-0.83
		c-3.61-6.86-7.86-13.37-11.8-20.04c-27.73-47.33-56.2-94.34-80.0699-143.79c-15.88-32-30.22-64.86-40.81-99.01
		c-12.47-39.06-21.14-79.83-20.39-121.01c0.28-21.01,3.73-41.97,9.94-62.04c1.42-4.76,4.18-8.97,7.11-12.92
		c2.81-1.07,5.13-3.12,7.97-4.15C611.16,387.02,618.86,385.76,626.51,384.84 M686.66,656.98c5.97,11.08,12.26,21.99,18.35,33.01
		c0.43,1.27,1.65,1.73,2.92,1.58c15.65,0.22,31.31,0.58,46.96,0.65c3.98-0.17,10.1-3.25,7.96-8.08c-2.62-8.37-4.99-16.83-7.71-25.17
		C732.31,658.52,709.49,657.5,686.66,656.98 M763.13,670.02c2.25,7.46,4.12,15.04,6.5,22.46c4.6,0.52,9.27,0.12,13.89,0.52
		c-0.27-2.5-0.84-4.95-1.51-7.36c10-0.02,20,0.41,30.01,0.45c0.28,2.41,0.51,4.81,0.75,7.24c4.54,0.12,9.08,0.21,13.63,0.26
		c-0.44-10.81-0.61-21.64-1.2401-32.45c-17.69-0.26-35.37-1.23-53.06-1.45C767.28,660.05,760.66,664.54,763.13,670.02
		 M829.88,661.42c0.15,10.76,0.37,21.52,0.54,32.29c14.2,0.28,28.41,0.37,42.61,0.68c5.22-0.04,12.5099-2.31,13.2-8.37
		c1.58-7.62,3.34-15.2,4.91-22.82C870.71,662.74,850.3,661.91,829.88,661.42z"/>
	<path fill="#F25252" stroke="#F25252" stroke-width="0.2" d="M965,394.41c3.79,3.34,7.56,6.72,11.28,10.16
		c4.05,3.76,8.48,7.11,12.23,11.19c-16.35,8.69-32.82,17.42-50.43,23.32c-15.07,5.06-31.03,7.46-46.91,6.5
		c-0.69-8.52-1.42-17.03-2.11-25.55c22.8-4.04,44.93-11.67,65.34-22.63c3.64-2.3,7.85-0.23,10.69,2.36
		C965.06,397.97,965.04,396.18,965,394.41z"/>
	<path fill="#F25252" stroke="#F25252" stroke-width="0.2" d="M983.17,470.25c31.56-8,60.6201-23.06,90.9901-34.38
		c14.0599-1.01,27.87,2.64,41.24,6.52c32.13,9.93,62.5599,25.06,90.59,43.57c30.39,20.26,57.58,45.26,80.1901,73.96
		c13.88,17.45,26.4299,35.93,38.0199,54.97c-15.87-8.07-33.4399-12.42-51.1399-13.88c-27.66-2.45-55.3401,1.09-82.9,3.16
		c-32.3201,2.73-65.39,3.92-97.13-3.95c-27.5901-6.37-55.39-11.92-83.4-16.1299c-0.03-15.19,3.46-30.07,5.91-44.9901
		c1.31-8.39,0.46-17.12-2.69-25.02c-3.22-8.07-8.71-15.08-15.17-20.82c-1.08-1.33-2.81-0.77-4.23-0.65
		c-6.15,0.91-12.29,1.92-18.45,2.66c-1.03-6.06-1.44-12.25-2.87-18.22c-2.07-1.27-4.38-2.08-6.62-2.94
		C971.35,472.62,977.34,471.8,983.17,470.25z"/>
	<path fill="#E3D44D" stroke="#E3D44D" stroke-width="0.2" d="M705.76,466.74c10.21-7.84,23.74-10.06,36.28-8.41
		c50.54,5.78,101.15,11.05,151.67,17.04c1.63,0.98,3.44,1.58,5.31,2c-8.82,7.7-13.11,19.07-15.5,30.24
		c-1.72,7.61-1.99,15.49-1.72,23.26c-42.91-3.67-85.79-7.65-128.72-11.07c-2.34,3.89-4.54,7.92-5.81,12.31
		c-0.93,3.18-1.85,6.68-0.5,9.89c41.73,2.87,83.42,6.48,125.15,9.56c3.15,0.32,6.6,0.27,9.31,2.18c5.3,3.57,8.41,9.44,10.92,15.14
		c4.7599,11.6,6.4,24.87,2.64,37c-3.22,10.66-9.17,21.14-18.78,27.21c-3.77,2.49-8.37,3.1299-12.79,2.75
		c-60.65-2.79-121.3199-4.95-181.96-7.88c-5.65-11.09-11.47-22.1-17.23-33.13c58.33,3.03,116.65,6.38,174.97,9.52
		c2.78,0.06,5.63,0.73,8.39,0.08c2.42-2.4,2.53-6.33,2.25-9.54c-0.33-1.67-0.57-4.32-2.75-4.44c-51.29-3.19-102.6-6.23-153.9-9.4
		c-9.59-22.88-13.96-48.38-10.08-73.03C685.36,492.18,692.8,476.58,705.76,466.74z"/>
	<path fill="#E0ED4C" stroke="#E0ED4C" stroke-width="0.2" d="M909.56,471.19c18.11-6.54,38.22-3.47,55.95,2.92
		c2.24,0.86,4.55,1.67,6.62,2.94c1.43,5.97,1.84,12.16,2.87,18.22c6.16-0.74,12.3-1.75,18.45-2.66c1.42-0.12,3.15-0.68,4.23,0.65
		c6.46,5.74,11.95,12.75,15.17,20.82c3.15,7.9,4,16.63,2.69,25.02c-2.45,14.92-5.94,29.8-5.91,44.9901
		c28.01,4.21,55.8099,9.7599,83.4,16.1299c31.74,7.8701,64.8099,6.6801,97.13,3.95c27.5599-2.07,55.24-5.61,82.9-3.16
		c17.7,1.46,35.2699,5.81,51.1399,13.88c6.39,3.22,12.6901,6.94,17.26,12.59c10.7001,12.66,18.0701,27.7,25.13,42.59
		c5.5601,11.93,10.5901,24.16,13.8301,36.94c1.98,8.32,3.13,17.62-0.8501,25.55c-3.5199,7.04-10.6599,11.1-17.2999,14.72
		c-17.4401,8.6-37.03,11.72-56.28,12.78c-21.4399,0.99-43.16-2.03-63.1799-9.9c-14.52-5.89-29-11.9-43.4801-17.91
		c-51.1899-21.31-102.23-42.99-153.2799-64.66c-17.7201-7.52-35.4501-15.03-53.1801-22.5c-7-3.07-14.53-5.41-20.4-10.5
		c-3.15-2.86-7.62-3-11.37-4.6c-15.04-5.64-27.96-15.68-39.93-26.16c-21.24-18.55-36.22-44.77-39.37-72.96
		c-0.27-7.77,0-15.65,1.72-23.26c2.39-11.17,6.68-22.54,15.5-30.24c-1.87-0.42-3.68-1.02-5.31-2c2.41,0.26,4.83,0.52,7.2599,0.83
		C903.75,474.41,906.55,472.61,909.56,471.19z"/>
	<path fill="#E3D44D" stroke="#E3D44D" stroke-width="0.2" d="M686.66,656.98c22.83,0.52,45.65,1.54,68.48,1.99
		c2.72,8.34,5.09,16.8,7.71,25.17c2.14,4.83-3.98,7.91-7.96,8.08c-15.65-0.0699-31.31-0.43-46.96-0.65
		c-1.27,0.15-2.49-0.31-2.92-1.58C698.92,678.97,692.63,668.06,686.66,656.98 M708.57,667.1c2.45,5.62,5.47,10.98,8,16.57
		c8.49,0.41,16.99,0.29,25.48,0.56c1.9,0.11,4.37-0.13,5.13-2.23c-1.34-4.79-3.21-9.42-5.05-14.03
		C730.94,667.98,719.75,667.47,708.57,667.1z"/>
	<path fill="#E3D44D" stroke="#E3D44D" stroke-width="0.2" d="M763.13,670.02c-2.47-5.48,4.15-9.97,8.97-10.33
		c17.69,0.22,35.37,1.19,53.06,1.45c0.63,10.81,0.8,21.64,1.2401,32.45c-4.55-0.05-9.09-0.14-13.63-0.26
		c-0.24-2.43-0.47-4.83-0.75-7.24c-10.01-0.04-20.01-0.47-30.01-0.45c0.67,2.41,1.24,4.86,1.51,7.36c-4.62-0.4-9.29,0-13.89-0.52
		C767.25,685.06,765.38,677.48,763.13,670.02 M779.37,671.29c-0.49,2.08,0.59,4.14,1,6.18c10.29,0.01,20.58,0.53,30.87,0.61
		c-0.21-2.67-0.41-5.33-0.58-7.98c-7.89-0.45-15.79-0.47-23.68-0.84C784.4,669.22,781.11,669,779.37,671.29z"/>
	<path fill="#E3D44D" stroke="#E3D44D" stroke-width="0.2" d="M829.88,661.42c20.42,0.49,40.83,1.32,61.26,1.78
		c-1.57,7.62-3.33,15.2-4.91,22.82c-0.69,6.06-7.98,8.33-13.2,8.37c-14.2-0.31-28.41-0.4-42.61-0.68
		C830.25,682.94,830.03,672.18,829.88,661.42 M844.79,670.92c-0.19,5.18-0.59,10.35-0.58,15.54c7.6-0.05,15.21,0.31,22.82,0.44
		c2.09,0.12,4.33-0.51,5.73-2.15c1.02-4.33,1.85-8.75,2.07-13.2C864.81,671.66,854.81,670.96,844.79,670.92z"/>
	<path fill="#F25252" stroke="#F25252" stroke-width="0.2" d="M708.57,667.1c11.18,0.37,22.37,0.88,33.56,0.87
		c1.84,4.61,3.71,9.2401,5.05,14.03c-0.76,2.1-3.23,2.34-5.13,2.23c-8.49-0.27-16.99-0.15-25.48-0.56
		C714.04,678.08,711.02,672.72,708.57,667.1z"/>
	<path fill="#B43636" stroke="#B43636" stroke-width="0.2" d="M1046.05,667.59c51.0499,21.67,102.09,43.35,153.2799,64.66
		c22.99,29.15,49.4601,55.49,77.66,79.59c56.87,48.29,122,86.21,190.34,115.78c79.3101,34.32,162.9301,57.9,247.61,74.59
		c60.9,11.96,122.4601,20.32,184.2301,26.1c-54.13,56.1399-109.27,111.33-165.7001,165.1799
		c-54.6899,52.05-110.64,102.83-168.99,150.77c-58.3199,47.75-118.97,93.02-184.1699,131.01
		c-54.42,31.54-112.3701,58.15-173.9501,72.0599c-1.89-22.12-1.53-44.4199-4.78-66.4299c-3.1799-23.28-8.97-46.2101-17.1599-68.24
		c-6.38-16.3101-16.7201-31.9701-32.2201-40.8301c-10.6899-6.25-23.63-7.45-35.6599-5.4099c-1.42-8.01-1.9301-16.17-3.88-24.1001
		c-4.2101-19.4099-10.8301-38.1699-17.0601-56.99c-7.02-20.7999-13.89-41.64-20.27-62.64c-14.4399-45.08-22.01-91.95-29.26-138.61
		c-1.1799-6.7899-1.74-13.6899-3.36-20.39c13.6901-11.8999,24.9701-26.95,30.79-44.2599c6.4301-18.52,6-38.89,0.9-57.67
		c-7.77-28.65-26.74-53.1-49.49-71.64c-9.48-7.67-19.61-14.56-30.36-20.32c0.97-5.48,2.72-10.77,4.09-16.15
		c6.04-22.25,12.37-44.42,18.39-66.6801C1027.8,747.45,1037.64,707.67,1046.05,667.59z"/>
	<path fill="#F25252" stroke="#F25252" stroke-width="0.2" d="M779.37,671.29c1.74-2.29,5.03-2.07,7.61-2.03
		c7.89,0.37,15.79,0.39,23.68,0.84c0.17,2.65,0.3701,5.31,0.58,7.98c-10.29-0.08-20.58-0.6-30.87-0.61
		C779.96,675.43,778.88,673.37,779.37,671.29z"/>
	<path fill="#F25252" stroke="#F25252" stroke-width="0.2" d="M844.79,670.92c10.02,0.04,20.02,0.74,30.04,0.63
		c-0.22,4.45-1.05,8.87-2.07,13.2c-1.4,1.64-3.64,2.27-5.73,2.15c-7.61-0.13-15.22-0.4901-22.82-0.44
		C844.2,681.27,844.6,676.1,844.79,670.92z"/>
	<path fill="#B33535" stroke="#B33535" stroke-width="0.2" d="M720.22,832.78c3.94,6.67,8.19,13.18,11.8,20.04
		c-0.23,0.21-0.69,0.62-0.92,0.83c-1.42,0.2-2.84,0.38-4.25,0.54C724.57,847.08,722.19,839.99,720.22,832.78z"/>
	<path fill="#F76363" stroke="#F76363" stroke-width="0.2" d="M801.95,843.17c45.7-7.66,93.14-7.18,138.06,4.87
		c19.05,4.82,37.27,12.45,54.54,21.76c10.75,5.76,20.88,12.65,30.36,20.32c22.75,18.54,41.72,42.99,49.49,71.64
		c5.1,18.78,5.53,39.15-0.9,57.67c-5.8199,17.31-17.1,32.36-30.79,44.2599C1017.19,1084.78,984.53,1095.4,952.03,1099.27
		c-44.83,5.23-90.28-0.01-134.03-10.29c-10.68-2.33-21.33-4.77-32.04-6.95c-1.04-0.23-2.07-0.4501-3.09-0.66
		c-9.61-11.87-24.55-17.61-39.01-20.9399c-22.63-5.0701-45.84-6.4501-68.79-9.29c-22.42-2.79-45.29-5.62-66.08-15.04
		c-29.39-13.22-55.41-32.63-80.68-52.37c-7.1-5.35-14.03-11.05-21.94-15.16c-2.48-1.39-5.32-1.88-8.13-1.67
		c-6.45-25.76,7.13-53.96,29.9-66.89c14.41-8.52,30.81-12.67,46.85-16.91c26.66-6.16,53.34-12.24,80.18-17.56
		c23.69-4.99,47.77-7.72,71.68-11.35c1.41-0.16,2.83-0.34,4.25-0.54C754.68,849.94,778.34,846.7,801.95,843.17z"/>
	<path fill="#E0ED4C" stroke="#E0ED4C" stroke-width="0.2" d="M498.24,966.9c2.81-0.21,5.65,0.28,8.13,1.67
		c7.91,4.11,14.84,9.81,21.94,15.16c25.27,19.74,51.29,39.15,80.68,52.37c20.79,9.42,43.66,12.25,66.08,15.04
		c22.95,2.84,46.16,4.22,68.79,9.29c14.46,3.33,29.4,9.0699,39.01,20.9399c1.45,1.84,2.78,3.79,4.04,5.8
		c5.13,9.25,5.98,19.95,7.7401,30.1799c3.46,24.72,3.83,49.75,3.22,74.67c-0.39,22.77-0.74,46.4,8.2,67.8099
		c10.18,23.4,21.08,46.55,29.4,70.7101c5.27,2.08,9.17,6.48,11.69,11.45c6.59,11.92,9.78,25.51,10.51,39.05
		c0.44,10.62-0.76,21.8999-6.81,30.95c-4.95,8.3-13.98,12.78-22.68,16.14c-14.02,5.23-28.44,9.9399-41.15,18.03
		c-15.77,10-29.11,23.4099-40.83,37.84c-10.02,12.66-19.45,25.9-26.67,40.38c-6.04,11.85-10.8101,24.27-15.4301,36.73
		c-2.79,7.3201-5.45,14.79-9.6,21.49c-2.37,3.76-5.9,7.42-10.6,7.76c-4.94,0.29-9.47-2.25-13.34-5.03
		c-7.06-5.14-12-12.89-14.04-21.34c-2.85-11.79-1.84-24.04-0.67-35.98c2.54-23.2,7.76-46.1801,16.14-67.98
		c7.3-19.39,16.17-38.25,27.38-55.6901c12.19-19.77,29.95-35.6699,50.16-46.9299c-8.4301-19.35-16.11-39.0901-26.3-57.6
		c-17.82-31.9301-41.17-60.3301-65.31-87.64c-27.5-30.8501-55.68-61.16-81.22-93.7001c-21.74-27.87-42.91-56.45-59.31-87.86
		c-6.69-12.75-12.85-25.82-17.6-39.42c-1.85-5.59-3.64-11.29-4.01-17.2C495.63,971.44,496.03,968.52,498.24,966.9z"/>
	<path fill="#D94848" stroke="#D94848" stroke-width="0.2" d="M952.03,1099.27c32.5-3.87,65.16-14.49,90.6799-35.5801
		c1.62,6.7001,2.1801,13.6001,3.36,20.39c7.25,46.66,14.8201,93.53,29.26,138.61c6.38,21,13.25,41.8401,20.27,62.64
		c6.23,18.8201,12.85,37.5801,17.0601,56.99c1.95,7.9301,2.46,16.0901,3.88,24.1001c-19.23,3.1599-36.99,11.75-55.9301,16.0299
		c-12.6799,2.8501-25.84,2.26-38.6,0.4c-9.45-1.35-18.74-3.77-27.66-7.15c-3.99-1.3899-8.02-3.26-12.33-3.0199
		c-2.31-0.0601-3.68,1.96-4.87,3.6c-13.12-13.0901-25.22-27.1901-37.28-41.26c-11.55-13.24-21.67-27.62-32.44-41.47
		c-18.67-24.3301-37.26-48.7101-56.12-72.88c-1.03-1.1901-2.31-2.1001-3.5-3.0701c-2.27-5.4299-6.54-9.64-9.68-14.5499
		c-18.48-26.3101-33.26-55.2201-43.48-85.7001c-1.76-10.23-2.61-20.9299-7.7401-30.1799c-0.37-1.7201-0.65-3.4301-0.95-5.14
		c10.71,2.1799,21.36,4.62,32.04,6.95C861.75,1099.26,907.2,1104.5,952.03,1099.27z"/>
	<path fill="#B43636" stroke="#B43636" stroke-width="0.2" d="M847.81,1217.6c1.19,0.97,2.47,1.88,3.5,3.0701
		c18.86,24.1699,37.45,48.5499,56.12,72.88c10.77,13.85,20.89,28.23,32.44,41.47c12.06,14.0699,24.16,28.1699,37.28,41.26
		c-2.26,8.03-0.83,16.51,1.16,24.45c4.15,15.8,14.5,28.89,24.5,41.4301c20.85,25.0699,44.54,47.6,65.8799,72.24
		c12.1101,13.7,23.6101,27.95,34.3201,42.78c-47.67-1.8101-94.66-12.92-139.06-30.1001c-40.35-99.58-77.89-200.2799-113.62-301.59
		C849.38,1222.89,848.39,1220.29,847.81,1217.6z"/>
	<path fill="#E0ED4C" stroke="#E0ED4C" stroke-width="0.2" d="M1116.54,1366.42c12.0299-2.04,24.97-0.8401,35.6599,5.4099
		c15.5,8.86,25.8401,24.52,32.2201,40.8301c8.1899,22.0299,13.98,44.96,17.1599,68.24c3.25,22.01,2.89,44.3099,4.78,66.4299
		c1.21,11.9,3.6,23.8,8.4501,34.79c7.84,17.58,16.4399,34.8101,25.22,51.9401c11.4099,2.9299,22.48,7.6599,31.97,14.72
		c5.15,3.77,9.58,8.59,12.51,14.2999c4.13,7.1901,4.45,15.8301,3.42,23.87c-1.55,12.03-4.4801,23.88-5.25,36.02
		c-1.5601,18.8401,2.21,37.6901,7.95,55.5701c4.26,13.08,9.77,25.74,15.92,38.0499c9.5599,18.75,22.76,35.27,36.1899,51.36
		c5.0601,6.51,10.8,12.92,13.41,20.9c1.65,4.7001-0.25,10.02-4.1,13.04c-8.5701,6.9-20.4701,9.1-31.0701,6.41
		c-11.01-2.76-20.7-9.01-29.87-15.4501c-23.2-16.35-43.8199-36.2999-60.97-58.9c-12.71-16.5699-24.17-34.23-32.65-53.35
		c-9.29-21.34-11.91-45.0499-10.08-68.1c-11.5901-14.8101-18.9301-32.29-26.63-49.29c-7.17-15.9299-13.75-32.1499-21.5701-47.7799
		c-10.4099-20.39-22.7899-39.7201-36.2-58.25c-10.71-14.8301-22.21-29.0801-34.3201-42.78c-21.34-24.64-45.03-47.17-65.8799-72.24
		c-10-12.54-20.35-25.63-24.5-41.4301c-1.99-7.9399-3.42-16.4199-1.16-24.45c1.19-1.64,2.56-3.66,4.87-3.6
		c4.31-0.2401,8.34,1.63,12.33,3.0199c8.92,3.38,18.21,5.8,27.66,7.15c12.76,1.86,25.92,2.4501,38.6-0.4
		C1079.55,1378.17,1097.3101,1369.58,1116.54,1366.42z"/>
</g>
</svg>
