<?xml version="1.0" encoding="UTF-8" standalone="no"?>
<!-- Created with Inkscape (http://www.inkscape.org/) -->

<svg
   xmlns:dc="http://purl.org/dc/elements/1.1/"
   xmlns:cc="http://creativecommons.org/ns#"
   xmlns:rdf="http://www.w3.org/1999/02/22-rdf-syntax-ns#"
   xmlns:svg="http://www.w3.org/2000/svg"
   xmlns="http://www.w3.org/2000/svg"
   xmlns:sodipodi="http://sodipodi.sourceforge.net/DTD/sodipodi-0.dtd"
   xmlns:inkscape="http://www.inkscape.org/namespaces/inkscape"
   width="121.32555mm"
   height="142.46266mm"
   viewBox="0 0 429.89367 504.78896"
   id="svg4055"
   version="1.1"
   inkscape:version="0.91 r13725"
   sodipodi:docname="archive.svg">
  <defs
     id="defs4057" />
  <sodipodi:namedview
     id="base"
     pagecolor="#ffffff"
     bordercolor="#666666"
     borderopacity="1.0"
     inkscape:pageopacity="0.0"
     inkscape:pageshadow="2"
     inkscape:zoom="0.35"
     inkscape:cx="87.089735"
     inkscape:cy="72.39449"
     inkscape:document-units="px"
     inkscape:current-layer="layer1"
     showgrid="false"
     fit-margin-top="0"
     fit-margin-left="0"
     fit-margin-right="0"
     fit-margin-bottom="0"
     inkscape:window-width="1440"
     inkscape:window-height="851"
     inkscape:window-x="0"
     inkscape:window-y="1"
     inkscape:window-maximized="1" />
  <metadata
     id="metadata4060">
    <rdf:RDF>
      <cc:Work
         rdf:about="">
        <dc:format>image/svg+xml</dc:format>
        <dc:type
           rdf:resource="http://purl.org/dc/dcmitype/StillImage" />
        <dc:title></dc:title>
      </cc:Work>
    </rdf:RDF>
  </metadata>
  <g
     inkscape:label="Layer 1"
     inkscape:groupmode="layer"
     id="layer1"
     transform="translate(-287.91026,-99.967717)">
    <g
       transform="translate(1239.3602,-484.50284)"
       id="g4975"
       inkscape:export-filename="/home/elliot/git/oddc_1/oddc/img/archive.png"
       inkscape:export-xdpi="35.59"
       inkscape:export-ydpi="35.59">
      <path
         inkscape:connector-curvature="0"
         id="path4961"
         d="m -896.31587,1014.4241 c -4.80306,-0.463 -7.4001,4.2945 -8.10383,8.4076 -5.73352,18.987 -11.7487,37.9764 -16.09248,57.3313 0.53735,5.2534 9.09831,6.7221 12.1534,2.8947 4.30995,-8.6916 5.30719,-18.7099 8.26431,-27.9307 0.83439,-1.6127 0.43774,-5.4356 3.24827,-4.3753 4.07869,0.6991 8.9066,0.9679 12.30808,3.0715 2.33687,9.4652 1.57639,20.1406 6.40815,28.8809 3.06385,3.9158 11.65931,0.6939 10.05418,-4.6404 -3.61365,-18.5996 -4.94245,-37.4995 -7.6014,-56.2591 0.14362,-3.9018 -3.25606,-6.0883 -6.8722,-5.9884 -4.53742,-0.6321 -9.14565,-1.3545 -13.76648,-1.3921 z m 11.60097,12.3965 c 0.41919,4.3009 1.27095,8.8495 1.01647,13.0594 -3.93609,1.1234 -8.66905,1.6644 -12.41857,-0.044 0.4412,-3.9056 1.89265,-8.0148 2.60746,-11.6673 2.83711,-0.6029 6.02831,-1.2941 8.79464,-1.3479 z"
         style="color:#000000;display:inline;overflow:visible;visibility:visible;fill:#da67a2;fill-opacity:1;fill-rule:nonzero;stroke:#000000;stroke-width:0.21213204;stroke-linecap:butt;stroke-linejoin:miter;stroke-miterlimit:4;stroke-dasharray:none;stroke-dashoffset:0;stroke-opacity:0;marker:none;enable-background:accumulate" />
      <path
         inkscape:connector-curvature="0"
         id="path4963"
         d="m -839.61475,1014.9545 c -5.92736,0.3022 -14.6205,1.6181 -15.44586,8.8388 -2.47425,18.7033 -1.71091,37.6944 -2.47487,56.5243 1.3306,5.4558 11.36692,8.4177 13.5897,2.033 0.97218,-6.1433 0.18958,-12.4486 1.5689,-18.5616 5.16244,6.0316 8.5068,13.9868 15.1365,18.5837 3.73329,1.9654 11.23089,-0.4333 8.55157,-5.5464 -5.42697,-8.3664 -12.69736,-15.1831 -18.69413,-23.1798 7.04047,-1.0279 14.75539,-2.8254 18.87091,-9.2587 5.1372,-5.9484 7.01857,-16.4495 0.0221,-21.7657 -5.74426,-5.3784 -13.24158,-8.2856 -21.12482,-7.6676 z m 2.65165,11.6009 c 4.50766,-0.5981 9.25511,2.5759 10.36354,6.8722 -0.34379,3.5743 -3.13783,7.7603 -7.18156,7.3142 -3.21078,0.904 -6.65757,2.16 -9.89949,1.9887 0.13219,-5.1642 -0.0489,-10.8434 1.65728,-15.6889 1.46424,-0.6416 3.39662,-0.3357 5.06023,-0.4862 z"
         style="color:#000000;display:inline;overflow:visible;visibility:visible;fill:#da67a2;fill-opacity:1;fill-rule:nonzero;stroke:#000000;stroke-width:0.21213204;stroke-linecap:butt;stroke-linejoin:miter;stroke-miterlimit:4;stroke-dasharray:none;stroke-dashoffset:0;stroke-opacity:0;marker:none;enable-background:accumulate" />
      <path
         inkscape:connector-curvature="0"
         id="path4965"
         d="m -781.49941,1017.8492 c -3.46403,0.054 -6.69012,4.4668 -9.41336,0.5745 -4.82311,-1.4182 -8.136,4.2406 -10.67289,7.6898 -6.72078,11.829 -9.98574,25.6246 -10.31934,39.1781 -0.20304,9.0259 5.76934,19.8637 15.75522,19.9758 8.31628,-0.091 18.51245,-4.2411 20.5061,-13.1036 -0.3053,-4.9099 -6.67928,-4.4355 -9.45755,-1.9003 -3.15756,3.0188 -6.64819,-1.5162 -8.70626,-3.6681 -5.02184,-4.7888 -3.09193,-12.0524 -2.58535,-18.1197 1.35352,-6.5498 2.49947,-14.9629 9.01561,-18.4952 3.97788,-0.9954 10.11443,-1.4503 10.18675,-6.9606 0.59171,-2.7042 -1.37675,-5.5293 -4.30893,-5.1707 z"
         style="color:#000000;display:inline;overflow:visible;visibility:visible;fill:#da67a2;fill-opacity:1;fill-rule:nonzero;stroke:#000000;stroke-width:0.21213204;stroke-linecap:butt;stroke-linejoin:miter;stroke-miterlimit:4;stroke-dasharray:none;stroke-dashoffset:0;stroke-opacity:0;marker:none;enable-background:accumulate" />
      <path
         inkscape:connector-curvature="0"
         id="path4967"
         d="m -753.72337,1013.8054 c -3.75388,0.1196 -7.32033,2.7413 -7.09316,6.7838 -2.0177,19.6801 -2.66867,39.527 -2.91682,59.3086 0.83385,6.1356 9.93936,4.3402 10.98225,-0.8397 2.26572,-9.0625 0.67256,-18.8777 3.40295,-27.776 4.56118,-1.2838 9.85754,-2.0329 14.51779,-1.6131 2.2854,9.3143 0.11829,19.4875 2.78423,28.7925 3.40032,5.3714 12.60024,1.5572 11.64517,-4.6625 0.30656,-18.2154 0.62527,-36.5042 -0.39775,-54.6903 -0.91569,-4.8605 -7.3102,-4.8272 -10.84967,-3.3808 -2.64625,5.9165 -0.28675,13.029 -2.2539,19.2023 -3.53247,1.9534 -8.28469,1.6716 -12.28598,1.9888 -2.09784,0.1639 -4.61318,-0.341 -3.11569,-3.2041 0.14082,-6.3443 2.14139,-12.7588 1.37002,-19.0035 -1.61172,-1.8761 -3.67021,-1.2122 -5.78944,-0.906 z"
         style="color:#000000;display:inline;overflow:visible;visibility:visible;fill:#da67a2;fill-opacity:1;fill-rule:nonzero;stroke:#000000;stroke-width:0.21213204;stroke-linecap:butt;stroke-linejoin:miter;stroke-miterlimit:4;stroke-dasharray:none;stroke-dashoffset:0;stroke-opacity:0;marker:none;enable-background:accumulate" />
      <path
         inkscape:connector-curvature="0"
         id="path4969"
         d="m -698.32597,1010.756 c -4.97588,0.01 -6.55836,5.3753 -6.42871,9.4988 -0.89636,16.9587 -3.02937,33.8689 -4.00112,50.8484 0.3094,4.3163 -0.81836,10.113 2.91682,13.1919 5.40742,0.8503 10.3545,-4.6325 10.06782,-9.9805 2.75033,-19.3327 5.23084,-38.8632 6.49635,-58.2968 -1.02924,-3.3849 -5.58614,-5.5699 -9.05116,-5.2618 z"
         style="color:#000000;display:inline;overflow:visible;visibility:visible;fill:#da67a2;fill-opacity:1;fill-rule:nonzero;stroke:#000000;stroke-width:0.21213204;stroke-linecap:butt;stroke-linejoin:miter;stroke-miterlimit:4;stroke-dasharray:none;stroke-dashoffset:0;stroke-opacity:0;marker:none;enable-background:accumulate" />
      <path
         inkscape:connector-curvature="0"
         id="path4971"
         d="m -648.65172,1009.7395 c -2.83741,5.4389 -2.01458,12.195 -3.37219,18.145 -1.85345,11.0741 -2.64967,22.471 -5.73181,33.2087 -0.45476,1.1777 -2.68704,3.9549 -3.38086,1.6131 -4.09971,-16.1552 -5.71143,-32.9567 -10.23095,-48.9893 -1.9569,-4.5189 -10.93271,-3.8645 -9.63433,1.9667 3.22583,20.6662 4.90103,41.7114 8.66206,62.3137 2.19203,4.5988 8.15646,1.5164 12.09346,1.4911 3.74241,-0.3361 8.85226,-0.6828 8.90471,-5.6332 5.80551,-19.689 11.21316,-39.602 14.75492,-59.8289 0.0965,-5.194 -6.56527,-4.2355 -10.00998,-4.8393 -0.68501,0.1842 -1.37002,0.3683 -2.05503,0.5524 z"
         style="color:#000000;display:inline;overflow:visible;visibility:visible;fill:#da67a2;fill-opacity:1;fill-rule:nonzero;stroke:#000000;stroke-width:0.21213204;stroke-linecap:butt;stroke-linejoin:miter;stroke-miterlimit:4;stroke-dasharray:none;stroke-dashoffset:0;stroke-opacity:0;marker:none;enable-background:accumulate" />
      <path
         inkscape:connector-curvature="0"
         id="path4973"
         d="m -602.35832,1007.4635 c -7.74752,1.9166 -15.93623,0.087 -23.64389,1.8562 -5.4589,2.9018 -3.02239,10.4621 -3.62392,15.3796 -0.10142,17.4951 -2.83966,34.8755 -4.15425,52.2817 1.93646,4.9054 8.48636,2.7808 12.55111,3.3927 8.27992,-0.2936 16.79599,0.6606 24.92268,-0.4896 2.77452,-1.8674 1.8539,-6.4987 0.93095,-9.2671 -5.07267,-2.3363 -11.19074,-0.7927 -16.63641,-1.7191 -3.28794,-0.4221 -8.03499,-0.4479 -9.51167,-3.7158 0.58657,-6.0693 0.10334,-12.3918 1.46563,-18.2753 4.01489,-1.2722 11.19174,0.103 12.30808,-5.3474 0.85701,-3.7688 -0.70281,-8.0349 -5.29186,-7.4612 -2.69132,-0.8456 -7.85498,0.3042 -6.61847,-3.9851 0.15047,-3.7245 -0.36794,-8.1453 0.59662,-11.4905 6.29098,-0.179 12.62086,1.952 18.80462,1.3258 2.54847,-3.052 1.50008,-7.9735 0.64244,-11.5083 -0.91714,-0.3265 -1.66864,-1.3108 -2.74166,-0.9766 z"
         style="color:#000000;display:inline;overflow:visible;visibility:visible;fill:#da67a2;fill-opacity:1;fill-rule:nonzero;stroke:#000000;stroke-width:0.21213204;stroke-linecap:butt;stroke-linejoin:miter;stroke-miterlimit:4;stroke-dasharray:none;stroke-dashoffset:0;stroke-opacity:0;marker:none;enable-background:accumulate" />
      <path
         inkscape:connector-curvature="0"
         id="path4949"
         d="m -735.16723,899.58325 c -6.55741,0.18498 -12.62767,3.98111 -16.39685,9.24564 -3.28336,4.47922 -5.19525,9.80517 -6.73529,15.09368 -0.93952,3.26779 -1.64259,7.08149 0.38745,10.10591 2.37749,3.49833 6.13152,5.74013 9.78819,7.7122 5.33443,2.68934 11.32175,4.26758 17.32593,3.84293 6.01876,-0.0561 11.8433,-2.26107 16.89562,-5.42518 3.7086,-2.41332 4.91022,-6.94081 6.18361,-10.90152 1.13635,-3.78798 1.26521,-7.85898 0.67541,-11.75292 -1.92954,-7.34649 -8.0931,-12.9881 -14.9763,-15.78285 -4.15887,-1.72589 -8.68024,-2.19465 -13.14777,-2.13789 z m 1.25954,11.30818 c 4.59835,-0.0368 9.0428,1.68125 13.16986,3.62393 2.23527,1.13465 4.50464,2.68478 5.62923,4.98841 0.46526,2.202 -0.405,4.41872 -0.82311,6.56836 -0.74756,2.63584 -3.00894,4.54956 -5.14862,6.06565 -3.04823,2.19408 -6.99213,1.89503 -10.55136,1.99426 -3.95005,-0.0403 -8.24926,-0.22255 -11.55678,-2.62955 -2.5148,-1.65057 -4.26695,-4.35821 -5.06576,-7.20917 0.29755,-2.18847 1.41047,-4.20051 2.35334,-6.17614 1.29228,-2.26303 2.69287,-4.7329 5.02709,-6.08222 2.21524,-0.83846 4.62528,-1.06341 6.96611,-1.14353 z"
         style="color:#000000;display:inline;overflow:visible;visibility:visible;fill:#dfab1b;fill-opacity:1;fill-rule:nonzero;stroke:#000000;stroke-width:0.05303301;stroke-linecap:butt;stroke-linejoin:miter;stroke-miterlimit:4;stroke-dasharray:none;stroke-dashoffset:0;stroke-opacity:0;marker:none;enable-background:accumulate" />
      <path
         inkscape:connector-curvature="0"
         id="path4951"
         d="m -712.015,891.42942 c -2.28891,-0.11225 -4.47007,1.80464 -4.33103,4.16531 0.18621,2.06156 0.88075,4.33327 2.50249,5.72867 1.8048,1.45788 4.4064,0.69409 5.87783,-0.9557 1.69813,-1.50023 2.40385,-4.10873 1.19876,-6.12642 -0.96264,-1.94303 -3.13668,-2.94574 -5.24805,-2.81186 z"
         style="color:#000000;display:inline;overflow:visible;visibility:visible;fill:#dfab1b;fill-opacity:1;fill-rule:nonzero;stroke:#000000;stroke-width:0.05303301;stroke-linecap:butt;stroke-linejoin:miter;stroke-miterlimit:4;stroke-dasharray:none;stroke-dashoffset:0;stroke-opacity:0;marker:none;enable-background:accumulate" />
      <path
         inkscape:connector-curvature="0"
         id="path4953"
         d="m -734.98493,847.00876 c -3.79952,-0.0709 -7.68727,0.99095 -10.57287,3.55269 -6.15201,5.37097 -10.27295,13.29917 -10.29783,21.5496 -0.0131,2.8052 0.37438,5.68138 1.30717,8.30652 0.90472,2.02226 3.4542,2.08564 5.35511,2.36084 11.88228,0.16639 23.80888,-0.0633 35.66832,-0.99501 2.08866,-0.2426 4.82159,-0.0727 5.97916,-2.23116 1.209,-2.48831 0.59834,-5.38161 0.39878,-8.02551 -0.74058,-5.29528 -1.77064,-10.64675 -4.00613,-15.52998 -2.47998,-4.23041 -7.29834,-6.34261 -11.84956,-7.52406 -3.90961,-0.97675 -7.95131,-1.49201 -11.98215,-1.46393 z m 3.36428,7.68426 c 3.16229,0.64092 6.05202,2.11073 8.9217,3.5521 2.78063,1.37521 3.47306,4.81955 3.65068,7.63978 0.0852,1.9858 -0.11076,3.98544 -0.57918,5.91679 -3.18988,0.11258 -6.327,0.8124 -9.51832,0.77892 -4.23618,0.1465 -8.48995,-0.0836 -12.68646,-0.59479 -1.01371,0.11458 -0.63527,-0.98223 -0.61599,-1.61492 0.62283,-4.17177 1.69416,-8.33405 3.57421,-12.12025 2.1321,-1.55238 4.67235,-2.8421 7.25336,-3.55763 z"
         style="color:#000000;display:inline;overflow:visible;visibility:visible;fill:#dfab1b;fill-opacity:1;fill-rule:nonzero;stroke:#000000;stroke-width:0.05303301;stroke-linecap:butt;stroke-linejoin:miter;stroke-miterlimit:4;stroke-dasharray:none;stroke-dashoffset:0;stroke-opacity:0;marker:none;enable-background:accumulate" />
      <path
         inkscape:connector-curvature="0"
         id="path4955"
         d="m -713.7662,837.69483 c -2.40751,0.13169 -3.79821,2.64719 -3.64049,4.85584 -0.17534,2.71645 1.18401,5.88673 4.06058,6.53389 2.34604,0.5894 4.61687,-1.53424 4.53518,-3.87119 0.18547,-2.74604 -0.60794,-6.15813 -3.40847,-7.31414 -0.49314,-0.18372 -1.02349,-0.24245 -1.5468,-0.2044 z"
         style="color:#000000;display:inline;overflow:visible;visibility:visible;fill:#dfab1b;fill-opacity:1;fill-rule:nonzero;stroke:#000000;stroke-width:0.05303301;stroke-linecap:butt;stroke-linejoin:miter;stroke-miterlimit:4;stroke-dasharray:none;stroke-dashoffset:0;stroke-opacity:0;marker:none;enable-background:accumulate" />
      <path
         inkscape:connector-curvature="0"
         id="path4957"
         d="m -729.36122,791.75499 c -5.41411,0.10968 -10.65786,2.68346 -14.24709,6.73409 -4.32349,4.77959 -7.18308,11.02037 -7.65112,17.46222 -4.5e-4,2.79244 -0.35962,5.73509 0.64634,8.40242 0.6713,1.74032 2.63908,2.09616 4.29698,1.99252 9.33896,0.35872 18.6809,0.51845 27.98686,1.21708 2.3772,0.42711 4.81603,-0.18577 7.20626,-0.32068 2.25779,-0.2891 5.30292,-0.28059 6.30611,-2.74529 0.73433,-2.76965 0.33418,-5.69865 0.28174,-8.52948 -0.18229,-4.39665 -0.82628,-8.93341 -3.19439,-12.74764 -4.38658,-7.39663 -13.08305,-11.86733 -21.63169,-11.46524 z m 3.57421,8.5571 c 1.33617,-0.0696 2.79637,-0.0894 3.80149,0.96008 3.6587,3.05035 6.87256,7.1269 7.41016,11.99808 0.18512,1.1866 0.29672,2.38569 0.41141,3.58151 -7.09821,0.16663 -14.22167,0.23764 -21.29606,-0.32041 -0.87519,-0.1735 -2.05569,-0.14403 -2.73452,-0.70711 -0.54537,-2.10785 0.0114,-4.37212 0.27069,-6.47997 0.17731,-1.78309 1.17851,-3.40317 2.57691,-4.51196 2.20376,-1.86074 4.58836,-3.8434 7.47174,-4.46498 0.69455,-0.0543 1.39176,-0.0499 2.08818,-0.0552 z"
         style="color:#000000;display:inline;overflow:visible;visibility:visible;fill:#dfab1b;fill-opacity:1;fill-rule:nonzero;stroke:#000000;stroke-width:0.05303301;stroke-linecap:butt;stroke-linejoin:miter;stroke-miterlimit:4;stroke-dasharray:none;stroke-dashoffset:0;stroke-opacity:0;marker:none;enable-background:accumulate" />
      <path
         inkscape:connector-curvature="0"
         id="path4959"
         d="m -711.18636,782.39135 c -2.60696,0.48117 -3.31595,3.44886 -3.20408,5.72867 -0.0393,2.25206 1.30973,4.85145 3.81727,4.93317 2.38844,0.43295 5.29094,-0.73084 5.78944,-3.32561 0.54062,-3.06877 -1.88951,-5.87095 -4.51333,-7.09869 -0.60325,-0.25537 -1.24333,-0.30281 -1.8893,-0.23754 z"
         style="color:#000000;display:inline;overflow:visible;visibility:visible;fill:#dfab1b;fill-opacity:1;fill-rule:nonzero;stroke:#000000;stroke-width:0.05303301;stroke-linecap:butt;stroke-linejoin:miter;stroke-miterlimit:4;stroke-dasharray:none;stroke-dashoffset:0;stroke-opacity:0;marker:none;enable-background:accumulate" />
      <path
         inkscape:connector-curvature="0"
         id="path4939"
         d="m -568.87561,669.60162 c -3.22096,0.39142 -6.0746,2.14743 -8.96838,3.50045 -4.26648,2.27946 -8.64422,4.57728 -12.28902,7.76354 -4.80945,1.16782 -9.00887,3.95428 -13.37426,6.17614 -9.86862,5.29205 -20.24539,9.52735 -30.30253,14.42987 -7.51263,3.53064 -14.94995,7.29231 -22.7659,10.11781 -1.89426,0.55083 -3.52578,2.74236 -2.46532,4.66532 0.8285,2.12492 3.54062,2.29373 5.40099,1.57376 6.8436,-2.29715 13.41939,-5.40863 20.0906,-8.17621 13.30897,-5.73166 26.84456,-11.06852 40.1793,-16.7545 3.55933,-1.40215 7.14712,-2.71556 10.50412,-4.57231 5.96867,-3.14218 11.92486,-6.34326 17.62537,-9.9458 1.73948,-0.95996 2.99706,-3.23678 1.84774,-5.10114 -1.27723,-1.78183 -3.05524,-3.86406 -5.48271,-3.67693 z"
         style="color:#000000;display:inline;overflow:visible;visibility:visible;fill:#652226;fill-opacity:1;fill-rule:nonzero;stroke:#000000;stroke-width:0.05303301;stroke-linecap:butt;stroke-linejoin:miter;stroke-miterlimit:4;stroke-dasharray:none;stroke-dashoffset:0;stroke-opacity:0;marker:none;enable-background:accumulate" />
      <path
         inkscape:connector-curvature="0"
         id="path4941"
         d="m -659.94323,712.53074 c -4.32172,0.75521 -8.32252,2.91527 -11.72803,5.62923 -1.71513,1.31614 -1.54693,4.34216 0.47524,5.25393 2.12723,1.00338 4.38145,-0.35034 6.41905,-0.97814 2.55885,-1.06535 5.25289,-1.98707 7.52406,-3.60183 2.37194,-2.0765 0.60909,-6.7567 -2.69032,-6.30319 z"
         style="color:#000000;display:inline;overflow:visible;visibility:visible;fill:#652226;fill-opacity:1;fill-rule:nonzero;stroke:#000000;stroke-width:0.05303301;stroke-linecap:butt;stroke-linejoin:miter;stroke-miterlimit:4;stroke-dasharray:none;stroke-dashoffset:0;stroke-opacity:0;marker:none;enable-background:accumulate" />
      <path
         inkscape:connector-curvature="0"
         id="path4943"
         d="m -684.50966,722.2866 c -3.38141,0.45598 -6.43805,2.1961 -9.76139,2.87815 -2.64164,0.60858 -5.95873,1.40188 -6.89429,4.31998 -0.7759,2.03987 0.67824,4.63333 2.97244,4.59841 3.02446,-0.2825 5.84268,-1.60918 8.7173,-2.51497 2.45054,-1.00361 5.11649,-1.64989 7.3248,-3.14963 1.77829,-1.26634 2.07844,-4.26908 0.11788,-5.50818 -0.69097,-0.53536 -1.63526,-0.66725 -2.47674,-0.62376 z"
         style="color:#000000;display:inline;overflow:visible;visibility:visible;fill:#652226;fill-opacity:1;fill-rule:nonzero;stroke:#000000;stroke-width:0.05303301;stroke-linecap:butt;stroke-linejoin:miter;stroke-miterlimit:4;stroke-dasharray:none;stroke-dashoffset:0;stroke-opacity:0;marker:none;enable-background:accumulate" />
      <path
         inkscape:connector-curvature="0"
         id="path4945"
         d="m -746.80688,723.97703 c -2.62561,0.007 -5.38307,0.3202 -7.63454,1.77881 -1.94684,-0.62701 -4.5287,0.34656 -4.80362,2.57011 -0.48486,2.24097 1.67554,3.94375 3.64352,4.40152 6.58102,1.76677 13.37055,2.72259 20.14532,3.49289 4.01116,0.4956 8.09286,0.4286 12.06671,-0.28328 6.73787,-0.73238 13.55479,-0.42758 20.29618,-1.00542 2.03065,-0.147 4.29979,-1.57098 4.19202,-3.7837 -0.03,-2.53768 -2.71414,-4.17928 -5.06486,-3.94476 -9.51925,-0.20865 -19.04233,0.16517 -28.56048,0 -3.7782,-0.27853 -7.46402,-1.46987 -10.91044,-3.01625 -1.10358,-0.33577 -2.23568,-0.19764 -3.36981,-0.20992 z"
         style="color:#000000;display:inline;overflow:visible;visibility:visible;fill:#652226;fill-opacity:1;fill-rule:nonzero;stroke:#000000;stroke-width:0.05303301;stroke-linecap:butt;stroke-linejoin:miter;stroke-miterlimit:4;stroke-dasharray:none;stroke-dashoffset:0;stroke-opacity:0;marker:none;enable-background:accumulate" />
      <path
         inkscape:connector-curvature="0"
         id="path4947"
         d="m -907.49689,660.71307 c -2.6758,0.0406 -4.224,3.50955 -2.56327,5.55741 1.86409,2.22792 4.71696,3.27018 7.18064,4.68141 7.64642,3.8603 15.44597,7.56229 23.50117,10.433 7.39586,3.0165 14.73586,6.17164 22.14688,9.15685 17.8876,7.54028 35.49191,15.73905 53.34608,23.35765 7.01376,2.81696 14.21193,5.08499 21.15163,8.085 5.56263,2.23968 11.0396,4.73231 16.6748,6.79875 2.13646,0.81614 4.68362,-1.20627 4.15069,-3.48672 -0.43041,-2.32093 -2.97241,-3.16464 -4.71816,-4.31898 -3.41125,-1.98811 -7.00064,-3.7159 -10.1441,-6.12099 -1.20396,-0.572 -2.55022,-0.69817 -3.74908,-1.32595 -8.11413,-3.3344 -16.14649,-6.97871 -24.48547,-9.72811 -9.50285,-3.52136 -18.12212,-9.0716 -27.48278,-12.97814 -6.86686,-3.06728 -14.00865,-5.42904 -21.14738,-7.75998 -4.32089,-1.46063 -8.04988,-4.13114 -12.39677,-5.53601 -5.81941,-2.01752 -11.60166,-4.19205 -17.05865,-7.03723 -2.85316,-1.44431 -5.79975,-2.74203 -8.93472,-3.42571 -4.71982,-1.819 -9.16513,-4.45744 -13.94681,-6.17548 -0.49283,-0.1411 -1.01209,-0.21205 -1.5247,-0.17677 z"
         style="color:#000000;display:inline;overflow:visible;visibility:visible;fill:#652226;fill-opacity:1;fill-rule:nonzero;stroke:#000000;stroke-width:0.05303301;stroke-linecap:butt;stroke-linejoin:miter;stroke-miterlimit:4;stroke-dasharray:none;stroke-dashoffset:0;stroke-opacity:0;marker:none;enable-background:accumulate" />
      <path
         inkscape:connector-curvature="0"
         id="path4159"
         d="m -567.53421,678.65265 c -32.06186,15.24356 -64.80666,29.33014 -97.91491,42.07369 -10.99594,3.60159 -22.41361,7.17199 -32.36634,13.14506 -3.99773,8.92912 -1.74369,19.40646 -2.55918,28.93742 0.38497,62.23598 -0.0541,124.58128 -5.81582,186.59383 -0.56022,13.8421 -1.6404,27.87408 -1.20989,41.62327 3.64714,5.38588 10.07829,-2.796 14.60064,-3.9218 28.30159,-13.99629 54.80532,-31.17675 82.328,-46.35772 13.84465,-7.50855 27.72862,-15.65747 39.78125,-25.8125 2.50432,-11.13094 1.14861,-22.99945 1.85475,-34.40595 -0.26267,-16.5224 1.32083,-33.24287 -1.261,-49.6253 -3.09588,-4.9262 -10.54034,-1.57074 -15.55926,-2.04462 -11.98647,1.75958 -24.93202,4.98937 -36.50324,0.10712 -5.87801,-4.96519 -2.90695,-14.00495 -1.78125,-20.46875 1.8866,-11.89946 8.79396,-21.92817 17.45045,-29.94 14.57785,-14.5064 28.14862,-30.06213 42.12572,-44.90507 1.51889,-16.13809 1.30829,-32.77756 1.54883,-49.12368 0.0381,-2.78343 -1.09762,-6.62962 -4.71875,-5.875 z"
         style="color:#000000;display:inline;overflow:visible;visibility:visible;fill:#822931;fill-opacity:1;fill-rule:nonzero;stroke:#000000;stroke-width:0.30000001;stroke-linecap:butt;stroke-linejoin:miter;stroke-miterlimit:4;stroke-dasharray:none;stroke-dashoffset:0;stroke-opacity:0;marker:none;enable-background:accumulate" />
      <path
         inkscape:connector-curvature="0"
         id="path4161"
         d="m -757.87796,733.3714 c -2.65922,7.21008 -0.43486,15.66157 -1.22979,23.34349 0.43397,49.69669 -4.95379,99.17109 -6.53518,148.80544 -0.89883,27.7577 -4.87977,55.11196 -6.04753,82.81982 -0.89548,4.74624 1.9024,9.25119 7.27975,7.4217 18.92152,-0.59524 38.1991,-0.59505 56.71683,-4.41196 3.88619,-3.60668 1.1425,-10.5862 2.23589,-15.50733 0.16401,-14.97646 1.26504,-30.26404 1.53176,-44.99693 -5.18607,-4.42254 -6.99784,4.83675 -9.88923,7.83827 -5.19703,4.80718 -12.84069,6.87579 -19.875,6.59375 -8.27737,-1.49555 -17.11712,-4.68529 -22.84375,-10.875 -2.78209,-9.46678 2.78109,-19.27744 8.09375,-26.84375 7.21649,-9.2823 21.23599,-7.29886 30.62173,-2.85668 2.25789,0.36225 3.8536,3.9424 6.06577,5.91918 2.54742,2.6325 4.59911,10.29585 8.92627,6.46843 3.65393,-11.47667 1.55725,-24.24529 2.36122,-36.24933 1.6059,-47.98361 2.44537,-95.98788 2.46251,-144.00035 -2.17045,-5.83382 -10.27611,-1.79212 -15.03012,-2.86663 -14.52038,0.34795 -29.21833,0.28072 -43.58867,-0.95598 l -0.96254,0.27113 -0.29367,0.0827 z m 46.25,50.875 c 3.11528,0.44319 7.40947,6.02427 2.8125,7.71875 -2.43759,1.23695 -6.64833,1.99136 -5.03125,5.75 6.96092,7.11045 8.13065,17.65918 8.15625,27.125 -14.39997,0.97864 -29.09509,1.06616 -43.4375,-0.0312 -1.52826,-11.75474 2.04975,-26.55211 14.625,-30.625 5.42061,-2.69327 11.58451,-2.27884 16.9375,0.1875 6.35542,0.45685 2.5072,-8.38838 5.9375,-10.125 z m -2.21875,54.6875 c 4.02994,1.71118 4.82703,8.61349 0.375,10.4375 -2.59429,4.50781 3.32703,8.09463 3.15625,12.71875 1.26335,6.00684 2.28806,12.15299 1.59375,18.34375 -14.97311,1.52596 -30.25237,1.07231 -45.34375,1.6875 -0.81582,-9.36173 -0.71969,-20.19394 6.34375,-27.3125 3.23475,-4.22821 7.57932,-8.21596 13.375,-6.8125 5.23333,-0.44552 10.47502,1.68198 15.46875,0.96875 3.79796,-2.00441 1.52587,-8.10582 5.03125,-10.03125 z m 2.375,53.34375 c 4.59824,1.69927 3.28674,9.05884 -1.74664,8.95939 -2.45748,1.26233 -2.4698,-4.63239 -1.69086,-6.45939 0.68012,-1.28613 2.13134,-2.07097 3.4375,-2.5 z"
         style="color:#000000;display:inline;overflow:visible;visibility:visible;fill:#822931;fill-opacity:1;fill-rule:nonzero;stroke:#000000;stroke-width:0.30000001;stroke-linecap:butt;stroke-linejoin:miter;stroke-miterlimit:4;stroke-dasharray:none;stroke-dashoffset:0;stroke-opacity:0;marker:none;enable-background:accumulate" />
      <path
         inkscape:connector-curvature="0"
         id="path4163"
         d="m -916.06546,666.52765 c -3.25825,5.63486 -0.55308,13.1765 -1.4375,19.5625 0.33954,16.60748 -0.75425,33.54926 1.74475,49.91735 3.89068,4.04773 11.27918,0.85931 16.53647,1.89108 13.71284,0.25817 30.42816,-1.22685 40.09378,10.59782 4.83362,5.22246 2.01305,13.34893 -1.28125,18.625 -16.77266,19.75455 -38.91666,34.43749 -57.9685,51.94596 -2.92781,18.50318 -2.31461,37.7454 -3.65129,56.54617 -0.38357,17.78864 -3.05108,35.50034 -3.25521,53.25787 1.1724,8.4938 11.63383,9.1675 17.75,12.65625 28.9049,11.59926 57.86965,23.01454 87.64762,32.48087 14.0235,4.4998 27.65015,10.0474 41.32113,15.33163 7.06378,1.47041 8.39992,-7.32064 8.5625,-12.40625 6.42628,-54.19473 6.61238,-108.87836 10.58251,-163.27586 0.9646,-26.37717 3.31491,-52.90445 1.41749,-79.25539 -2.45002,-7.03935 -11.69825,-7.66864 -17.53125,-10.71875 -29.75324,-10.69237 -58.7147,-23.31585 -87.46875,-36.5 -16.03786,-6.30009 -31.4536,-14.18558 -47.5625,-20.21875 -1.84966,-0.48357 -3.60254,-1.09314 -5.5,-0.4375 z"
         style="color:#000000;display:inline;overflow:visible;visibility:visible;fill:#822931;fill-opacity:1;fill-rule:nonzero;stroke:#000000;stroke-width:0.30000001;stroke-linecap:butt;stroke-linejoin:miter;stroke-miterlimit:4;stroke-dasharray:none;stroke-dashoffset:0;stroke-opacity:0;marker:none;enable-background:accumulate" />
      <path
         inkscape:connector-curvature="0"
         id="path4165"
         d="m -736.12796,910.34015 c -16.58675,-0.78022 -15.42207,25.3243 0.625,24 7.92779,0.30466 19.53779,-0.12956 21.375,-9.9375 1.6894,-9.11047 -9.02824,-13.37601 -16.4375,-13.875 -1.842,-0.24579 -3.70817,-0.34839 -5.5625,-0.1875 z"
         style="color:#000000;display:inline;overflow:visible;visibility:visible;fill:#822931;fill-opacity:1;fill-rule:nonzero;stroke:#000000;stroke-width:0.30000001;stroke-linecap:butt;stroke-linejoin:miter;stroke-miterlimit:4;stroke-dasharray:none;stroke-dashoffset:0;stroke-opacity:0;marker:none;enable-background:accumulate" />
      <path
         inkscape:connector-curvature="0"
         id="path4167"
         d="m -733.19046,854.9964 c -7.26783,-0.0787 -11.01991,8.77503 -10.40625,14.90625 4.09788,5.74785 12.70862,2.84419 18.65046,2.86127 6.26398,0.71582 9.33004,-6.45419 6.44329,-11.39252 -2.34973,-5.52836 -9.42906,-6.4071 -14.6875,-6.375 z"
         style="color:#000000;display:inline;overflow:visible;visibility:visible;fill:#822931;fill-opacity:1;fill-rule:nonzero;stroke:#000000;stroke-width:0.30000001;stroke-linecap:butt;stroke-linejoin:miter;stroke-miterlimit:4;stroke-dasharray:none;stroke-dashoffset:0;stroke-opacity:0;marker:none;enable-background:accumulate" />
      <path
         inkscape:connector-curvature="0"
         id="path4169"
         d="m -726.78421,798.9339 c -5.75877,2.03788 -13.50726,7.00632 -12.375,14.09375 1.94796,6.70982 10.85953,4.73522 16.15601,5.70923 5.89581,1.43934 12.04681,-4.49504 8.18774,-10.08423 -2.63831,-4.05077 -6.57122,-9.71623 -11.96875,-9.71875 z"
         style="color:#000000;display:inline;overflow:visible;visibility:visible;fill:#822931;fill-opacity:1;fill-rule:nonzero;stroke:#000000;stroke-width:0.30000001;stroke-linecap:butt;stroke-linejoin:miter;stroke-miterlimit:4;stroke-dasharray:none;stroke-dashoffset:0;stroke-opacity:0;marker:none;enable-background:accumulate" />
      <g
         style="fill:#000000;fill-opacity:0"
         id="g3585">
        <path
           style="color:#000000;display:inline;overflow:visible;visibility:visible;fill:#000000;fill-opacity:0;fill-rule:nonzero;stroke:#000000;stroke-width:0.10606602;stroke-linecap:butt;stroke-linejoin:miter;stroke-miterlimit:4;stroke-dasharray:none;stroke-dashoffset:0;stroke-opacity:0;marker:none;enable-background:accumulate"
           d="m -593.67098,656.97359 c -4.27594,3.50388 -9.65281,5.43222 -14.21434,8.57914 -4.74571,2.809 -9.10094,6.10957 -13.32968,9.61782 -8.19154,4.1847 -15.24187,10.28905 -22.94279,15.28838 -8.50525,6.13175 -17.79557,11.05245 -26.41424,17.01269 -4.09237,3.07518 -8.47476,5.82022 -12.2386,9.2525 -1.87033,2.41105 0.95771,5.73427 3.69022,4.83926 6.67886,-0.84948 11.84542,-5.57871 18.08646,-7.6014 12.71631,-2.56741 24.03042,-9.15318 35.42163,-15.04811 7.27005,-2.79909 14.42289,-5.94991 21.26653,-9.6211 4.31064,-2.71476 9.05854,-4.78233 13.14969,-7.81351 4.16621,-3.61994 3.09232,-9.71803 3.28141,-14.61722 -0.0446,-3.40989 0.10261,-7.68416 -2.90051,-9.90618 -0.96673,-0.53168 -1.86729,-0.29998 -2.85578,0.0177 z"
           id="path3571"
           inkscape:connector-curvature="0" />
        <path
           style="color:#000000;display:inline;overflow:visible;visibility:visible;fill:#000000;fill-opacity:0;fill-rule:nonzero;stroke:#000000;stroke-width:0.10606602;stroke-linecap:butt;stroke-linejoin:miter;stroke-miterlimit:4;stroke-dasharray:none;stroke-dashoffset:0;stroke-opacity:0;marker:none;enable-background:accumulate"
           d="m -639.23517,645.96925 c -3.44953,0.18853 -5.05787,3.96975 -7.1904,6.16617 -8.84456,11.27476 -18.60395,21.87546 -26.74986,33.64789 -8.89407,11.85226 -18.10233,23.43157 -27.39021,34.95143 -1.62733,2.44165 0.99955,5.51002 3.67917,4.83926 5.53947,-1.42143 9.9116,-5.47214 14.99287,-7.9439 7.2216,-4.33791 13.42437,-10.11591 20.95116,-13.9681 3.58855,-1.83536 6.47608,-4.71533 10.19469,-6.29493 4.62556,-2.91792 9.57336,-5.62828 13.40188,-9.57909 1.53335,-3.57475 1.09438,-7.67577 1.50646,-11.48951 0.28878,-9.03976 1.0044,-18.1443 0.0956,-27.15829 -0.25772,-1.73502 -1.8189,-3.30824 -3.49134,-3.17093 z"
           id="path3573"
           inkscape:connector-curvature="0" />
        <path
           style="color:#000000;display:inline;overflow:visible;visibility:visible;fill:#000000;fill-opacity:0;fill-rule:nonzero;stroke:#000000;stroke-width:0.10606602;stroke-linecap:butt;stroke-linejoin:miter;stroke-miterlimit:4;stroke-dasharray:none;stroke-dashoffset:0;stroke-opacity:0;marker:none;enable-background:accumulate"
           d="m -685.39599,654.20041 c -2.90929,1.23032 -3.2714,5.11485 -4.46289,7.73927 -5.46433,16.75533 -10.13707,33.79351 -17.02652,49.97832 -2.11852,3.45015 -2.71794,7.51708 -4.30893,11.18113 -1.34696,2.88532 1.96044,6.21452 4.83926,4.66248 5.02952,-2.81719 8.5969,-7.61287 12.27437,-11.93265 3.91201,-5.26001 7.99941,-10.41159 11.55734,-15.89863 1.48842,-4.89981 0.97651,-10.20471 1.31864,-15.2907 0.1355,-9.35353 0.37532,-18.7417 -0.19169,-28.07483 -0.49974,-1.88809 -2.09777,-2.88569 -3.99958,-2.36439 z"
           id="path3575"
           inkscape:connector-curvature="0" />
        <path
           style="color:#000000;display:inline;overflow:visible;visibility:visible;fill:#000000;fill-opacity:0;fill-rule:nonzero;stroke:#000000;stroke-width:0.10606602;stroke-linecap:butt;stroke-linejoin:miter;stroke-miterlimit:4;stroke-dasharray:none;stroke-dashoffset:0;stroke-opacity:0;marker:none;enable-background:accumulate"
           d="m -740.71604,655.23897 c -2.74623,1.68925 -1.70466,5.42931 -2.12504,8.13126 -0.62186,18.60387 -0.86547,37.22785 -2.01817,55.80666 -0.1956,2.87694 0.37178,6.64111 3.72336,7.39148 5.5341,2.11136 11.45008,2.8199 17.34621,2.56499 2.7951,-0.34842 6.54886,1.09137 8.40795,-1.69216 0.7218,-3.06336 -1.39374,-5.94923 -1.99979,-8.87198 -6.42949,-20.45315 -12.32833,-41.1244 -19.00349,-61.51829 -0.68751,-1.63383 -2.58734,-2.62615 -4.33103,-1.81196 z"
           id="path3577"
           inkscape:connector-curvature="0" />
        <path
           style="color:#000000;display:inline;overflow:visible;visibility:visible;fill:#000000;fill-opacity:0;fill-rule:nonzero;stroke:#000000;stroke-width:0.10606602;stroke-linecap:butt;stroke-linejoin:miter;stroke-miterlimit:4;stroke-dasharray:none;stroke-dashoffset:0;stroke-opacity:0;marker:none;enable-background:accumulate"
           d="m -782.73365,651.38303 c -2.33736,1.93278 -1.77928,5.41935 -2.30678,8.11934 -0.56012,7.61723 -1.12289,15.31346 -0.57689,22.93812 0.98662,5.23761 4.9171,9.22968 7.62349,13.6339 6.37053,8.98564 12.62672,18.11139 19.81004,26.48336 3.0517,2.67692 7.84175,4.40203 11.68936,2.6185 2.76072,-1.6376 1.4994,-5.16029 0.3035,-7.40744 -5.61898,-12.11973 -12.15982,-23.78157 -18.54808,-35.51197 -2.7434,-5.2866 -4.33667,-11.08456 -7.52062,-16.1682 -2.85163,-4.2562 -4.43397,-9.1561 -6.35039,-13.83557 -0.8865,-1.15261 -2.65681,-1.731 -4.12363,-0.87004 z"
           id="path3579"
           inkscape:connector-curvature="0" />
        <path
           style="color:#000000;display:inline;overflow:visible;visibility:visible;fill:#000000;fill-opacity:0;fill-rule:nonzero;stroke:#000000;stroke-width:0.10606602;stroke-linecap:butt;stroke-linejoin:miter;stroke-miterlimit:4;stroke-dasharray:none;stroke-dashoffset:0;stroke-opacity:0;marker:none;enable-background:accumulate"
           d="m -822.48631,641.12998 c -1.67868,2.86226 -0.79147,6.44418 -1.31188,9.62276 -0.4301,9.09809 -1.12055,18.21941 -1.38164,27.30343 0.63057,2.92256 3.73815,4.43754 5.50959,6.69216 6.70927,6.49442 13.29731,13.23501 20.9162,18.66229 4.13127,2.86317 8.16113,5.93059 12.62523,8.30864 7.47124,4.21095 14.9519,8.51669 22.8185,11.94334 2.97214,0.99776 5.36201,-2.85743 3.3919,-5.19281 -7.2442,-11.56421 -16.99876,-21.41482 -23.39288,-33.47998 -3.14079,-5.80364 -7.29628,-10.9273 -11.49882,-15.93961 -7.36238,-9.35023 -15.65003,-17.90205 -22.91652,-27.33361 -1.14277,-1.56091 -3.2775,-1.86307 -4.75968,-0.58661 z"
           id="path3581"
           inkscape:connector-curvature="0" />
        <path
           style="color:#000000;display:inline;overflow:visible;visibility:visible;fill:#000000;fill-opacity:0;fill-rule:nonzero;stroke:#000000;stroke-width:0.10606602;stroke-linecap:butt;stroke-linejoin:miter;stroke-miterlimit:4;stroke-dasharray:none;stroke-dashoffset:0;stroke-opacity:0;marker:none;enable-background:accumulate"
           d="m -870.88998,641.78185 c -2.91431,1.81114 -2.01702,5.81651 -2.37544,8.7173 -0.0319,7.38307 -0.4699,14.81927 0.25412,22.17442 0.45867,4.24461 5.17122,5.16453 8.31672,6.75089 6.27519,2.72949 12.37523,6.25664 19.21874,7.22551 4.75052,1.34415 9.77125,2.13209 14.21698,4.33104 3.47303,2.44843 6.41968,5.65699 10.51822,7.07107 5.54049,2.80244 11.03135,6.62207 17.39821,6.96806 2.88379,-0.27926 3.63297,-4.20897 1.43955,-5.87426 -9.64579,-8.86571 -18.93272,-18.14695 -28.48314,-27.09102 -6.68992,-5.9416 -13.89743,-11.33743 -20.40739,-17.51247 -5.51275,-4.91508 -11.15936,-10.04372 -18.0084,-12.99256 -0.71296,-0.24159 -1.39404,0.0992 -2.08817,0.23202 z"
           id="path3583"
           inkscape:connector-curvature="0" />
      </g>
      <path
         inkscape:connector-curvature="0"
         id="path3549"
         d="m -723.01406,687.63837 c -3.60941,0.17959 -4.91004,4.44186 -3.81174,7.40253 1.58286,4.42377 2.90034,8.90968 3.91118,13.50132 0.57878,3.41211 3.99335,5.5127 7.29204,5.07128 2.75463,0.28504 6.34495,-0.72329 6.72856,-3.92223 0.52319,-5.74869 -2.24809,-11.21126 -5.06023,-16.04249 -2.01214,-3.02312 -5.1832,-6.08416 -9.05981,-6.01041 z"
         style="color:#000000;display:inline;overflow:visible;visibility:visible;fill:#fce953;fill-opacity:1;fill-rule:nonzero;stroke:#000000;stroke-width:0.10606602;stroke-linecap:butt;stroke-linejoin:miter;stroke-miterlimit:4;stroke-dasharray:none;stroke-dashoffset:0;stroke-opacity:0;marker:none;enable-background:accumulate" />
      <path
         inkscape:connector-curvature="0"
         id="path3551"
         d="m -700.96116,687.87039 c -3.74452,0.68456 -7.39001,2.49087 -9.34852,5.90712 -1.69965,1.82099 -3.10858,4.2869 -1.71739,6.72265 1.08642,2.93641 1.50783,6.07115 2.38817,9.03047 1.32707,2.65352 4.95869,1.40748 5.98743,-0.91436 3.54379,-4.32129 4.30292,-10.08824 6.11535,-15.2216 1.23428,-2.6669 -0.32238,-5.87007 -3.42504,-5.52428 z"
         style="color:#000000;display:inline;overflow:visible;visibility:visible;fill:#fce953;fill-opacity:1;fill-rule:nonzero;stroke:#000000;stroke-width:0.10606602;stroke-linecap:butt;stroke-linejoin:miter;stroke-miterlimit:4;stroke-dasharray:none;stroke-dashoffset:0;stroke-opacity:0;marker:none;enable-background:accumulate" />
      <path
         inkscape:connector-curvature="0"
         id="path3553"
         d="m -746.37068,691.75948 c -4.12096,4.00886 -7.79065,9.77162 -6.06565,15.75522 0.93108,3.16679 2.16619,6.46753 4.39732,8.93828 2.44224,1.74391 5.22901,-0.83327 5.15967,-3.414 0.83065,-6.4318 1.30217,-12.99287 1.11235,-19.44698 -0.27029,-2.13729 -2.90441,-2.95936 -4.60369,-1.83252 z"
         style="color:#000000;display:inline;overflow:visible;visibility:visible;fill:#fce953;fill-opacity:1;fill-rule:nonzero;stroke:#000000;stroke-width:0.10606602;stroke-linecap:butt;stroke-linejoin:miter;stroke-miterlimit:4;stroke-dasharray:none;stroke-dashoffset:0;stroke-opacity:0;marker:none;enable-background:accumulate" />
      <path
         inkscape:connector-curvature="0"
         id="path3543"
         d="m -754.77455,651.36339 c -7.14452,0.93355 -16.92389,1.30768 -20.625,8.5 0.14237,7.43454 5.59029,13.89144 8.13471,20.73818 3.99308,6.30494 5.92123,15.17134 12.80279,18.98057 5.41531,-0.43031 7.41536,-7.42381 11.36375,-10.50121 3.55927,-6.08236 0.56931,-13.99874 1.51125,-20.87379 -0.45972,-5.0718 3.19698,-12.30135 -3.03125,-15.125 -3.0562,-1.73224 -6.72771,-1.77934 -10.15625,-1.71875 z"
         style="color:#000000;display:inline;overflow:visible;visibility:visible;fill:#c692dd;fill-opacity:1;fill-rule:nonzero;stroke:#000000;stroke-width:0.30000001;stroke-linecap:butt;stroke-linejoin:miter;stroke-miterlimit:4;stroke-dasharray:none;stroke-dashoffset:0;stroke-opacity:0;marker:none;enable-background:accumulate" />
      <path
         inkscape:connector-curvature="0"
         id="path3545"
         d="m -736.52455,652.92589 c -4.29987,3.99939 0.89972,10.10036 1.40625,14.8125 2.94567,7.35987 3.66241,17.78946 12.5,20.6875 4.87749,1.84905 9.50609,10.22956 14.57534,4.2464 3.7665,-4.82229 12.02136,-3.8059 13.70591,-10.40265 2.58224,-8.31316 6.21127,-16.83203 6.21875,-25.59375 -3.30465,-5.13272 -10.14373,-0.32619 -14.4375,1 -4.58162,1.14545 -9.03076,7.52376 -13.25,3 -6.46277,-3.06332 -13.09693,-7.699 -20.34901,-7.83598 l -0.36974,0.086 z"
         style="color:#000000;display:inline;overflow:visible;visibility:visible;fill:#c692dd;fill-opacity:1;fill-rule:nonzero;stroke:#000000;stroke-width:0.30000001;stroke-linecap:butt;stroke-linejoin:miter;stroke-miterlimit:4;stroke-dasharray:none;stroke-dashoffset:0;stroke-opacity:0;marker:none;enable-background:accumulate" />
      <path
         inkscape:connector-curvature="0"
         id="path3547"
         d="m -677.21205,654.39464 c -7.12729,0.5561 -4.66801,9.47979 -5.43158,14.24807 0.27606,8.1917 -1.60043,16.91298 0.55272,24.83893 4.87279,4.04251 7.81139,-4.60382 10.77676,-7.24079 4.73512,-7.57127 12.71596,-13.72626 14.63335,-22.72121 -1.15514,-6.63068 -9.81999,-6.53741 -14.875,-8.5 -1.85083,-0.41183 -3.75352,-0.74796 -5.65625,-0.625 z"
         style="color:#000000;display:inline;overflow:visible;visibility:visible;fill:#c692dd;fill-opacity:1;fill-rule:nonzero;stroke:#000000;stroke-width:0.30000001;stroke-linecap:butt;stroke-linejoin:miter;stroke-miterlimit:4;stroke-dasharray:none;stroke-dashoffset:0;stroke-opacity:0;marker:none;enable-background:accumulate" />
      <path
         inkscape:connector-curvature="0"
         id="path3537"
         d="m -561.89955,735.33214 c -10.17545,1.44362 -15.48597,12.12042 -22.32627,18.65783 -9.32018,12.0213 -21.57157,21.24124 -31.36123,32.84217 -6.70414,10.9324 -11.74934,23.90784 -10.75,36.90625 1.76508,8.54285 12.74852,8.51853 19.71875,8.625 11.83853,-0.32078 23.33528,-5.24416 35.1875,-3.375 1.9205,4.11971 0.92437,10.75293 1.78125,15.6875 0.90415,6.64353 -0.11309,13.74485 1.71875,20.15625 4.80168,4.36675 9.26631,-3.39598 12.5625,-6.15625 11.49682,-12.12826 22.21249,-25.70624 26.75,-42 6.24878,-16.8931 7.60346,-36.44208 -1.09375,-52.71875 -4.59341,-11.00977 -11.3149,-22.06333 -23.0625,-26.4375 -2.86048,-1.25203 -5.94591,-2.42682 -9.125,-2.1875 z"
         style="color:#000000;display:inline;overflow:visible;visibility:visible;fill:#7a11bf;fill-opacity:1;fill-rule:nonzero;stroke:#000000;stroke-width:0.30000001;stroke-linecap:butt;stroke-linejoin:miter;stroke-miterlimit:4;stroke-dasharray:none;stroke-dashoffset:0;stroke-opacity:0;marker:none;enable-background:accumulate" />
      <path
         inkscape:connector-curvature="0"
         id="path3539"
         d="m -818.58705,592.95714 c -4.40569,4.38143 1.50313,10.35203 2.5,15.15625 -1.34191,0.62118 -5.97553,-4.20566 -8.65625,-5.6875 -2.2782,-2.84985 -8.42759,-3.24935 -7.71875,1.65625 3.72108,5.69766 9.17016,10.36716 12.42849,16.55528 3.1119,5.90042 8.14501,11.56348 9.35276,18.16347 -1.26694,4.29958 -6.88273,9.07207 -1.34168,12.73058 7.68836,8.43844 14.81717,17.73968 22.82985,25.62289 5.92355,1.78405 4.57289,-7.07288 5.41808,-10.82222 0.55445,-7.00539 0.63042,-14.03828 0.59375,-21.0625 1.6792,4.46942 3.40952,13.48916 10.21875,11.28125 9.25425,-5.26248 20.22478,-2.89931 30.09375,-5.40625 2.48266,-3.66128 3.99202,1.54142 7.15625,1.75 8.09741,2.3725 15.53317,8.44283 24.15625,8.28125 7.85246,-2.31543 15.18291,-6.12883 23.34375,-7.25 3.2052,-0.35752 4.92837,-5.39449 5.8125,-6.34375 -1.06384,8.19783 8.94788,6.89846 14.21352,9.1114 5.48948,0.51023 9.81463,5.49296 15.25523,5.10735 5.9416,-4.49014 9.74768,-13.63216 14.75,-17.625 2.43031,12.06145 -0.0535,24.89214 2.90625,36.84375 3.65875,5.58129 9.73383,-1.54537 12.81498,-4.1329 5.02214,-4.40152 -1.70454,-10.65609 -2.40873,-15.8671 -5.92688,-14.74459 -0.62832,-31.1327 8.31188,-43.45221 2.11891,-3.07776 7.4254,-9.50716 1.21937,-11.26654 -4.31875,0.95864 -7.86946,3.97523 -11.78125,5.90625 2.94908,-4.52696 7.98749,-8.04967 9.3125,-13.4375 -1.24749,-5.83907 -7.56596,-1.74825 -9.8125,1.0625 -11.17223,11.19837 -22.97155,22.37416 -31.25,35.9375 -9.41961,-7.18885 -19.37038,-14.14273 -31.21152,-16.64972 -16.81191,-5.30124 -34.88607,-2.8707 -52.25723,-2.60028 -13.11521,0.49733 -25.42822,5.16857 -38.03125,8.28125 -12.77216,-9.35378 -22.90914,-22.75064 -35.9375,-32 -0.76042,0.0521 -1.52084,0.10417 -2.28125,0.15625 z"
         style="color:#000000;display:inline;overflow:visible;visibility:visible;fill:#7a11bf;fill-opacity:1;fill-rule:nonzero;stroke:#000000;stroke-width:0.30000001;stroke-linecap:butt;stroke-linejoin:miter;stroke-miterlimit:4;stroke-dasharray:none;stroke-dashoffset:0;stroke-opacity:0;marker:none;enable-background:accumulate" />
      <path
         inkscape:connector-curvature="0"
         id="path3541"
         d="m -899.39955,736.89464 c -11.43063,0.30165 -25.64989,-0.82437 -33.03125,9.90625 -9.23773,11.14005 -13.46929,25.58772 -16.75,39.4375 -0.20759,15.08385 2.19038,30.41492 7.0625,44.65625 4.6577,7.22751 9.11094,15.37916 16.125,20.53125 6.19787,1.21458 4.89023,-7.49242 5.75436,-11.21393 0.8302,-7.27796 1.04579,-14.87049 1.77689,-22.00482 17.70709,-11.30522 33.03685,-25.96136 48.6875,-39.84375 8.113,-6.88579 17.1339,-17.79045 13.15625,-29.125 -6.98718,-10.70994 -20.60653,-12.81066 -32.43746,-12.35309 -3.44781,-0.0447 -6.89597,-0.0193 -10.34379,0.009 z"
         style="color:#000000;display:inline;overflow:visible;visibility:visible;fill:#7a11bf;fill-opacity:1;fill-rule:nonzero;stroke:#000000;stroke-width:0.30000001;stroke-linecap:butt;stroke-linejoin:miter;stroke-miterlimit:4;stroke-dasharray:none;stroke-dashoffset:0;stroke-opacity:0;marker:none;enable-background:accumulate" />
      <path
         inkscape:connector-curvature="0"
         id="path3193"
         d="m -846.52354,1088.3921 c -1.60238,-0.9132 -8.19772,-2.3554 -11.5,-2.5148 -1.37597,-0.066 -1.93596,-0.7205 -1.79474,-2.0965 0.1129,-1.1 0.42224,-8.75 0.68743,-17 1.01414,-31.5502 1.77598,-49.0497 2.19214,-50.3537 0.24084,-0.7547 1.11792,-1.0906 1.9819,-0.7591 0.85243,0.3272 4.23139,-0.3086 7.50881,-1.4126 5.12379,-1.7261 6.83247,-1.8651 12.1917,-0.992 9.29083,1.5136 11.07941,2.1932 15.67608,5.9563 6.85095,5.6085 8.52303,11.2412 6.01628,20.267 -1.45526,5.2398 -9.05556,12.56 -14.57261,14.0356 -2.41285,0.6453 -4.38699,1.6 -4.38699,2.1215 0,1.2017 4.90843,7.7614 6.95489,9.2946 0.84981,0.6367 3.34511,3.6718 5.54511,6.7447 2.2,3.0728 4.51002,5.5894 5.13337,5.5924 1.66766,0.01 2.36252,3.7638 0.91809,4.9626 -0.68314,0.567 -2.77419,1.3218 -4.64677,1.6775 -1.87258,0.3556 -3.85469,0.9894 -4.40469,1.4084 -2.23704,1.7039 -5.76967,1.4397 -6.87997,-0.5147 -3.09932,-5.4555 -10.84804,-16.6338 -11.25106,-16.2308 -0.25318,0.2532 -0.55227,4.8964 -0.66465,10.3183 -0.21219,10.2376 -0.91441,11.655 -4.70432,9.4953 z m 0.61956,-16.5211 c 0.25944,-10.1289 0.93856,-12.6475 3.38044,-12.5369 0.58541,0.026 4.77612,5.7376 10.73408,14.6284 3.85785,5.7569 4.54651,6.3183 7.75,6.3183 1.93376,0 3.51592,-0.3336 3.51592,-0.7413 0,-1.555 -7.26574,-11.2028 -9.57757,-12.7176 -1.33234,-0.8729 -2.42243,-2.1562 -2.42243,-2.8517 0,-0.6955 -2.24719,-3.478 -4.99375,-6.1832 -2.74656,-2.7053 -4.62616,-5.2863 -4.17688,-5.7356 0.44927,-0.4492 2.58396,-1.0319 4.74375,-1.2948 10.19934,-1.2413 12.99804,-2.7779 17.67688,-9.7052 1.99132,-2.9483 2.75,-5.3154 2.75,-8.5801 0,-4.0904 -0.43403,-4.907 -4.67999,-8.8053 -4.89713,-4.496 -10.32599,-6.3852 -18.34899,-6.3852 -4.83801,0 -11.70767,2.6394 -12.95999,4.9794 -0.51185,0.9564 -1.26225,12.7148 -1.66755,26.1298 -1.03008,34.0935 -1.03822,33.4298 0.40652,33.1408 0.6875,-0.1375 1.25,0.2285 1.25,0.8134 0,0.5934 1.40097,0.9248 3.17006,0.75 l 3.17005,-0.3134 0.27945,-10.9098 z m -0.40295,-27.1676 c -0.92637,-1.6553 0.54846,-18.5054 1.72723,-19.7337 0.42814,-0.4461 3.24495,-1.0116 6.25957,-1.2567 4.51604,-0.367 6.07664,-0.044 8.86315,1.8337 4.45337,3.0011 6.43085,6.6161 5.54654,10.1395 -0.79137,3.1531 -5.18445,7.9776 -6.51525,7.1551 -0.48696,-0.301 -2.39569,0.064 -4.24162,0.8122 -5.53069,2.2402 -10.71195,2.7075 -11.63962,1.0499 z m 12.84016,-5.0444 c 3.64165,-0.7408 6.3803,-4.4257 5.45529,-7.3402 -0.73689,-2.3217 -5.3349,-5.038 -8.52814,-5.038 -4.11579,0 -5.76405,1.766 -6.47535,6.9377 -0.84326,6.1313 -0.13721,7.4336 3.60985,6.6584 1.58487,-0.3278 4.25713,-0.8759 5.93835,-1.2179 z m -81.03206,47.5997 c -1.91141,-0.4496 -3.80414,-0.6142 -4.20607,-0.3658 -0.40193,0.2484 -1.50093,-0.7238 -2.44223,-2.1604 -1.53705,-2.3458 -1.57808,-3.2917 -0.40264,-9.2818 0.71985,-3.6685 2.31912,-9.8199 3.55392,-13.6699 1.2348,-3.85 2.55738,-8.575 2.93905,-10.5 0.38168,-1.925 2.42143,-8.675 4.53279,-15 2.11136,-6.325 4.31474,-14.1135 4.8964,-17.3079 0.58166,-3.1943 1.34902,-6.2794 1.70524,-6.8558 0.43119,-0.6977 3.19657,-0.7805 8.27325,-0.248 4.19407,0.44 9.65058,0.8252 12.12558,0.8559 5.43754,0.068 6.30537,0.5722 8.33409,4.8474 1.6434,3.4632 2.45759,9.4816 3.18011,23.5067 0.23513,4.5641 0.65428,8.6653 0.93145,9.1138 0.27717,0.4484 0.97443,4.8142 1.54947,9.7016 0.57504,4.8875 2.09001,12.0363 3.36661,15.8863 3.07902,9.2858 2.47833,10.2407 -6.47376,10.2907 -4.01217,0.022 -7.16149,-0.4379 -7.70569,-1.1264 -1.16968,-1.4797 -2.74997,-8.7931 -4.2651,-19.7385 -1.48316,-10.7144 -2.39411,-12.039 -8.42948,-12.257 l -4.67307,-0.1688 -1.88795,7.5 c -1.96179,7.7933 -4.04208,15.1275 -6.59467,23.25 -1.58734,5.051 -1.96373,5.2199 -8.3073,3.7279 z m 6.08881,-10.8444 c 0.89199,-3.4115 1.63476,-6.4314 1.65059,-6.711 0.0158,-0.2795 0.47194,-1.7265 1.01357,-3.2154 0.54163,-1.4889 1.75083,-6.1913 2.6871,-10.4497 0.93627,-4.2584 2.03402,-7.9476 2.43944,-8.1982 1.45057,-0.8965 17.34294,2.2222 18.1974,3.571 0.47727,0.7534 0.90907,2.2698 0.95958,3.3698 0.0505,1.1 0.28736,2.9 0.52635,4 0.23898,1.1 0.89627,5.817 1.46063,10.4822 1.13054,9.3455 2.94207,13.2805 5.70381,12.3897 0.9614,-0.31 2.27195,-0.7167 2.91232,-0.9036 0.84299,-0.246 0.64597,-2.3632 -0.71388,-7.6714 -1.90087,-7.4202 -3.68424,-20.5101 -4.53637,-33.2969 -0.51668,-7.7531 -2.26395,-19.6832 -2.98896,-20.4082 -0.25621,-0.2562 -1.24417,-0.5787 -2.19547,-0.7165 -13.11906,-1.9014 -16.41563,-2.2411 -17.54422,-1.8081 -0.73159,0.2808 -2.12179,3.3055 -3.08932,6.7216 -0.96754,3.4162 -3.11215,10.4862 -4.7658,15.7112 -1.65365,5.225 -4.07261,13.55 -5.37547,18.5 -1.30285,4.95 -3.23684,12.263 -4.29775,16.251 l -1.92892,7.251 3.13592,0.9039 c 1.72476,0.4971 3.58406,0.7973 4.13178,0.6671 0.54772,-0.1303 1.72567,-3.0281 2.61767,-6.4395 z m 13.08945,-33.2425 c -4.18902,-1.2357 -4.61811,-2.4629 -2.73111,-7.8112 0.84048,-2.3822 1.52814,-5.3731 1.52814,-6.6465 0,-1.2734 0.37888,-2.5494 0.84196,-2.8356 1.54707,-0.9562 12.64941,-2.4246 13.28072,-1.7566 0.34247,0.3624 0.88145,4.5736 1.19774,9.3581 0.6392,9.6695 0.97029,9.1763 -6.82042,10.1595 -2.2,0.2777 -5.48366,0.067 -7.29703,-0.4677 z m 8.44397,-3.6563 c 1.24938,-0.8003 1.64629,-2.9588 1.46821,-7.9847 -0.0988,-2.789 -0.47772,-3.25 -2.67138,-3.25 -2.08208,0 -2.93967,0.8668 -4.6234,4.6732 -1.9884,4.4951 -1.99803,4.7237 -0.25264,6 2.00863,1.4687 4.3284,1.683 6.07921,0.5615 z m 84.85306,46.4052 c -8.1803,-3.6743 -13.24841,-13.4592 -12.13112,-23.4215 2.23973,-19.9703 6.62297,-32.4098 14.61195,-41.4684 4.17466,-4.7336 8.17435,-6.1762 10.56917,-3.8122 0.59242,0.5848 3.01506,0.2361 6.4363,-0.9263 6.93221,-2.3554 8.44569,-1.4553 7.41449,4.4099 -0.78969,4.4915 -1.19042,7.3636 -1.31746,9.4422 -0.0634,1.0379 -1.12758,1.2069 -4.45641,0.7077 -3.78885,-0.5682 -4.78861,-0.3061 -7.48354,1.9615 -3.75,3.1554 -5.88415,9.6424 -6.69822,20.36 -0.67794,8.9254 1.19963,13.9423 5.81722,15.5439 2.45481,0.8514 3.07225,0.5869 5.54542,-2.3755 2.56347,-3.0707 2.95785,-3.2245 4.99879,-1.9499 1.21867,0.7611 2.46621,2.1729 2.77231,3.1373 0.3061,0.9644 1.42607,2.2189 2.48882,2.7877 2.75163,1.4726 2.38903,4.4344 -0.79858,6.523 -1.50198,0.9842 -3.41448,2.5832 -4.25,3.5534 -4.78294,5.5542 -17.0439,8.4356 -23.51914,5.5272 z m 15.28903,-5.2861 c 0.74461,-0.7446 1.94327,-1.3538 2.66371,-1.3538 0.72044,0 2.47658,-1.5296 3.90254,-3.3991 2.26874,-2.9745 2.40484,-3.5551 1.08938,-4.6468 -1.23148,-1.0221 -1.91646,-0.8595 -3.78843,0.8991 -1.25682,1.1808 -3.20208,2.1468 -4.3228,2.1468 -3.5541,0 -8.73938,-4.3189 -11.09506,-9.2413 -2.12073,-4.4314 -2.19784,-5.2889 -1.23781,-13.7636 1.93248,-17.0591 6.99146,-24.9951 15.9337,-24.9951 1.68616,0 3.07188,-0.3375 3.07939,-0.75 0.008,-0.4125 0.285,-1.7625 0.61664,-3 0.46918,-1.7507 0.18879,-2.2429 -1.26366,-2.2182 -1.02665,0.017 -2.74014,0.6925 -3.80776,1.5 -2.50369,1.8937 -4.03,1.8542 -6.04049,-0.1563 -1.4993,-1.4993 -1.82225,-1.4415 -4.19108,0.75 -5.87415,5.4345 -10.06721,15.1135 -12.85212,29.6671 -3.26805,17.0786 -0.24728,26.7507 9.52482,30.4973 2.31314,0.8869 10.27338,-0.4204 11.78903,-1.9361 z m 77.16208,3.5549 c -1.38466,-2.5873 -0.75937,-25.4086 0.94278,-34.4087 0.52009,-2.75 1.26061,-12.65 1.64559,-22 0.38498,-9.35 0.86733,-17.2884 1.07188,-17.641 0.66274,-1.1422 16.78495,0.1707 17.64889,1.4373 1.06878,1.5667 -0.14791,18.3824 -2.69184,37.2037 -0.29736,2.2 -1.00592,7.825 -1.57458,12.5 -0.56866,4.675 -1.2129,9.85 -1.43165,11.5 -0.21875,1.65 -0.43472,4.6717 -0.47995,6.7148 -0.0967,4.3683 -1.49188,5.3727 -8.81203,6.3438 -4.63248,0.6145 -5.18432,0.4704 -6.31909,-1.6499 z m 10.80075,-7.9754 c 0.13853,-1.8883 0.68187,-5.9083 1.20743,-8.9333 0.52556,-3.025 1.2088,-7.525 1.5183,-10 0.30951,-2.475 0.76644,-6.075 1.0154,-8 0.50814,-3.9289 1.11452,-10.1597 1.99507,-20.5 0.32785,-3.85 0.82569,-8.1818 1.1063,-9.6263 0.64476,-3.3189 -1.76634,-5.8737 -5.54334,-5.8737 -4.09439,0 -4.8531,1.5987 -4.9832,10.5 -0.0643,4.4 -0.29763,9.35 -0.5185,11 -0.22087,1.65 -0.47427,5.25 -0.56311,8 -0.0888,2.75 -0.55195,7.25 -1.02913,10 -1.26593,7.2955 -1.86756,19.2968 -1.23816,24.6985 l 0.54747,4.6986 3.1168,-1.2653 c 2.54121,-1.0315 3.16332,-1.8992 3.36867,-4.6985 z m -67.25219,8.0662 c -0.29439,-0.4763 -0.29372,-2.5836 10e-4,-4.6828 0.2952,-2.0992 0.95659,-13.0417 1.46976,-24.3167 1.41501,-31.0895 2.21696,-40.3307 3.62182,-41.7356 0.69543,-0.6954 3.12614,-1.2644 5.40158,-1.2644 2.27545,0 4.96034,-0.4405 5.96643,-0.979 3.32564,-1.7798 4.09093,0.765 3.02314,10.0529 -1.70751,14.8525 -2.00765,14.0703 5.26612,13.7238 l 6.25,-0.2977 0.28383,-10.75 c 0.15611,-5.9125 0.60611,-10.7846 1,-10.827 0.39389,-0.042 2.06617,-0.2022 3.71617,-0.3553 1.65,-0.1531 4.4172,-0.6157 6.14933,-1.0279 2.58568,-0.6154 3.24823,-0.4175 3.70191,1.1053 0.53271,1.7882 1.96122,36.0168 2.05979,49.3549 0.072,9.7502 -0.64558,16.9496 -1.84233,18.4827 -1.21249,1.5533 -12.31972,2.4456 -14.37088,1.1545 -0.99386,-0.6256 -1.23063,-4.1721 -1,-14.9784 l 0.30266,-14.1588 -6.19011,-0.2961 c -7.89924,-0.378 -8.10901,0 -8.86456,15.8028 -0.79452,16.6217 -0.65617,16.3595 -8.77699,16.6343 -3.64839,0.1235 -6.87429,-0.1652 -7.16867,-0.6415 z m 9.88209,-4.2894 c 1.49246,-1.0913 1.84213,-3.439 2.27138,-15.25 0.55632,-15.3074 0.95675,-16.3604 6.44351,-16.9439 1.87184,-0.199 5.71303,-0.6188 8.53597,-0.9329 7.45704,-0.8297 7.84422,-0.056 7.97749,15.9391 0.0606,7.2687 0.42462,13.7248 0.80902,14.3468 0.3844,0.6219 1.74225,1.1308 3.01744,1.1308 4.58612,0 4.93736,-1.7171 4.56415,-22.3124 -0.19124,-10.5532 -0.27633,-21.2126 -0.18909,-23.6876 0.0872,-2.475 -0.0953,-6.8883 -0.40564,-9.8074 -0.55909,-5.2588 -0.59332,-5.3047 -3.73513,-5 l -3.17086,0.3074 -0.28508,9.6565 c -0.32739,11.0893 0.26432,10.4515 -11.02283,11.8826 -9.6617,1.2249 -11.29258,0.4142 -10.67846,-5.3083 0.24971,-2.3269 0.75313,-7.2869 1.1187,-11.0221 l 0.66467,-6.7913 -3.64593,0.2455 c -2.42454,0.1633 -3.82904,0.8225 -4.19255,1.9678 -1.06132,3.3439 -3.71887,60.639 -2.87591,62.003 0.76863,1.2436 2.75938,1.068 4.79915,-0.4236 z m 83.72239,2.0493 c -1.89909,-0.9983 -2.45622,-2.1924 -2.687,-5.7594 -0.16014,-2.475 -0.5456,-6.3 -0.85658,-8.5 -0.31098,-2.2 -1.0262,-8.05 -1.58938,-13 -1.73954,-15.2897 -5.01015,-39.9159 -5.52605,-41.6088 -0.74812,-2.4548 1.50865,-3.6735 7.49876,-4.0495 5.32412,-0.3342 5.46011,-0.2757 6.18073,2.6583 1.60358,6.529 5.03055,24.6116 6.78386,35.7955 2.60203,16.5976 3.72753,17.0807 5.68858,2.4413 0.68054,-5.0802 2.1746,-15.449 3.32014,-23.0416 1.14553,-7.5927 2.08279,-15.0927 2.08279,-16.6667 0,-3.3381 1.35151,-4.0453 5.4934,-2.8746 1.64637,0.4654 4.62877,0.8461 6.62755,0.8461 5.27408,0 6.45424,1.9079 4.46442,7.2172 -0.8828,2.3556 -2.69632,10.2463 -4.03005,17.5351 -2.2108,12.082 -10.62415,43.7051 -12.55742,47.1994 -0.55665,1.0062 -2.75143,1.4946 -7.15054,1.5915 -3.49105,0.077 -7.47236,0.4403 -8.84736,0.8077 -1.40752,0.3761 -3.54697,0.1176 -4.89585,-0.5915 z m 12.46535,-5.3727 5.06949,-0.6196 3.17461,-10.1336 c 3.65509,-11.6672 7.19284,-25.8095 10.03956,-40.1335 1.09306,-5.5 2.29641,-10.7875 2.6741,-11.75 0.59118,-1.5065 0.0709,-1.75 -3.7402,-1.75 l -4.42691,0 -1.2602,9.25 c -5.21495,38.2785 -5.72824,40.8746 -8.58425,43.417 -3.32098,2.9564 -5.99938,2.04 -7.30375,-2.4988 -0.57978,-2.0175 -2.19294,-10.6432 -3.58479,-19.1682 -1.39185,-8.525 -3.27618,-18.7625 -4.1874,-22.75 -1.51389,-6.6248 -1.87235,-7.25 -4.15667,-7.25 -2.08795,0 -2.40974,0.3708 -1.95273,2.25 0.30095,1.2375 0.84611,5.175 1.21147,8.75 0.75157,7.354 0.74848,7.3292 2.87271,23 0.85737,6.325 1.78576,13.3 2.06307,15.5 2.06508,16.3827 1.91227,15.8999 4.78454,15.1166 1.23082,-0.3356 4.51912,-0.8891 7.30735,-1.2299 z m 25.48864,5.7187 c -1.4924,-0.9942 -1.28243,-4.323 2.02513,-32.1054 0.55656,-4.675 1.13354,-16.2705 1.28217,-25.7678 0.16495,-10.5399 0.68607,-17.6837 1.3375,-18.3351 0.75634,-0.7564 2.03799,-0.5653 4.39944,0.6559 3.02888,1.5663 4.36691,1.6078 14.70017,0.456 14.05829,-1.5669 14.41106,-1.3623 13.31845,7.7219 -0.41218,3.427 -1.05585,6.5373 -1.43038,6.9118 -0.37452,0.3746 -4.62063,-0.024 -9.43579,-0.8845 -4.81516,-0.861 -8.90678,-1.4194 -9.09249,-1.2408 -0.18572,0.1785 -0.58308,3.031 -0.88303,6.3389 l -0.54535,6.0143 6.1554,0.6964 c 3.38546,0.383 6.45507,1.1813 6.82135,1.7739 0.69484,1.1243 0.51362,9.0214 -0.26876,11.7119 -0.34052,1.171 -1.81141,1.5398 -5.98186,1.5 -3.34153,-0.032 -5.83092,0.4327 -6.28986,1.174 -0.41776,0.6747 -0.88113,4.7927 -1.0297,9.1511 l -0.27013,7.9242 3.48818,1.1512 c 1.98755,0.656 7.71562,1.0212 13.3148,0.849 l 9.82662,-0.3023 -0.0533,5 c -0.0293,2.75 -0.37658,6.2422 -0.77168,7.7605 -0.6361,2.4443 -1.07544,2.6975 -3.83684,2.211 -4.57935,-0.8068 -23.47895,-0.8565 -29.83817,-0.079 -3.09421,0.3786 -6.13069,0.2527 -6.94186,-0.2877 z m 37.44186,-7.6115 0,-2.9643 -7.59022,0.3168 c -8.2387,0.3438 -15.34925,-1.0853 -18.23855,-3.6657 -1.56157,-1.3946 -1.7343,-2.5864 -1.18223,-8.157 0.35559,-3.588 0.66917,-8.4425 0.69684,-10.7876 0.0586,-4.9685 0.61733,-5.458 6.73961,-5.905 6.4806,-0.4731 7.25331,-0.9301 6.89152,-4.0754 -0.29802,-2.5909 -0.6458,-2.7741 -5.81697,-3.063 -3.025,-0.169 -5.92658,-0.7306 -6.44795,-1.2479 -1.26521,-1.2555 -0.68793,-18.2428 0.64801,-19.0684 1.29532,-0.8006 8.70832,-0.3488 15.04994,0.9172 l 4.75,0.9482 0,-3.9428 0,-3.9429 -5.75,0.822 c -3.1625,0.452 -8.7875,0.7035 -12.5,0.5587 l -6.75,-0.2633 -0.14033,8.2633 c -0.22667,13.348 -0.51928,18.573 -1.75082,31.2632 -1.8465,19.0269 -2.15425,21.8407 -2.68757,24.5725 l -0.50222,2.5725 17.29047,-0.093 17.29047,-0.093 0,-2.9643 z m -175.75,-77.12376 c -0.9625,-0.2842 -1.75,-1.3679 -1.75,-2.4082 0,-2.0276 -2.72547,-3.9422 -5.68426,-3.9932 -0.99866,-0.017 -4.06574,-1.155 -6.81574,-2.5285 -10.7726,-5.3804 -28.39866,-11.7375 -47,-16.9512 -3.3,-0.925 -7.125,-2.256 -8.5,-2.9579 -2.99886,-1.5308 -8.98092,-3.4806 -12.75828,-4.1586 -1.50795,-0.2707 -3.16922,-0.9152 -3.69172,-1.4323 -0.5225,-0.5171 -1.56287,-0.9402 -2.31193,-0.9402 -0.74905,0 -3.69655,-1.0765 -6.55,-2.3922 -12.53393,-5.7793 -21.52343,-9.60779 -22.55995,-9.60779 -2.33947,0 -13.93512,-4.4012 -21.40418,-8.12409 -4.27683,-2.13175 -8.55643,-3.87591 -9.51022,-3.87591 -0.95378,0 -2.9986,-1.17245 -4.54402,-2.60545 -2.38544,-2.21191 -2.72532,-3.15595 -2.25015,-6.25 0.30785,-2.0045 0.81578,-7.01955 1.12873,-11.14455 0.31296,-4.125 0.9533,-9.3 1.42299,-11.5 1.36277,-6.38312 2.36007,-52.82281 1.11789,-52.0551 -0.5763,0.35617 -1.89075,0.19647 -2.921,-0.3549 -2.07857,-1.11242 -13.95115,-16.76858 -16.53197,-21.80042 -2.21207,-4.3129 -4.38356,-14.00133 -6.1644,-27.50345 -1.85311,-14.05013 -1.86324,-21.12476 -0.036,-25.135 0.78969,-1.73312 2.37288,-6.26254 3.5182,-10.06538 3.56119,-11.82436 7.90943,-19.54097 14.82667,-26.31219 3.49839,-3.42454 6.6664,-6.16437 7.04002,-6.08851 0.37362,0.0759 1.84166,-0.34505 3.26232,-0.93533 l 2.58301,-1.07324 0.0518,-33.33824 c 0.0285,-18.33603 -0.32495,-34.05617 -0.78545,-34.93363 -1.09412,-2.08479 1.74098,-6.24393 3.7347,-5.47886 0.80277,0.30805 2.66858,-0.0649 4.14624,-0.82883 4.42567,-2.28793 7.55766,-2.23685 10.62159,0.17323 1.55913,1.22642 3.71398,2.22985 4.78856,2.22985 1.56806,0 8.07857,2.90976 21.8428,9.76227 0.31146,0.15506 0.37108,-3.55724 0.1325,-8.24955 -0.23858,-4.69231 -0.11908,-12.3094 0.26555,-16.92687 0.58035,-6.96703 1.01252,-8.47729 2.54014,-8.87677 2.01252,-0.52629 7.99552,2.65837 7.99552,4.25589 0,0.54691 1.6875,1.86781 3.75,2.93534 2.0625,1.06753 6.225,4.48355 9.25,7.59115 3.025,3.1076 7.73925,7.30581 10.47611,9.32936 2.73685,2.02355 6.78665,5.35049 8.99953,7.39319 4.79886,4.42981 5.34322,3.81012 5.45862,-6.21401 0.0412,-3.575 0.36654,-11.5625 0.72308,-17.75 0.5826,-10.11095 0.83844,-11.25 2.52683,-11.25 1.03323,0 2.15788,0.7875 2.49921,1.75 0.34134,0.9625 1.30026,2.54114 2.13093,3.50809 1.41008,1.64141 1.63229,1.64772 3.348,0.095 2.4573,-2.22382 2.32679,-3.65942 -0.88345,-9.71778 -7.32011,-13.81447 -18.56981,-27.41112 -28.69709,-34.68398 -7.12925,-5.11985 -5.71733,-8.70916 1.98784,-5.05338 2.43671,1.15612 6.5299,3.10409 9.09596,4.32883 2.56607,1.22474 6.7043,3.91151 9.19608,5.97059 2.49178,2.05909 4.68941,3.58489 4.88362,3.39068 0.54042,-0.54043 -5.52002,-12.68168 -7.32672,-14.67806 -1.92209,-2.12389 -1.51695,-5.26738 0.73477,-5.70101 0.89669,-0.17269 2.86974,0.83464 4.38454,2.23851 1.5148,1.40387 3.16491,2.5525 3.6669,2.5525 1.17461,0 8.98522,7.10093 14.77999,13.43708 2.48339,2.71539 7.83356,8.11539 11.88927,12 8.52927,8.16943 9.60491,8.42306 20.92329,4.93363 4.01352,-1.23736 9.18852,-2.47687 11.5,-2.75447 2.31148,-0.27759 6.90269,-1.02436 10.20269,-1.65949 5.58264,-1.07445 16.98428,-1.70563 32.47647,-1.79787 3.56206,-0.0212 9.86206,0.64985 14,1.49123 19.94922,4.05638 24.46593,5.66297 33.66075,11.97313 4.59005,3.15002 8.50663,5.53594 8.70351,5.30204 0.19688,-0.23391 3.63792,-4.47529 7.64676,-9.42529 7.80651,-9.63925 18.20918,-20.02794 25.20224,-25.16838 6.39017,-4.69727 16.20103,-10.03469 17.59248,-9.57088 1.84819,0.61607 1.46536,2.64766 -1.03221,5.4777 -9.98476,11.31388 -12.86466,14.76157 -12.33054,14.76157 0.33954,0 2.74657,-1.09964 5.34895,-2.44363 10.97754,-5.66934 14.2444,-3.78269 7.23141,4.17622 -2.31044,2.62207 -4.84213,6.00491 -5.62599,7.51741 -0.78385,1.5125 -1.86363,2.75 -2.39951,2.75 -0.53588,0 -0.97432,0.79987 -0.97432,1.77749 0,0.97762 -0.60974,2.66512 -1.35497,3.75 -3.20854,4.67083 -5.62745,13.65115 -5.85323,21.73044 -0.20881,7.47147 0.0706,8.87341 2.98893,14.99474 1.7706,3.71397 3.21927,7.45913 3.21927,8.32258 0,1.29936 0.45407,1.21274 2.63486,-0.50267 1.44917,-1.13992 3.11205,-2.07258 3.69528,-2.07258 0.58323,0 2.21005,-1.06669 3.61514,-2.37043 1.4051,-1.30373 6.25538,-4.27272 10.77841,-6.59774 7.58489,-3.89895 8.34967,-4.10132 9.8457,-2.6053 1.32277,1.32276 1.55824,3.37036 1.27631,11.09852 -0.19013,5.21207 -0.17769,9.47615 0.0277,9.47572 0.20535,-4.2e-4 3.80535,-2.09385 8,-4.65206 7.48261,-4.56345 13.08591,-5.97091 13.91143,-3.49434 0.21775,0.65324 1.75784,1.89199 3.42242,2.75278 2.79791,1.44686 2.97046,1.84183 2.2843,5.22896 -0.40822,2.01514 -0.83164,5.91389 -0.94093,8.66389 -0.10928,2.75 -0.51307,9.275 -0.89729,14.5 -0.66992,9.11007 -1.11071,26.03206 -0.80099,30.75 0.1066,1.62387 0.77383,2.2492 2.3977,2.24713 4.80917,-0.006 15.20348,5.31475 20.05964,10.26862 8.80859,8.98583 18.66242,33.66801 18.65764,46.73425 -0.006,15.82377 -10.7301,44.95869 -20.58258,55.91702 -2.41158,2.68226 -4.3847,5.20171 -4.3847,5.59877 0,1.09924 -16.27406,17.01885 -18.09874,17.70456 -1.69581,0.63727 -2.64068,11.25674 -3.27247,36.77965 -0.32584,13.1633 -0.89215,15.21879 -3.98305,14.45675 -1.55334,-0.38296 -5.66909,1.82765 -14.90777,8.00712 -7.01916,4.69487 -13.0247,8.53613 -13.34567,8.53613 -0.32098,0 -1.77807,0.84096 -3.23797,1.8688 -1.4599,1.02785 -3.77937,2.21431 -5.15437,2.63658 -1.375,0.42228 -7.225,3.75776 -13,7.41218 -5.775,3.65444 -12.075,7.26704 -14,8.02814 -1.925,0.761 -4.175,1.9314 -5,2.6007 -0.825,0.6694 -2.5125,1.5256 -3.75,1.9027 -1.2375,0.3771 -2.25,1.003 -2.25,1.3909 0,0.3879 -1.6875,1.5727 -3.75,2.6331 -2.0625,1.0603 -4.46727,2.5188 -5.34394,3.2411 -2.02501,1.6685 -30.99799,17.2858 -32.06826,17.2858 -0.43943,0 -3.30408,1.6025 -6.3659,3.5611 -6.1824,3.9549 -13.16307,6.7476 -13.89715,5.5599 -0.59718,-0.9663 -15.86316,-0.3629 -20.57475,0.8132 -1.925,0.4805 -6.875,0.9176 -11,0.9714 -4.125,0.054 -12.9,0.2966 -19.5,0.5395 -6.6,0.243 -12.7875,0.2093 -13.75,-0.075 z m 24.75,-5.419 c 1.65,-0.1309 3.80717,0.1072 4.79372,0.5292 0.98655,0.422 5.48655,0.2477 10,-0.3874 4.51345,-0.635 10.45628,-1.3756 13.20628,-1.6458 2.75,-0.2702 6.4625,-0.7267 8.25,-1.0145 l 3.25,-0.5232 8.4e-4,-15.2047 c 7.4e-4,-13.5324 0.88966,-28.28989 2.51208,-41.70469 l 0.54425,-4.5 -2.49268,5.93631 c -1.37097,3.26497 -3.31483,6.75848 -4.3197,7.76335 -2.34172,2.34172 -14.59529,6.80395 -18.64159,6.78847 -8.62521,-0.033 -23.06461,-6.10437 -27.09976,-11.39473 -2.55309,-3.34728 -2.73119,-4.14031 -2.15909,-9.61389 0.71731,-6.86286 6.24395,-18.79664 10.47044,-22.60902 3.19654,-2.88333 8.6296,-5.83303 12.42278,-6.74452 3.04419,-0.73151 16.5581,1.7697 18.14715,3.35875 1.90142,1.90142 2.51355,1.02191 1.43737,-2.06523 -1.28662,-3.6908 0.12242,-7.01665 3.80848,-8.98937 2.09086,-1.119 2.77228,-1.02099 5.13993,0.73927 5.7098,4.24504 3.18655,12.74748 -3.72473,12.55097 l -2.96024,-0.0842 3.41374,2.99731 c 1.87756,1.64852 4.21573,4.81504 5.19594,7.03672 l 1.78218,4.03942 0.73817,-3.35483 c 1.4319,-6.50766 2.14158,-32.71957 0.92555,-34.18479 -0.77307,-0.9315 -0.84386,-2.30723 -0.21983,-4.27199 1.63971,-5.16256 2.21178,-22.82185 2.64915,-81.77652 l 0.42938,-57.87849 -12.2499,0.75238 c -14.88486,0.91421 -27.38986,0.74889 -34.74991,-0.45939 -3.025,-0.49661 -6.4,-1.04537 -7.5,-1.21947 -1.73099,-0.27397 -1.95312,0.15422 -1.65143,3.18345 1.27168,12.7692 0.12827,64.86362 -1.83273,83.5 -0.52087,4.95 -1.20387,14.175 -1.51779,20.5 -0.31392,6.325 -0.78072,14.2 -1.03734,17.5 -0.25661,3.3 -0.70723,13.875 -1.00137,23.5 -0.8777,28.72065 -1.23823,37.18799 -1.85221,43.5 -0.32099,3.3 -1.26821,13.2 -2.10493,22 -0.83673,8.80003 -1.9636,19.82503 -2.50417,24.50003 -0.54057,4.675 -0.98627,11.0576 -0.99044,14.1836 -0.007,5.459 0.10104,5.696 2.74241,6 1.5125,0.174 5.675,0.021 9.25,-0.339 3.575,-0.3605 7.85,-0.7626 9.5,-0.8935 z m -4.75,-107.65938 -3.75,-0.41244 -0.16415,-6.18964 c -0.35536,-13.39937 0.11386,-15.69997 4.4114,-21.62948 5.28284,-7.28897 7.59328,-9.46031 11.52469,-10.8308 3.59754,-1.25411 13.51113,-0.83262 17.67794,0.7516 3.91468,1.48835 4.02763,1.4032 4.29216,-3.23613 0.54125,-9.49235 9.9005,-9.09578 10.97816,0.46517 0.46663,4.13995 0.25725,4.75868 -2.14253,6.33108 l -2.65971,1.7427 2.20146,2.34335 c 3.56158,3.79113 6.4466,26.9133 3.63058,29.09756 -0.6875,0.53326 -8.87993,1.01443 -18.20539,1.06925 -9.32547,0.0548 -18.55047,0.28205 -20.5,0.50495 -1.94954,0.2229 -5.23211,0.21967 -7.29461,-0.007 z m 42.58313,-6.22484 c 1.67122,-1.67122 -1.38235,-18.23114 -4.01981,-21.79999 -2.64527,-3.57942 -9.07601,-5.95354 -17.80794,-6.5744 -7.71402,-0.54848 -10.97948,0.92924 -15.61194,7.06488 -5.06053,6.70262 -6.60384,14.549 -4.3292,22.01013 0.30244,0.99206 4.78484,1.15133 20.62815,0.73293 11.13296,-0.294 20.64629,-0.9391 21.14074,-1.43355 z m -23.33313,-2.8199 c -10.83905,-0.36568 -12,-0.76084 -12,-4.08452 0,-3.46545 2.80041,-13.16578 4.35203,-15.07497 0.63138,-0.77688 3.03263,-2.24812 5.33611,-3.26943 4.10199,-1.81872 4.29456,-1.81647 9.36221,0.10908 2.84574,1.0813 6.02548,2.73651 7.06608,3.67824 2.66068,2.40788 3.9868,8.18141 3.08669,13.43851 -0.72978,4.26226 -0.91399,4.45774 -4.23428,4.49336 -1.90922,0.0205 -3.92076,0.24548 -4.47008,0.5 -0.54932,0.25452 -4.37376,0.3489 -8.49876,0.20973 z m 12.43882,-6.19619 c 2.25224,-1.8692 1.9203,-5.52175 -0.78796,-8.67029 -1.95025,-2.2673 -3.35156,-2.80355 -8.25245,-3.15805 -6.62989,-0.47957 -8.19572,0.53973 -10.25681,6.67678 -2.26956,6.75782 -2.18882,6.82229 8.29722,6.6249 6.01815,-0.11329 10.0046,-0.64723 11,-1.47334 z m 9.3776,-25.72366 c -0.40771,-3.44403 -2.81642,-4.36522 -2.81642,-1.07712 0,2.53439 0.72389,3.75 2.23309,3.75 0.49486,0 0.75736,-1.2028 0.58333,-2.67288 z m -7.89355,-14.73758 c -0.25345,-0.25346 -6.6659,-0.55718 -14.24987,-0.67495 -20.01271,-0.31076 -18.673,0.30596 -18.673,-8.59579 0,-7.43437 2.51797,-15.86605 5.71785,-19.14678 0.71238,-0.73038 1.74662,-2.17137 2.2983,-3.20219 1.54668,-2.89 10.87946,-7.18281 16.62277,-7.646 3.90087,-0.31459 6.02707,0.0844 8.82541,1.65614 3.62053,2.03353 3.67527,2.03522 3.0593,0.0945 -0.34496,-1.08686 -0.12936,-3.82491 0.4791,-6.08457 1.02893,-3.82115 1.32752,-4.08683 4.26986,-3.79916 2.29614,0.22448 3.78925,1.24096 5.44549,3.70717 2.8204,4.1997 2.85016,5.53388 0.18295,8.20109 -1.45915,1.45915 -2.98095,1.96953 -4.99235,1.67432 l -2.89338,-0.42466 3.36912,3.36913 c 2.02405,2.02405 4.06091,5.56847 5.10189,8.87801 1.67801,5.33484 2.59512,19.65613 1.33918,20.91208 -0.74802,0.74802 -15.24988,1.73443 -15.90262,1.08169 z m 11.92564,-5.15444 c 0.75042,-0.64336 0.30948,-11.13359 -0.6126,-14.57423 -2.87723,-10.73604 -16.09758,-17.37053 -26.61211,-13.355 -7.50819,2.86741 -13.5622,12.76798 -13.60184,22.24413 -0.0121,2.8875 0.31554,5.28582 0.72804,5.32959 0.4125,0.0438 7.25219,0.28347 15.19931,0.53265 7.94712,0.24917 14.60235,0.60608 14.78939,0.79313 0.37995,0.37995 9.56288,-0.50137 10.10981,-0.97027 z m -27.33583,-4.16159 c -5.94386,-0.62987 -6.84155,-1.79814 -6.19503,-8.06231 0.61445,-5.95342 1.43909,-7.27822 7.08239,-11.37792 2.86227,-2.07937 5.05782,-2.83328 8.25111,-2.83328 3.77361,0 4.8742,0.53905 8.29275,4.06163 4.20188,4.32975 5.79642,8.00461 6.26486,14.43837 l 0.29124,4 -10,0.098 c -5.5,0.0539 -11.79429,-0.0921 -13.98732,-0.32452 z m 19.11397,-4.47843 c 1.86529,-3.01811 -5.98284,-13.79508 -10.04601,-13.79508 -3.4948,0 -10.33972,5.62662 -11.1097,9.13232 -0.3703,1.68595 -0.29024,3.43879 0.1779,3.89522 1.74099,1.69743 19.99044,2.36514 20.97781,0.76754 z m 8.37335,-26.09508 c 0,-1.44095 -1.95378,-3.7 -3.2,-3.7 -0.44,0 -0.8,1.125 -0.8,2.5 0,1.83333 0.53333,2.5 2,2.5 1.1,0 2,-0.585 2,-1.3 z m 15.88685,194.58699 c 3.03108,-2.0119 7.22723,-4.2493 9.32479,-4.9719 4.40107,-1.5163 7.45612,-3.1347 10.28836,-5.4501 1.1,-0.8993 3.125,-1.9776 4.5,-2.3961 1.375,-0.4186 4.3,-1.9236 6.5,-3.3445 2.2,-1.421 4.75873,-3.0427 5.68606,-3.604 0.92734,-0.5612 4.23104,-2.5954 7.34157,-4.5204 8.55648,-5.2953 14.61421,-8.75278 18.26765,-10.42631 1.8124,-0.8302 5.8624,-3.30677 9,-5.50347 3.1376,-2.19671 7.64695,-4.67668 10.02079,-5.51106 2.37384,-0.83438 5.59331,-2.42653 7.15437,-3.5381 1.56107,-1.11158 3.27255,-2.02105 3.8033,-2.02105 0.53075,0 3.16129,-1.74318 5.84563,-3.87374 2.68435,-2.13055 6.45563,-4.72193 8.38063,-5.7586 1.925,-1.03668 5.59656,-3.33695 8.15902,-5.11171 l 4.65902,-3.22684 0.80746,-8.76455 c 1.36326,-14.79753 1.08216,-72.95427 -0.3596,-74.39744 -1.5423,-1.54383 -21.53243,0.27926 -23.81268,2.1717 -1.79983,1.49373 -21.37934,0.78019 -25.98812,-0.94708 -3.33454,-1.24972 -6.22519,-5.86185 -6.63837,-10.59174 -0.55304,-6.33082 4.65244,-25.80532 8.20855,-30.70951 1.0806,-1.49023 1.96472,-3.15414 1.96472,-3.69758 0,-0.9372 4.80823,-5.88084 19.1589,-19.69847 6.65775,-6.41045 16.76895,-17.4262 21.52945,-23.45545 1.54641,-1.95856 4.72415,-5.37639 7.06165,-7.59517 l 4.25,-4.03415 -0.003,-12.40483 c -0.002,-6.82266 0.5107,-18.38003 1.13847,-25.68304 0.62777,-7.303 0.85678,-13.56281 0.50891,-13.91068 -0.66074,-0.66075 -4.29804,1.03386 -13.62734,6.34893 -3.05068,1.73803 -8.69003,4.36133 -12.5319,5.82956 -3.84186,1.46823 -8.17149,3.30389 -9.62138,4.07925 -1.4499,0.77535 -6.8499,2.99943 -12,4.9424 -5.15011,1.94297 -12.06383,4.82482 -15.36383,6.40411 -16.5828,7.93608 -42.72809,17.99078 -47,18.07478 -1.1,0.0216 -3.125,0.68264 -4.5,1.46889 -5.01115,2.8655 -15.31096,7.54096 -16.61236,7.54096 -1.48302,0 -1.80237,6.91031 -1.3864,30 0.0743,4.125 0.11282,16.275 0.0856,27 -0.0273,10.725 0.0938,21.975 0.26898,25 0.17519,3.025 -0.0337,12.925 -0.46424,22 -0.43053,9.075 -1.03832,23.25 -1.35065,31.5 -1.68215,44.43355 -2.27749,56.58221 -2.86672,58.5 -1.26316,4.11133 -2.67414,26.73359 -2.67414,42.87499 l 0,18.1519 3.6879,-1.5409 c 2.02834,-0.8475 6.16787,-3.1871 9.19895,-5.199 z m -80.94806,-6.3532 c 0.53516,-5.7386 1.90813,-19.2088 3.05105,-29.93379 1.14292,-10.725 2.26718,-26.48506 2.49836,-35.02235 0.58922,-21.75983 1.53506,-45.74313 1.99072,-50.47765 0.21173,-2.2 0.65286,-8.95 0.98029,-15 0.32744,-6.05 1.00933,-16.175 1.51533,-22.5 0.506,-6.325 1.20614,-17.8 1.55586,-25.5 0.34973,-7.7 0.79567,-16.7 0.99099,-20 0.5261,-8.88867 0.57403,-27.8391 0.0944,-37.33761 -0.50032,-9.90907 -0.0125,-9.41987 -14.61583,-14.65733 -5.775,-2.0712 -13.65,-5.01878 -17.5,-6.55019 -3.85,-1.5314 -9.77206,-3.71389 -13.16014,-4.84998 -3.38807,-1.13608 -8.29259,-3.19944 -10.89894,-4.58524 -2.60634,-1.38581 -5.23428,-2.52352 -5.83986,-2.52826 -0.60558,-0.005 -4.70106,-1.73996 -9.10106,-3.85607 -4.4,-2.1161 -9.125,-4.1935 -10.5,-4.61645 -1.375,-0.42295 -4.975,-2.19172 -8,-3.9306 -3.025,-1.73888 -7.525,-3.75098 -10,-4.47134 -2.475,-0.72036 -8.02403,-3.06636 -12.33118,-5.21334 -4.30711,-2.14697 -8.48754,-3.90359 -9.2898,-3.90359 -0.80226,0 -3.35323,-0.99217 -5.66882,-2.20481 -2.31559,-1.21265 -4.43516,-2.24413 -4.71016,-2.29218 -0.275,-0.0481 -2.6947,-1.08089 -5.37712,-2.29519 -2.68241,-1.2143 -5.06313,-2.20782 -5.29049,-2.20782 -0.22736,0 -1.63265,-0.87293 -3.12288,-1.93984 -1.49023,-1.06692 -4.2501,-2.07942 -6.13304,-2.25 l -3.42353,-0.31016 0.10992,12.5 c 0.0605,6.875 0.17797,21.84738 0.26114,33.27195 l 0.15121,20.77196 16.66239,-0.24156 c 23.82053,-0.34533 33.70099,2.59011 40.98915,12.17769 3.12455,4.11034 3.36127,4.90928 2.86871,9.68177 -1.00132,9.70182 -2.73563,11.89148 -27.17115,34.30512 -4.93662,4.52816 -12.58662,10.89211 -17,14.14213 -7.50505,5.52673 -11.18058,8.45376 -16.86446,13.43011 -2.15401,1.88587 -2.34585,2.89609 -2.55192,13.43845 -0.12256,6.2696 -0.44979,11.76651 -0.72719,12.21535 -0.2774,0.44884 -0.70166,9.02654 -0.9428,19.06155 -0.61995,25.79953 -1.14272,36.01123 -2.34187,45.74548 -0.57591,4.675 -1.25283,11.57841 -1.50428,15.3409 l -0.45718,6.8409 11.60551,5.49504 c 6.38303,3.02228 15.69024,6.81168 20.6827,8.4209 4.99245,1.60923 9.97718,3.342 11.07718,3.85061 9.498,4.39154 16.33113,7.21464 24,9.91544 14.01937,4.9374 14.72096,5.1769 19.5,6.6583 30.22747,9.3697 38.66882,12.3427 49,17.2577 7.04357,3.3509 12.54928,5.2327 13.73289,4.6938 0.12809,-0.058 0.67075,-4.8012 1.2059,-10.5398 z m 53.27712,-37.37502 c 5.23436,-2.52805 5.88729,-3.21865 7.75,-8.19721 3.11372,-8.32215 2.74123,-14.28178 -1.21591,-19.45413 -4.58294,-5.99033 -11.23233,-9.2778 -19.75,-9.76444 -9.75784,-0.5575 -17.15053,5.37788 -21.3173,17.11502 -3.77621,10.63696 -3.48595,12.60971 2.48041,16.85814 9.95636,7.08955 21.85563,8.36759 32.0528,3.44262 z m -23.01435,-4.43393 c -4.00367,-2.03797 -6.11274,-4.1354 -7.85926,-7.81594 -1.43143,-3.0165 -1.42037,-3.65832 0.13016,-7.55277 2.42608,-6.09355 6.07166,-10.49709 9.27226,-11.20006 6.81967,-1.49785 10.60856,-1.20513 17.54565,1.35553 7.96404,2.93972 12.10799,7.27624 11.19647,11.71675 -0.26776,1.30441 -0.71562,3.47754 -0.99523,4.82919 -0.64385,3.1123 -4.03412,6.76378 -8.32757,8.96916 -4.00218,2.05577 -16.68973,1.87307 -20.96248,-0.30186 z m 18.94563,-4.14903 c 3.97969,-1.1054 7.10281,-4.89393 7.10281,-8.61615 0,-5.73256 -5.29434,-8.91488 -16.55521,-9.95101 -8.57115,-0.78864 -14.72135,4.64098 -13.18422,11.63949 0.67184,3.05884 4.01061,6.51541 6.98943,7.23603 3.64907,0.88276 11.94764,0.71922 15.64719,-0.30836 z m 13.57467,-33.09767 c 1.55373,-1.55373 0.45759,-3.87814 -1.82885,-3.87814 -1.98889,0 -2.29029,0.80113 -1.28602,3.41821 0.71677,1.86787 1.57953,1.99527 3.11487,0.45993 z m 147.03467,-35.42016 c 3.25081,-2.27695 20.90391,-23.02243 23.80926,-27.98004 6.74063,-11.50201 13.43421,-33.88581 13.43421,-44.92494 0,-7.92974 -3.29469,-19.18384 -8.86686,-30.28768 -5.81508,-11.5879 -9.30597,-15.46776 -17.04366,-18.94274 -11.54557,-5.18508 -14.61591,-4.17726 -25.10467,8.24046 -4.11665,4.87373 -9.17231,10.56584 -11.23481,12.64914 -2.0625,2.0833 -3.75,4.25157 -3.75,4.81837 0,1.15055 -5.18955,5.91393 -11.40612,10.46945 -8.24168,6.03952 -14.5921,15.61246 -18.197,27.4311 -5.21306,17.09093 -4.31979,22.92481 3.85045,25.14708 5.15879,1.40317 19.02958,0.53972 23.8789,-1.48646 3.60774,-1.5074 23.22705,-2.57178 24.47123,-1.32759 0.98753,0.98753 2.24467,16.07758 2.33147,27.98587 0.0391,5.3625 0.42094,9.75 0.84856,9.75 0.42763,0 1.76819,-0.69391 2.97904,-1.54202 z m -360.25968,-16.20798 c 0.39569,-2.0625 0.86822,-9.53494 1.05006,-16.60543 0.18184,-7.07049 0.47068,-12.92049 0.64186,-13 5.70949,-2.65204 9.32201,-5.12244 13.73789,-9.39457 2.98467,-2.8875 5.75894,-5.25 6.16505,-5.25 0.40612,0 1.93293,-1.0125 3.39293,-2.25 1.45999,-1.2375 4.52221,-3.825 6.80492,-5.75 2.28271,-1.925 6.63889,-5.79793 9.68041,-8.60652 3.04152,-2.80859 7.52135,-6.85859 9.95517,-9 7.69527,-6.7707 10.05999,-9.7378 12.0944,-15.17524 2.62012,-7.00292 2.49969,-9.44772 -0.6498,-13.19068 -3.57804,-4.25225 -10.57853,-7.61314 -18.37763,-8.82296 -10.17252,-1.57799 -40.70435,0.0236 -44.95903,2.35845 -7.55189,4.14419 -13.77921,13.9877 -19.43918,30.72747 -4.37641,12.94356 -4.67725,15.05349 -3.52306,24.70948 3.20428,26.80712 4.50989,30.95025 13.6039,43.16969 4.02378,5.40667 7.71797,9.83031 8.20932,9.83031 0.49135,0 1.2171,-1.6875 1.61279,-3.75 z m 202.42797,-113.82839 c 2.51635,-0.18295 7.87518,-0.35266 11.90851,-0.37713 5.41099,-0.0328 7.22238,-0.37215 6.91006,-1.29448 -0.44133,-1.30333 -2.2033,-1.36596 -21.76445,-0.77358 -9.72108,0.29438 -14.94848,-0.48552 -20.04047,-2.98995 -1.90844,-0.93864 -8.00458,-0.32036 -9.26458,0.93964 -0.50468,0.50468 -1.53777,0.67962 -2.29575,0.38876 -0.75797,-0.29087 -1.37814,-0.10288 -1.37814,0.41774 0,1.65871 25.29894,5.52863 29.42482,4.50104 1.05866,-0.26367 3.98366,-0.62909 6.5,-0.81204 z m 26.17596,-2.50404 c 1.86957,-0.59534 4.29922,-1.45454 5.39922,-1.90933 1.1,-0.45479 2.7875,-1.07857 3.75,-1.38618 0.9625,-0.30761 1.75,-1.00045 1.75,-1.53965 0,-0.5392 -1.6875,-0.25602 -3.75,0.62928 -2.0625,0.8853 -5.28804,1.87647 -7.16787,2.20259 -1.87983,0.32612 -3.60483,1.15382 -3.83333,1.83933 -0.50505,1.51515 -0.40467,1.51942 3.85198,0.16396 z m -26.79687,-14.24574 c -1.80052,-5.59451 -4.44501,-14.22183 -5.87665,-19.17183 -1.43163,-4.95 -3.65681,-12.375 -4.94483,-16.5 -1.28803,-4.125 -3.35807,-10.875 -4.6001,-15 -1.24202,-4.125 -2.51115,-7.81182 -2.82028,-8.19293 -0.30913,-0.38111 -0.71018,6.81889 -0.89123,16 -0.5688,28.84495 -1.02285,41.64249 -1.53247,43.19293 -0.27116,0.825 -0.41322,2.83196 -0.31569,4.45992 0.14353,2.39562 0.74928,3.10079 3.17734,3.69887 1.65,0.40642 4.46422,1.09946 6.25381,1.54008 1.7896,0.44062 5.85706,0.65345 9.0388,0.47296 l 5.78497,-0.32818 -3.27367,-10.17182 z m -43.65671,9.57817 c -0.25895,-0.4125 -3.09801,-2.1 -6.30901,-3.75 -3.21101,-1.65 -5.98819,-3.3375 -6.17152,-3.75 -0.18334,-0.4125 -0.75074,-0.75 -1.2609,-0.75 -0.51016,0 -3.06016,-0.94485 -5.66667,-2.09966 -2.6065,-1.15481 -5.6391,-2.45893 -6.7391,-2.89804 -1.1,-0.43911 -3.575,-1.46535 -5.5,-2.28053 -1.925,-0.81518 -5.975,-2.27562 -9,-3.24544 -3.025,-0.96981 -9.775,-4.07449 -15,-6.89928 -9.86346,-5.33249 -21.18532,-10.0607 -31.5,-13.15497 -3.3,-0.98996 -7.14344,-2.57857 -8.54098,-3.53026 -1.39754,-0.95168 -5.67095,-2.74152 -9.49647,-3.97742 -3.82552,-1.2359 -9.83355,-3.74724 -13.35118,-5.58075 -3.51762,-1.83351 -7.01281,-3.33365 -7.76709,-3.33365 -0.75428,0 -2.15281,-0.40075 -3.10785,-0.89056 -0.95504,-0.48981 -3.98643,-1.9275 -6.73643,-3.19487 -2.75,-1.26737 -5.30641,-2.44895 -5.6809,-2.62575 -0.3745,-0.17679 -0.93024,0.082 -1.235,0.5751 -0.51756,0.83743 5.88995,4.27826 19.77204,10.61757 3.22087,1.47082 6.59587,2.82714 7.5,3.01404 0.90412,0.1869 4.34386,1.55657 7.64386,3.04372 3.3,1.48714 8.7,3.72786 12,4.97937 3.3,1.25151 13.2,5.49067 22,9.42036 8.8,3.9297 18.925,8.43646 22.5,10.01503 3.575,1.57858 8.64603,3.82484 11.26896,4.99169 2.62292,1.16686 7.34792,2.95736 10.5,3.9789 3.15207,1.02154 8.88104,3.22273 12.73104,4.89154 6.04514,2.62031 16.36835,6.85654 17.30902,7.10292 0.16996,0.0445 0.0971,-0.25656 -0.16182,-0.66906 z m 63.5607,-5.5 c 2.74696,-2.8875 6.17181,-7.05 7.61077,-9.25 2.50695,-3.8328 5.82681,-8.34431 8.43673,-11.46506 0.86873,-1.03876 1.28467,-7.73138 1.42943,-23 0.17929,-18.90962 0.0336,-21.23017 -1.19521,-19.03494 -0.76967,1.375 -2.12272,4.975 -3.00678,8 -7.38903,25.28304 -15.29873,47.94737 -17.60673,50.45 -0.48186,0.5225 -0.87888,1.6475 -0.88227,2.5 -0.003,0.8525 -0.6517,2.7875 -1.4407,4.3 -2.4636,4.72271 1.03336,3.409 6.65476,-2.5 z m -46.2079,2.0241 c 0,-1.44188 -11.7149,-24.76079 -14.95785,-29.7741 -3.24289,-5.01323 -8.04215,-14.7015 -8.04215,-16.23469 0,-1.19623 -3.9223,-8.63208 -5.72259,-10.8488 -0.7073,-0.87092 -2.12024,-4.02092 -3.13985,-7 l -1.85384,-5.41651 -0.68428,4 c -0.37635,2.2 -0.84878,8.95 -1.04984,15 -0.34824,10.47836 -0.23953,11.20416 2.29241,15.30514 4.49316,7.27756 22.23291,31.56611 24.74407,33.87858 2.35715,2.17065 8.41392,2.95556 8.41392,1.09038 z m 55.13058,-1.46205 c 0.89682,-0.77323 3.14682,-2.19402 5,-3.1573 6.17506,-3.20979 8.33236,-4.62428 13.36942,-8.76598 2.75,-2.26117 7.8125,-5.53015 11.25,-7.26439 3.4375,-1.73425 6.25,-3.54791 6.25,-4.03037 0,-0.48246 1.07429,-1.14682 2.3873,-1.47637 1.31302,-0.32954 4.65883,-2.29083 7.43514,-4.35841 2.77631,-2.06757 5.70707,-4.20923 6.5128,-4.75923 1.16004,-0.79186 1.56345,-4.64246 1.93816,-18.5 0.26027,-9.625 0.17294,-18.32711 -0.19406,-19.33802 -0.54283,-1.49526 -1.77799,-0.37995 -6.6233,5.9806 -3.27582,4.30024 -7.98104,10.14271 -10.45604,12.98326 -7.53691,8.65008 -9.19366,10.72068 -11.49581,14.36745 -2.30516,3.65155 -25.77268,33.79945 -29.41778,37.79199 -1.14753,1.2569 -2.08641,2.45227 -2.08641,2.65638 0,0.79474 4.58687,-0.79862 6.13058,-2.12961 z m -70.82289,-2.06205 c -2.65419,-4.19867 -7.89465,-11.31062 -11.53528,-15.65479 -4.30114,-5.13231 -6.66681,-8.69059 -11.17673,-16.81127 -2.05142,-3.69383 -5.06331,-8.14353 -6.69309,-9.88822 -1.62979,-1.74469 -3.92862,-4.57246 -5.10852,-6.28394 -1.17989,-1.71148 -4.43121,-5.58678 -7.22514,-8.61178 -2.79393,-3.025 -6.42741,-7.20103 -8.0744,-9.28007 -5.34688,-6.74948 -7.49117,-9.22964 -7.53909,-8.71993 -0.0259,0.275 -0.25428,4.775 -0.50762,10 -0.25333,5.225 -0.65789,12.93078 -0.89902,17.12396 l -0.43841,7.62395 8.69481,8.57175 c 8.43973,8.32029 15.83247,14.67552 17.0823,14.68497 0.33688,0.003 2.04527,1.34757 3.79644,2.98895 2.33145,2.18527 28.93356,16.70855 31.08911,16.97293 0.15018,0.0184 -0.50923,-1.20401 -1.46536,-2.71651 z m 101.24803,-0.44106 c 4.04955,-1.84323 4.53379,-2.31404 2.67594,-2.60167 -1.2891,-0.19957 -4.52684,1.00623 -7.5,2.79317 -5.93624,3.56782 -3.19615,3.45905 4.82406,-0.1915 z m -14.05572,-0.20808 c 2.47961,-0.74085 5.26651,-2.13504 8.52463,-4.2646 1.93855,-1.26706 4.88391,-2.45256 6.54523,-2.63443 1.66133,-0.18188 3.45024,-0.57698 3.97537,-0.878 0.52512,-0.30102 2.2578,-0.85955 3.85039,-1.24117 3.67162,-0.87981 16.68178,-7.03484 22.71498,-10.74632 2.53583,-1.55999 5.28131,-2.83634 6.10106,-2.83634 0.81975,0 3.46998,-1.03751 5.8894,-2.30559 2.41942,-1.26807 5.97394,-2.91499 7.89894,-3.65982 1.925,-0.74483 4.85,-2.3036 6.5,-3.46393 1.65,-1.16034 5.08202,-3.11728 7.62672,-4.34876 3.6571,-1.76983 4.75733,-2.89217 5.25,-5.35548 1.46255,-7.31276 0.18312,-19.19931 -1.73287,-16.09918 -0.33338,0.53942 -2.99699,2.11278 -5.91914,3.49635 -5.66867,2.68399 -17.61687,10.69662 -19.70834,13.21669 -0.69369,0.83585 -1.78077,1.51972 -2.41573,1.51972 -0.63495,0 -3.48083,1.6875 -6.32417,3.75 -15.96698,11.58211 -27.60458,19.35635 -33.40553,22.31582 -1.99598,1.01828 -6.80992,4.23255 -10.69764,7.14281 -3.88773,2.91025 -7.87965,5.8728 -8.87094,6.58345 -1.62674,1.16617 -1.55877,1.23436 0.69764,0.69981 1.375,-0.32574 2.95,-0.72671 3.5,-0.89103 z m 36.11838,-8.67957 c 7.63489,-3.3433 18.38162,-7.8757 23.88162,-10.07201 5.5,-2.19631 10.9,-4.39567 12,-4.88746 7.71374,-3.44872 13.88172,-5.96182 14.63231,-5.96182 0.78676,0 15.57962,-8.00079 21.73322,-11.75452 2.15118,-1.31223 2.22304,-1.58548 0.79302,-3.0155 -1.43003,-1.43003 -1.96153,-1.40139 -5.86554,0.31603 -5.39891,2.37506 -14.06462,7.51704 -15.0055,8.90383 -0.39186,0.57759 -1.52813,1.09636 -2.52504,1.15283 -0.99691,0.0565 -5.40129,2.13339 -9.78752,4.61537 -4.38622,2.48197 -11.34995,5.95249 -15.47495,7.71225 -4.125,1.75976 -13.35,6.05752 -20.5,9.55058 -7.15,3.49306 -14.6875,6.87374 -16.75,7.51262 -2.0625,0.63889 -3.75,1.35172 -3.75,1.58406 0,1.2259 4.0496,-0.15243 16.61838,-5.65626 z m -104.77285,-8.02713 0.1571,-7.39416 -2.42114,2.91587 c -3.63508,4.37786 -4.08471,8.69001 -1.43875,13.79832 l 2.21993,4.28581 0.66288,-3.10584 c 0.36459,-1.70821 0.73358,-6.43321 0.81998,-10.5 z m 33.15447,6.79122 c 0,-4.13824 -3.8897,-12.84876 -6.89049,-15.43041 -5.15926,-4.43865 -7.95072,-1.71615 -4.69524,4.57924 0.77785,1.5042 1.71714,4.51935 2.08732,6.70035 1.17709,6.93515 1.20095,6.96544 5.48645,6.96544 3.73235,0 4.01196,-0.19617 4.01196,-2.81462 z m 8.59048,-6.56183 c 0.31081,-1.44295 0.94254,-3.52355 1.40385,-4.62355 0.4613,-1.1 1.06846,-3.04805 1.34924,-4.32899 0.41212,-1.88014 0.1873,-2.19554 -1.16653,-1.63655 -0.92237,0.38085 -2.40878,0.9043 -3.30314,1.16322 -0.89435,0.25893 -2.20789,1.55788 -2.91898,2.88655 -0.71108,1.32867 -1.64388,2.41577 -2.07287,2.41577 -0.429,0 -0.12796,1.56055 0.66898,3.46788 0.79693,1.90734 1.46394,4.49484 1.48224,5.75 l 0.0333,2.28212 1.97941,-2.37645 c 1.08868,-1.30705 2.23372,-3.55705 2.54453,-5 z m -102.59048,-1.85619 c -1.925,-1.45131 -7.78661,-6.94268 -13.0258,-12.20305 -10.65345,-10.69652 -15.38351,-15.01769 -21.9742,-20.07466 -2.475,-1.89905 -7.88151,-6.6111 -12.01447,-10.47123 -4.13295,-3.86013 -8.85795,-7.79303 -10.5,-8.73978 -1.64204,-0.94674 -3.75145,-2.28083 -4.68757,-2.96463 -0.93612,-0.6838 -1.95839,-0.98692 -2.27171,-0.6736 -0.52804,0.52804 -0.9277,22.58896 -0.49942,27.56781 0.13325,1.54911 1.20768,2.5441 3.59964,3.33352 1.87533,0.61891 6.35926,2.66272 9.96428,4.54178 3.60502,1.87906 7.6257,3.41648 8.93486,3.41648 1.30916,0 3.41396,0.39932 4.67734,0.88739 1.26338,0.48806 4.77205,1.44703 7.79705,2.13105 3.85943,0.8727 6.51914,2.24858 8.91667,4.61262 1.87916,1.85292 3.86463,3.36894 4.41214,3.36894 0.54751,0 3.06001,1.23251 5.58333,2.73892 5.36933,3.20544 9.78709,4.99349 12.58786,5.09481 1.58753,0.0574 1.27817,-0.47185 -1.5,-2.56637 z m 58.37373,-9.30513 c 2.72069,-2.43552 2.89549,-3.08912 3.28236,-12.27265 0.23646,-5.61291 -0.0275,-10.51504 -0.62643,-11.63416 -0.59,-1.10242 -0.65155,-2.17107 -0.14314,-2.48528 0.49055,-0.30319 1.17363,-1.67365 1.51793,-3.04547 1.66926,-6.65086 -9.21664,-9.44358 -21.46237,-5.50605 -9.16657,2.94745 -10.21976,4.7976 -6.62214,11.63327 1.40337,2.66646 4.17817,8.44811 6.16624,12.84811 1.98807,4.4 5.22914,10.34416 7.20239,13.20924 l 3.58772,5.20924 2.11185,-2.69186 c 1.16152,-1.48052 3.40504,-3.84949 4.98559,-5.26439 z m 42.28056,-3.21223 c 1.73486,-0.9625 4.0485,-1.75 5.14142,-1.75 2.4029,0 4.54012,-4.82264 6.20429,-14 0.63114,-3.48053 1.84567,-8.07305 2.69894,-10.20561 0.85328,-2.13255 1.27299,-4.1558 0.93269,-4.4961 -1.49123,-1.49123 -18.68771,5.51058 -21.37146,8.70171 -1.10802,1.3175 -1.47434,1.25489 -3.01084,-0.51452 -1.60973,-1.85376 -14.51991,-8.24711 -20.14574,-9.97652 -2.03412,-0.62531 -2.30612,-0.4549 -1.79922,1.12718 0.32845,1.02512 1.54531,4.78886 2.70412,8.36386 1.15882,3.575 3.12344,9.65 4.36583,13.5 2.10837,6.53356 2.46685,7.02057 5.37982,7.3087 1.90863,0.18879 4.79608,1.80821 7.4334,4.16902 l 4.31246,3.86033 2,-2.16903 c 1.1,-1.19296 3.41943,-2.95652 5.15429,-3.91902 z m -22.44729,-11.943 c -0.924,-0.924 -0.70431,-1.71319 0.97431,-3.5 1.69145,-1.80046 3.24298,-2.307 7.06633,-2.307 4.11108,0 4.84528,0.27901 4.56492,1.73479 -0.21903,1.1373 -1.63944,1.94696 -4.12417,2.35084 -2.08455,0.33884 -4.3072,1.13318 -4.93924,1.76522 -1.45024,1.45024 -2.05555,1.44275 -3.54215,-0.0438 z m 21.2082,-2.94421 c -0.71946,-1.16411 2.83562,-4.42693 5.6221,-5.15991 2.30925,-0.60746 6.18785,1.11905 5.71933,2.54588 -0.22598,0.68818 -1.72616,1.39837 -3.33375,1.57819 -1.60758,0.17982 -3.35038,0.74232 -3.87288,1.25 -1.29942,1.26256 -3.28572,1.15968 -4.1348,-0.21416 z m 34.51444,10.13721 c 1.04549,-1.925 4.71749,-6.82982 8.16,-10.8996 l 6.2591,-7.39959 -2.26689,-1.83561 c -2.74138,-2.21984 -15.34842,-6.11014 -18.39529,-5.67644 -2.14578,0.30543 -2.19228,0.65597 -2.49308,18.79323 l -0.30651,18.48199 3.57088,-3.98199 c 1.96399,-2.19009 4.42629,-5.55699 5.47179,-7.48199 z m 43.72799,-4.12161 c 2.9383,-2.26688 5.34237,-4.35717 5.34237,-4.64507 0,-0.2879 -1.53585,-3.72068 -3.41301,-7.62839 -4.79567,-9.98325 -5.71416,-20.50083 -2.65385,-30.3889 2.147,-6.93709 8.14384,-18.02092 12.7641,-23.5916 1.31172,-1.58156 2.20686,-3.05366 1.98919,-3.27133 -0.62532,-0.62533 -9.9914,3.95502 -13.1206,6.41645 -1.55955,1.22675 -3.44986,2.23045 -4.20069,2.23045 -3.00984,0 -0.98714,-3.91084 6.15548,-11.90143 4.13043,-4.62078 7.31655,-8.59474 7.08027,-8.83102 -0.6727,-0.6727 -4.60089,1.69027 -4.60089,2.76763 0,0.53065 -0.43419,0.96482 -0.96486,0.96482 -3.3729,0 -33.03514,32.66591 -33.03514,36.38036 0,2.95436 -3.0093,3.08917 -5.63947,0.25265 -1.35181,-1.45786 -3.67344,-3.41247 -5.15918,-4.34357 -1.48574,-0.9311 -4.27635,-2.87885 -6.20135,-4.32833 -4.05673,-3.05462 -16.60541,-7.08466 -29.5,-9.47399 -18.85446,-3.49369 -61.50748,1.33217 -73.70859,8.33956 -4.07678,2.34139 -6.13221,0.85312 -25.10219,-18.17561 -9.24592,-9.27457 -17.06733,-16.60629 -17.38091,-16.29272 -0.53392,0.53393 0.10774,2.1409 4.8233,12.07948 4.52136,9.52925 1.11219,10.74773 -7.87846,2.81586 -3.71423,-3.27683 -7.87815,-6.52951 -9.25315,-7.22817 -2.15283,-1.0939 -2.00623,-0.73255 1.0557,2.60209 7.83543,8.53328 15.35663,19.33235 20.41059,29.30586 3.15688,6.22981 3.15524,7.38511 -0.0164,11.5434 l -2.55015,3.34342 4.68296,5.33985 c 2.57563,2.93692 5.68187,6.23986 6.90275,7.33986 1.22088,1.1 3.82277,4.25805 5.78198,7.0179 1.95921,2.75984 4.47193,5.84119 5.58382,6.84744 1.98644,1.79771 2.03122,1.7713 2.57374,-1.5179 1.7953,-10.88468 2.32428,-26.28842 1.10225,-32.09744 -0.66025,-3.13858 -0.51947,-3.75 0.86341,-3.75 1.77861,0 2.50192,1.45817 4.97868,10.03688 0.87921,3.04528 2.22624,6.39528 2.99341,7.44444 1.28435,1.75646 1.58268,1.78535 3.76608,0.36475 4.62761,-3.01092 14.98211,-5.22581 22.37123,-4.78535 8.10636,0.48321 7.99007,0.50931 8.32721,-1.86918 0.42835,-3.02197 3.55223,-2.51844 4.00236,0.64513 0.20783,1.46067 0.82857,2.12475 1.6805,1.79784 0.74301,-0.28512 3.74471,0.70214 6.67043,2.19392 11.97044,6.10352 20.03128,8.57006 20.98617,6.42157 1.04983,-2.36213 17.07166,-7.52345 20.53938,-6.61662 1.69914,0.44433 2.19504,-0.1835 3.15447,-3.99373 0.62611,-2.48652 1.60834,-4.81139 2.18274,-5.16639 1.30625,-0.8073 4.13548,1.4285 3.37163,2.66444 -0.30969,0.5011 -0.29078,2.15089 0.042,3.66619 0.56321,2.56429 1.12631,2.83802 8.13062,3.95246 7.15331,1.13814 11.70548,2.92965 15.71406,6.18428 1.62766,1.32152 2.03726,1.17775 4.24214,-1.48894 1.3423,-1.62343 4.00499,-5.20169 5.91709,-7.95169 1.91211,-2.75 4.37075,-6.125 5.46364,-7.5 l 1.98707,-2.5 2.12697,2.11052 c 2.02009,2.00447 2.12801,3.07224 2.14768,21.25 0.0114,10.52671 0.27009,19.13948 0.57488,19.13948 0.3048,0 2.95824,-1.85472 5.89655,-4.12161 z"
         style="fill:#000000" />
    </g>
  </g>
</svg>
