<?xml version="1.0" encoding="UTF-8" standalone="no"?>
<!-- Created with Inkscape (http://www.inkscape.org/) -->

<svg
   xmlns:dc="http://purl.org/dc/elements/1.1/"
   xmlns:cc="http://creativecommons.org/ns#"
   xmlns:rdf="http://www.w3.org/1999/02/22-rdf-syntax-ns#"
   xmlns:svg="http://www.w3.org/2000/svg"
   xmlns="http://www.w3.org/2000/svg"
   xmlns:sodipodi="http://sodipodi.sourceforge.net/DTD/sodipodi-0.dtd"
   xmlns:inkscape="http://www.inkscape.org/namespaces/inkscape"
   width="170.45018"
   height="151.16879"
   id="svg4768"
   version="1.1"
   inkscape:version="0.48.4 r9939"
   sodipodi:docname="arrow.svg">
  <defs
     id="defs4770" />
  <sodipodi:namedview
     id="base"
     pagecolor="#ffffff"
     bordercolor="#666666"
     borderopacity="1.0"
     inkscape:pageopacity="0.0"
     inkscape:pageshadow="2"
     inkscape:zoom="3.959798"
     inkscape:cx="103.30187"
     inkscape:cy="64.574179"
     inkscape:document-units="px"
     inkscape:current-layer="layer1"
     showgrid="false"
     fit-margin-top="0"
     fit-margin-left="0"
     fit-margin-right="0"
     fit-margin-bottom="0"
     inkscape:window-width="1920"
     inkscape:window-height="1048"
     inkscape:window-x="1680"
     inkscape:window-y="0"
     inkscape:window-maximized="1" />
  <metadata
     id="metadata4773">
    <rdf:RDF>
      <cc:Work
         rdf:about="">
        <dc:format>image/svg+xml</dc:format>
        <dc:type
           rdf:resource="http://purl.org/dc/dcmitype/StillImage" />
        <dc:title></dc:title>
      </cc:Work>
    </rdf:RDF>
  </metadata>
  <g
     inkscape:label="Layer 1"
     inkscape:groupmode="layer"
     id="layer1"
     transform="translate(-162.29317,-225.5888)">
    <path
       style="fill:#da67a2;fill-opacity:1;stroke:#000000;stroke-width:5.5;stroke-linecap:round;stroke-linejoin:round;stroke-miterlimit:4;stroke-opacity:1;stroke-dasharray:none"
       d="m 325.69794,267.63165 c 0,0 5.47311,64.90434 1.6938,70.80522 -6.09621,9.51841 -13.6006,-6.35575 -98.48988,-7.82868 -14.00231,-0.24295 7.66978,51.13445 -3.53553,42.42641 -11.45323,-8.90071 -62.79921,-63.48383 -60.10407,-67.68022 14.53845,-22.63666 25.00546,-31.7775 51.51777,-77.02414 13.50666,17.63158 5.11889,48.07446 9.09138,49.24494 14.92057,2.5885 104.04571,-6.06091 104.04571,-6.06091"
       id="path4841"
       inkscape:connector-curvature="0"
       sodipodi:nodetypes="cssssccc" />
    <path
       style="color:#000000;fill:none;stroke:none;stroke-width:5.5;marker:none;visibility:visible;display:inline;overflow:visible;enable-background:accumulate"
       d="m 113.71907,-1.1939553 c -4.23849,0.91403429 -7.06402,4.6377745 -8.39689,8.5547293 -3.08599,7.493359 -4.37028,15.600632 -4.32224,23.683007 -0.10739,4.695299 -0.13897,9.391915 -0.24713,14.087228 C 80.778401,45.410089 60.885146,43.548842 40.990639,42.109441 30.651843,41.331262 20.354083,40.322713 10.020597,39.504144 4.7022436,39.193322 -0.20372129,43.618578 -0.53865352,48.887514 -1.6008741,62.052943 -2.4012763,75.247234 -2.8404543,88.449135 c -0.045208,7.308509 -0.4078433,14.659025 0.3604139,21.939305 0.4840355,5.3122 3.9047938,10.58438 9.2728846,11.9561 6.1659508,1.42949 12.3478508,-0.81985 18.3642578,-1.99663 21.69873,-4.99643 44.003742,-6.96059 66.236017,-7.82079 3.350126,-0.06 6.899625,-0.31009 10.156771,-0.18151 0.19099,7.10378 -1.66936,14.08017 -2.880516,21.05537 -0.565112,4.21578 -2.147205,8.43759 -1.25142,12.69204 1.150908,4.97589 6.485206,8.42817 11.492076,7.4026 4.77566,-0.8249 7.8172,-5.0299 11.23786,-8.06071 15.31649,-15.05549 30.08214,-30.69305 43.84854,-47.162569 3.42439,-4.391777 7.15275,-8.67172 9.62153,-13.698032 1.54801,-3.631132 0.64135,-7.84388 -1.68096,-11.009085 -9.65263,-14.539721 -20.55849,-28.20488 -30.09708,-42.781764 -6.06515,-8.944419 -11.60696,-18.224926 -17.29328,-27.4080534 -2.26415,-3.5986131 -6.66599,-5.4698828 -10.82757,-4.5693619 z"
       id="path5437"
       inkscape:connector-curvature="0"
       transform="translate(162.29317,225.5888)" />
  </g>
</svg>
