<?xml version="1.0" encoding="UTF-8" standalone="no"?>
<!-- Created with Inkscape (http://www.inkscape.org/) -->

<svg
   xmlns:dc="http://purl.org/dc/elements/1.1/"
   xmlns:cc="http://creativecommons.org/ns#"
   xmlns:rdf="http://www.w3.org/1999/02/22-rdf-syntax-ns#"
   xmlns:svg="http://www.w3.org/2000/svg"
   xmlns="http://www.w3.org/2000/svg"
   xmlns:sodipodi="http://sodipodi.sourceforge.net/DTD/sodipodi-0.dtd"
   xmlns:inkscape="http://www.inkscape.org/namespaces/inkscape"
   width="114.11562mm"
   height="143.77208mm"
   viewBox="0 0 404.34667 509.42863"
   id="svg3892"
   version="1.1"
   inkscape:version="0.91 r13725"
   sodipodi:docname="home.svg">
  <defs
     id="defs3894" />
  <sodipodi:namedview
     id="base"
     pagecolor="#ffffff"
     bordercolor="#666666"
     borderopacity="1.0"
     inkscape:pageopacity="0.0"
     inkscape:pageshadow="2"
     inkscape:zoom="0.35"
     inkscape:cx="108.60196"
     inkscape:cy="157.57145"
     inkscape:document-units="px"
     inkscape:current-layer="layer1"
     showgrid="false"
     fit-margin-top="0"
     fit-margin-left="0"
     fit-margin-right="0"
     fit-margin-bottom="0"
     inkscape:window-width="1440"
     inkscape:window-height="851"
     inkscape:window-x="0"
     inkscape:window-y="1"
     inkscape:window-maximized="1" />
  <metadata
     id="metadata3897">
    <rdf:RDF>
      <cc:Work
         rdf:about="">
        <dc:format>image/svg+xml</dc:format>
        <dc:type
           rdf:resource="http://purl.org/dc/dcmitype/StillImage" />
        <dc:title></dc:title>
      </cc:Work>
    </rdf:RDF>
  </metadata>
  <g
     inkscape:label="Layer 1"
     inkscape:groupmode="layer"
     id="layer1"
     transform="translate(-266.39804,-180.50504)">
    <g
       transform="translate(1679.9699,-403.14583)"
       id="g5019"
       inkscape:export-filename="/home/elliot/git/oddc_1/oddc/img/home.png"
       inkscape:export-xdpi="37.807064"
       inkscape:export-ydpi="37.807064">
      <path
         inkscape:connector-curvature="0"
         id="path5535"
         d="m -1202.2142,589.41128 c -12.1297,5.18522 -21.4124,15.36345 -31.3649,23.79794 -16.7652,16.42169 -35.775,30.14403 -53.8667,44.7346 -38.2932,27.77757 -74.5892,58.04782 -112.6168,86.21943 -3.2682,2.20714 -9.2188,6.10479 -5.2238,10.40798 5.9423,7.54882 15.1553,11.20855 22.097,17.51983 4.6663,3.41863 7.4324,-2.66555 8.8704,-6.15562 7.9571,-8.22903 17.6895,-15.32649 26.4496,-23.02145 24.9339,-18.96367 49.6305,-38.87193 73.3189,-59.48219 19.6446,-16.4551 37.1333,-35.46986 59.2043,-48.72149 5.595,-3.10635 9.0265,-9.43164 14.7419,-11.83772 11.9639,8.64792 22.6042,19.4596 33.9725,28.92947 39.8416,34.79251 79.1256,69.97294 116.4215,107.30683 5.4126,4.29522 9.7644,11.42435 17.1335,12.16142 5.4838,-5.57383 12.1454,-11.13462 15.3733,-18.43528 -0.3472,-7.34967 -8.4484,-11.25162 -12.6585,-16.47812 -25.0647,-22.94254 -49.1641,-47.2434 -75.9509,-68.12216 -16.5795,-10.68913 -30.4251,-25.06175 -45.4637,-37.71378 -12.6611,-11.15306 -24.4799,-23.20396 -38.0317,-33.24944 -3.5986,-3.10392 -7.127,-8.04141 -12.4059,-7.86025 z"
         style="color:#000000;display:inline;overflow:visible;visibility:visible;fill:#50220f;fill-opacity:1;fill-rule:nonzero;stroke:none;stroke-width:0.30304578;marker:none;enable-background:accumulate" />
      <path
         inkscape:connector-curvature="0"
         id="path5531"
         d="m -1200.4591,627.13417 c -20.5922,11.55893 -40.118,26.12717 -57.0448,42.88467 -16.6883,15.9556 -35.9757,29.05847 -52.2095,45.44054 -2.1878,1.3592 -1.2662,7.77976 -3.8196,4.73509 -6.0627,-1.18911 -9.5219,6.11143 -14.1935,8.53615 -8.4007,7.64107 -19.17,13.09412 -25.9917,22.2735 -2.8413,11.02656 -1.2384,22.83941 -2.2378,34.15539 -0.4267,37.29563 -3.6297,74.47442 -3.4756,111.77953 0.029,23.43599 -0.8334,47.07339 -0.089,70.38259 3.4047,4.1045 10.3619,4.1511 15.4417,5.8024 11.6036,2.9678 22.9659,-2.1436 34.4088,-2.371 3.1781,-3.3808 10.5444,0.095 15.993,-1.114 34.5903,-0.1859 69.3544,1.6042 103.8166,1.395 2.1613,-4.0313 2.7903,-0.8912 6.5741,-0.7321 15.5934,1.0383 31.4653,2.6218 47.0352,1.168 1.4294,-3.9244 4.0086,0.273 7.0395,-0.3788 10.9742,0.5733 22.2634,2.5589 33.1457,0.9154 5.5371,-4.7562 2.8079,-13.4999 3.7555,-19.9187 0.1364,-64.92019 0.2675,-129.87114 -1.4586,-194.76778 -0.2936,-10.43953 -2.1851,-21.19183 -0.6239,-31.50661 4.6439,-5.45694 -3.5567,-10.24259 -6.7688,-13.88331 -30.9412,-27.94892 -62.1805,-55.71983 -93.7413,-82.93349 -1.5682,-1.19166 -3.4668,-2.97404 -5.5559,-1.86247 z m -0.1262,100.03667 c 10.8367,-0.0687 20.8057,4.94397 31.0621,7.63928 13.6847,7.74863 24.8903,19.58468 34.0296,32.19861 12.0812,17.93394 11.6803,41.03356 8.5231,61.55617 -2.0237,10.82444 -8.3281,20.07151 -12.7216,29.9889 1.1047,9.83642 -0.2282,5.30115 -6.2803,8.60362 -13.2964,13.58207 -30.6939,25.42919 -50.3741,25.02561 -17.5722,1.46811 -35.2654,0.15569 -52.2527,-4.42951 -4.3467,3.19237 -6.8516,-4.6045 -12.359,-5.6898 -15.8206,-9.9754 -30.0166,-24.23024 -36.949,-41.78736 -5.8759,-22.66538 -0.8193,-46.87672 7.8602,-68.12217 5.2419,-14.35351 15.8815,-25.85263 29.2629,-32.98779 18.2063,-9.77423 39.7865,-11.5722 60.1988,-11.99556 z"
         style="color:#000000;display:inline;overflow:visible;visibility:visible;fill:#7f3211;fill-opacity:1;fill-rule:nonzero;stroke:none;stroke-width:0.30304578;marker:none;enable-background:accumulate" />
      <path
         inkscape:connector-curvature="0"
         id="path5533"
         d="m -1093.7617,721.86754 c -5.2515,3.57514 -2.5286,11.47295 -3.1252,16.88848 2.0035,42.6621 1.3144,85.42624 1.7928,128.13149 0.139,33.74543 0.2779,67.49082 0.4169,101.23632 1.5911,4.4475 7.8618,3.9201 11.9009,4.7666 7.7688,-0.2484 15.9758,1.3375 23.4545,-0.5998 2.1278,-10.1793 -0.018,-21.124 0.3538,-31.5952 -1.5114,-63.51825 -3.3309,-127.08368 -4.6154,-190.57519 -3.3319,-10.29473 -14.1374,-14.70016 -20.8975,-22.41276 -2.937,-1.94873 -5.3539,-6.32145 -9.2808,-5.83994 z"
         style="color:#000000;display:inline;overflow:visible;visibility:visible;fill:#7f3211;fill-opacity:1;fill-rule:nonzero;stroke:none;stroke-width:0.30304578;marker:none;enable-background:accumulate" />
      <path
         inkscape:connector-curvature="0"
         id="path5529"
         d="m -1211.8938,730.32233 c -25.1487,-0.2646 -53.2479,6.93828 -68.5325,28.44211 -13.3558,23.7617 -22.2713,52.19771 -15.3101,79.45481 9.3153,27.27891 35.6107,48.04395 64.2908,50.75593 20.6303,1.52626 43.5977,5.52902 62.251,-5.93432 14.3905,-8.29613 27.1462,-20.15442 33.4095,-35.82494 12.2377,-25.50908 13.7463,-58.29434 -2.9673,-82.20116 -8.3019,-10.08906 -16.7407,-21.0069 -28.3474,-27.40039 -14.1421,-6.45788 -29.3253,-8.16062 -44.794,-7.29204 z m 39.7117,41.70036 c 5.6589,2.6623 9.647,9.0049 13.637,13.8896 6.9069,9.62927 5.1177,22.63062 3.4093,33.58757 -5.1445,14.13336 -18.4987,26.10521 -33.5244,27.90546 -9.74,0.37467 -18.9734,-3.70205 -27.1366,-8.5474 -4.823,0.30189 -6.5984,7.46399 -12.0384,7.72665 -9.5162,3.38382 -20.1269,2.85668 -29.6101,0.0631 -9.8409,-7.02024 -13.4257,-19.41901 -13.4477,-30.96749 -1.8952,-13.48571 3.244,-27.52421 12.5322,-37.18624 2.5761,-0.81564 4.4412,-3.19871 5.619,-5.52427 12.5773,6.85915 26.279,11.76304 39.0626,18.474 6.0937,2.10741 11.5148,-4.08441 16.8685,-6.41676 8.028,-4.23747 15.4985,-11.2712 24.6286,-13.00426 z"
         style="color:#000000;display:inline;overflow:visible;visibility:visible;fill:#000000;fill-opacity:1;fill-rule:nonzero;stroke:none;stroke-width:0.30304578;marker:none;enable-background:accumulate" />
      <path
         inkscape:connector-curvature="0"
         id="path5525"
         d="m -1172.4031,777.07345 c -13.8563,1.70927 -24.8724,11.77968 -36.4602,18.75096 -2.4536,4.24771 -1.6599,10.44555 -0.4735,15.05758 4.9798,1.22394 11.332,0.50565 14.7735,5.42957 3.3664,2.69714 2.8978,8.60831 -1.7678,9.34392 -5.301,2.15053 -12.7364,-3.51263 -16.2256,2.43067 -2.7808,8.70189 6.1641,15.02226 13.574,16.76222 15.0035,4.7645 29.8636,-6.48451 37.786,-18.37215 6.5891,-10.21428 6.7869,-23.73622 3.5986,-35.13436 -2.9423,-5.60335 -6.3922,-13.28899 -13.3213,-14.29998 -0.4948,0.004 -0.9902,-0.0164 -1.4837,0.0316 z"
         style="color:#000000;display:inline;overflow:visible;visibility:visible;fill:#fce953;fill-opacity:1;fill-rule:nonzero;stroke:none;stroke-width:0.30304578;marker:none;enable-background:accumulate" />
      <path
         inkscape:connector-curvature="0"
         id="path5527"
         d="m -1249.6482,777.76793 c -11.0867,2.00948 -17.049,13.92135 -19.698,23.83329 -0.6826,13.86115 -0.9847,29.73338 9.0283,40.62707 8.4825,7.6144 21.2551,5.12002 31.3778,2.96732 6.055,-2.79012 11.7463,-8.33685 13.6055,-14.80504 -1.2633,-6.14811 -9.3903,-2.48262 -13.0688,-6.25032 -6.2485,-2.27855 -4.8337,-11.42339 0.2525,-13.76333 5.5372,-1.59186 9.3989,5.541 14.2608,4.339 3.2555,-3.80863 1.0417,-10.23952 1.4597,-15.16657 -0.9385,-8.65306 -11.4058,-10.49766 -17.583,-14.42625 -6.3958,-2.52779 -12.6593,-6.81936 -19.6348,-7.35517 z"
         style="color:#000000;display:inline;overflow:visible;visibility:visible;fill:#fce953;fill-opacity:1;fill-rule:nonzero;stroke:none;stroke-width:0.30304578;marker:none;enable-background:accumulate" />
      <g
         id="g6338">
        <g
           id="g5737"
           transform="matrix(0.99738653,-0.07225033,0.07225033,0.99738653,-77.931613,-80.924136)">
          <path
             inkscape:connector-curvature="0"
             id="path5537"
             d="m -1129.9804,1021.137 c -4.8947,-0.038 -6.8963,5.248 -7.0711,9.3755 -0.8792,14.786 -2.7242,29.5442 -3.0492,44.3987 -0.1428,3.3381 -0.9494,8.8663 3.7437,9.2814 7.9804,0.4315 16.0435,0.4288 24.0227,-0.063 3.6699,-0.1071 5.2809,-3.7957 5.2717,-6.9922 0.9195,-2.3682 0.3795,-5.7923 -2.699,-6.0767 -5.638,-0.695 -11.86,0.1719 -17.2357,-0.4735 0.1445,-4.232 1.9863,-8.5351 0.5524,-12.7058 0.4877,-2.4469 3.7724,-0.6886 5.4612,-1.4521 5.3466,-0.3458 6.3903,-7.8282 2.7937,-10.8907 -2.6172,-1.9821 -6.1141,-0.6596 -9.0283,-1.7678 0.1393,-1.9612 -0.7267,-4.5167 0.063,-6.1872 4.6662,-2.1503 9.8345,1.4673 14.4578,-0.4103 2.8289,-2.3059 3.1742,-6.6956 2.8568,-10.0858 -1.7988,-4.0501 -7.0968,-2.7943 -10.562,-4.1232 -3.1567,-0.7395 -6.2619,-1.9787 -9.5779,-1.8272 z"
             style="color:#000000;display:inline;overflow:visible;visibility:visible;fill:#da67a2;fill-opacity:1;fill-rule:nonzero;stroke:none;stroke-width:0.15152289;marker:none;enable-background:accumulate" />
          <path
             inkscape:connector-curvature="0"
             id="path5539"
             d="m -1193.1465,1019.8901 c -2.6555,3.2183 -2.499,7.9161 -3.4524,11.8795 -1.2075,12.872 -3.9706,25.4714 -6.8667,38.0553 -0.8021,3.2131 -2.0052,8.0958 1.9853,9.7115 3.1026,0.7897 7.3438,3.0574 9.7859,0.032 1.1087,-5.7887 2.8273,-12.4379 5.035,-17.3462 3.3043,4.6322 5.0977,10.4486 8.3653,14.9787 2.9865,2.5615 6.0065,-1.6182 8.1917,-3.5829 1.4243,-1.409 2.8262,-2.7682 4.3878,-4.0406 3.0938,4.9488 1.9389,11.7622 5.8715,16.2098 3.8973,2.6719 8.9306,-2.1754 7.9234,-6.3608 -2.9714,-16.3277 -2.0692,-33.0997 -2.9042,-49.6554 0.2996,-3.0983 -1.7144,-6.1475 -5.1086,-5.5587 -4.8099,-0.7773 -9.0328,3.2588 -9.4013,7.9445 -1.1905,6.2886 -2.3683,12.5482 -4.604,18.5433 -1.0806,2.9077 -1.1749,6.9598 -3.5987,8.9809 -2.7354,-8.8677 -2.9457,-18.3042 -3.5583,-27.5261 -0.4954,-3.5204 0.3532,-7.6358 -1.7608,-10.686 -2.8414,-1.7917 -6.68,-2.0457 -9.9082,-1.6627 l -0.3827,0.084 z"
             style="color:#000000;display:inline;overflow:visible;visibility:visible;fill:#da67a2;fill-opacity:1;fill-rule:nonzero;stroke:none;stroke-width:0.15152289;marker:none;enable-background:accumulate" />
          <path
             inkscape:connector-curvature="0"
             id="path5541"
             d="m -1230.0013,1011.146 c -5.4117,1.062 -8.6127,6.4276 -11.1906,10.8591 -6.0046,11.6608 -7.062,25.0377 -8.0339,37.9123 -0.7788,5.3757 1.8067,10.4718 5.6979,14.0316 5.0932,5.4258 13.179,8.9789 20.4398,5.9505 9.7063,-4.0383 15.7777,-14.3321 17.362,-24.4331 0.5751,-8.7535 -0.8054,-17.6039 -2.9515,-26.0746 -1.8866,-8.105 -8.3257,-15.0894 -16.5413,-16.8727 -1.6119,-0.1676 -2.9275,-1.8087 -4.7824,-1.3731 z m 2.2255,15.4995 c 4.3839,0.9997 6.6729,5.9919 7.513,10.0542 0.9274,7.461 0.7318,15.3246 -2.2728,22.2865 -1.9137,2.5097 -4.7797,5.0038 -7.955,5.3822 -7.4013,-3.7513 -8.9517,-13.0554 -7.8287,-20.503 0.8548,-6.4041 4.3307,-12.3119 8.8231,-16.8095 0.5776,-0.084 1.1243,-0.3929 1.7204,-0.4104 z"
             style="color:#000000;display:inline;overflow:visible;visibility:visible;fill:#da67a2;fill-opacity:1;fill-rule:nonzero;stroke:none;stroke-width:0.15152289;marker:none;enable-background:accumulate" />
          <path
             inkscape:connector-curvature="0"
             id="path5543"
             d="m -1297.8551,1009.3151 c -2.6153,3.2823 -1.4851,8.0194 -2.3202,11.9482 -1.3498,17.5932 -3.4941,35.1316 -3.8986,52.7804 0.6372,4.6033 5.8867,2.6047 8.9198,1.9358 2.9716,-0.8154 7.6068,-1.2277 7.3524,-5.347 1.412,-7.8791 -0.706,-16.073 -0.3939,-23.784 5.3304,0.6501 10.7293,1.1111 16.0046,1.9888 -1.9664,7.125 -3.6484,14.3835 -4.3562,21.7498 0.467,4.2981 5.6647,3.58 8.6843,3.0102 3.3943,-0.8633 7.525,-0.1402 10.3192,-2.584 1.5441,-5.7455 1.132,-11.942 1.8541,-17.8288 1.0586,-12.2827 2.1354,-24.6083 2.076,-36.9404 -0.9775,-3.8933 -5.8061,-2.5247 -8.8037,-2.409 -3.0034,-0.3214 -6.8797,1.1028 -6.0487,4.7765 -0.4523,2.2112 0.7751,5.0722 -0.584,6.9764 -4.6902,0.2753 -9.6742,0.5911 -14.2211,0.2683 -0.8907,-1.7342 0.9074,-3.887 1.1383,-5.7193 1.5215,-3.5588 1.6679,-9.6106 -3.2533,-10.3642 -4.0881,-0.4862 -8.4339,-1.4122 -12.469,-0.4577 z"
             style="color:#000000;display:inline;overflow:visible;visibility:visible;fill:#da67a2;fill-opacity:1;fill-rule:nonzero;stroke:none;stroke-width:0.15152289;marker:none;enable-background:accumulate" />
          <path
             sodipodi:nodetypes="cccsccsccsccscccssscccccssccssccscccccssscccccccscccccsssccccsccccccccssscssscccscssccccccscsccccccccscccscccccssccsccscsssccccccccssscccscsccsssccscccccssssccscscscccscsccccccccccccscccscscccsccsscccsccscccccccccssccccsscscccccccccsscsccccccccsscscccsccccssssccsccccccccc"
             inkscape:connector-curvature="0"
             id="path5519"
             d="m -1161.9217,1091.2287 c -0.9357,-0.7087 -1.3102,-1.6487 -0.9895,-2.4844 0.2837,-0.7394 0.1921,-1.7501 -0.2037,-2.2461 -0.3959,-0.4959 -1.3099,-2.9603 -2.0313,-5.4764 -1.4643,-5.1082 -2.767,-6.4825 -4.0503,-4.2734 -0.4688,0.807 -1.4846,2.0342 -2.2572,2.7273 -0.7726,0.6929 -1.4048,1.7011 -1.4048,2.2402 0,0.5391 -0.7644,1.5156 -1.6987,2.17 -1.3143,0.9205 -2.1319,0.9925 -3.6123,0.318 -1.0524,-0.4795 -1.9134,-1.316 -1.9134,-1.859 0,-0.5429 -1.2905,-3.5984 -2.8677,-6.7898 -2.74,-5.5441 -2.9199,-5.7283 -4.0369,-4.1335 -1.0502,1.4992 -1.4731,4.846 -1.0307,8.1546 0.443,3.3133 -0.1781,5.4543 -1.6974,5.8516 -0.883,0.2309 -1.6284,1.0858 -1.6563,1.8998 -0.042,1.2241 -0.1764,1.1678 -0.7768,-0.3262 -0.3994,-0.9934 -1.2795,-1.8062 -1.956,-1.8062 -0.6765,0 -1.23,-0.3259 -1.23,-0.7242 0,-1.1228 -4.6801,-2.4867 -8.533,-2.4867 -3.0858,0 -3.5369,-0.2378 -4.0073,-2.112 -0.305,-1.2152 0.029,-3.8868 0.7874,-6.2917 1.2082,-3.8328 1.8399,-9.7513 0.7308,-6.848 -1.5687,4.1068 -7.0837,10.6003 -11.5178,13.5613 -4.9348,3.2953 -6.1568,3.5926 -13.5826,3.3047 -3.3279,-0.1291 -9.2041,-2.7957 -12.8436,-5.8286 -1.42,-1.1833 -7.5279,-9.3002 -8.3055,-11.0374 -0.2964,-0.6623 -0.3623,0.5103 -0.1462,2.6057 0.2176,2.1104 -0.029,4.7366 -0.5537,5.8874 -0.8192,1.7978 -1.2765,2.0022 -3.3958,1.5178 -4.9754,-1.1372 -13.5766,-0.7596 -16.6503,0.7311 -1.6648,0.8073 -3.6656,1.214 -4.5661,0.9282 -1.9439,-0.617 -2.5474,-4.033 -1.2113,-6.8565 0.9016,-1.9053 2.7191,-12.8683 2.9938,-18.0587 0.1221,-2.3066 -0.038,-2.427 -3.7699,-2.8558 -2.8752,-0.3302 -4.0078,-0.1599 -4.3183,0.6492 -0.2315,0.6034 -0.4644,5.6026 -0.5176,11.1095 -0.073,7.6318 0.1616,10.1731 0.9896,10.6875 0.8474,0.5265 0.8854,1.0503 0.1724,2.3825 -0.5025,0.9391 -0.6482,1.7075 -0.3236,1.7075 0.3246,0 0.164,0.4261 -0.3568,0.9469 -0.5376,0.5376 -2.7184,0.8661 -5.045,0.7599 -4.1549,-0.1896 -12.5274,1.1762 -13.996,2.2831 -0.4414,0.3328 -1.7057,0.8193 -2.8095,1.0811 -1.5798,0.3748 -2.1971,0.072 -2.9009,-1.4234 -0.516,-1.0959 -0.6061,-2.3541 -0.213,-2.9742 0.3746,-0.5912 0.6867,-2.4059 0.6935,-4.0327 0.011,-1.6269 0.3908,-3.9535 0.8534,-5.1703 0.8545,-2.2476 1.3423,-6.1717 1.933,-15.5521 0.1807,-2.8698 0.7387,-6.8433 1.2401,-8.83 0.5013,-1.9867 0.726,-4.5523 0.4992,-5.7013 -0.2267,-1.1489 -0.095,-4.4 0.2935,-7.2245 1.661,-12.0871 1.7689,-18.2019 0.3589,-20.3538 -1.1257,-1.7181 -1.1703,-2.2552 -0.2768,-3.332 1.5673,-1.8883 4.6106,-2.8496 6.2478,-1.9733 0.7695,0.4117 2.8228,0.9162 4.5632,1.121 1.7401,0.2049 4.4321,0.6144 5.9819,0.9101 1.5498,0.2957 3.8035,0.163 5.0084,-0.2951 1.9833,-0.754 2.3053,-0.611 3.4032,1.5123 1.3585,2.6272 1.5602,4.5657 0.5167,4.9669 -0.3829,0.1471 -0.9487,2.329 -1.2575,4.8486 l -0.5615,4.5809 3.8663,-0.2219 c 3.7312,-0.2143 3.8811,-0.3183 4.2871,-2.9756 0.2315,-1.5145 0.051,-3.7784 -0.4013,-5.031 -0.7147,-1.9798 -0.5658,-2.4851 1.1387,-3.8662 1.3036,-1.0563 2.514,-1.4017 3.6122,-1.0308 0.9084,0.3068 3.3033,0.7225 5.3222,0.9238 3.085,0.3076 4.0641,0.035 6.1363,-1.7087 3.5642,-2.9992 5.646,-2.7535 6.3021,0.7436 0.3286,1.7515 0.1664,3.255 -0.4287,3.972 -0.58,0.6988 -1.0739,4.9052 -1.253,10.6709 -0.1626,5.2346 -0.7277,12.7487 -1.256,16.6982 -1.1487,8.5876 -1.4103,16.4122 -0.5488,16.4122 0.3423,0 0.6758,-1.5352 0.7412,-3.4116 0.2183,-6.2679 1.0529,-11.252 3.5284,-21.0715 2.2798,-9.0427 4.7827,-14.1418 9.5376,-19.4303 6.7919,-7.5543 12.9106,-7.7272 22.5681,-0.6378 9.1974,6.7516 11.4943,12.4893 13.6578,34.1158 0.067,0.6622 0.1738,1.7158 0.2392,2.3413 0.066,0.6255 0.2956,0.9605 0.5115,0.7446 0.3382,-0.3382 1.0675,-6.2127 2.4375,-19.6326 0.1854,-1.816 0.7081,-4.2778 1.1616,-5.4706 0.4535,-1.1929 0.8246,-3.4335 0.8246,-4.979 0,-4.0742 1.2434,-5.9154 3.9945,-5.9154 1.2829,0 2.5545,0.359 2.8257,0.7979 0.2712,0.4388 2.3918,0.7542 4.7125,0.7007 4.8098,-0.111 7.4361,0.534 7.9147,1.9436 0.1816,0.535 0.099,4.2008 -0.1837,8.146 -0.2827,3.9454 -0.2047,9.0025 0.1733,11.2382 0.3781,2.2357 0.8347,5.4591 1.0149,7.1632 0.3606,3.4103 0.9883,4.5647 1.5424,2.8363 1.6433,-5.1267 4.4962,-17.8403 4.4986,-20.0475 0,-1.5094 0.7016,-3.89 1.5553,-5.2901 l 1.5523,-2.5458 4.6327,1.2098 c 4.1376,1.0805 4.9065,1.0792 7.1959,-0.013 2.3732,-1.1317 2.6645,-1.1105 3.9279,0.2856 1.1104,1.2269 1.2521,2.3015 0.7608,5.7692 -0.6331,4.4675 -0.6329,6.6846 0,27.5404 0.2645,8.6765 0.9428,15.4479 2.0908,20.8708 2.6732,12.6287 2.6784,12.714 0.834,13.8371 -1.0828,0.6594 -2.2626,0.7538 -3.5067,0.2808 -1.9074,-0.7251 -3.9403,-0.026 -6.062,2.0852 -1.3174,1.3108 -1.7677,1.294 -3.6556,-0.1356 z m 7.5259,-10.5251 c 0,-1.0041 -0.3134,-2.6619 -0.6964,-3.684 -1.1664,-3.1133 -1.9784,-16.2655 -2.0475,-33.1647 -0.04,-9.6957 -0.3835,-16.288 -0.8684,-16.6442 -1.4112,-1.0368 -4.7614,-0.6228 -6.5398,0.8083 -0.948,0.7628 -1.9076,2.6512 -2.1327,4.1965 -1.3253,9.1 -2.4381,14.449 -3.0063,14.449 -0.3566,0 -1.0732,2.077 -1.5928,4.6156 -1.735,8.4776 -3.3903,11.3544 -6.5675,11.4133 -1.6671,0.031 -3.3009,-2.7189 -3.5619,-5.9949 -0.1051,-1.3245 -0.7545,-6.0204 -1.4424,-10.4354 -0.6879,-4.415 -1.1822,-11.1139 -1.0987,-14.8865 0.084,-3.7726 -0.1171,-7.2946 -0.446,-7.8266 -0.3288,-0.532 -2.1428,-0.9673 -4.0312,-0.9673 l -3.4335,0 -1.3355,5.5333 c -0.7346,3.0433 -1.3355,7.2521 -1.3355,9.3529 0,4.1919 -2.2764,16.5039 -5.2895,28.6096 -2.5599,10.2846 -2.5304,10.7794 0.6738,11.3175 1.4349,0.241 3.1891,0.6682 3.8982,0.9493 1.0613,0.4209 1.3851,-0.3031 1.8305,-4.0931 0.2976,-2.5324 0.8478,-4.9894 1.2226,-5.46 0.3748,-0.4705 1.2716,-2.9142 1.993,-5.4303 0.7213,-2.5162 1.6705,-4.7967 2.1092,-5.0679 1.7974,-1.1108 5.2235,2.7248 7.0605,7.9045 1.0225,2.8828 2.377,5.6714 3.0103,6.1969 0.6332,0.5256 1.1513,1.4532 1.1513,2.0613 0,1.8347 0.7944,1.3159 5.6823,-3.7105 2.5761,-2.649 4.9976,-4.8164 5.3812,-4.8164 1.6116,0 4.0576,3.8672 4.5694,7.2246 0.3028,1.9867 0.9338,4.8765 1.4022,6.4218 0.4683,1.5452 0.9689,3.2588 1.1125,3.808 0.4706,1.8011 4.3286,-0.5879 4.3286,-2.6806 z m -70.8403,-2.7597 c 0.1107,-0.096 0.4715,-0.2318 0.8026,-0.3027 2.8544,-0.6105 9.2664,-6.0623 10.9419,-9.3032 0.5706,-1.1038 1.8523,-3.4318 2.8482,-5.1735 2.424,-4.2391 2.881,-9.8024 1.6905,-20.5823 -1.0497,-9.5055 -2.9904,-16.3731 -5.7583,-20.3767 -2.1517,-3.1124 -7.9236,-6.8473 -10.5818,-6.8473 -1.1306,0 -2.2791,-0.3612 -2.552,-0.8027 -1.0205,-1.6512 -3.7821,-0.7067 -6.4553,2.2075 -6.1399,6.6934 -9.1007,15.2362 -11.3028,32.6117 -1.7662,13.9356 -1.6641,15.3478 1.4221,19.6871 1.4439,2.0301 2.8925,3.8056 3.2192,3.9454 0.3267,0.1397 1.5878,1.0428 2.8023,2.0068 2.8291,2.2452 7.2432,3.6824 10.3145,3.358 1.3245,-0.1398 2.4985,-0.3325 2.6089,-0.4281 z m -9.997,-13.4531 c -4.1978,-3.702 -5.6574,-7.1288 -6.1705,-14.4875 -0.47,-6.7395 0.8797,-12.2269 4.4441,-18.0689 2.5215,-4.1328 6.305,-8.5967 6.305,-7.439 0,0.3806 0.5279,0.254 1.173,-0.2814 1.9564,-1.6238 6.363,0.3342 8.1279,3.6114 0.8247,1.5315 1.7394,2.7846 2.0327,2.7846 0.9561,0 3.0304,10.9378 2.6812,14.1389 -1.3586,12.4541 -2.1891,15.2136 -5.4981,18.266 -2.5335,2.337 -6.8179,4.5485 -8.6916,4.4861 -0.5661,-0.019 -2.5477,-1.3734 -4.4037,-3.0102 z m 9.4303,-6.2234 2.7585,-2.8461 0.011,-8.9941 c 0.012,-14.0813 -2.6279,-19.066 -7.4735,-14.1098 -4.2081,4.3042 -6.7575,15.223 -4.9141,21.0473 1.3987,4.4194 3.7487,7.7488 5.4695,7.7488 0.7663,0 2.6347,-1.2807 4.1518,-2.8461 z m -64.8897,13.58 c 0.8817,-0.5448 0.6443,-21.0697 -0.25,-21.6224 -1.267,-0.7831 -0.7695,-4.0687 0.8361,-5.5218 1.3002,-1.1766 1.991,-1.2636 4.2143,-0.5304 1.4626,0.4822 5.46,1.039 8.8831,1.2372 3.4232,0.1983 6.5838,0.5829 7.0238,0.8549 1.1996,0.7413 0.9651,3.8355 -0.5158,6.8039 -0.7236,1.4505 -1.6143,5.3892 -1.9794,8.7526 -0.365,3.3634 -0.9108,6.9739 -1.2128,8.0233 -0.5259,1.828 -0.4177,1.8874 2.5815,1.4183 1.7218,-0.2693 4.9367,-0.712 7.1442,-0.9838 2.2074,-0.2718 4.1487,-0.6238 4.314,-0.7822 0.1651,-0.1584 0.455,-4.1866 0.6441,-8.9515 0.1891,-4.7648 0.6984,-11.1596 1.1317,-14.2108 0.4334,-3.051 0.983,-11.1086 1.2214,-17.9058 l 0.4336,-12.3585 -4.2738,0.3948 c -2.3506,0.2172 -4.5953,0.4181 -4.9881,0.4466 -0.3929,0.029 -0.5069,2.0623 -0.2532,4.5194 0.3846,3.7274 0.2053,4.7233 -1.0824,6.011 -1.3527,1.3527 -2.2861,1.4807 -7.552,1.0356 -3.7018,-0.313 -6.402,-0.1907 -7.0333,0.3183 -1.531,1.2346 -4.3564,-0.1698 -4.9287,-2.45 -0.3072,-1.2239 0.1338,-3.4114 1.1515,-5.7122 0.9071,-2.0508 1.5364,-4.7089 1.3982,-5.907 -0.2391,-2.0742 -0.5315,-2.2108 -6.1227,-2.8622 -3.2293,-0.3762 -6.0943,-0.4613 -6.3666,-0.1891 -0.2722,0.2723 -0.5885,2.5669 -0.7029,5.0991 -0.1144,2.5322 -0.7886,10.5642 -1.4984,17.8489 -2.0042,20.5689 -2.7918,30.5096 -2.806,35.4131 l -0.013,4.5082 4.9802,-1.1505 c 2.7391,-0.6329 5.2688,-1.329 5.6215,-1.547 z m 37.3267,-10.9252 c -0.1919,-0.9985 -0.3564,-0.3706 -0.3652,1.3954 -0.011,1.766 0.1481,2.5829 0.349,1.8155 0.2009,-0.7675 0.2082,-2.2124 0.016,-3.2109 z m 132.6334,27.0008 c -4.303,-0.9691 -15.1969,-0.9386 -18.3158,0.052 -2.4883,0.7898 -5.7149,-1.4697 -5.7149,-4.0017 0,-1.0935 0.361,-1.9883 0.8022,-1.9883 0.4412,0 0.7488,-1.174 0.6836,-2.6088 -0.2826,-6.2072 1.1568,-29.6201 2.1672,-35.2518 0.607,-3.3842 1.3454,-10.0669 1.6407,-14.8504 0.2952,-4.7836 0.8005,-9.1955 1.1229,-9.8042 0.9563,-1.8059 7.8421,-1.5424 14.8432,0.5678 4.7542,1.433 7.5621,1.8274 10.8728,1.5272 2.8932,-0.2623 4.9449,-0.053 5.8321,0.5962 1.4333,1.048 1.8801,4.828 0.6598,5.5822 -0.6984,0.4316 -2.1585,8.9726 -1.7863,10.4489 0.2658,1.0545 -1.6444,4.4763 -2.2798,4.0837 -0.2856,-0.1766 -0.9672,-0.044 -1.5147,0.2941 -0.6751,0.4173 -1.0105,3.1116 -1.0428,8.3763 -0.027,4.5286 -0.4004,7.9793 -0.8947,8.2849 -0.4662,0.288 -2.5736,0.4625 -4.6834,0.3879 -2.1098,-0.075 -4.0443,0.2012 -4.2989,0.6131 -0.2546,0.412 -0.6828,2.3536 -0.9516,4.3149 l -0.4888,3.5658 5.7362,0.5653 c 5.0111,0.4937 6.0779,0.354 8.4391,-1.1053 l 2.7028,-1.6704 2.1327,2.5347 c 1.3924,1.6547 1.931,2.9832 1.5514,3.8269 -0.3197,0.7109 -0.7333,4.3628 -0.9192,8.1156 -0.1859,3.7527 -0.6431,7.1434 -1.0162,7.535 -1.0177,1.0683 -10.5516,1.0739 -15.2796,0.01 z m 9.6592,-6.7263 c 0.4481,-0.277 1.0348,-2.1095 1.3036,-4.0723 l 0.4888,-3.5687 -7.9078,0.1053 c -4.3493,0.058 -8.269,0.191 -8.7105,0.2957 -3.5909,0.8518 -4.856,-2.5162 -3.2522,-8.6582 0.8429,-3.2275 0.9332,-4.798 0.3185,-5.5387 -1.9658,-2.3686 2.1788,-7.9576 4.3797,-5.9062 1.0212,0.9516 4.5589,-0.033 5.2755,-1.4677 0.3588,-0.7186 0.4178,-2.2095 0.1311,-3.3133 -0.4578,-1.7633 -0.8888,-1.9739 -3.5516,-1.7359 -1.6669,0.149 -4.1175,-0.1792 -5.4458,-0.7294 -2.0976,-0.8689 -2.3663,-1.3264 -2.0445,-3.4819 0.2038,-1.3647 0.088,-3.234 -0.2583,-4.1538 -0.8011,-2.131 -0.1972,-2.9798 3.0561,-4.2958 2.4842,-1.0049 6.1547,-0.8763 11.5628,0.4053 2.004,0.4749 2.1917,0.2798 2.8697,-2.9849 1.0048,-4.838 0.5929,-5.4999 -3.4228,-5.4999 -1.9002,0 -5.4565,-0.7659 -7.9029,-1.7021 -7.527,-2.8804 -10.129,-0.8416 -10.1601,7.961 -0.011,2.5178 -0.3892,6.9259 -0.8452,9.7956 -0.456,2.8698 -0.9657,7.9269 -1.1327,11.2381 -1.0207,20.2288 -1.2078,26.6578 -0.7955,27.325 0.5083,0.8223 24.7117,0.8062 26.0441,-0.018 z m -7.0936,-40.6589 c -3.014,-1.315 -5.0224,-1.2035 -5.5252,0.3069 -0.2411,0.7241 0.8575,0.9852 3.947,0.938 l 4.2812,-0.066 -2.703,-1.1793 z"
             style="fill:#000000;stroke:none" />
        </g>
        <path
           style="fill:#000000;stroke:none"
           d="m -1061.2446,978.76113 c -0.7997,-0.8843 -2.17,-1.1781 -3.565,-0.7643 -1.2462,0.3698 -3.1864,0.2286 -4.3116,-0.3131 -1.1263,-0.5427 -10.5154,-0.8653 -20.8924,-0.7181 -10.3658,0.1472 -21.1126,-0.055 -23.8819,-0.4492 -2.7692,-0.3942 -12.224,-0.3065 -21.0106,0.1948 -8.7867,0.5013 -16.8873,0.6579 -18.0015,0.3488 -1.1141,-0.3095 -5.1853,-0.7212 -9.047,-0.915 -3.8617,-0.1937 -9.0533,-0.4739 -11.5369,-0.6226 -2.4835,-0.1486 -13.4868,-0.1476 -24.4516,0 -10.9648,0.1501 -20.2142,0.117 -20.554,-0.074 -0.3398,-0.1906 -9.157,-0.2848 -19.5937,-0.2095 -10.4367,0.076 -19.3595,-0.078 -19.8284,-0.341 -1.8809,-1.0547 -24.0912,-1.5639 -37.2447,-0.8537 -7.6894,0.415 -16.3733,0.8523 -19.2977,0.9717 -2.9247,0.1144 -7.5142,1.0404 -10.1994,2.0469 -6.4184,2.4057 -20.3791,2.413 -24.4055,0.013 -2.1492,-1.281 -3.8423,-1.4558 -7.569,-0.7809 -4.4471,0.8055 -4.9377,0.6785 -6.6621,-1.7239 -2.1459,-2.99 -2.8786,-13.871 -1.1725,-17.4128 0.6337,-1.3156 0.847,-10.2902 0.5502,-23.1462 -0.2668,-11.5485 -0.2726,-21.376 -0.013,-21.8388 0.2595,-0.4628 0.3925,-8.2263 0.2956,-17.2523 -0.2567,-23.90962 0.9507,-53.3115 2.3105,-56.25954 0.4421,-0.95854 0.7717,-7.50344 0.7325,-14.54424 -0.039,-7.04081 0.141,-17.53977 0.4004,-23.33102 0.2595,-5.79124 0.5389,-15.03646 0.6211,-20.54492 0.082,-5.50846 0.3287,-12.83805 0.5479,-16.28797 0.2192,-3.44992 0.027,-6.25679 -0.4271,-6.23749 -1.306,0.0555 -13.7153,14.40771 -16.1918,18.72689 -1.2325,2.1496 -2.7126,4.22833 -3.2892,4.6194 -0.5765,0.39108 -3.4392,-1.68662 -6.3617,-4.6171 -2.9225,-2.93048 -8.0258,-6.91664 -11.3408,-8.85811 -3.3151,-1.94148 -6.0508,-3.99186 -6.0796,-4.55642 -0.062,-1.21929 -3.8139,-4.31414 -5.1603,-4.2569 -0.5182,0.022 -2.0773,-1.00245 -3.4646,-2.27663 -3.4237,-3.14439 -2.8506,-7.06372 1.3218,-9.04151 1.687,-0.7996 5.304,-3.86374 8.038,-6.80921 2.7338,-2.94545 5.3759,-5.3726 5.8712,-5.39366 0.4952,-0.0211 1.6759,-0.97206 2.6238,-2.11335 0.9478,-1.14129 2.5346,-2.10957 3.5262,-2.15172 0.9917,-0.0422 2.7874,-1.18723 3.9906,-2.54459 1.2032,-1.35736 4.8117,-4.31187 8.0188,-6.56557 3.2072,-2.2537 6.5341,-4.59186 7.393,-5.19592 1.7127,-1.2044 7.4027,-5.56954 12.1237,-9.3007 1.6589,-1.31113 5.4573,-4.15723 8.4409,-6.32464 2.9835,-2.16742 7.0457,-5.60557 9.0271,-7.64033 1.9814,-2.03477 4.0566,-3.71887 4.6115,-3.74246 0.5549,-0.0236 1.8785,-1.11611 2.9412,-2.4278 1.0628,-1.31171 3.5637,-3.23052 5.5576,-4.26401 1.994,-1.03351 4.8396,-2.96287 6.3236,-4.28746 1.4841,-1.3246 5.5376,-4.4855 9.0079,-7.02421 3.4703,-2.53872 7.3984,-5.49101 8.7292,-6.56066 1.3308,-1.06964 6.1326,-4.6608 10.6707,-7.98035 4.5381,-3.31955 9.3853,-7.01644 10.7716,-8.21531 1.3864,-1.19888 3.5016,-2.89709 4.7008,-3.77381 1.199,-0.87672 6.9401,-5.51226 12.7579,-10.3012 5.8178,-4.78893 11.025,-8.72617 11.5716,-8.74941 0.5467,-0.0232 3.9165,-2.98154 7.4888,-6.57402 8.9813,-9.03227 13.3156,-13.02456 17.9088,-16.49581 2.166,-1.63691 5.1477,-4.20398 6.6261,-5.7046 1.4785,-1.50061 3.1098,-2.74632 3.6251,-2.76823 0.5155,-0.0219 3.366,-2.43492 6.3347,-5.36226 3.6843,-3.63303 6.0038,-5.1911 7.3077,-4.90871 1.0505,0.22755 2.1355,0.0118 2.4109,-0.47939 0.5731,-1.0219 7.2352,3.49622 13.3606,9.0609 2.2905,2.08078 6.6476,5.70042 9.6826,8.04363 3.035,2.34321 6.6714,5.22477 8.0808,6.40346 1.4094,1.1787 2.9892,2.12495 3.5103,2.1028 0.5212,-0.0222 0.9743,0.52159 1.0069,1.20832 0.074,1.499 7.4558,8.77131 16.7077,16.45316 11.152,9.25948 20.7782,17.87881 20.8103,18.63364 0.017,0.39069 2.2173,2.39428 4.8904,4.45243 2.6732,2.05814 8.0832,6.30749 12.0225,9.443 3.9392,3.13551 7.9184,6.11918 8.8427,6.63038 1.7245,0.95376 9.5152,6.42417 12.7687,8.96574 3.1147,2.43314 14.5106,12.77972 21.698,19.70008 3.7759,3.63573 8.4638,7.89368 10.4174,9.46212 1.9535,1.56844 6.8462,6.24463 10.8727,10.39152 4.0264,4.14691 9.1343,9.10943 11.3508,11.02783 7.3526,6.36368 17.7884,16.04484 20.1049,18.65106 1.361,1.53124 2.8745,2.31376 3.7452,1.93643 1.7437,-0.75557 3.1344,2.32823 2.2448,4.97777 -0.3331,0.99202 -3.2395,4.53079 -6.4588,7.86396 -3.2192,3.33316 -7.979,8.87617 -10.5773,12.3178 -2.6008,3.44482 -5.5394,6.29538 -6.538,6.34177 -0.9976,0.0464 -2.6377,0.57131 -3.6446,1.16655 -1.4506,0.85753 -2.1738,0.63419 -3.483,-1.07553 -0.9089,-1.18678 -1.7008,-3.29678 -1.76,-4.68888 -0.076,-1.77973 -0.9396,-2.88264 -2.9104,-3.71531 -1.5416,-0.65132 -5.336,-4.00439 -8.4322,-7.45126 -3.0961,-3.44688 -5.8813,-5.99279 -6.1891,-5.65761 -0.3079,0.33519 0.227,20.94494 1.1887,45.79943 1.7148,44.31796 2.6342,84.33667 2.3943,104.21576 -0.1236,10.2468 0.2226,23.4225 1.0112,38.4918 1.0059,19.2157 0.8474,30.5 -0.4605,32.7992 -1.5121,2.658 -4.0056,3.0863 -5.883,1.0105 z m 0.1501,-18.3752 c -0.1157,-5.3115 -0.5616,-21.8033 -0.9908,-36.6485 -0.4293,-14.8451 -0.8368,-35.3213 -0.9057,-45.50254 -0.069,-10.18127 -0.7659,-37.40122 -1.5492,-60.48879 -1.3332,-39.30067 -1.7032,-66.13132 -0.9309,-67.50851 0.1841,-0.32809 -1.0449,-2.04722 -2.7309,-3.82029 -1.686,-1.77306 -3.082,-3.61242 -3.1022,-4.08747 -0.02,-0.47504 -0.6764,-0.83651 -1.458,-0.80328 -0.7818,0.0332 -5.576,-4.14241 -10.6538,-9.27921 -5.0779,-5.1368 -11.7302,-11.49748 -14.7831,-14.13484 -3.0529,-2.63735 -9.1459,-8.22797 -13.5399,-12.42358 -4.3941,-4.19561 -9.8553,-9.1423 -12.1359,-10.99265 -2.2807,-1.85035 -8.4363,-7.23636 -13.6791,-11.96892 -5.2429,-4.73257 -16.2383,-14.39581 -24.4342,-21.47386 -8.196,-7.07806 -19.6606,-17.28781 -25.477,-22.68833 -5.8164,-5.40053 -11.0941,-9.79708 -11.7281,-9.77013 -0.6339,0.027 -4.8122,2.6885 -9.285,5.91455 -4.4728,3.22603 -10.6921,7.35066 -13.8207,9.16583 -3.1286,1.81516 -7.4986,4.80932 -9.7111,6.65368 -2.2125,1.84435 -5.2429,4.30605 -6.7341,5.47044 -2.9831,2.32914 -14.347,12.7449 -19.6315,17.99337 -8.8683,8.808 -14.4876,13.94742 -16.5528,15.139 -1.2461,0.719 -5.4669,3.97119 -9.3798,7.2271 -3.9127,3.2559 -8.0488,6.61489 -9.1912,7.46443 -1.1424,0.84954 -4.0801,3.45167 -6.5282,5.7825 -2.4482,2.33086 -5.5371,5.0473 -6.8644,6.03656 -1.9416,1.44717 -2.4947,2.95799 -2.8301,7.73141 -0.4683,6.66165 -2.4764,10.77807 -4.1346,8.4752 -0.542,-0.75277 -0.862,-1.86518 -0.7111,-2.47202 0.1508,-0.60683 0.4646,-2.57524 0.6973,-4.37425 0.4739,-3.66521 -1.3295,-4.40535 -3.5668,-1.46381 -0.7078,0.93071 -2.8224,2.81298 -4.699,4.18284 -6.9764,5.09258 -15.476,11.69308 -21.3856,16.60739 -3.3483,2.78447 -6.744,5.46737 -7.5459,5.962 -1.4844,0.91554 -2.0191,8.91849 -2.2851,34.1923 -0.061,5.7828 -0.2028,12.54493 -0.3155,15.02696 -0.1126,2.48203 -0.2987,12.18269 -0.4133,21.55704 -0.1146,9.37434 -0.5942,18.85327 -1.0657,21.06428 -1.3611,6.38329 -2.0786,23.56065 -1.8209,43.59666 0.131,10.17864 0.065,20.53894 -0.1458,23.02284 -0.2112,2.484 -0.2455,11.7188 -0.076,20.5218 0.1692,8.803 -0.063,18.2481 -0.5169,20.9893 -1.0641,6.432 -0.1485,18.7518 1.2968,17.449 0.64,-0.577 3.7415,0.083 8.0803,1.7193 8.0276,3.0275 15.7115,3.2132 24.133,0.5831 2.8056,-0.8761 7.0848,-1.4544 9.5093,-1.285 l 4.4083,0.308 -0.6222,-18.3483 c -0.5988,-17.6556 -0.9379,-24.9964 -1.701,-36.8191 -0.1944,-3.0195 -0.1534,-10.2277 0.092,-16.0184 0.2455,-5.7906 0.264,-12.7727 0.041,-15.51571 -1.5167,-18.66467 -3.0034,-69.35068 -2.1795,-74.3067 0.7876,-4.7382 0.7052,-10.98195 -0.3322,-25.17639 -0.06,-0.8232 -0.3436,-8.88124 -0.6299,-17.90679 -0.6863,-21.64222 0.3692,-29.0419 4.1753,-29.27107 0.4763,-0.0283 0.7,3.22036 0.497,7.22009 -0.203,3.99973 -0.011,19.45446 0.4258,34.34385 0.4882,16.63184 0.4087,28.79303 -0.206,31.53543 -0.6889,3.07275 -0.5375,13.95813 0.486,34.92994 0.8176,16.75638 1.4892,31.81725 1.4919,33.46862 0,1.65136 0.3206,15.15003 0.7059,29.99703 0.3852,14.8471 0.8318,34.4653 0.9924,43.596 l 0.2921,16.6014 8.1308,-0.5364 c 4.472,-0.2952 15.576,-0.2199 24.6757,0.1669 9.0996,0.3869 19.9233,0.7152 24.0527,0.7295 11.6956,0.04 27.6252,0.3579 38.0665,0.7587 5.2383,0.2011 12.1724,0.208 15.4091,0.015 l 5.8848,-0.3503 -0.1064,-11.4644 c -0.059,-6.3055 0.022,-14.1724 0.1782,-17.482 0.1565,-3.3097 0.2727,-10.1979 0.2581,-15.3073 -0.014,-5.1094 0.3538,-10.7552 0.8187,-12.5461 0.4647,-1.791 1.0541,-4.9384 1.3096,-6.9944 0.2555,-2.0559 0.8854,-4.0235 1.3997,-4.3724 1.1753,-0.7972 1.4075,3.5652 0.3579,6.7235 -0.4339,1.3059 -0.54,15.4706 -0.2355,31.4769 l 0.5534,29.1025 2.8038,0.5783 c 1.5421,0.3181 7.3295,0.6017 12.8608,0.6304 5.5313,0.029 12.3294,0.5304 15.1067,1.1151 2.8587,0.6019 8.0253,0.7407 11.9079,0.32 l 6.8582,-0.7431 -1.3692,-15.6508 c -1.1362,-12.9869 -1.1343,-15.8632 0.012,-16.8993 1.1547,-1.0443 1.5172,-0.4929 2.2146,3.3682 0.4588,2.5394 1.0533,9.612 1.3213,15.7168 0.2696,6.1048 0.8385,11.5794 1.2679,12.1657 0.4293,0.5863 4.6164,1.2374 9.3045,1.4468 22.9209,1.0243 26.6615,1.1095 27.7948,0.6335 0.7849,-0.3297 1.0984,-2.3997 0.8762,-5.786 -0.1904,-2.9 -0.042,-5.8157 0.3306,-6.4795 0.3723,-0.6638 0.2666,-15.0106 -0.2349,-31.8819 -0.5013,-16.8713 -0.5408,-33.7737 -0.088,-37.56112 0.4625,-3.86479 0.4058,-9.6689 -0.1292,-13.22881 -0.5355,-3.56304 -0.5849,-8.67347 -0.1127,-11.66092 0.9321,-5.89788 1.0487,-23.08719 0.3412,-50.33756 -0.257,-9.89801 -0.3525,-22.95574 -0.2122,-29.01717 0.1402,-6.06142 -0.5863,-20.35844 -1.6144,-31.77114 -1.9113,-21.21771 -1.5732,-28.40894 1.3893,-29.53838 0.944,-0.35988 1.108,0.89077 0.708,5.39879 -0.6829,7.697 1.1188,31.94298 2.528,34.0203 0.4095,0.6036 0.561,7.99979 0.3366,16.43597 -0.2242,8.43618 -0.399,21.64383 -0.3882,29.35033 0.02,14.73707 0.031,15.23945 0.4178,20.0003 0.134,1.6458 0.1,9.97976 -0.075,18.51991 -0.3214,15.68739 -0.3571,49.351 -0.085,80.5763 0.081,9.355 0.1172,22.522 0.08,29.2598 l -0.068,12.2507 2.8446,0.9453 c 1.5645,0.5199 6.6073,0.9375 11.206,0.928 4.5987,-0.01 8.5448,0.1513 8.7691,0.3572 0.2243,0.206 2.1636,0.1315 4.3097,-0.1652 l 3.9018,-0.5402 -0.2104,-9.6572 z m -192.9205,-3.216 c 0.2243,-2.3491 0.9257,-7.1094 1.5588,-10.5785 0.8677,-4.7551 0.8261,-11.2813 -0.1694,-26.5168 -0.7261,-11.1151 -1.4085,-22.7022 -1.5163,-25.7491 l -0.1965,-5.53974 -5.4898,-2.97455 c -4.6705,-2.53061 -11.6846,-7.27353 -15.5116,-10.48893 -6.2981,-5.29138 -20.4462,-21.84156 -20.5391,-24.02607 -0.024,-0.56432 -0.3873,-1.16156 -0.8074,-1.32721 -0.4199,-0.16564 -1.9814,-3.62744 -3.4697,-7.69289 -2.1916,-5.9867 -2.7557,-9.29217 -2.9671,-17.38967 -0.5294,-20.26997 2.5974,-35.51346 11.431,-55.72604 4.0038,-9.16111 6.2183,-12.75226 11.2261,-18.20481 3.4312,-3.73586 7.1892,-7.13931 8.3513,-7.56325 1.162,-0.42394 4.3478,-2.57356 7.0795,-4.77694 2.7318,-2.20338 7.3591,-4.76197 10.283,-5.68573 8.479,-2.67886 19.2846,-5.50489 21.3908,-5.59443 1.0663,-0.0453 2.2168,-0.3853 2.5568,-0.75548 0.9153,-0.99671 18.945,-1.95496 20.226,-1.07497 0.6047,0.41538 2.7912,0.20984 4.8586,-0.45675 3.7828,-1.2196 14.6029,-0.48552 18.4637,1.25266 6.8747,3.09502 11.4822,4.5917 13.8286,4.49195 4.1541,-0.17661 14.6134,6.5246 22.3374,14.31156 13.2809,13.38907 14.4577,14.65875 14.5058,15.65055 0.023,0.5495 1.1757,2.20201 2.5533,3.67257 1.3776,1.47054 3.1134,4.09918 3.8573,5.84143 0.744,1.74223 1.9923,4.49172 2.7741,6.10997 4.6496,9.62344 6.9258,37.00001 4.0634,48.87151 -2.7505,11.40792 -6.3154,20.62243 -11.1845,28.90889 -3.6402,6.1954 -3.4413,2.49525 -2.4053,44.73477 0.2406,9.8071 0.01,16.0142 -0.6067,16.0403 -0.6033,0.026 -1.2263,-4.511 -1.5727,-11.4509 -0.3158,-6.3213 -1.1082,-12.3975 -1.7615,-13.50263 -0.6957,-1.17672 -0.9541,-3.44381 -0.6236,-5.47114 0.3103,-1.90398 0.2673,-6.55955 -0.095,-10.34571 l -0.6596,-6.88392 -2.5448,2.71527 c -5.0138,5.34972 -6.8115,6.92055 -9.9927,8.7315 -1.7755,1.01068 -4.7371,3.18737 -6.5815,4.8371 -1.8445,1.64973 -3.9252,3.02382 -4.624,3.05353 -0.6987,0.0297 -3.3602,1.23018 -5.9142,2.6677 -2.5541,1.4375 -6.2543,3.1808 -8.2229,3.874 -3.5564,1.2522 -34.8914,3.208 -36.5446,2.281 -0.4753,-0.2667 -4.4555,-0.6292 -8.8447,-0.8058 -4.3891,-0.1765 -11.3859,-1.262 -15.5483,-2.4121 -4.1623,-1.1503 -7.8754,-2.07827 -8.2511,-2.0623 -1.3103,0.0557 -1.5807,9.74 -0.9273,33.2098 0.3619,12.9981 0.2534,24.4879 -0.241,25.5328 -0.4945,1.045 -1.1175,4.2738 -1.3844,7.1753 -0.2669,2.9015 -0.9513,5.2952 -1.5206,5.3194 -0.6443,0.027 -0.8813,-1.5695 -0.6276,-4.2272 z m 70.495,-70.39154 c 1.7741,-0.35447 3.2073,-1.0737 3.185,-1.5983 -0.022,-0.52461 1.1957,-1.00936 2.7067,-1.07722 1.511,-0.0682 4.0571,-1.09619 5.6581,-2.28516 1.6009,-1.18896 4.2594,-2.81593 5.9076,-3.61548 1.6483,-0.79955 4.2235,-2.6914 5.7226,-4.2041 1.4992,-1.51271 3.1628,-2.76896 3.6969,-2.79166 1.547,-0.0658 7.7863,-6.32413 9.8262,-9.85615 1.0255,-1.77565 3.0769,-4.94295 4.5587,-7.03842 1.4819,-2.09548 3.5795,-6.22115 4.6615,-9.16816 1.082,-2.94701 2.9052,-7.35392 4.0515,-9.79313 1.1464,-2.43923 2.4025,-6.77149 2.7913,-9.62725 0.3888,-2.85577 1.0711,-7.45983 1.5163,-10.23124 1.1532,-7.17931 0.097,-20.75922 -2.2917,-29.47423 -3.1402,-11.45533 -7.7801,-19.30502 -17.5138,-29.62961 -14.6429,-15.53171 -16.8403,-17.10703 -27.4769,-19.69744 -3.6817,-0.89663 -8.9718,-2.23731 -11.7558,-2.97928 -4.3962,-1.17162 -15.9818,-1.5929 -31.5773,-1.14825 -6.6415,0.18937 -19.942,2.8489 -23.4211,4.68322 -1.6686,0.87972 -4.6315,1.60734 -6.5843,1.61694 -2.6092,0.0128 -5.0567,1.12187 -9.2317,4.18325 -3.1246,2.2912 -6.9286,4.87308 -8.4532,5.7375 -3.9813,2.2574 -11.7563,11.2612 -13.8893,16.08439 -8.9012,20.12789 -11.3196,26.98755 -12.0162,34.08354 -0.407,4.14603 -1.1595,7.85392 -1.6722,8.23975 -0.5126,0.38583 -0.7176,6.24983 -0.4557,13.03112 0.4585,11.86794 2.2059,21.09323 4.3719,23.08265 0.5679,0.5215 1.0673,1.76831 1.1099,2.77066 0.08,1.88608 5.394,9.47774 9.3947,13.4219 1.2561,1.23841 3.296,3.58697 4.5331,5.21901 2.1732,2.86708 14.8371,12.55195 19.0113,14.53911 12.3722,5.88992 27.3687,8.65876 47.1519,8.70579 5.5152,0.0131 10.1932,0.17591 10.3955,0.36176 0.4519,0.41501 11.6697,-0.6626 16.0885,-1.54551 z m -63.3698,-35.30419 c -4.7328,-0.43959 -9.9268,-1.37097 -11.5423,-2.06975 -4.1819,-1.80872 -11.7056,-12.50577 -13.3336,-18.95763 -1.6794,-6.65529 -2.7603,-21.13735 -2.0436,-27.38071 1.2283,-10.69968 11.1071,-27.44099 16.3234,-27.66276 0.7795,-0.0331 1.3836,-0.85128 1.3425,-1.81811 -0.041,-0.96683 0.8116,-2.36523 1.895,-3.10756 1.7224,-1.18023 2.3068,-1.01541 4.6555,1.31289 1.4773,1.46443 3.7335,2.70082 5.014,2.74755 1.2804,0.0467 5.9335,1.91577 10.3401,4.15341 8.0892,4.10757 11.3901,5.69224 19.7516,9.48209 4.008,1.81664 4.7843,1.89105 6.1091,0.5856 0.8347,-0.82253 2.1459,-1.52221 2.9138,-1.55486 1.2281,-0.0522 15.6975,-9.04091 22.3749,-13.8998 4.3724,-3.18166 10.7895,-4.87091 13.5153,-3.55781 1.3184,0.63502 2.4143,1.56347 2.4356,2.06321 0.021,0.49974 1.7959,2.51396 3.9437,4.47603 5.0428,4.60682 9.7191,10.83795 9.8143,13.07752 0.041,0.96823 0.5909,2.63327 1.2215,3.70012 0.6306,1.06684 1.3164,5.68682 1.5239,10.26661 0.5735,12.6665 -3.1573,24.36774 -9.8874,31.00773 -6.9621,6.8688 -8.4515,8.1401 -12.0598,10.29336 -7.9096,4.71999 -11.0235,5.64547 -18.3673,5.45886 -3.8852,-0.0987 -8.3818,-0.79146 -9.9924,-1.53943 -1.6107,-0.74798 -3.5908,-1.3318 -4.4002,-1.29739 -0.8095,0.0344 -3.6911,-1.48682 -6.4035,-3.38051 -4.5561,-3.18082 -5.0054,-3.30182 -5.8994,-1.58861 -1.9708,3.77702 -4.2271,5.48827 -8.911,6.75856 -2.6425,0.71664 -6.3625,1.73671 -8.2667,2.26681 -2.0263,0.56411 -7.0309,0.63236 -12.067,0.16458 z m 15.7359,-8.03682 c 5.5951,-1.29589 7.5456,-2.98422 11.6627,-10.09558 2.3943,-4.13537 2.2842,-4.401 -1.7537,-4.22933 -4.8913,0.20795 -12.5077,-4.00716 -13.4134,-7.42329 -0.3917,-1.47721 -0.8543,-3.13021 -1.0282,-3.67331 -0.5508,-1.72171 3.0123,-8.52401 5.1166,-9.76796 3.3295,-1.96821 9.6605,-0.61784 12.2722,2.61757 1.2482,1.54631 2.5512,2.7995 2.8955,2.78486 0.3444,-0.0146 0.5572,-3.81229 0.473,-8.43922 l -0.1532,-8.41262 -3.8746,-2.92654 c -2.1311,-1.6096 -4.2456,-2.91077 -4.6987,-2.8915 -0.4533,0.0193 -5.6671,-2.49249 -11.5862,-5.58168 -5.9191,-3.0892 -12.0172,-5.59907 -13.5511,-5.5775 -3.6528,0.0514 -11.211,5.78042 -13.2383,10.0346 -5.7462,12.05733 -5.4777,10.67946 -4.8696,24.98297 0.5431,12.77448 0.7341,13.77838 3.6124,18.98186 4.0291,7.28413 6.3418,9.40295 10.8763,9.96469 2.0774,0.25736 4.8366,0.73535 6.1315,1.06221 2.8833,0.72783 7.9248,0.25782 15.1268,-1.41023 z m 49.7151,-2.20477 c 2.228,-1.19571 4.5366,-2.19467 5.1304,-2.21992 0.5937,-0.0252 4.231,-3.44532 8.0827,-7.60017 5.9578,-6.42643 7.2836,-8.54136 8.881,-14.16552 2.3643,-8.32467 1.6087,-23.77796 -1.3074,-26.73721 -0.9702,-0.98453 -1.782,-2.20423 -1.8042,-2.71043 -0.022,-0.5062 -1.1024,-2.07586 -2.4004,-3.48812 -1.2979,-1.41227 -2.8412,-3.29413 -3.4295,-4.18192 -0.9541,-1.43996 -1.8044,-1.45366 -7.8788,-0.12687 -5.1438,1.12352 -8.2651,2.56554 -12.7611,5.89564 -3.2734,2.4246 -7.8007,5.32059 -10.0605,6.43553 -2.2598,1.11496 -4.3196,2.65533 -4.5773,3.42304 -0.2578,0.76772 -1.382,1.43468 -2.4982,1.48214 -1.8322,0.0779 -2.0027,0.71886 -1.7532,6.58888 0.26,6.11519 0.3855,6.42793 2.1058,5.24916 3.7346,-2.55901 14.9179,4.24407 15.6211,9.50272 0.7255,5.42484 0.2139,6.60873 -3.8413,8.88984 -4.8693,2.739 -10.1972,2.60125 -13.6215,-0.35218 -2.1288,-1.83599 -2.8324,-1.65593 -2.356,0.60292 0.091,0.43129 -0.2552,1.65731 -0.7693,2.72444 -0.6235,1.29436 -0.5923,2.13219 0.093,2.51683 0.5655,0.31711 1.0582,1.28408 1.095,2.14882 0.092,2.15917 3.6856,4.8362 8.1168,6.0461 2.0314,0.55468 4.1374,1.38563 4.68,1.84656 1.8248,1.55025 11.0633,0.478 15.2524,-1.77026 z m 42.1358,89.12402 c -0.013,-1.284 0.5304,-3.9344 1.2069,-5.8899 l 1.23,-3.5555 0.025,5.4253 c 0.015,3.2939 -0.4593,5.6078 -1.2069,5.8899 -0.7612,0.2873 -1.2401,-0.4267 -1.2545,-1.8698 z m -5.9935,-197.42511 c 0.056,-5.96524 0.1383,-15.35154 0.1834,-20.85842 0.045,-5.5069 -0.4705,-12.69147 -1.1449,-15.96578 -1.345,-6.52552 -0.1373,-15.54157 2.2012,-16.43313 0.999,-0.38086 1.1905,1.5679 0.9254,9.41845 -0.3572,10.58024 -0.3444,11.13854 0.5717,24.87371 0.3296,4.94046 0.5734,13.48781 0.5346,18.99443 -0.053,8.30657 -0.3462,10.08032 -1.7186,10.41421 -1.4903,0.3626 -1.644,-0.67139 -1.5528,-10.44347 z m -108.883,-9.21526 c -0.1513,-1.36981 -0.3035,-3.50277 -0.3375,-4.73994 -0.117,-4.25784 -1.5265,-32.22308 -1.9209,-38.11361 -0.2444,-3.65161 0.034,-6.06505 0.7299,-6.33422 1.0904,-0.42147 3.9568,25.07689 3.9427,35.07249 0,2.20214 0.094,6.81466 0.2158,10.25008 0.1564,4.40891 -0.1573,6.26234 -1.0664,6.30099 -0.7084,0.0301 -1.412,-1.06599 -1.5636,-2.43579 z m 55.0165,-34.11764 c -0.3039,-13.33663 -0.8596,-31.77967 -1.2347,-40.98454 -0.66,-16.18255 -0.6146,-16.73901 1.3608,-16.82299 1.8244,-0.0776 2.0029,0.36998 1.669,4.18289 -0.4509,5.14877 -0.027,46.05693 0.5577,53.77484 0.6574,8.68299 0.082,24.01821 -0.9035,24.06009 -0.5178,0.022 -1.13,-10.20652 -1.4493,-24.21029 z m 169.0538,75.78066 c 7.2126,-7.93829 10.3106,-12.23978 10.2273,-14.20014 -0.056,-1.32711 -5.0609,-6.65785 -13.8911,-14.79654 -7.5915,-6.99713 -24.188,-22.35162 -36.881,-34.12107 -12.6931,-11.76946 -25.9603,-23.52852 -29.4827,-26.13126 -3.5224,-2.60273 -7.9222,-5.89608 -9.7773,-7.31855 -1.8551,-1.42246 -3.6009,-2.33793 -3.8798,-2.03438 -0.2787,0.30357 -1.3896,-0.46301 -2.4685,-1.70349 -1.0788,-1.24049 -4.9908,-4.64491 -8.6932,-7.56538 -3.7024,-2.92048 -12.3553,-10.45834 -19.2288,-16.75083 -6.8735,-6.29247 -12.9756,-11.60677 -13.5604,-11.80953 -0.5847,-0.20277 -5.5611,-4.90703 -11.0586,-10.45392 -5.4975,-5.54689 -11.2728,-10.93144 -12.8341,-11.96566 -1.5613,-1.03423 -3.455,-2.41722 -4.2084,-3.07331 -0.7532,-0.6561 -1.8513,-1.17242 -2.4401,-1.14739 -0.5888,0.025 -1.0852,-0.30286 -1.1033,-0.72863 -0.018,-0.42579 -2.3513,-2.97175 -5.1849,-5.6577 -6.5351,-6.19466 -7.8938,-5.95521 -19.0762,3.36192 -4.5945,3.82808 -9.591,7.91357 -11.1032,9.07885 -3.3855,2.60861 -9.9452,8.95067 -15.7115,15.19007 -2.3877,2.5837 -7.6241,6.93968 -11.6364,9.67995 -4.0122,2.74029 -8.2481,5.95656 -9.4131,7.14729 -1.1649,1.19073 -2.3746,2.17586 -2.6881,2.18918 -0.5464,0.0232 -13.0555,10.30944 -14.0355,11.54148 -1.1423,1.43598 -7.5736,6.28305 -11.1531,8.40567 -2.1478,1.27368 -8.4827,5.88334 -14.0776,10.24369 -5.5948,4.36035 -11.4241,8.77285 -12.9541,9.80555 -2.2796,1.5387 -10.4683,8.02981 -14.6607,11.62117 -0.5311,0.45501 -2.2784,1.7327 -3.8829,2.8393 -1.6044,1.1066 -3.6005,2.76435 -4.4357,3.68389 -0.8352,0.91953 -6.2139,5.24954 -11.9528,9.62225 -5.7388,4.37271 -13.7678,10.57865 -17.8421,13.79098 -4.0743,3.21234 -10.2554,7.72571 -13.7357,10.02974 -3.4803,2.30403 -9.8089,7.06087 -14.0637,10.57076 -4.2547,3.50989 -7.9251,6.51653 -8.1564,6.68141 -0.5392,0.38442 8.5828,8.84585 9.5222,8.83269 1.4457,-0.0202 8.6072,4.91894 11.8573,8.17769 3.6906,3.70054 4.9824,3.54431 5.7258,-0.69248 0.5229,-2.97946 5.175,-8.43264 7.2698,-8.52169 0.6923,-0.0294 4.1615,-3.10457 7.7093,-6.83363 3.5479,-3.72906 7.1742,-6.81087 8.0585,-6.84847 0.8842,-0.0376 3.8674,-2.4094 6.6293,-5.27069 2.7619,-2.86128 7.4624,-6.64403 10.4457,-8.40611 2.9831,-1.76207 6.6251,-4.41571 8.0931,-5.89697 1.468,-1.48127 6.6724,-5.61014 11.5654,-9.17529 4.893,-3.56513 9.7609,-7.33557 10.8176,-8.37873 6.2272,-6.14773 10.8589,-10.2613 12.8557,-11.4174 2.7909,-1.61586 5.3238,-3.80196 9.5318,-8.22672 1.7731,-1.86449 3.546,-3.40584 3.9397,-3.42521 0.3937,-0.0197 2.2905,-1.61006 4.2151,-3.53487 1.9246,-1.92481 4.0955,-3.83425 4.8242,-4.24318 3.1831,-1.7865 5.442,-3.60461 8.6997,-7.00245 8.0565,-8.40297 27.0988,-25.15527 28.6698,-25.22206 0.5777,-0.0246 1.4161,-0.76889 1.8632,-1.65409 0.8492,-1.68114 2.7745,-3.03521 9.649,-6.78594 8.1106,-4.42516 17.779,-12.41675 17.6854,-14.61824 -0.064,-1.51138 3.4791,-2.61287 6.174,-1.91924 1.2523,0.32233 6.7437,4.73589 12.2029,9.80792 5.4592,5.07203 16.166,14.58666 23.7928,21.14362 13.5047,11.61029 27.0351,23.56063 52.6908,46.53763 6.9047,6.18377 14.1565,12.54555 16.1151,14.1373 3.0132,2.44887 13.4099,12.84397 15.4975,15.49517 0.3547,0.45045 2.7773,2.52371 5.3837,4.60722 3.899,3.1169 16.0692,15.57697 25.6441,26.25474 1.1099,1.23779 2.7264,3.02119 3.5922,3.96313 1.7983,1.95652 9.1744,6.66999 10.3588,6.61963 0.4337,-0.0184 2.2176,-1.60633 3.9642,-3.52865 z"
           id="path3953"
           inkscape:connector-curvature="0"
           sodipodi:nodetypes="ccccssccccccccccccccccsccccssscssccccccccsccccsccccsssccscssccsccsssccsccssscccsscccccsccsccsscccccssscsccssscssscssscsccscccccccsccccscsccccscscscccccscsccccssccccsccccccsccsccccscsccccccccccscscscsccccscccscccccccccccscscscssccsccccssscsccscsccccccsccscccccsscsccsccccccscscsccssssccscssccccccsscsscsscccscssscsccscscsssccscsssscsccsscccccsscscsssccccscccssscscscsccccccccccsccccccccsscccccscccccccccscscscssssccsscsscccsscccccccscccsssssccccccsscsscsccscsccscssssssccccs" />
      </g>
      <circle
         r="0.46875"
         cy="1127.2031"
         cx="2182.3281"
         transform="matrix(4.5018622,0,0,4.5018622,-11050.318,-4262.0032)"
         id="path4796"
         style="color:#000000;display:inline;overflow:visible;visibility:visible;fill:#ececec;fill-opacity:1;fill-rule:nonzero;stroke:none;stroke-width:0.30000001;marker:none;enable-background:accumulate" />
      <circle
         r="0.46875"
         cy="1127.2031"
         cx="2182.3281"
         transform="matrix(4.5018622,0,0,4.5018622,-11028.113,-4261.1122)"
         id="path4796-5"
         style="color:#000000;display:inline;overflow:visible;visibility:visible;fill:#ececec;fill-opacity:1;fill-rule:nonzero;stroke:none;stroke-width:0.30000001;marker:none;enable-background:accumulate" />
    </g>
  </g>
</svg>
