<?xml version="1.0" encoding="UTF-8" standalone="no"?>
<!-- Created with Inkscape (http://www.inkscape.org/) -->

<svg
   xmlns:dc="http://purl.org/dc/elements/1.1/"
   xmlns:cc="http://creativecommons.org/ns#"
   xmlns:rdf="http://www.w3.org/1999/02/22-rdf-syntax-ns#"
   xmlns:svg="http://www.w3.org/2000/svg"
   xmlns="http://www.w3.org/2000/svg"
   xmlns:sodipodi="http://sodipodi.sourceforge.net/DTD/sodipodi-0.dtd"
   xmlns:inkscape="http://www.inkscape.org/namespaces/inkscape"
   viewBox="0 0 410.63972 138.22647"
   id="svg3497"
   version="1.1"
   inkscape:version="0.91 r13725"
   sodipodi:docname="random.svg">
  <defs
     id="defs3499" />
  <sodipodi:namedview
     id="base"
     pagecolor="#ffffff"
     bordercolor="#666666"
     borderopacity="1.0"
     inkscape:pageopacity="0.0"
     inkscape:pageshadow="2"
     inkscape:zoom="0.35"
     inkscape:cx="-111.10871"
     inkscape:cy="-499.45819"
     inkscape:document-units="px"
     inkscape:current-layer="layer1"
     showgrid="false"
     fit-margin-top="0"
     fit-margin-left="0"
     fit-margin-right="0"
     fit-margin-bottom="0"
     inkscape:window-width="1440"
     inkscape:window-height="851"
     inkscape:window-x="0"
     inkscape:window-y="26"
     inkscape:window-maximized="0" />
  <metadata
     id="metadata3502">
    <rdf:RDF>
      <cc:Work
         rdf:about="">
        <dc:format>image/svg+xml</dc:format>
        <dc:type
           rdf:resource="http://purl.org/dc/dcmitype/StillImage" />
        <dc:title></dc:title>
      </cc:Work>
    </rdf:RDF>
  </metadata>
  <g
     inkscape:label="Layer 1"
     inkscape:groupmode="layer"
     id="layer1"
     transform="translate(-143.25157,-123.24897)">
    <g
       transform="translate(-4.2735066,-276.44029)"
       id="g3899"
       inkscape:export-filename="/home/elliot/git/oddc_1/oddc/img/random.png"
       inkscape:export-xdpi="39.066177"
       inkscape:export-ydpi="39.066177">
      <path
         inkscape:connector-curvature="0"
         id="path3101"
         d="m 181.95648,403.11239 c -10.61717,-0.73606 -17.60854,9.0052 -24.69973,15.38232 -4.89364,5.16516 -1.50508,13.38637 -2.69876,19.84428 -0.23396,28.88593 -1.60585,57.97209 -0.8484,86.73637 3.48401,4.15488 10.44673,4.51332 15.55685,6.35797 4.30661,1.90865 8.03236,-2.01324 6.90958,-6.37454 0.70263,-10.09118 0.15105,-22.25199 1.45575,-31.19051 9.50799,11.88086 15.73125,27.13187 28.53681,35.98668 6.38165,1.18117 9.86748,-6.55009 14.33154,-9.72271 3.55038,-2.29152 5.20181,-7.46677 0.62975,-9.76049 -10.85858,-10.49229 -23.45241,-20.33386 -33.39658,-30.96129 5.91763,-1.01153 12.52955,0.53682 17.89864,-3.283 18.7281,-11.05811 25.75638,-40.91218 9.72272,-57.23145 -7.81397,-9.20351 -18.85033,-17.39139 -31.59877,-15.80385 l -1.01009,0.0113 -0.78931,0.009 z m 0.0316,18.71939 c 8.34175,-0.0241 19.58119,1.4901 21.93925,11.11167 4.1308,13.78739 -7.46372,29.41039 -21.87612,29.67323 -2.5597,-0.21908 -8.78551,2.01104 -8.14435,-2.52538 -0.71564,-12.15046 -0.52128,-24.33399 -0.0947,-36.49176 2.54187,-1.30948 5.34515,-1.69555 8.17592,-1.76776 z"
         style="color:#000000;display:inline;overflow:visible;visibility:visible;fill:#da67a2;fill-opacity:1;fill-rule:nonzero;stroke:none;stroke-width:1;marker:none;enable-background:accumulate" />
      <path
         inkscape:connector-curvature="0"
         id="path3103"
         d="m 256.10799,451.06306 c -7.63585,-0.82759 -10.01019,7.50319 -10.57503,13.47923 -2.9649,19.71699 -8.1116,39.07435 -9.88056,58.93609 0.41615,6.27858 8.38912,9.66132 13.8896,8.90196 5.83691,-3.05461 3.20303,-11.37109 4.60967,-16.66127 1.01829,-5.14147 -0.31607,-11.57756 2.3667,-16.07398 3.74981,-0.0203 7.49326,0.87525 11.04854,1.86247 4.13247,9.76172 4.14907,21.66819 11.26951,29.8942 4.53934,2.77439 13.33897,1.32464 14.83662,-4.35628 -2.7866,-16.6207 -9.91065,-32.27805 -12.56997,-48.94172 -2.26329,-8.97515 -2.18678,-19.44105 -8.10659,-26.81972 -5.57469,-0.49918 -11.27465,-0.11097 -16.88849,-0.22098 z m 7.48144,14.20527 c 4.44388,-0.94302 3.05265,5.31237 4.23002,7.86025 -0.40157,3.73957 4.63328,11.87657 -1.01015,11.7746 -4.7031,0.1747 -10.46432,1.21102 -14.71035,-0.0316 2.63061,-5.8695 2.06921,-13.04766 4.70352,-18.56156 2.17116,-0.70837 4.47154,-0.9875 6.78696,-1.04172 z"
         style="color:#000000;display:inline;overflow:visible;visibility:visible;fill:#da67a2;fill-opacity:1;fill-rule:nonzero;stroke:none;stroke-width:1;marker:none;enable-background:accumulate" />
      <path
         inkscape:connector-curvature="0"
         id="path3105"
         d="m 353.30361,450.08448 c -6.51611,1.48714 -4.76146,10.17359 -5.85343,15.14501 -1.57528,13.66675 -1.05643,27.67096 -4.21653,41.04472 -7.21122,-16.88627 -10.80307,-35.32761 -19.79268,-51.39151 -3.68047,-6.26162 -13.60172,-2.47369 -13.73176,4.32472 -3.01708,20.74078 -4.75115,41.90742 -5.74524,62.91356 -0.58738,7.85276 8.37025,11.03129 14.77348,10.5119 6.37829,-3.10197 3.18487,-11.8063 3.75651,-17.39356 -0.12545,-4.7316 -0.5727,-10.4787 0.0947,-14.67878 5.0038,10.93958 7.83286,23.81631 16.69908,32.38802 5.45695,1.64873 12.18177,-0.0401 16.73065,-3.34613 3.79308,-6.44967 2.32193,-14.73673 3.69337,-21.93926 0.83267,-17.33775 4.19944,-34.49571 3.69337,-51.83345 -0.61321,-5.0581 -5.8476,-6.12538 -10.10152,-5.74524 z"
         style="color:#000000;display:inline;overflow:visible;visibility:visible;fill:#da67a2;fill-opacity:1;fill-rule:nonzero;stroke:none;stroke-width:1;marker:none;enable-background:accumulate" />
      <path
         inkscape:connector-curvature="0"
         id="path3107"
         d="m 383.10311,447.14872 c -7.73545,-0.16401 -9.31663,8.69181 -9.15451,14.71035 -1.18424,20.97465 -3.49759,42.03897 -2.62008,63.03983 1.30263,8.6045 12.03344,8.57856 18.62468,10.06996 16.84935,2.58729 34.57329,-10.41104 35.32378,-27.81076 0.83427,-16.06673 -0.55424,-33.99404 -10.92228,-47.03523 -7.6837,-8.89816 -19.56009,-13.60593 -31.25159,-12.97415 z m 7.19733,22.94941 c 9.15481,2.17489 16.66373,10.62394 19.60328,19.3823 0.0521,7.46541 1.33136,17.74278 -5.58741,22.6653 -4.77377,2.64185 -10.73103,2.32402 -15.75206,0.66291 -0.32562,-14.1377 -0.3776,-28.94694 1.48366,-42.67895 l 0.0947,-0.0316 0.15783,0 z"
         style="color:#000000;display:inline;overflow:visible;visibility:visible;fill:#da67a2;fill-opacity:1;fill-rule:nonzero;stroke:none;stroke-width:1;marker:none;enable-background:accumulate" />
      <path
         inkscape:connector-curvature="0"
         id="path3109"
         d="m 453.62438,451.66284 c -8.38471,-0.64232 -15.35529,5.32721 -17.96177,12.97415 -6.22544,16.22337 -5.79505,34.23998 -4.76666,51.32838 4.02732,14.97157 23.35191,24.89439 37.21781,16.35184 16.77375,-11.41698 19.156,-34.39423 15.14358,-52.76085 -2.69107,-13.79896 -13.79542,-29.87876 -29.63296,-27.89352 z m 2.96733,14.89975 c 10.37698,3.10964 16.79395,14.69945 15.18385,25.31695 -0.3959,8.76126 -1.10359,20.71262 -11.08011,23.95956 -11.01588,3.24734 -19.85901,-9.19564 -18.18275,-19.38231 -0.29736,-10.42654 2.18527,-22.17106 11.55362,-28.158 0.7805,-0.62025 1.63204,-1.39036 2.52539,-1.7362 z"
         style="color:#000000;display:inline;overflow:visible;visibility:visible;fill:#da67a2;fill-opacity:1;fill-rule:nonzero;stroke:none;stroke-width:1;marker:none;enable-background:accumulate" />
      <path
         inkscape:connector-curvature="0"
         id="path3111"
         d="m 502.20641,455.13524 c -5.23145,-0.46116 -8.81682,3.75566 -8.93354,8.71257 -3.71637,21.70029 -7.03876,43.67722 -7.16577,65.72305 1.00839,7.96691 14.6827,6.47352 14.96288,-1.38896 2.58808,-8.65622 2.89113,-18.15866 2.36755,-26.86375 3.43634,8.67176 5.52453,19.63805 14.04743,24.90658 6.40575,0.31877 8.27643,-7.92905 11.30109,-12.18497 1.30489,-2.77932 3.33088,-7.19445 4.00904,-1.8309 2.48198,7.55571 3.49477,19.4164 13.60549,20.48716 4.96962,1.42565 8.16038,-3.82001 6.21875,-8.08122 -4.63773,-20.22304 -8.1498,-40.60977 -10.25936,-61.2405 0.15291,-6.11019 -6.99999,-11.04041 -12.0587,-6.72383 -5.67654,7.72186 -4.77935,18.19363 -6.90236,27.2318 -1.37382,8.37025 -2.32346,18.40786 -4.33558,25.76964 -4.83501,-17.26967 -7.53293,-35.11797 -9.80759,-52.74544 -1.01128,-2.71284 -4.80293,-1.59765 -7.04933,-1.77123 z"
         style="color:#000000;display:inline;overflow:visible;visibility:visible;fill:#da67a2;fill-opacity:1;fill-rule:nonzero;stroke:none;stroke-width:1;marker:none;enable-background:accumulate" />
      <path
         inkscape:connector-curvature="0"
         id="path2996"
         d="m 384.09328,536.52375 c -3.575,-1.0261 -8.62167,-1.88218 -11.21482,-1.9024 -5.49796,-0.0429 -7.35172,-2.20332 -6.37191,-7.42615 0.328,-1.74835 0.80256,-5.86347 1.05458,-9.14471 1.37364,-17.88392 3.53184,-49.37563 4.04108,-58.96589 0.40711,-7.66687 1.0267,-11.44587 2.04477,-12.47147 1.09545,-1.10355 4.02178,-1.47301 11.70349,-1.4776 13.63318,-0.008 19.8912,2.3692 27.99281,10.63412 3.1625,3.22625 5.75,6.33658 5.75,6.91186 0,0.57527 0.67432,1.72027 1.4985,2.54445 0.82417,0.82417 1.76013,2.70453 2.0799,4.17857 0.60431,2.78565 3.26283,12.56567 4.12643,15.18007 0.74221,2.24689 2.16717,-2.01871 2.41303,-7.22335 0.4595,-9.72723 7.87742,-23.6574 14.38856,-27.02041 4.88563,-2.52342 14.03438,-2.4953 19.81309,0.0609 2.57427,1.13872 4.68049,1.87368 4.68049,1.63324 0,-0.61513 4.74447,3.49232 8.04247,6.96265 3.82184,4.02154 9.95753,19.06398 9.95753,24.41217 0,1.13122 0.45,2.33488 1,2.6748 0.55,0.33992 1,0.38195 1,0.0934 0,-0.28855 0.71138,-5.60261 1.58084,-11.80902 0.86947,-6.20641 1.33373,-12.85938 1.03171,-14.78438 -0.30203,-1.925 -0.22226,-4.02544 0.17727,-4.66765 0.85861,-1.38013 19.30554,-3.63699 20.44163,-2.5009 0.4294,0.4294 0.98791,4.96603 1.24113,10.08139 0.25323,5.11537 0.68578,10.04013 0.96122,10.94392 0.27545,0.90378 0.72575,3.89324 1.00066,6.64324 0.27492,2.75 0.9235,6.42863 1.4413,8.17473 0.5178,1.7461 0.71168,3.4045 0.43085,3.68533 -0.28084,0.28083 0.16755,1.47882 0.99642,2.66219 1.40576,2.007 1.54342,2.02814 2.04868,0.31466 0.29791,-1.0103 0.85,-3.63691 1.22687,-5.83691 0.37687,-2.2 0.85766,-4.9 1.06842,-6 0.21076,-1.1 0.81386,-4.925 1.34023,-8.5 0.52637,-3.575 1.33997,-8.525 1.80799,-11 0.46803,-2.475 0.53369,-5.68439 0.14591,-7.13198 -1.21536,-4.53708 0.087,-5.31829 6.71028,-4.02498 3.21673,0.62812 7.31269,0.95296 9.10214,0.72187 2.3971,-0.30957 3.50658,0.0526 4.21481,1.37598 0.5287,0.98788 0.70174,2.05567 0.38454,2.37288 -0.75412,0.75412 -0.62656,19.00149 0.17679,25.29065 2.45672,19.23284 9.49342,48.39558 11.6774,48.39558 1.66756,0 0.72205,4.96756 -1.13465,5.96123 -2.1112,1.12988 -5.07244,0.42634 -5.07244,-1.20513 0,-0.65485 -2.37635,-0.83917 -6.52535,-0.50613 -7.62119,0.61176 -8.09125,0.16464 -10.16865,-9.67232 -0.68789,-3.25729 -1.6379,-6.30955 -2.11113,-6.78278 -1.15881,-1.15881 -4.19487,0.0924 -4.19487,1.72879 0,0.72032 -0.3375,1.45967 -0.75,1.64301 -0.4125,0.18333 -1.97018,2.21001 -3.46151,4.50373 -2.68551,4.1304 -6.85604,6.62696 -7.55708,4.52382 -0.19639,-0.58915 -1.82341,-3.01136 -3.61562,-5.3827 -1.7922,-2.37134 -3.54981,-5.09902 -3.90579,-6.06152 -0.35598,-0.9625 -1.06321,-1.75 -1.57163,-1.75 -1.38468,0 -2.19275,2.77653 -2.84694,9.78211 -0.79502,8.51362 -2.41713,9.7692 -12.35824,9.56581 -4.08825,-0.0836 -7.82444,-0.19615 -8.30264,-0.25 -0.4782,-0.0539 -0.58272,-4.93542 -0.23228,-10.84792 l 0.63718,-10.75 -2.26773,4.07086 c -3.3529,6.0189 -8.52397,12.00206 -12.84366,14.86069 -4.94984,3.27565 -14.28633,4.18647 -21.47933,2.0954 -6.85499,-1.99279 -16.5979,-10.75713 -18.30972,-16.47068 -0.66841,-2.23095 -1.55221,-4.05627 -1.964,-4.05627 -0.4118,0 -2.05873,2.50395 -3.65987,5.56433 -4.11466,7.8647 -8.98436,11.90884 -17.19552,14.28035 -10.30171,2.97528 -14.96582,3.20404 -22.31562,1.09447 z m 17,-4.48999 c 11.01729,-2.32265 19.56166,-11.21867 21.56176,-22.44916 1.49878,-8.41563 0.46455,-22.81346 -2.25776,-31.43112 -3.21706,-10.18378 -5.31333,-14.06977 -10.37408,-19.23104 -8.37932,-8.54575 -29.95019,-12.90545 -32.40688,-6.54977 -0.36395,0.94156 -0.83765,4.18693 -1.05267,7.21193 -0.96597,13.58976 -1.48532,22.40495 -2.03042,34.46365 -0.3223,7.13001 -0.76126,13.24722 -0.97545,13.5938 -0.2142,0.34658 -0.49024,4.75198 -0.61342,9.78977 -0.26844,10.97878 -0.12947,11.14588 11.64892,14.0063 7.96251,1.93372 9.8327,2.00123 16.5,0.59564 z m -9.5,-15.4323 c -6.40512,-0.9399 -6.55674,-1.1991 -6.04121,-10.32704 0.2544,-4.5044 0.55322,-14.48982 0.66404,-22.18982 0.11082,-7.7 0.40167,-14.5625 0.64632,-15.25 0.24466,-0.6875 1.76903,-1.25 3.3875,-1.25 8.18356,0 19.09811,10.38883 22.58798,21.5 1.41886,4.5174 -0.75936,20.5 -2.79387,20.5 -0.44879,0 -1.1032,0.90494 -1.45424,2.01097 -1.23826,3.90141 -8.98162,6.18201 -16.99652,5.00589 z m 10.70405,-6.49096 c 2.53084,-1.04648 5.8531,-8.68235 5.94428,-13.66231 0.12116,-6.61756 -1.73481,-12.02049 -5.73422,-16.6929 -3.93217,-4.59386 -9.15109,-7.83425 -10.4781,-6.50579 -0.45881,0.45931 -1.02579,7.97971 -1.25995,16.71201 -0.40671,15.16614 -0.18571,16.99228 2.57389,21.26898 0.71637,1.1102 4.79401,0.60016 8.9541,-1.11999 z m 63.45382,21.07792 c 0.67246,-0.6071 2.8079,-2.22882 4.74541,-3.60382 4.38429,-3.11142 8.83387,-11.33124 11.09711,-20.5 3.06818,-12.42969 0.27816,-30.82259 -6.30768,-41.58268 -4.49901,-7.35058 -15.26999,-13.59917 -19.20523,-11.14157 -1.42927,0.89259 -2.55384,0.92332 -4.32117,0.11807 -6.65676,-3.03302 -15.94648,9.39325 -17.27389,23.10618 -0.18634,1.925 -0.7607,5.975 -1.27635,9 -0.51565,3.025 -0.86522,10.93629 -0.77681,17.58064 0.15393,11.56885 0.28895,12.28792 3.18718,16.97356 3.35376,5.42212 10.28354,10.32688 16.25318,11.50365 4.477,0.88254 12.1846,0.075 13.87825,-1.45403 z m -16.92227,-14.65556 c -3.0531,-2.02229 -5.38792,-4.6366 -6.92144,-7.75 -4.85242,-9.85149 -1.91436,-31.84742 5.01575,-37.55066 1.43528,-1.18118 3.87815,-3.45137 5.42862,-5.04486 2.69509,-2.76989 2.98697,-2.84184 6.63942,-1.63642 4.88351,1.6117 10.28817,6.56729 13.25431,12.153 2.00636,3.7783 2.31691,5.75577 2.25844,14.38068 -0.0982,14.47947 -3.13415,22.06976 -10.53008,26.32632 -5.27113,3.03368 -9.62002,2.78154 -15.14502,-0.87806 z m 15.0144,-3.72763 c 1.2375,-0.79786 2.25,-2.02475 2.25,-2.72644 0,-0.70168 0.83655,-3.14427 1.85899,-5.42798 1.41669,-3.16428 1.81471,-6.22382 1.67287,-12.8592 -0.10237,-4.78886 -0.40391,-9.38201 -0.67008,-10.20701 -0.26618,-0.825 -0.83158,-2.53546 -1.25645,-3.80103 -0.42487,-1.26556 -1.97848,-3.53473 -3.45247,-5.04259 l -2.67997,-2.74158 -4.98645,1.76976 c -2.74254,0.97337 -5.97588,2.99601 -7.18519,4.49475 -4.90766,6.08222 -6.10755,22.49975 -2.24499,30.717 3.45312,7.34618 10.51292,9.80929 16.69374,5.82432 z m 34.0819,17.02937 c 2.89933,-7.42003 4.52852,-23.23977 2.69832,-26.20111 -1.24348,-2.01199 0.27265,-5.60843 2.43291,-5.77116 2.42058,-0.18234 3.27224,1.33636 5.03152,8.97227 0.72863,3.1625 1.70291,5.75 2.16506,5.75 0.46216,0 0.74777,0.3375 0.63469,0.75 -0.51812,1.89 6.14846,11.26396 7.99456,11.24125 1.20288,-0.0148 8.65057,-12.1576 9.72059,-15.84858 0.55525,-1.9153 1.45525,-3.62362 2,-3.79626 2.66716,-0.84528 4.01831,2.12916 6.88357,15.15359 0.121,0.55 0.85025,2.69525 1.62056,4.76723 1.15265,3.10042 2.09046,3.95299 5.29825,4.81676 5.00721,1.34831 7.08666,0.58173 6.36506,-2.34643 -3.43234,-13.92809 -6.94329,-30.77778 -7.75915,-37.23756 -0.55571,-4.4 -1.23334,-9.30764 -1.50584,-10.90587 -0.27249,-1.59823 -0.68424,-6.54153 -0.91499,-10.9851 -0.46823,-9.01659 -1.73869,-10.92347 -6.93109,-10.40308 -3.15449,0.31614 -4.09155,2.18418 -5.16378,10.29405 -1.39301,10.53612 -2.5048,17.63026 -3.83963,24.5 -0.80151,4.125 -1.48097,9.38321 -1.5099,11.6849 -0.0289,2.3017 -0.49586,5.35073 -1.0376,6.77563 -0.95707,2.51729 -3.55225,4.33557 -4.63815,3.24966 -0.43959,-0.43959 -2.96931,-11.05233 -4.81742,-20.21019 -0.22199,-1.1 -1.08782,-4.925 -1.92407,-8.5 -1.45786,-6.23236 -2.74046,-15.5698 -3.15932,-23 -0.10851,-1.925 -0.26002,-3.8375 -0.33667,-4.25 -0.16652,-0.89607 -5.72024,-0.96898 -8.90032,-0.11685 -2.49516,0.6686 -2.87781,1.84983 -3.68212,11.36685 -0.30213,3.575 -1.24704,10.775 -2.0998,16 -2.00105,12.26082 -2.24143,14.10575 -2.93169,22.5 -2.04657,24.88855 -2.10082,24.5 3.42062,24.5 3.23061,0 3.975,-0.41898 4.88583,-2.75 z m -323.45748,6.06354 c -4.90561,-2.60809 -12.96349,-5.11828 -18.75137,-5.84143 -8.0591,-1.00692 -9.10073,-2.0353 -7.62711,-7.53011 0.65521,-2.4431 1.70163,-5.342 2.32538,-6.442 0.80713,-1.42339 1.07227,-14.63475 0.91967,-45.824 -0.11793,-24.1032 -0.45364,-44.21105 -0.746,-44.68411 -0.8751,-1.41593 3.3025,-8.46702 7.63529,-12.88713 8.81051,-8.98806 18.81756,-13.40749 29.36972,-12.97059 6.5999,0.27326 11.19559,1.93456 17.38362,6.28403 2.80273,1.96999 5.41023,3.5818 5.79445,3.5818 1.48463,0 9.4455,9.76477 12.22897,15 4.28026,8.05041 5.25056,14.19799 3.88481,24.61314 -0.92795,7.07646 -3.61261,13.88615 -7.2348,18.35117 -5.56175,6.85587 -11.21877,11.17512 -16.80566,12.83143 -3.16174,0.93734 -5.74924,2.24716 -5.75,2.9107 -0.002,1.64281 16.97019,18.03951 25.26669,24.41012 3.7938,2.91314 6.73192,5.9361 6.73192,6.92633 0,1.87501 -5.62795,8.07181 -10.37668,11.42551 -1.58217,1.11738 -3.86981,3.8316 -5.08363,6.0316 -2.42213,4.39 -5.55688,5.59592 -7.69668,2.96089 -0.73865,-0.90961 -3.14301,-3.58156 -5.34301,-5.93768 -7.00551,-7.50264 -9.26963,-10.22251 -10.53249,-12.65265 -0.67754,-1.30381 -2.74741,-4.24629 -4.5997,-6.53886 -1.8523,-2.29256 -3.36781,-4.69256 -3.36781,-5.33333 0,-0.64077 -0.5625,-0.97748 -1.25,-0.74824 -0.94984,0.31671 -1.16851,4.26494 -0.91066,16.44206 0.37471,17.6954 0.0707,18.56439 -5.46492,15.62135 z m -0.32571,-24.30304 c -0.0655,-9.47193 -0.15656,-17.51167 -0.20233,-17.8661 -0.37853,-2.93099 0.39245,-4.1444 2.6333,-4.1444 1.90024,0 2.97331,0.96762 4.59222,4.14093 1.1619,2.27751 2.5257,4.64001 3.03067,5.25 0.50497,0.60999 3.27597,4.67501 6.15778,9.03337 2.88181,4.35837 5.68965,8.58327 6.23965,9.38868 1.56008,2.28454 10.34891,11.18702 11.04421,11.18702 0.34239,0 2.10073,-1.4625 3.90743,-3.25 1.80669,-1.7875 4.91917,-4.64951 6.91662,-6.36003 1.99746,-1.71051 3.63174,-3.54344 3.63174,-4.07317 0,-0.52973 -2.34496,-2.87069 -5.21103,-5.20213 -4.69183,-3.81663 -14.79526,-12.80942 -24.07442,-21.42799 -1.88701,-1.75267 -4.68222,-4.09789 -6.21157,-5.2116 -2.11367,-1.53922 -2.61881,-2.53478 -2.10597,-4.15058 0.83047,-2.61659 4.67216,-3.70574 7.89369,-2.23791 2.78922,1.27085 10.06556,-0.77996 14.84685,-4.18453 5.53418,-3.94069 11.4724,-12.97208 13.27879,-20.19561 3.02841,-12.11031 2.15124,-19.03048 -3.47341,-27.4022 -7.86151,-11.70108 -20.00879,-19.72115 -29.86906,-19.72064 -6.07558,3.1e-4 -11.28623,0.61405 -12.07387,1.42213 -0.275,0.28214 -2.3,1.68438 -4.5,3.1161 -2.2,1.43171 -6.1375,4.74921 -8.75,7.37222 l -4.75,4.7691 -0.23055,10.11842 c -0.12681,5.56513 -0.25791,27.21842 -0.29134,48.11842 -0.0334,20.9 -0.40985,39.43703 -0.83647,41.19341 -0.75806,3.1208 -0.67754,3.2178 3.54133,4.26634 2.37437,0.59012 6.34203,1.89584 8.81703,2.90162 2.475,1.00577 4.87526,1.50066 5.3339,1.09975 0.45865,-0.40091 0.78031,-8.47869 0.71481,-17.95062 z m -1.97458,-46.94352 c -1.15552,-0.7313 -1.43993,-4.83158 -1.5,-21.62552 -0.0704,-19.68203 0.0264,-20.78596 1.92587,-21.9739 3.17861,-1.98785 10.76927,-2.64442 16.09752,-1.39239 2.69636,0.63359 5.93722,1.28869 7.2019,1.45578 6.68577,0.8833 11.63518,8.11085 11.59204,16.9277 -0.0163,3.32274 -0.24616,6.71635 -0.51088,7.54135 -2.38766,7.4411 -8.25272,14.10855 -15.79568,17.95669 -4.26935,2.17806 -16.2207,2.87605 -19.01077,1.11029 z m 16.46458,-5.94545 c 5.39838,-2.45217 11.88533,-9.99275 13.47216,-15.66035 1.5576,-5.5632 0.27073,-10.90685 -3.54568,-14.72326 -2.5829,-2.58291 -11.19832,-4.80989 -16.46519,-4.25605 -1.375,0.14458 -3.04963,0.32031 -3.72141,0.39051 -0.67177,0.0702 -1.57177,1.47491 -2,3.1216 -1.15862,4.45532 0.21764,29.69408 1.71776,31.50163 1.66476,2.00591 5.61115,1.86588 10.54236,-0.37408 z m 149.20871,77.79693 c -0.96392,-0.5614 -3.80824,-5.24638 -6.32071,-10.41107 -5.80617,-11.93526 -7.64385,-12.02708 -5.77598,-0.2886 1.8483,11.61558 0.94157,12.35716 -10.65073,8.71087 -3.9885,-1.25456 -7.72562,-1.8173 -9.67202,-1.45642 -1.76601,0.32744 -3.45511,0.13007 -3.81069,-0.44526 -0.43488,-0.70366 -1.30362,-0.67752 -2.72267,0.0819 -1.1462,0.61342 -4.83139,1.22487 -8.18931,1.35877 -3.35792,0.1339 -7.72357,0.57031 -9.70145,0.96981 -5.04416,1.01883 -6.0384,-0.34981 -9.8842,-13.60633 -5.20648,-17.94677 -5.65549,-18.83213 -9.55069,-18.83213 -2.86929,0 -3.44647,0.436 -4.30232,3.25 -0.54365,1.7875 -0.99469,5.05 -1.00229,7.25 -0.0242,7.00813 -1.08709,21.56595 -1.6398,22.46026 -0.64546,1.04438 -2.88174,0.69548 -12.02456,-1.8761 -3.85,-1.08288 -7.96436,-1.99481 -9.14301,-2.02651 -3.10026,-0.0834 -3.40726,-2.01528 -1.29328,-8.13835 1.02905,-2.98061 1.88569,-6.38171 1.90364,-7.55799 0.0305,-1.99582 3.12381,-19.07879 6.58422,-36.36131 0.82594,-4.125 1.75925,-12.45 2.07403,-18.5 0.41669,-8.00859 0.97641,-11.3188 2.05821,-12.17228 0.95674,-0.75482 4.57164,-1.05742 10.15104,-0.84972 4.76583,0.17741 10.56843,-0.13367 12.89465,-0.69127 4.18596,-1.0034 9.44756,-0.43352 9.05602,0.98085 -0.11151,0.40283 0.73967,3.65742 1.89153,7.23242 2.16612,6.72299 2.93361,10.30714 3.85439,18 1.16834,9.76116 6.20545,28.02851 11.98847,43.47686 4.43974,11.86 5.87501,12.1288 6.91624,1.29533 0.38443,-3.9997 0.87205,-9.07219 1.08361,-11.27219 0.21156,-2.2 0.85871,-9.85 1.4381,-17 0.57938,-7.15 1.4812,-17.725 2.00403,-23.5 0.52283,-5.775 0.85778,-11.85 0.74435,-13.5 -0.20333,-2.95768 -0.12161,-3.00928 5.79376,-3.65779 3.3,-0.36178 7.15237,-0.96047 8.56082,-1.33041 3.07149,-0.80676 4.14287,0.30255 6.26633,6.4882 2.48944,7.25175 7.31533,20.85028 10.6124,29.9039 1.68325,4.62215 3.06045,8.55965 3.06045,8.75 0,0.19036 0.67552,0.3461 1.50115,0.3461 1.14427,0 1.46712,-1.12926 1.35802,-4.75 -0.28777,-9.54987 1.76433,-41.79744 2.76432,-43.43965 0.23097,-0.37931 2.77267,0.009 5.64823,0.86322 2.87555,0.85407 7.25328,1.61442 9.72828,1.68965 l 4.5,0.13678 -0.0891,5 c -0.13791,7.73896 -1.22573,21.39136 -1.7753,22.28059 -0.27153,0.43934 -0.76563,6.85594 -1.098,14.25911 -0.33237,7.40316 -1.09541,16.58939 -1.69564,20.41384 -0.60023,3.82444 -0.82137,9.89944 -0.49143,13.5 0.32995,3.60055 0.24102,7.11863 -0.19761,7.81794 -0.43863,0.69931 -4.58997,1.9774 -9.22521,2.8402 -4.63524,0.8628 -8.85521,1.97813 -9.37771,2.47852 -1.21232,1.16101 -2.59941,1.11141 -4.80258,-0.17174 z m 12.04311,-6.57349 c 2.41235,-0.35305 4.65959,-1.33206 5.1336,-2.23645 0.46368,-0.88469 1.14353,-6.10852 1.51078,-11.60852 0.36724,-5.5 0.83318,-11.8 1.03542,-14 0.20224,-2.2 0.6116,-7.375 0.9097,-11.5 0.2981,-4.125 0.98635,-10.875 1.52945,-15 0.5431,-4.125 1.12314,-10.61584 1.28899,-14.42408 l 0.30153,-6.92408 -4.80847,-1.23723 c -4.58453,-1.1796 -4.84732,-1.13506 -5.64249,0.95641 -0.45871,1.20649 -1.11226,7.57908 -1.45233,14.1613 -1.41505,27.38884 -2.44655,37.58956 -4.04827,40.03409 -2.76975,4.22717 -4.63447,2.90704 -6.45017,-4.56641 -1.22316,-5.03458 -8.85917,-26.76206 -11.07051,-31.5 -0.5134,-1.1 -1.3774,-3.575 -1.92,-5.5 -2.37426,-8.42323 -3.94091,-11.44438 -6.35128,-12.24784 -2.84932,-0.94977 -7.71595,0.58523 -7.84075,2.47309 -0.36229,5.48047 -0.85748,10.52945 -1.79234,18.27475 -0.59746,4.95 -1.32407,12.6 -1.61468,17 -0.29062,4.4 -1.01719,12.95 -1.61461,19 -1.25128,12.67151 -1.16464,11.49193 -1.01252,13.78554 0.14465,2.18099 8.37447,5.94171 12.06258,5.51215 1.88474,-0.21952 2.49686,-0.82284 2.33123,-2.29769 -0.12354,-1.1 -0.4002,-8.18289 -0.61481,-15.73975 -0.31596,-11.12576 -0.1146,-13.96849 1.05843,-14.94201 2.43893,-2.02413 4.68521,0.40536 5.88354,6.36341 1.18297,5.88168 10.4053,24.47292 13.20319,26.61624 0.93184,0.71383 2.59426,1.04524 3.69426,0.73645 1.1,-0.30879 3.93074,-0.844 6.29053,-1.18937 z m -99.36776,-2.59497 c 0.37002,-1.7875 0.93612,-8.65 1.25799,-15.25 0.73944,-15.16194 1.06936,-15.85875 7.15774,-15.1172 9.76722,1.18963 11.15527,1.72086 11.74433,4.49479 0.30629,1.44233 1.97243,7.96307 3.70252,14.49055 3.64821,13.76436 4.71313,15.005 12.01999,14.00349 5.83099,-0.79923 6.55952,-2.64252 3.81806,-9.66019 -5.68608,-14.5554 -13.09309,-43.15835 -13.13813,-50.73429 -0.0186,-3.13354 -3.15444,-13.27112 -4.66996,-15.09726 -1.01618,-1.22444 -7.4874,-1.52718 -20.03013,-0.93705 -0.66815,0.0314 -1.6937,0.95196 -2.279,2.04561 -1.14117,2.1323 -5.79779,27.56201 -6.41121,35.01155 -0.2038,2.475 -0.87104,5.76679 -1.48276,7.3151 -0.61172,1.5483 -1.11221,4.33151 -1.11221,6.1849 0,1.85339 -0.45306,4.56143 -1.00679,6.01786 -0.93134,2.4496 -2.09693,9.29338 -2.37554,13.94794 -0.0768,1.28247 0.92517,2.43027 2.88233,3.30197 1.65,0.73489 3.675,1.73632 4.5,2.22539 3.01583,1.78783 4.73559,1.07644 5.42277,-2.24316 z m -1.03651,-40.1858 c -0.35705,-0.93046 -0.095,-2.90054 0.58232,-4.37797 0.67733,-1.47743 1.41722,-4.03623 1.6442,-5.68623 1.74527,-12.68696 1.79407,-12.8312 4.59494,-13.58026 5.58734,-1.49429 10.76123,-1.66208 11.82243,-0.38341 0.5802,0.6991 1.20854,2.77692 1.3963,4.61738 0.77996,7.6454 1.88429,13.41975 2.78231,14.5483 0.52606,0.66111 0.66397,2.12361 0.30647,3.25 -0.57514,1.8121 -1.47731,2.04926 -7.83262,2.059 -3.95043,0.006 -8.86214,0.28863 -10.91489,0.62796 -2.95448,0.48839 -3.86757,0.26441 -4.38146,-1.07477 z m 15.49286,-4.46833 c 1.05696,-0.66945 1.21077,-2.22086 0.65845,-6.64146 -0.95558,-7.64822 -1.3434,-8.45441 -4.06701,-8.45441 -2.35433,0 -3.84525,2.82127 -5.07515,9.60372 -0.27488,1.51588 -0.75895,3.17548 -1.07571,3.68801 -1.38455,2.24025 6.51656,3.73142 9.55942,1.80414 z"
         style="fill:#000000" />
    </g>
  </g>
</svg>
