<?xml version="1.0" encoding="UTF-8" standalone="no"?>
<!-- Created with Inkscape (http://www.inkscape.org/) -->

<svg
   xmlns:dc="http://purl.org/dc/elements/1.1/"
   xmlns:cc="http://creativecommons.org/ns#"
   xmlns:rdf="http://www.w3.org/1999/02/22-rdf-syntax-ns#"
   xmlns:svg="http://www.w3.org/2000/svg"
   xmlns="http://www.w3.org/2000/svg"
   xmlns:sodipodi="http://sodipodi.sourceforge.net/DTD/sodipodi-0.dtd"
   xmlns:inkscape="http://www.inkscape.org/namespaces/inkscape"
   width="134.07234mm"
   height="125.52447mm"
   viewBox="0 0 475.05948 444.77173"
   id="svg3666"
   version="1.1"
   inkscape:version="0.91 r13725"
   sodipodi:docname="shop.svg">
  <defs
     id="defs3668" />
  <sodipodi:namedview
     id="base"
     pagecolor="#ffffff"
     bordercolor="#666666"
     borderopacity="1.0"
     inkscape:pageopacity="0.0"
     inkscape:pageshadow="2"
     inkscape:zoom="0.35"
     inkscape:cx="300.38679"
     inkscape:cy="665.24302"
     inkscape:document-units="px"
     inkscape:current-layer="layer1"
     showgrid="false"
     fit-margin-top="0"
     fit-margin-left="0"
     fit-margin-right="0"
     fit-margin-bottom="0"
     inkscape:window-width="1440"
     inkscape:window-height="851"
     inkscape:window-x="364"
     inkscape:window-y="151"
     inkscape:window-maximized="0" />
  <metadata
     id="metadata3671">
    <rdf:RDF>
      <cc:Work
         rdf:about="">
        <dc:format>image/svg+xml</dc:format>
        <dc:type
           rdf:resource="http://purl.org/dc/dcmitype/StillImage" />
        <dc:title></dc:title>
      </cc:Work>
    </rdf:RDF>
  </metadata>
  <g
     inkscape:label="Layer 1"
     inkscape:groupmode="layer"
     id="layer1"
     transform="translate(-74.61321,-67.119199)">
    <g
       id="g6309"
       transform="translate(2476.003,-578.01106)"
       inkscape:export-filename="/home/elliot/git/oddc_1/oddc/img/shop.png"
       inkscape:export-xdpi="32.173809"
       inkscape:export-ydpi="32.173809">
      <path
         inkscape:connector-curvature="0"
         id="path6254"
         d="m -2236.5431,991.56751 c -6.0177,-0.13144 -10.1047,5.13572 -12.4627,10.04309 -1.9299,3.4834 -2.7162,7.458 -2.1667,11.4119 0.193,6.9095 3.388,13.7657 9.0831,17.8115 5.8734,4.543 13.4941,6.5717 18.4911,12.2598 4.587,4.4968 7.8664,10.5552 8.5999,16.9415 -0.6326,5.7359 -5.8047,9.5904 -10.3525,12.4186 -5.8222,3.4739 -13.4534,6.3187 -20.0199,3.1599 -3.5852,-2.361 -6.6577,-5.8193 -9.1924,-9.3471 -0.8721,-2.4076 -3.2782,-5.1137 -6.0657,-3.7454 -3.4125,1.6298 -7.2289,2.9631 -9.8876,5.7182 -2.0373,2.711 1.2612,5.324 2.8828,7.3632 4.8491,4.9095 9.8939,10.1798 16.7607,12.0871 4.0408,1.5952 8.4056,2.3239 12.7169,1.5137 10.0573,-1.049 21.0772,-3.5722 27.787,-11.7888 5.0903,-6.6014 8.1991,-14.9108 8.2533,-23.2793 0.012,-8.1059 -4.2184,-16.0609 -11.1046,-20.4127 -7.1802,-5.3585 -15.7681,-8.9592 -21.8311,-15.716 -2.6271,-2.9109 -3.2444,-7.0952 -2.5522,-10.8718 2.5371,-1.7804 5.8716,-2.9089 8.8167,-1.4474 4.8774,1.8243 7.5186,7.2212 12.4186,8.9825 3.419,0.9588 6.3625,-3.0651 4.8392,-6.143 -3.0308,-8.69162 -11.708,-14.01726 -20.1856,-16.39544 -1.5766,-0.38424 -3.2025,-0.62039 -4.8283,-0.56405 z"
         style="color:#000000;display:inline;overflow:visible;visibility:visible;fill:#da67a2;fill-opacity:1;fill-rule:nonzero;stroke:none;stroke-width:0.30000001;marker:none;enable-background:accumulate" />
      <path
         inkscape:connector-curvature="0"
         id="path6256"
         d="m -2189.653,994.15287 c -1.9323,0.0869 -3.2575,1.61684 -5.0698,1.90843 -2.9986,1.91341 -2.1463,6.0946 -2.5206,9.1291 -0.6303,26.3575 -0.6906,52.7398 -0.2431,79.1075 0.3285,3.3662 4.2928,3.3743 6.7286,2.3534 2.4887,-0.9373 6.3495,-1.6271 6.0746,-5.0381 0.2798,-14.8235 0.1367,-29.6314 0.9302,-44.4373 3.1398,-0.4079 6.3563,-0.3652 9.5349,-0.4972 0,16.4349 -0.2762,32.9059 -0.1242,49.3182 0.5772,3.5309 4.7731,2.5943 7.383,2.6483 3.2356,0.061 7.8145,-0.6333 8.4191,-4.5351 1.1391,-10.8145 0.6453,-21.7315 0.7026,-32.5932 -0.347,-17.8599 -0.373,-35.7664 -1.6307,-53.59648 -0.3417,-3.56901 -4.9326,-4.28906 -7.7561,-3.43609 -4.7061,1.71135 -5.6832,7.55777 -4.8175,11.91867 0.4604,3.8108 1.1473,7.7269 1.0389,11.4932 -3.7068,0.5273 -7.5438,0.5673 -11.3027,0.5524 -0.3118,-6.4333 0.524,-12.9851 -0.3646,-19.39018 -0.7981,-3.00616 -3.8745,-5.19708 -6.9826,-4.90555 z"
         style="color:#000000;display:inline;overflow:visible;visibility:visible;fill:#da67a2;fill-opacity:1;fill-rule:nonzero;stroke:none;stroke-width:0.30000001;marker:none;enable-background:accumulate" />
      <path
         inkscape:connector-curvature="0"
         id="path6258"
         d="m -2127.6044,995.39031 c -6.5879,0.48284 -10.6799,6.61469 -13.5676,11.88819 -5.2371,9.848 -8.5366,20.746 -9.1482,31.9082 -0.812,10.2811 -1.7663,20.6352 -1.1712,30.947 0.3969,2.5618 1.9717,4.7037 2.6627,7.1595 2.3529,3.4988 5.3972,6.9643 9.3913,8.5626 4.7675,0.6324 9.7248,0.4313 14.4404,-0.5635 6.1045,-1.4351 9.0725,-7.5734 11.8772,-12.5953 4.4295,-9.2913 4.6055,-19.8973 4.7233,-30.0079 -0.2204,-13.7037 -1.7249,-28.0395 -8.535,-40.1725 -2.2585,-3.76672 -5.9617,-7.36927 -10.6729,-7.12629 z m -0.8397,16.38499 c 2.6452,2.9602 5.4375,6.0743 7.2664,9.5238 -0.2887,11.2145 0.1683,22.4433 -0.7588,33.6208 -1.05,5.9329 -3.1475,11.9597 -7.0821,16.6391 -1.1607,1.5904 -3.4403,2.0236 -4.9498,0.6408 -3.5444,-2.8886 -4.3887,-7.7205 -5.5574,-11.8662 -2.6644,-10.7316 0.7331,-21.6636 2.8422,-32.244 1.3377,-6.0236 3.1659,-12.3939 7.9743,-16.5905 l 0.2449,0.255 0.02,0.021 z"
         style="color:#000000;display:inline;overflow:visible;visibility:visible;fill:#da67a2;fill-opacity:1;fill-rule:nonzero;stroke:none;stroke-width:0.30000001;marker:none;enable-background:accumulate" />
      <path
         inkscape:connector-curvature="0"
         id="path6260"
         d="m -2085.0012,996.06427 c -4.1045,0.24964 -9.0265,0.88057 -11.6231,4.47463 -1.3379,4.1858 -0.8602,8.7462 -1.2954,13.0909 -0.8116,19.7624 -1.8916,39.5345 -2.0413,59.3102 0.2731,3.9206 -0.2219,8.0807 1.123,11.8211 1.7285,2.6956 5.4581,1.9031 8.1955,2.4566 2.345,0.3221 5.7639,1.0149 6.8456,-1.8481 1.3499,-5.1548 0.4076,-10.6368 0.5078,-15.9204 -0.2871,-7.0039 -0.3672,-14.09 -1.1818,-21.0259 9.0553,-1.1713 17.4711,-5.9633 23.7986,-12.4738 4.2897,-4.065 5.7604,-10.4686 3.9774,-16.0646 -2.605,-8.7659 -8.0514,-17.2659 -16.6059,-21.19108 -3.6318,-1.75109 -7.6619,-2.70956 -11.7004,-2.62955 z m 0.917,12.39643 c 4.7696,-0.01 8.6336,3.3591 12.1755,6.1651 2.8692,2.3237 4.8356,6.1986 3.2483,9.8222 -1.0063,3.4691 -3.5685,6.3048 -7.038,7.4467 -3.3377,1.3375 -6.9379,1.9236 -10.5071,2.2539 0.2715,-8.2567 0.617,-16.6264 1.8561,-24.7708 0.052,-0.3085 0.1457,-0.6406 0.2652,-0.9171 z"
         style="color:#000000;display:inline;overflow:visible;visibility:visible;fill:#da67a2;fill-opacity:1;fill-rule:nonzero;stroke:none;stroke-width:0.30000001;marker:none;enable-background:accumulate" />
      <path
         inkscape:connector-curvature="0"
         id="path6150"
         d="m -2136.9293,761.43256 c -6.4047,0.0901 -8.8366,7.32636 -8.5035,12.70467 -2.2461,58.02913 -2.2212,116.1579 -0.138,174.19101 0.7124,7.75132 0.1319,15.81959 1.7015,23.3694 2.4667,3.17999 7.617,1.30501 11.159,2.10476 21.8629,0.40598 43.6636,1.62714 65.4752,2.53707 9.4909,-0.18668 19.0845,-0.18017 28.5039,-0.57199 4.5014,-1.85699 1.11,-7.94802 1.5924,-11.63834 -4.9883,-66.35352 -3.7811,-133.16348 -4.6183,-199.73557 -1.5456,-5.20218 -8.214,-2.18787 -12.1976,-2.98311 -19.6935,0.11813 -39.4962,-0.25302 -59.0876,1.90035 -6.3523,0.72309 -3.2216,8.34498 -3.6557,12.61015 0.9759,26.76376 6.1033,53.14341 11.699,79.26954 -0.541,-3.82973 -6.1189,-6.84307 -7.428,-1.9078 -0.7929,2.34017 -1.6606,6.2519 -2.8913,7.60885 -7.0118,-30.46317 -9.0481,-61.81359 -14.1863,-92.63099 -0.658,-3.88577 -2.9167,-7.55659 -7.4247,-6.828 z"
         style="color:#000000;display:inline;overflow:visible;visibility:visible;fill:#c993ed;fill-opacity:1;fill-rule:nonzero;stroke:none;stroke-width:0.30000001;marker:none;enable-background:accumulate" />
      <path
         inkscape:connector-curvature="0"
         id="path6152"
         d="m -2243.2383,762.86887 c -10.4507,0.2934 -20.9901,-0.44391 -31.3779,0.88388 -4.643,2.1974 -1.9188,8.6485 -2.8315,12.79115 -1.3364,43.62018 -1.1497,87.3398 -5.5713,130.77185 -1.419,22.07967 -2.6252,44.41719 -0.9133,66.45873 2.104,4.24862 7.9829,1.2594 11.7689,1.86724 35.766,-1.03902 71.668,-1.23942 107.3683,-1.99556 4.2897,-1.73289 1.585,-7.66887 2.3366,-11.2406 -0.1044,-63.51412 0.026,-127.05392 -1.6944,-190.54318 0.6032,-3.89996 -3.8702,-8.28857 -7.3362,-5.01604 -5.9129,7.16805 -7.3014,16.85425 -9.4574,25.66947 -3.4439,15.81265 -3.729,32.07353 -6.099,48.04642 -0.9914,-3.44761 -1.2823,-10.19018 -5.4358,-10.18676 -4.0015,0.0351 -4.43,5.57626 -5.9221,8.3306 2.8748,-24.27743 9.795,-47.76354 14.7388,-71.66085 -0.8045,-5.30334 -7.6878,-3.62305 -11.4462,-4.09946 -16.0408,-0.19892 -32.0858,-0.12929 -48.1275,-0.0769 z"
         style="color:#000000;display:inline;overflow:visible;visibility:visible;fill:#c993ed;fill-opacity:1;fill-rule:nonzero;stroke:none;stroke-width:0.30000001;marker:none;enable-background:accumulate" />
      <path
         inkscape:connector-curvature="0"
         id="path6154"
         d="m -2251.1712,745.52266 c -5.7995,4.96004 -12.99,8.59961 -17.8986,14.3852 0.2245,5.30146 7.1485,3.63709 10.8717,4.19845 24.6566,0.22229 49.3876,0.0637 73.9973,-0.52832 6.0092,-3.30275 12.2911,-6.89887 17.1974,-11.73557 2.1662,-3.92172 -3.0701,-6.28517 -6.2969,-5.71106 -25.5471,-0.78298 -51.208,-1.16046 -76.7093,-0.98659 l -0.6724,0.21874 -0.4892,0.15915 z"
         style="color:#000000;display:inline;overflow:visible;visibility:visible;fill:#a881c1;fill-opacity:1;fill-rule:nonzero;stroke:none;stroke-width:0.30000001;marker:none;enable-background:accumulate" />
      <path
         inkscape:connector-curvature="0"
         id="path6158"
         d="m -2163.333,711.62941 c -1.6885,0.19775 -3.362,0.50437 -5.068,0.55839 -5.4457,0.18646 -10.8847,0.58803 -16.2838,1.32999 -2.9081,0.4146 -5.8351,0.72231 -8.7242,1.24995 -1.4927,0.39714 -2.5034,2.02733 -2.1455,3.53857 0.3007,1.61432 1.9202,2.38335 3.0914,3.30974 5.2042,3.67782 10.2768,7.5548 15.7451,10.83307 3.7093,2.17915 7.7703,4.14152 12.1503,4.26601 1.4499,0.082 2.9878,-0.16855 4.1073,-1.16562 1.8315,-1.49713 2.1814,-4.01115 2.289,-6.22832 0.082,-2.35515 0.1517,-4.72273 -0.03,-7.07413 -0.4166,-2.97535 -1.0919,-5.93259 -2.0882,-8.76426 -0.5031,-1.18261 -1.7642,-1.94297 -3.0438,-1.85339 z"
         style="color:#000000;display:inline;overflow:visible;visibility:visible;fill:#a881c1;fill-opacity:1;fill-rule:nonzero;stroke:none;stroke-width:0.30000001;marker:none;enable-background:accumulate" />
      <path
         inkscape:connector-curvature="0"
         id="path6160"
         d="m -2211.9604,721.54272 c -1.3205,0.43682 -2.3614,1.42271 -3.5489,2.11811 -4.0787,2.7465 -8.2809,5.342 -12.0943,8.45989 -1.2194,0.90141 -2.067,2.50734 -1.4556,4.00273 0.418,1.37415 1.8787,2.08097 3.2328,2.13019 4.4381,0.45738 8.9093,0.4171 13.366,0.4699 4.8734,-0.0216 9.7768,-0.0543 14.6007,-0.81827 1.578,-0.25411 3.3898,-0.83131 4.0511,-2.44587 0.6296,-1.37836 0.015,-2.93998 -0.9656,-3.97356 -1.6588,-1.75519 -3.7251,-3.09208 -5.7709,-4.36527 -3.1069,-1.83912 -6.2608,-3.60563 -9.4246,-5.34069 -0.6165,-0.31518 -1.3174,-0.3601 -1.9907,-0.23716 z"
         style="color:#000000;display:inline;overflow:visible;visibility:visible;fill:#a881c1;fill-opacity:1;fill-rule:nonzero;stroke:none;stroke-width:0.30000001;marker:none;enable-background:accumulate" />
      <path
         inkscape:connector-curvature="0"
         id="path6162"
         d="m -2142.8223,712.47276 c -3.1952,-0.0299 -6.5681,2.141 -6.7578,5.55469 -0.2927,3.31152 0.837,7.38527 4.0157,8.92187 2.8699,1.16327 5.5757,-1.42903 6.4531,-4.03906 1.1824,-2.87313 2.2412,-6.82336 -0.4531,-9.21094 -0.8697,-0.8323 -2.0457,-1.31658 -3.2579,-1.22656 z"
         style="color:#000000;display:inline;overflow:visible;visibility:visible;fill:#a881c1;fill-opacity:1;fill-rule:nonzero;stroke:none;stroke-width:0.30000001;marker:none;enable-background:accumulate" />
      <path
         inkscape:connector-curvature="0"
         id="path6164"
         d="m -2158.9807,724.39687 c -1.3353,0.42621 -2.1826,1.79676 -2.1069,3.17606 -0.061,1.69009 -0.1199,3.39761 -0.6526,5.01424 -0.2716,1.29629 0.3512,2.56611 0.8757,3.72003 0.8075,1.63294 2.6962,2.81862 4.5354,2.31191 2.3243,-0.47812 3.9857,-2.83723 3.8118,-5.17624 0.045,-2.09347 -0.8563,-4.06208 -1.7678,-5.89716 -0.6826,-1.13732 -1.3597,-2.4451 -2.606,-3.03769 -0.6695,-0.28194 -1.3924,-0.29843 -2.0896,-0.11115 z"
         style="color:#000000;display:inline;overflow:visible;visibility:visible;fill:#7a11bf;fill-opacity:1;fill-rule:nonzero;stroke:none;stroke-width:0.30000001;marker:none;enable-background:accumulate" />
      <path
         inkscape:connector-curvature="0"
         id="path6166"
         d="m -2120.808,712.42025 c -2.8289,0.10138 -5.8832,0.70105 -7.9826,2.74004 -1.4688,1.41107 -2.0744,3.93068 -0.7927,5.64857 0.8989,1.24609 2.61,1.63282 4.1072,1.49321 3.0138,-0.099 5.8997,-1.10082 8.7371,-2.03665 1.5025,-0.58477 3.3552,-1.09068 4.0359,-2.7231 0.6475,-1.3953 0.032,-3.20218 -1.2963,-3.98174 -1.6316,-0.93714 -3.5754,-0.96781 -5.4054,-1.12376 -0.4673,-0.023 -0.9355,-0.0291 -1.4032,-0.0166 z"
         style="color:#000000;display:inline;overflow:visible;visibility:visible;fill:#a881c1;fill-opacity:1;fill-rule:nonzero;stroke:none;stroke-width:0.30000001;marker:none;enable-background:accumulate" />
      <path
         inkscape:connector-curvature="0"
         id="path6168"
         d="m -2094.4185,710.6442 c -2.1891,0.07 -4.4347,0.0625 -6.5435,0.7071 -1.6617,0.53845 -2.6172,2.63104 -1.7873,4.20014 0.5647,1.35806 2.0871,1.8792 3.4528,1.92904 3.3662,0.22425 6.7751,0.25289 10.1364,-0.0549 1.4577,-0.0829 2.9167,-0.85083 3.3272,-2.32159 0.5233,-1.61576 -0.5377,-3.41392 -2.1637,-3.85216 -2.0852,-0.54717 -4.2765,-0.60817 -6.4219,-0.60767 z"
         style="color:#000000;display:inline;overflow:visible;visibility:visible;fill:#a881c1;fill-opacity:1;fill-rule:nonzero;stroke:none;stroke-width:0.30000001;marker:none;enable-background:accumulate" />
      <path
         inkscape:connector-curvature="0"
         id="path6170"
         d="m -2079.0224,720.61827 c -0.9147,0.0936 -1.7297,0.55642 -2.6517,0.64358 -6.3048,1.13746 -12.6656,1.87316 -19.0103,2.68814 -9.1618,1.14545 -18.3537,2.35766 -27.2775,4.76686 -1.8877,0.4853 -3.6985,1.23226 -5.3586,2.25667 -1.4195,0.82182 -3.1381,1.72976 -3.4859,3.49459 -0.3721,1.6232 0.7898,3.26438 2.3452,3.70906 1.7456,0.4391 3.5715,0.15646 5.3469,0.11051 6.5894,-0.4827 13.1517,-1.27899 19.722,-1.97095 9.3184,-1.00127 18.6454,-2.03444 27.9916,-2.48192 1.6754,-0.0253 3.3635,-0.0935 5.0327,0.009 1.7824,0.62124 4.0616,0.50212 5.3276,-1.0655 1.0874,-1.24039 0.8462,-3.04203 0.2188,-4.43668 -1.1107,-2.4174 -2.7864,-4.57377 -4.7675,-6.34186 -0.9566,-0.80467 -2.1356,-1.49774 -3.4333,-1.38107 z"
         style="color:#000000;display:inline;overflow:visible;visibility:visible;fill:#a881c1;fill-opacity:1;fill-rule:nonzero;stroke:none;stroke-width:0.30000001;marker:none;enable-background:accumulate" />
      <path
         inkscape:connector-curvature="0"
         id="path6172"
         d="m -2062.4599,738.96441 c -18.5488,1.8637 -37.1062,3.71422 -55.6127,5.96742 -4.7528,0.69422 -9.6127,1.06814 -14.2365,2.36868 -1.999,0.49677 -3.1989,2.98491 -2.0769,4.75642 1.3666,1.77951 3.6221,2.62684 5.4499,3.87271 5.5083,3.15721 11.0607,6.79404 17.539,7.4551 8.4704,0.96905 17.0206,0.58618 25.5308,0.63715 12.5021,-0.1391 25.0169,-0.13092 37.5037,-0.79907 1.8064,-0.0447 4.0477,-0.36775 4.7901,-2.29943 0.8207,-2.33419 -1.1672,-4.24246 -2.3644,-6.00488 -3.9674,-5.03872 -8.5118,-9.58895 -12.9267,-14.23053 -0.9528,-0.98588 -2.1761,-1.82238 -3.5963,-1.72357 z"
         style="color:#000000;display:inline;overflow:visible;visibility:visible;fill:#a881c1;fill-opacity:1;fill-rule:nonzero;stroke:none;stroke-width:0.30000001;marker:none;enable-background:accumulate" />
      <path
         inkscape:connector-curvature="0"
         id="path6174"
         d="m -2146.1101,743.16439 c -3.5078,-0.36565 -8.0924,2.97865 -5.7969,6.71875 4.3926,5.30123 10.7258,8.62958 16.7656,11.73437 1.4371,0.84588 3.907,0.63064 3.3907,2.92188 3.3817,29.4324 6.9902,58.87613 11.9959,88.08254 0.498,2.73798 1.4348,7.34171 5.2384,6.35496 3.7074,-2.02795 2.2442,-7.09075 3.6407,-10.45313 2.0083,2.12628 6.639,2.12975 6.6093,-1.5625 -1.7544,-7.13283 -3.7973,-14.15194 -4.7763,-21.45722 -3.2176,-19.78553 -5.4281,-39.64199 -6.7705,-59.63653 -1.5676,-5.55946 -7.5846,-8.05868 -11.746,-11.4259 -5.0973,-3.26231 -9.7266,-7.22509 -14.7072,-10.60535 -1.1907,-0.56938 -2.5336,-0.76365 -3.8437,-0.67187 z"
         style="color:#000000;display:inline;overflow:visible;visibility:visible;fill:#7a11bf;fill-opacity:1;fill-rule:nonzero;stroke:none;stroke-width:0.30000001;marker:none;enable-background:accumulate" />
      <path
         inkscape:connector-curvature="0"
         id="path6176"
         d="m -2151.7039,750.32064 c -5.3797,1.1906 -8.6461,6.46925 -11.2656,10.90625 -3.0697,6.83005 -1.8566,14.61325 -2.3488,21.8906 -0.325,58.4801 -0.1375,116.98082 1.7748,175.43474 0.5133,4.1643 -0.2267,8.75158 1.6365,12.61216 3.2207,2.76521 8.059,2.00494 12.0156,1.92187 3.1264,0.0333 6.6434,-1.76795 6.4688,-5.34375 0.8969,-17.74629 -0.7496,-35.51826 -1.2369,-53.26117 -1.6594,-33.75905 -1.6466,-67.57798 -0.2502,-101.34607 0.4188,-17.99794 1.8618,-36.01836 1.0965,-54.01776 -0.4399,-3.85885 -3.2911,-7.94664 -7.1875,-8.8125 -0.2329,0.0393 -0.4706,-0.0288 -0.7032,0.0156 z"
         style="color:#000000;display:inline;overflow:visible;visibility:visible;fill:#7a11bf;fill-opacity:1;fill-rule:nonzero;stroke:none;stroke-width:0.30000001;marker:none;enable-background:accumulate" />
      <path
         inkscape:connector-curvature="0"
         id="path6178"
         d="m -2065.0164,645.14876 c -16.5762,0.59012 -30.5963,11.4123 -41.4867,23.03272 -12.7985,13.99855 -21.0383,31.41797 -31.3883,47.10791 -2.7663,4.05501 -4.7482,8.60263 -8.4375,11.98437 -8.8848,11.16507 -19.2511,21.05959 -30.747,29.55021 -4.4963,3.08613 -7.7683,7.65351 -9.0151,12.98837 -4.7264,16.86212 -9.4555,33.84132 -12.0261,51.17532 -0.1219,3.27416 -1.2364,7.26349 0.7674,10.03125 2.9262,2.5111 5.7056,-1.41328 5.349,-4.3389 0.7319,2.61889 0.3345,8.63254 4.7812,8.89063 4.2938,-0.48522 3.9404,-5.81306 4.3522,-8.99843 0.8839,-16.85421 2.3862,-33.94007 8.1478,-49.86095 4.2927,-9.49183 12.934,-16.14947 19.7792,-23.77131 6.733,-6.949 12.9232,-14.38438 18.5177,-22.27556 2.6213,3.20759 6.952,0.2687 10.1094,-0.39063 10.8155,-4.03659 22.609,-2.38899 33.7971,-4.52639 15.6967,-2.40184 31.629,-6.40681 45.2029,-14.91111 9.4613,-6.88098 14.6304,-18.54982 14.658,-30.10907 0.7692,-12.2343 -4.1147,-26.08301 -15.5487,-31.95343 -5.1809,-2.59608 -11.0248,-3.81085 -16.8125,-3.625 z m 0.7344,12.0625 c 6.9649,-0.56798 13.8447,3.96419 16.9844,9.9375 2.4752,6.23294 1.4728,13.48484 -0.6094,19.65625 -5.2579,13.75499 -19.1789,22.24516 -33.0156,25.48438 -4.6759,1.10725 -9.2291,2.69075 -14.0914,2.64253 -12.413,1.8947 -25.3133,3.23656 -36.6586,8.95122 12.4669,-17.88847 23.6403,-36.75568 37.6161,-53.37135 5.5177,-6.64888 13.294,-11.06586 21.837,-12.39428 2.5679,-0.51734 5.2866,-0.84293 7.9375,-0.90625 z"
         style="color:#000000;display:inline;overflow:visible;visibility:visible;fill:#7a11bf;fill-opacity:1;fill-rule:nonzero;stroke:none;stroke-width:0.30000001;marker:none;enable-background:accumulate" />
      <path
         inkscape:connector-curvature="0"
         id="path6180"
         d="m -2077.032,731.46126 c -20.3382,0.68502 -40.683,2.46133 -60.7871,5.67619 -3.2582,0.1719 -7.7808,2.61564 -6.041,6.49569 2.7461,5.21009 9.4912,5.38959 14.6057,4.64867 20.3933,-2.36299 40.9448,-3.78562 61.2772,-6.37664 2.9853,0.0318 6.4843,-2.44692 5.0546,-5.74078 -2.4735,-5.39797 -9.2061,-4.75777 -14.1094,-4.70313 z"
         style="color:#000000;display:inline;overflow:visible;visibility:visible;fill:#7a11bf;fill-opacity:1;fill-rule:nonzero;stroke:none;stroke-width:0.30000001;marker:none;enable-background:accumulate" />
      <path
         inkscape:connector-curvature="0"
         id="path6182"
         d="m -2198.9851,735.38314 c -13.0184,0.52707 -26.1911,0.83988 -38.9375,3.70312 -3.3126,0.2564 -5.9693,4.68058 -2.8594,6.89063 5.8501,2.38267 12.6546,1.13456 18.8906,1.53785 16.7006,-0.0403 33.4227,0.23085 50.1094,-0.36598 3.7823,-0.52578 3.3074,-6.01839 -0.125,-6.71875 -8.5164,-3.82346 -17.7707,-5.37944 -27.0781,-5.04687 z"
         style="color:#000000;display:inline;overflow:visible;visibility:visible;fill:#7a11bf;fill-opacity:1;fill-rule:nonzero;stroke:none;stroke-width:0.30000001;marker:none;enable-background:accumulate" />
      <path
         inkscape:connector-curvature="0"
         id="path6184"
         d="m -2212.3601,647.00814 c -9.2073,0.1815 -18.5972,4.9415 -23.5781,12.78125 -4.5814,9.32061 -4.2252,20.46403 -1.5868,30.2902 6.8756,18.87092 23.0006,32.67667 40.2586,42.0223 10.5844,5.56235 21.9101,9.93324 33.6094,12.40625 3.2025,0.69033 7.5155,-0.96579 7.0781,-4.85938 -0.055,-4.2461 -4.8997,-4.6418 -8.0156,-5.35937 -10.3459,-2.69649 -18.6747,-10.01576 -27.4687,-15.75 -11.9006,-8.99741 -25.0533,-17.96152 -31.2032,-32.04688 -3.3504,-7.19031 -5.5535,-16.97687 0.2344,-23.48437 4.5254,-4.06629 11.2288,-6.04975 17.1875,-5.01563 8.4682,3.99591 14.5634,11.5693 20.6563,18.45313 12.0987,14.28839 20.3439,31.3673 27.4375,48.64062 1.383,3.38324 2.0265,9.32319 6.9218,8.96875 4.9023,-0.77489 4.4238,-6.87386 4.0782,-10.5625 -1.4248,-12.79943 -7.6346,-24.45978 -13.6094,-35.67187 -8.8301,-15.16545 -20.1527,-30.07304 -36.3281,-37.84375 -4.8797,-2.34147 -10.292,-3.17686 -15.6719,-2.96875 z"
         style="color:#000000;display:inline;overflow:visible;visibility:visible;fill:#7a11bf;fill-opacity:1;fill-rule:nonzero;stroke:none;stroke-width:0.30000001;marker:none;enable-background:accumulate" />
      <path
         inkscape:connector-curvature="0"
         id="path6204"
         d="m -1951.8204,829.60605 c -7.839,4.53964 -9.0131,15.45053 -13.0373,22.98097 -7.993,19.97114 -11.9279,42.66871 -6.5849,63.7722 3.5681,13.11064 11.0301,1.66666 8.9714,-6.54074 1.0143,-9.48297 4.2013,-21.00045 10.695,-27.44458 5.7221,12.37357 10.1946,26.86161 7.071,40.30508 -2.436,5.09127 -15.0816,5.68366 -9.7669,12.99309 12.2528,3.69624 24.4203,-7.64387 25.4117,-19.79899 3.5485,-26.30897 -3.3991,-53.12617 -13.3467,-77.29561 -1.9795,-3.65296 -4.5485,-9.07534 -9.4133,-8.97142 z"
         style="color:#000000;display:inline;overflow:visible;visibility:visible;fill:#e8a5de;fill-opacity:1;fill-rule:nonzero;stroke:none;stroke-width:0.30000001;marker:none;enable-background:accumulate" />
      <path
         inkscape:connector-curvature="0"
         id="path6206"
         d="m -2386.6911,834.42322 c -9.2873,3.7634 -8.9269,16.39834 -11.0056,24.77537 -2.3732,22.971 -7.3392,49.37919 7.912,69.22564 6.8342,10.46661 20.8591,13.23173 32.085,9.76691 1.4764,-7.0048 -9.7741,-7.25484 -12.9047,-12.59534 -5.7886,-10.34555 -9.5519,-23.05236 -7.3805,-34.8692 5.5111,1.05344 9.8422,7.74361 12.9931,12.37436 4.2733,5.49156 4.9128,14.98876 11.8441,17.67767 6.9041,-2.50655 1.4187,-12.03554 1.5031,-17.25494 -4.68,-23.41004 -14.7687,-45.81355 -28.4616,-65.29977 -1.5672,-2.01162 -3.8103,-4.15645 -6.5849,-3.8007 z"
         style="color:#000000;display:inline;overflow:visible;visibility:visible;fill:#e8a5de;fill-opacity:1;fill-rule:nonzero;stroke:none;stroke-width:0.30000001;marker:none;enable-background:accumulate" />
      <path
         inkscape:connector-curvature="0"
         id="path6208"
         d="m -1953.0044,882.73627 c -4.3829,1.41289 -5.8105,6.58312 -7.3125,10.46875 -2.6517,8.09571 -2.3393,16.69488 -2.9531,25.0625 -1.4447,2.48687 -4.9891,2.94246 -7.2798,4.43406 -21.9735,10.64596 -44.2198,20.8904 -66.8608,29.94094 -4.1127,2.79229 -1.47,8.15776 -0.6875,11.95312 0.3504,3.02271 3.858,4.42727 6.25,2.57813 28.641,-13.5453 57.2122,-27.66324 85.9687,-40.79688 5.2799,-4.28277 3.9991,-11.93883 3.7813,-17.92187 -0.998,-7.94922 -3.1495,-15.84299 -6.3906,-23.15625 -0.8383,-1.63736 -2.613,-2.91649 -4.5157,-2.5625 z"
         style="color:#000000;display:inline;overflow:visible;visibility:visible;fill:#ef420d;fill-opacity:1;fill-rule:nonzero;stroke:none;stroke-width:0.30000001;marker:none;enable-background:accumulate" />
      <path
         inkscape:connector-curvature="0"
         id="path6210"
         d="m -2379.5512,888.76752 c -2.4865,2.80524 -0.5227,6.91042 -0.7139,10.27779 1.0101,8.26191 0.4841,17.63092 5.8701,24.53471 6.9046,7.35604 17.1632,9.92126 26.2529,13.54312 19.7298,6.87611 39.5878,13.47666 59.5127,19.75375 3.4352,1.07518 5.3079,-2.81858 5.0469,-5.78125 0.7404,-4.29029 -2.2565,-8.14002 -6.2969,-9.29687 -22.1115,-7.87349 -44.0366,-16.42686 -66.8125,-22.29688 -2.9455,-10.1111 -7.011,-20.43054 -15.25,-27.42187 -2.0864,-1.73895 -4.5031,-5.26935 -7.6093,-3.3125 z"
         style="color:#000000;display:inline;overflow:visible;visibility:visible;fill:#ef420d;fill-opacity:1;fill-rule:nonzero;stroke:none;stroke-width:0.30000001;marker:none;enable-background:accumulate" />
      <path
         sodipodi:nodetypes="cccscssscsssccccscsssscssssscccscsccsssscccsccsssccsscscsscsscssccccscsccscsscsscsssscscsccscscsscsccsscsccssssccscsssssscsscsscscssssscscsscssssssssscscsscscssccscsccsssssssssssssssscccsssssccscscscccscscsscsscsccsssscssssscsssscsscsssscccssscscscssccsssssssscsssscsssccccssssccsccscscsscs"
         inkscape:connector-curvature="0"
         id="path6148"
         d="m -2286.0198,975.01891 c -1.695,-1.04761 -2.0446,-3.72061 -1.1666,-8.91804 l 1.2539,-7.42204 -24.8718,-7.87463 c -13.6795,-4.33104 -28.7471,-9.20576 -33.4833,-10.83274 -6.9224,-2.3779 -9.8173,-2.53782 -14.7584,-0.81532 -13.7545,4.79486 -24.5995,1.21236 -33.4923,-11.06369 -8.3928,-11.58597 -10.4778,-27.32411 -7.6819,-57.98389 1.2553,-13.76568 3.2597,-27.10578 4.4542,-29.64467 2.7329,-5.809 9.9289,-9.51647 14.9009,-7.67718 5.5215,2.04252 26.4091,48.59907 29.1412,64.95286 4.1184,24.65228 2.3645,22.20819 20.3799,28.3994 8.9207,3.06572 22.4046,7.78117 29.9645,10.47881 7.5596,2.69763 13.9691,4.64427 14.2431,4.32588 0.274,-0.31837 1.0737,-8.1456 1.7773,-17.39383 0.7035,-9.24822 2.1188,-23.12056 3.1451,-30.82742 1.0262,-7.70685 2.56,-39.78576 3.4084,-71.28643 0.8482,-31.50068 2.1111,-58.19442 2.8065,-59.31942 0.6953,-1.12501 2.0228,-2.04547 2.95,-2.04547 0.9273,0 8.3221,-4.41391 16.4329,-9.80872 8.1109,-5.3948 19.2832,-12.58985 24.8275,-15.989 19.0665,-11.6895 18.4582,-10.46858 9.7274,-19.52282 -11.7784,-12.21472 -17.3973,-24.43077 -17.389,-37.8052 0.01,-14.427 4.1398,-21.39381 15.9869,-26.96258 12.0996,-5.68752 22.211,-4.11884 36.6489,5.68572 12.0654,8.19343 27.2534,28.64252 34.5252,46.48444 3.8612,9.47393 4.6595,10.2758 10.2304,10.2758 5.6385,0 6.764,-1.19586 16.8421,-17.89373 12.4025,-20.54912 26.4666,-36.0182 39.8967,-43.88241 7.5217,-4.40457 11.5254,-5.46936 20.5515,-5.46601 20.5002,0.008 32.7422,13.00503 32.6548,34.66919 -0.078,19.52175 -10.8886,33.12699 -31.8525,40.09009 l -9.2039,3.05702 9.8059,11.39255 c 5.3931,6.2659 13.0422,14.65217 16.9978,18.63615 l 7.1922,7.24359 -1.4585,25.58748 c -1.6213,28.44251 -1.603,30.9463 0.7885,108.3347 0.9301,30.09725 2.1703,55.20142 2.7559,55.78704 1.5463,1.54637 25.4257,-7.82243 47.3431,-18.57458 l 18.9734,-9.30786 -2.7856,-9.3798 c -3.0777,-10.36403 -2.1324,-28.1977 2.4245,-45.73702 3.5499,-13.66403 15.6866,-39.65422 18.5172,-39.65422 5.797,0 10.6657,7.46882 16.6662,25.56543 11.0035,33.1863 12.5736,57.88535 4.6754,73.5549 -4.936,9.79304 -17.0892,14.04672 -26.2005,9.17045 -2.9635,-1.586 -9.9665,1.14533 -38.3228,14.94661 -19.0834,9.28799 -35.4932,16.88725 -36.4665,16.88725 -0.9733,0 -2.6157,2.22511 -3.6495,4.94467 l -1.88,4.94469 -35.9075,-1.40317 c -47.7723,-1.86684 -88.0786,-2.02437 -154.6643,-0.60457 -30.3786,0.64776 -56.3232,0.50454 -57.6545,-0.31826 z m 236.9336,-1.67633 10.0773,-0.28205 -1.3164,-15.41371 c -2.3659,-27.70187 -3.8435,-81.62566 -3.7806,-137.96546 l 0.062,-55.29196 -22.5064,-0.28453 c -12.3786,-0.15649 -28.1816,0.21834 -35.1177,0.83296 l -12.6113,1.11749 0,9.05634 c 0,13.1247 5.0616,49.71633 9.3532,67.6174 2.0345,8.48611 3.7049,16.48021 3.712,17.76469 0.024,4.0738 -3.0351,2.52435 -5.531,-2.8025 l -2.4075,-5.1379 -2.2248,6.42636 c -3.5542,10.26565 -6.0023,8.8164 -8.3529,-4.94498 -1.1923,-6.98024 -2.9705,-17.31546 -3.9515,-22.96715 -0.9812,-5.65169 -3.0797,-21.6259 -4.6635,-35.49824 -1.5837,-13.87235 -3.3272,-26.69375 -3.8742,-28.49202 -1.4432,-4.74339 -8.009,-4.05823 -9.9464,1.03796 -2.3472,6.17334 -3.2503,126.56074 -1.2607,168.04577 l 1.6802,35.03116 22.6081,0.23207 c 12.4346,0.1276 28.4934,0.7582 35.6866,1.40124 7.193,0.64304 15.6005,1.0859 18.6832,0.98414 3.0827,-0.10183 10.1398,-0.31196 15.6823,-0.46708 z m -135.975,-1.97934 19.8321,-0.17103 -0.2146,-101.86649 c -0.1883,-89.45138 -0.5561,-101.80439 -3.0171,-101.35682 -4.8106,0.87488 -11.3108,24.54577 -13.1912,48.03669 -1.9679,24.58267 -3.2324,31.87694 -5.526,31.87694 -0.8831,0 -2.1715,-3.77479 -2.8633,-8.3884 -1.5066,-10.04619 -3.2507,-9.55772 -6.4309,1.80113 -2.1799,7.78611 -5.6646,11.60519 -5.5842,6.12019 0.1434,-9.79012 6.5781,-44.81403 11.187,-60.89182 3.0874,-10.77021 5.1172,-20.07708 4.5108,-20.68195 -1.1199,-1.1169 -86.8192,-0.6978 -87.947,0.43009 -0.338,0.33804 -0.9831,24.51379 -1.4335,53.7239 -0.4646,30.13848 -2.0546,63.61445 -3.6759,77.39756 -1.5715,13.35856 -2.7901,35.85664 -2.708,49.99575 l 0.1494,25.70746 38.5402,-0.78109 c 21.1971,-0.4296 47.4647,-0.85807 58.3722,-0.95211 z m 39.2713,-5.67921 c 0.3194,-6.06722 0.1457,-11.09373 -2.0668,-59.88331 -1.1898,-26.23382 -1.1822,-57.34506 0.023,-89.67977 2.2812,-61.26514 2.333,-58.17988 -1.0339,-61.54682 -2.4896,-2.48955 -3.3531,-2.24971 -7.7575,2.15486 -2.9379,2.93796 -5.1786,7.48056 -5.5024,11.15537 -1.8966,21.52627 3e-4,198.08194 2.1657,201.58584 0.4599,0.7438 3.7803,1.26892 7.379,1.16691 5.6506,-0.16012 6.5773,-0.83579 6.7941,-4.95308 z m 153.7183,-20.64842 c 23.2114,-11.30339 42.9539,-20.55162 43.8723,-20.55162 2.2793,0 3.938,-4.79767 3.938,-11.39098 0,-7.09086 -5.7627,-27.8439 -7.7317,-27.8439 -3.5416,0 -7.9517,12.7849 -8.2529,23.92527 l -0.3187,11.78116 -22.2086,10.78791 c -16.6626,8.09385 -50.6905,22.83471 -54.2726,23.51094 -0.543,0.10257 1.6567,10.33282 2.2218,10.33282 0.3025,0 19.5411,-9.24822 42.7524,-20.5516 z m -294.0938,4.87336 c 0,-3.29484 -1.323,-4.80034 -5.038,-5.73272 -2.7709,-0.69544 -12.3834,-4.13477 -21.3614,-7.64293 -8.9778,-3.50819 -23.0899,-8.27465 -31.3602,-10.59211 l -15.0369,-4.21363 -3.0387,-9.66113 c -1.8812,-5.98088 -5.5409,-12.0392 -9.607,-15.90382 l -6.5683,-6.2427 0.9433,12.52552 c 1.6987,22.55618 1.9848,22.78364 48.1867,38.30586 22.0429,7.40564 40.7085,13.50106 41.4791,13.54538 0.7708,0.0443 1.4014,-1.93018 1.4014,-4.38772 z m -74.001,-13.70164 c 0.7452,-0.74524 -1.4266,-2.28224 -4.8265,-3.41553 -8.7484,-2.9162 -14.5001,-13.99617 -15.8936,-30.61696 -0.968,-11.54595 -0.694,-13.25638 2.3077,-14.40822 4.4961,-1.72533 16.4552,11.55662 20.0113,22.2249 3.2949,9.88471 8.1879,12.286 6.2467,3.06565 -0.7321,-3.47727 -2.1378,-11.14757 -3.1238,-17.04512 -2.5936,-15.51473 -23.6977,-58.20978 -29.1571,-58.98689 -2.6472,-0.3768 -5.0623,0.9388 -6.8598,3.73667 -2.7292,4.24863 -6.8037,36.47559 -6.8037,53.81431 0,23.4828 13.0336,42.98616 28.7264,42.98616 4.4096,0 8.6271,-0.60975 9.3724,-1.35497 z m 419.7451,-4.3054 c 12.1983,-6.52832 13.7918,-36.59852 3.7394,-70.56286 -5.647,-19.07946 -11.1249,-30.27149 -14.8161,-30.27149 -1.9501,0 -9.3046,15.57207 -14.5595,30.82741 -5.6704,16.46177 -7.6179,38.81081 -4.3872,50.34936 1.3094,4.67663 3.1122,8.50298 4.0063,8.50298 0.8939,0 1.6254,-4.92814 1.6254,-10.95144 0,-8.48946 1.2093,-13.21464 5.3792,-21.01869 2.9586,-5.53699 6.496,-10.06724 7.8608,-10.06724 3.0853,0 11.0231,25.28142 11.0378,35.15397 0.011,8.08228 -2.714,14.35673 -6.2373,14.35673 -1.3089,0 -4.0116,1.23438 -6.0064,2.74307 -3.4256,2.59112 -3.2834,2.74637 2.5683,2.8025 3.4072,0.0327 7.8124,-0.80627 9.7893,-1.8643 z m -172.8213,-85.63105 c 0.7009,-2.03729 1.4313,-2.0849 3.6563,-0.23832 3.3107,2.74765 3.4347,1.93665 0.7698,-5.03463 -2.531,-6.62136 -9.1994,-55.87714 -9.1994,-67.95185 0,-8.95157 -0.1035,-9.10555 -10.7429,-15.99353 -5.9085,-3.82523 -11.7534,-8.17936 -12.9886,-9.67586 -2.1893,-2.65265 -8.0334,-1.95463 -8.0267,0.95872 0,1.83912 15.5281,11.73568 18.4088,11.73568 1.1766,0 2.1406,0.63057 2.142,1.40125 0.011,5.46503 9.839,80.05625 11.6321,88.27852 1.8755,8.60029 2.3414,9.36189 2.8567,4.67082 0.3389,-3.08274 1.0101,-6.75061 1.4919,-8.1508 z m -72.0332,-25.31475 c 0,-14.0445 4.0175,-36.32218 8.4276,-46.73375 1.8056,-4.26262 8.9915,-12.83009 17.1573,-20.45594 10.7499,-10.03921 19.1014,-20.8242 35.5537,-45.91287 29.8069,-45.45333 34.6367,-50.05824 55.9593,-53.35303 8.2703,-1.27795 13.4301,0.49464 20.6914,7.1083 6.3404,5.77502 5.9753,22.46559 -0.707,32.31247 -9.933,14.63697 -23.2622,21.15791 -49.4505,24.19212 -11.5125,1.33384 -23.5568,3.95673 -28.7808,6.26758 -10.2901,4.55178 -10.6051,7.30567 -0.3455,3.01886 3.7213,-1.55486 10.8867,-2.82701 15.9229,-2.82701 23.7584,0 55.2721,-8.94192 65.2093,-18.50292 15.5635,-14.97443 13.2998,-46.87433 -3.9059,-55.03894 -15.6986,-7.44944 -34.511,-1.86314 -51.2792,15.22722 -10.6405,10.8448 -12.898,14.08074 -29.267,41.95032 -11.9835,20.40275 -27.8314,38.58639 -42.0272,48.22113 -7.587,5.14941 -9.869,7.94523 -11.3596,13.91724 -1.026,4.11032 -3.4961,13.35854 -5.489,20.5516 -4.5316,16.35425 -8.0937,36.48119 -6.7029,37.87196 0.5784,0.57835 1.0515,-0.77008 1.0515,-2.99649 0,-2.35272 1.1737,-4.04805 2.8026,-4.04805 1.8682,0 2.8024,1.86834 2.8024,5.60498 0,3.08275 0.8408,5.60499 1.8684,5.60499 1.0513,0 1.8682,-5.2388 1.8682,-11.97977 z m 8.6599,-64.97253 c 4.4852,-2.84452 8.1533,-5.82093 8.1512,-6.61424 0,-0.79332 -18.2884,-1.44241 -40.6361,-1.44241 l -40.6323,0 -7.4733,5.50193 c -4.1103,3.02604 -8.314,6.23225 -9.3417,7.12492 -1.0631,0.92355 16.1559,1.40294 39.9544,1.11233 l 41.8225,-0.51069 z m 130.2834,4.0233 c 0.4956,-0.49568 -2.7775,-4.79485 -7.2738,-9.55368 l -8.1751,-8.65244 -16.4401,1.68008 c -40.2051,4.10864 -54.7311,6.01722 -53.7438,7.06136 0.5831,0.61677 5.0112,3.29096 9.8403,5.94265 8.5532,4.69674 9.6335,4.8161 41.8356,4.62227 18.1806,-0.10944 33.4612,-0.60455 33.9569,-1.10024 z m -64.2101,-16.5756 c 10.7896,-1.06461 25.7426,-2.46859 33.2288,-3.11996 11.89,-1.03456 13.3136,-1.54296 11.2576,-4.02018 -1.9224,-2.31651 -5.6127,-2.64501 -20.1503,-1.79371 -22.8918,1.34049 -52.17,4.68345 -54.6971,6.24523 -2.7329,1.68907 3.5183,6.0211 7.5607,5.23956 1.7506,-0.33841 12.0107,-1.48634 22.8003,-2.55094 z m -59.7865,0.90916 c 0,-0.43121 -4.1958,-2.17764 -9.3241,-3.88097 -7.7114,-2.56132 -13.3642,-2.86679 -32.6836,-1.76614 -14.6765,0.83611 -24.5795,2.25667 -26.6414,3.82154 -2.7712,2.10342 2.3112,2.49999 32.6837,2.55015 19.7811,0.0326 35.9654,-0.29337 35.9654,-0.72458 z m 11.2099,-4.93124 c 0,-0.96693 -1.4712,-1.77652 -3.2695,-1.7991 -8.177,-0.1026 -34.6077,-17.23137 -52.6174,-34.09931 -8.8264,-8.26674 -15.8513,-24.08737 -14.4716,-32.59038 1.3813,-8.51197 5.1245,-12.50335 14.3057,-15.2541 9.8798,-2.96003 14.6948,-0.36225 29.6534,15.99832 8.2099,8.97938 14.6516,18.79014 21.826,33.24158 5.5982,11.27634 10.1784,22.06595 10.1784,23.97689 0,1.97457 1.0082,3.11783 2.3354,2.64837 6.6257,-2.34357 -2.8128,-30.52664 -17.3087,-51.68336 -18.088,-26.39981 -37.8688,-35.98244 -55.8053,-27.03454 -9.0479,4.5137 -12.3661,10.97929 -12.3349,24.03473 0.023,9.33698 1.0948,13.14804 6.1954,22.01106 9.438,16.40026 30.5312,31.66477 54.5975,39.51057 13.5767,4.42613 16.7156,4.62128 16.7156,1.03927 z m -37.3665,-5.15068 c 0,-0.83837 -3.3288,-3.39518 -7.3972,-5.68181 l -7.3975,-4.15751 -7.5492,4.99591 c -4.1522,2.74777 -7.5494,5.30457 -7.5494,5.68181 0,0.37724 6.7261,0.68589 14.9467,0.68589 8.2206,0 14.9466,-0.68594 14.9466,-1.52429 z m 41.0747,-0.81113 c -0.016,-1.28447 -0.8436,-3.59652 -1.8398,-5.1379 -1.4114,-2.18384 -1.8174,-1.6683 -1.8397,2.33542 -0.016,2.82585 0.8121,5.1379 1.8397,5.1379 1.0277,0 1.8554,-1.05095 1.8398,-2.33542 z m 50.4287,-0.59177 c 14.6262,-1.60996 27.7661,-2.47709 29.1997,-1.92697 1.4336,0.55013 2.5798,0.39605 2.5472,-0.34238 -0.098,-2.20772 -4.9099,-7.89468 -5.8689,-6.93571 -0.4883,0.48839 -11.0029,2.06607 -23.3654,3.50594 -12.3626,1.43988 -24.9115,3.93619 -27.8864,5.54733 -6.7935,3.67926 -6.679,3.67993 25.3738,0.15179 z m -56.0051,-7.51893 c 0,-13.34991 -13.3954,-37.49886 -30.3153,-54.65166 -12.7436,-12.9192 -13.9152,-13.65789 -20.1005,-12.67431 -8.2126,1.30593 -14.9758,8.75033 -14.9758,16.48388 0,8.81398 7.3948,21.69486 17.5596,30.58675 l 9.1671,8.0191 17.4644,-0.33586 c 9.6054,-0.18474 20.5578,0.29467 20.5577,1.06536 -10e-5,0.77068 -5.4988,1.40125 -8.4382,1.40125 -2.9392,0 -9.284,0.54002 -14.0995,1.20005 l -8.7554,1.20005 8.9616,6.44829 c 9.907,7.1284 14.7949,9.53863 19.7046,9.71646 2.6563,0.0962 3.2697,-1.49048 3.2697,-8.45936 z m 19.6621,-4.6413 c 1.4609,-4.60317 0.2089,-6.31977 -3.5557,-4.87513 -1.7012,0.65277 -2.3567,2.5091 -1.7311,4.90163 1.2921,4.94055 3.7141,4.92841 5.2868,-0.0265 z m 23.6406,-5.14487 c -5.1694,-0.73238 -9.6729,0.74995 -9.6729,3.18382 0,1.01795 2.9357,0.84681 7.0062,-0.40845 5.871,-1.81047 6.3032,-2.26015 2.6667,-2.77537 z m 28.1865,-1.6345 c -2.2979,-0.44347 -6.5017,-0.45495 -9.3416,-0.0254 -2.84,0.42945 -0.9599,0.79228 4.178,0.80631 5.1379,0.014 7.4615,-0.33734 5.1636,-0.7808 z m -2.415,-4.43574 c 5.0012,-1.27194 6.8325,-1.02911 8.0023,1.06111 1.3067,2.33516 2.6945,2.24791 10.0212,-0.63004 16.1229,-6.33311 26.0412,-17.12743 26.8793,-29.25333 0.9011,-13.0329 0.1027,-15.49794 -6.3016,-19.45596 -10.1518,-6.27412 -25.9552,-4.2183 -36.6316,4.76526 -8.8548,7.4509 -32.5583,43.90941 -29.6972,45.67765 2.5839,1.59698 17.5226,0.43071 27.7276,-2.16469 z"
         style="fill:#000000" />
      <path
         sodipodi:nodetypes="ccsccssscsssccsssssscsssssscccccccssssscscsccscsccscccccccccccccscccccccccscssccsccccsccccsccccccsssccssssscsssscsccccssscccccscccsccssccsscccscsccscccscscssssccscscccscccscsccccs"
         inkscape:connector-curvature="0"
         id="path3951-0"
         d="m -2255.1206,1086.9891 c -6.0648,-3.0882 -17.5333,-14.2401 -17.5714,-17.0865 -0.011,-0.8613 3.4325,-3.3568 8.0884,-5.8608 8.5409,-4.5933 9.813,-4.5189 9.8482,0.576 0.018,2.6506 5.2009,8.8123 9.1141,10.8358 6.0688,3.1384 15.3189,0.9588 23.4012,-5.5138 7.1344,-5.7136 8.2244,-10.7338 4.0864,-18.8205 -3.4536,-6.7492 -8.9676,-11.6058 -17.673,-15.566 -6.5644,-2.9863 -8.0631,-4.172 -11.1236,-8.801 -1.9454,-2.9423 -4.0142,-7.5997 -4.5974,-10.3497 -2.9149,-13.7454 5.997,-26.7054 17.2987,-25.1563 10.582,1.4504 22.2972,10.3068 24.4814,18.5072 0.6374,2.393 0.8737,4.6363 0.525,4.9849 -0.3487,0.3487 -2.9964,0.7296 -5.8839,0.8465 -5.1178,0.2071 -5.2804,0.1282 -6.4621,-3.1398 -3.0004,-8.2975 -16.1515,-9.3651 -16.1515,-1.3111 0,5.575 4.1375,9.8912 16.5764,17.2925 18.0426,10.7355 19.8402,13.3563 19.1886,27.9761 -0.4752,10.663 -3.2989,17.076 -10.8648,24.6747 -5.8702,5.8958 -11.7818,7.8231 -25.9002,8.4441 -10.1239,0.4453 -10.7107,0.3546 -16.3805,-2.5323 z m 21.0581,-1.1553 c 15.6782,-2.142 23.5827,-8.5889 27.8757,-22.7352 2.9977,-9.8782 0.9873,-18.656 -5.6812,-24.8058 -1.8547,-1.7104 -7.6471,-5.6307 -12.8721,-8.7118 -11.9023,-7.0185 -16,-11.9611 -16,-19.2989 0,-4.5431 0.255,-5.062 3.2915,-6.6973 5.5116,-2.9682 11.2227,-1.4638 16.7255,4.4057 3.2188,3.4334 4.9172,4.5708 5.9096,3.9575 1.1558,-0.7144 1.1766,-1.382 0.1223,-3.9274 -1.7093,-4.1265 -5.5947,-7.857 -11.0412,-10.6007 -10.5996,-5.3398 -16.1523,-4.009 -20.5199,4.918 -2.342,4.787 -2.6741,6.4703 -2.1942,11.1208 0.9508,9.2117 5.511,15.0939 15.0037,19.3529 11.1207,4.9896 18.7616,13.977 21.1577,24.8861 1.4517,6.6093 -4.1565,13.737 -15.0777,19.163 -6.8149,3.3858 -13.2386,3.9623 -18.704,1.6787 -3.5154,-1.4688 -11.6733,-10.049 -11.6733,-12.2776 0,-0.7476 -0.4361,-1.3592 -0.9692,-1.3592 -1.2442,0 -8.8992,3.978 -9.4879,4.9305 -0.7956,1.2874 10.2953,11.973 14.1839,13.6655 3.7117,1.6155 8.6372,3.1005 10.9508,3.3016 0.6477,0.056 4.6977,-0.3786 9,-0.9664 z m 34.9301,2.4887 c -0.3335,-0.869 -0.3843,-3.9065 -0.1128,-6.75 0.9017,-9.4453 1.4217,-29.8566 1.4636,-57.4513 0.038,-25.0475 0.1848,-27.3343 1.7915,-27.927 0.9625,-0.3552 1.975,-0.9368 2.25,-1.2925 0.275,-0.3557 2.975,-0.3885 6,-0.073 l 5.5,0.5738 -0.2334,10.9513 c -0.1665,7.8105 0.1202,11.1759 1,11.7346 1.9355,1.2295 7.1702,0.9464 9.1405,-0.4942 1.5679,-1.1465 1.6764,-2.0543 0.877,-7.3363 -0.5018,-3.3153 -0.6585,-8.1956 -0.3482,-10.8451 l 0.5641,-4.8172 5.8001,-0.1699 c 3.1901,-0.093 5.9803,0.1215 6.2004,0.4777 0.3635,0.5881 1.5929,53.3175 1.8815,80.6975 0.067,6.3143 -0.3181,11.625 -0.882,12.1765 -0.55,0.538 -4.5256,1.1237 -8.8347,1.3017 l -7.8347,0.3234 0.1319,-24.2911 c 0.072,-13.3601 0.3837,-24.9476 0.6916,-25.75 0.4451,-1.1598 -0.4752,-1.4589 -4.4896,-1.4589 l -5.0495,0 -0.3075,4.25 c -0.1691,2.3375 -0.082,13.025 0.1943,23.75 0.4974,19.3272 0.1885,21.5992 -2.7876,20.5071 -0.7071,-0.2595 -3.6321,0.42 -6.5,1.51 -2.8678,1.09 -5.2786,1.9821 -5.3572,1.9824 -0.079,2e-4 -0.4159,-0.7105 -0.7493,-1.5796 z m 37.2376,-3.3032 c 1.0729,-0.6799 1.329,-5.9916 1.2645,-26.2347 -0.086,-27.0709 -1.0422,-59.8932 -1.7807,-61.132 -0.2459,-0.4125 -1.5567,-0.75 -2.9129,-0.75 -3.067,0 -4.8231,3.9683 -3.9827,9 1.4629,8.7587 1.7345,13.7781 0.7775,14.3696 -1.3816,0.8539 -14.0769,1.6191 -15.8125,0.9531 -1.1225,-0.4308 -1.2705,-2.4285 -0.7588,-10.2373 0.4352,-6.6415 0.2658,-10.3935 -0.5371,-11.8938 -1.2136,-2.2676 -4.5109,-2.9581 -5.6127,-1.1753 -0.3454,0.559 -1.0146,0.7774 -1.487,0.4855 -0.4724,-0.292 -1.1244,0.3057 -1.4489,1.3282 -0.766,2.4133 -1.1116,83.9457 -0.3591,84.6982 0.3149,0.3149 2.058,-0.034 3.8737,-0.7746 l 3.3012,-1.3471 0.1151,-22.975 c 0.063,-12.6363 0.4566,-23.5278 0.8741,-24.2033 0.4861,-0.7867 3.3443,-1.2283 7.95,-1.2285 l 7.191,-3e-4 -0.1893,26.0003 -0.1892,26.0003 4.1892,-0.015 c 2.3041,-0.01 4.7947,-0.399 5.5346,-0.868 z m 23.1547,1.7505 c -4.6238,-1.3537 -8.7798,-5.3331 -11.3496,-10.8672 -1.7795,-3.8322 -2.0654,-6.2159 -1.9264,-16.0613 0.3198,-22.6651 3.2119,-39.1543 8.6712,-49.4387 0.8759,-1.65 1.5952,-3.4075 1.5986,-3.9056 0.012,-1.7195 5.2474,-7.7705 8.372,-9.6758 9.4268,-5.7482 17.28,1.2646 22.6539,20.2291 3.0958,10.9254 3.7804,30.6618 1.4691,42.3523 -3.0563,15.458 -8.8432,25.0408 -15.9954,26.487 -8.8009,1.7796 -10.1261,1.866 -13.4934,0.8802 z m 14.6779,-4.5012 c 2.6914,-0.6755 8.4885,-9.2101 10.0978,-14.866 5.2342,-18.396 3.2561,-46.6367 -4.3128,-61.5732 -6.8022,-13.4235 -16.542,-9.0292 -24.1623,10.9012 -3.7245,9.7414 -4.2339,12.2717 -5.4693,27.172 -1.4313,17.2628 -1.4229,26.8084 0.025,28.2562 0.6291,0.6291 1.1438,1.8655 1.1438,2.7476 0,1.6735 5.4011,7.3111 8,8.3505 1.5553,0.622 10.7209,0 14.6779,-0.9883 z m -12.5038,-8.371 c -2.996,-2.497 -5.8357,-10.3211 -6.7104,-18.4892 -0.5442,-5.0814 -0.1068,-9.355 2.0697,-20.2243 3.0547,-15.2552 5.1004,-20.5984 9.5002,-24.8137 l 2.9529,-2.8291 2.4632,2.314 c 1.3547,1.2728 3.7203,4.1283 5.2567,6.3458 l 2.7936,4.0317 -0.045,17.0849 c -0.039,14.5503 -0.3617,18.0984 -2.1775,23.9172 -4.1226,13.2109 -9.9484,17.7921 -16.103,12.6627 z m 9.0709,-3.745 c 4.797,-5.3989 8.318,-32.5859 5.8956,-45.5224 -1.0709,-5.7188 -3.4276,-10.1479 -5.9461,-11.175 -2.1751,-0.8871 -5.8646,3.7963 -7.51,9.5333 -4.6594,16.2451 -5.7841,30.8121 -3.0871,39.9826 1.8681,6.3522 3.8615,8.9315 6.9026,8.9315 1.2045,0 2.8897,-0.7875 3.745,-1.75 z m 28.3662,15.6088 c -1.9302,-2.2543 -2.1141,-14.1256 -0.5787,-37.3588 0.5452,-8.25 1.199,-23.304 1.4528,-33.4534 l 0.4616,-18.4533 4.2765,-0.4038 c 2.3521,-0.222 7.2016,-0.4624 10.7766,-0.5342 5.9146,-0.1187 7.0059,0.2013 12.1165,3.5524 5.8576,3.841 11.3584,10.9402 14.4349,18.6293 2.0949,5.2354 1.307,11.611 -1.9865,16.075 -3.7229,5.0461 -13.5218,11.8288 -19.8505,13.7403 -5.3362,1.6118 -5.7486,1.9455 -5.31,4.2976 0.2615,1.4025 0.615,9.9751 0.7855,19.0501 l 0.3101,16.5 -7.6388,0.1203 c -6.3358,0.1 -7.9137,-0.2007 -9.25,-1.7615 z m 12.9881,-18.4432 c -0.3221,-9.6714 -0.8151,-17.9558 -1.0957,-18.4098 -1.1451,-1.8528 0.7195,-3.6058 3.8354,-3.6058 6.5688,0 20.0853,-8.4522 23.2245,-14.5229 2.8479,-5.5071 1.65,-11.2541 -4.3798,-21.0128 -5.3621,-8.6783 -17.3669,-13.1435 -26.4337,-9.8321 -3.2306,1.1799 -3.75,1.7982 -3.75,4.4648 0,1.7023 -0.436,12.2994 -0.9689,23.5491 -1.5312,32.3231 -1.8333,44.0329 -1.2939,50.154 l 0.5022,5.7001 4.6303,0.3696 c 2.5467,0.2033 5.0094,0.4508 5.4727,0.5499 0.4634,0.099 0.579,-7.7327 0.2569,-17.4041 z m -2.9263,-31.1656 c -0.2447,-0.4125 0.032,-7.2077 0.6141,-15.1003 0.9895,-13.4071 1.207,-14.4177 3.3101,-15.376 2.852,-1.2994 9.4368,1.7042 15.4237,7.0356 5.0931,4.5354 5.871,8.8808 2.7273,15.2347 -1.6753,3.3863 -3.1395,4.6813 -7.4453,6.5856 -5.1327,2.2699 -13.6826,3.2169 -14.6299,1.6204 z m 12.835,-4.9054 c 6.223,-3.3102 7.4202,-4.8589 7.4602,-9.651 0.025,-3.0298 -0.6219,-4.4034 -3.1724,-6.7329 -4.1297,-3.7719 -9.159,-6.1423 -11.294,-5.323 -1.3003,0.4989 -1.6022,1.6315 -1.3341,5.0036 0.1907,2.3973 0.1185,4.3588 -0.1605,4.359 -0.7325,3e-4 -1.1674,12.9314 -0.4728,14.0554 0.9845,1.5929 3.7556,1.0645 8.9736,-1.7111 z"
         style="fill:#000000;stroke:none" />
    </g>
  </g>
</svg>
