<?xml version="1.0" encoding="UTF-8" standalone="no"?>
<!-- Created with Inkscape (http://www.inkscape.org/) -->

<svg
   xmlns:dc="http://purl.org/dc/elements/1.1/"
   xmlns:cc="http://creativecommons.org/ns#"
   xmlns:rdf="http://www.w3.org/1999/02/22-rdf-syntax-ns#"
   xmlns:svg="http://www.w3.org/2000/svg"
   xmlns="http://www.w3.org/2000/svg"
   xmlns:sodipodi="http://sodipodi.sourceforge.net/DTD/sodipodi-0.dtd"
   xmlns:inkscape="http://www.inkscape.org/namespaces/inkscape"
   width="504.66125mm"
   height="149.77533mm"
   viewBox="0 0 1788.1698 530.69998"
   id="svg4956"
   version="1.1"
   inkscape:version="0.91 r13725"
   sodipodi:docname="toptext.svg">
  <defs
     id="defs4958" />
  <sodipodi:namedview
     id="base"
     pagecolor="#ffffff"
     bordercolor="#666666"
     borderopacity="1.0"
     inkscape:pageopacity="0.0"
     inkscape:pageshadow="2"
     inkscape:zoom="0.35"
     inkscape:cx="943.3706"
     inkscape:cy="-137.50712"
     inkscape:document-units="px"
     inkscape:current-layer="layer1"
     showgrid="false"
     fit-margin-top="0"
     fit-margin-left="0"
     fit-margin-right="0"
     fit-margin-bottom="0"
     inkscape:window-width="1440"
     inkscape:window-height="851"
     inkscape:window-x="0"
     inkscape:window-y="1"
     inkscape:window-maximized="1" />
  <metadata
     id="metadata4961">
    <rdf:RDF>
      <cc:Work
         rdf:about="">
        <dc:format>image/svg+xml</dc:format>
        <dc:type
           rdf:resource="http://purl.org/dc/dcmitype/StillImage" />
        <dc:title></dc:title>
      </cc:Work>
    </rdf:RDF>
  </metadata>
  <g
     inkscape:label="Layer 1"
     inkscape:groupmode="layer"
     id="layer1"
     transform="translate(568.3706,135.84491)">
    <g
       id="g3468"
       inkscape:export-filename="/tmp/toptext.png"
       inkscape:export-xdpi="36.23"
       inkscape:export-ydpi="36.23"
       transform="matrix(0.99989353,0,0,0.99989353,-427.65634,-2550.7998)">
      <g
         transform="matrix(1.5,0,0,1.5,-167.59831,-864.6439)"
         inkscape:export-ydpi="36.23"
         inkscape:export-xdpi="36.23"
         inkscape:export-filename="/tmp/toptext.png"
         id="g3392">
        <path
           style="color:#000000;display:inline;overflow:visible;visibility:visible;fill:#f8f8ff;fill-opacity:1;fill-rule:nonzero;stroke:none;stroke-width:0.30000001;marker:none;enable-background:accumulate"
           d="m 179.36711,2335.7556 c -3.6645,0.5166 -9.22082,-0.1391 -11.1933,3.6152 0.57034,27.0861 3.596,54.2008 8.71363,80.7865 0.21309,5.4757 6.53656,4.7037 10.3582,4.8465 3.82636,0.8589 8.25685,-0.6104 8.99254,-4.8929 3.75723,-11.0889 6.48836,-22.7628 11.47141,-33.325 1.83005,-0.3877 1.16836,3.658 1.90031,4.7276 2.04681,10.7488 3.57335,21.7667 7.16093,32.0968 3.25752,2.9011 8.35672,-0.1528 12.32638,0.287 5.25974,1.0441 7.97428,-2.3615 8.29208,-7.281 4.21714,-14.7218 9.47034,-29.1157 15.35929,-43.1845 3.52691,-10.947 7.40343,-22.2561 7.7111,-33.7705 -2.69054,-2.5521 -7.65414,-0.2755 -11.28854,-0.6949 -3.68392,0.3742 -9.52363,-0.4357 -9.94417,4.6917 -4.44244,11.9462 -7.34187,24.5343 -12.05076,36.3377 -2.04294,0.2796 -1.96927,-3.5368 -3.06149,-4.8038 -2.84294,-6.3226 -5.15273,-13.2154 -9.84674,-18.4171 -4.19708,-1.6388 -5.9099,4.5672 -8.08628,6.9544 -4.324,5.9637 -7.34027,12.736 -11.44986,18.8157 -5.30659,-14.7903 -5.11333,-31.5527 -11.12902,-46.1857 -0.93125,-1.2196 -2.93521,-0.3596 -4.23571,-0.6037 z"
           id="path4585-4-8-8"
           inkscape:connector-curvature="0" />
        <path
           style="color:#000000;display:inline;overflow:visible;visibility:visible;fill:#f8f8ff;fill-opacity:1;fill-rule:nonzero;stroke:none;stroke-width:0.30000001;marker:none;enable-background:accumulate"
           d="m 272.5288,2336.474 c -5.62441,0.9698 -5.14889,8.4826 -6.99964,12.6162 -6.06903,23.2987 -11.849,46.726 -16.45301,70.3486 -0.618,5.8003 7.12208,2.7281 10.5907,3.5153 10.12647,-0.5785 19.92393,2.0068 29.91841,2.6723 4.93117,-0.6333 3.69861,-7.346 4.7714,-10.817 0.93303,-2.962 0.17976,-6.9983 -3.68219,-6.842 -6.95568,-0.9776 -14.73586,-0.5606 -21.01932,-3.1517 6.21492,-19.3687 12.58735,-39.101 14.62314,-59.5122 0.56142,-3.5032 0.10969,-8.9475 -4.63491,-8.7368 -2.36786,-0.1226 -4.74548,-0.1121 -7.11458,-0.093 z"
           id="path4587-7-0-1"
           inkscape:connector-curvature="0" />
        <path
           style="color:#000000;display:inline;overflow:visible;visibility:visible;fill:#f8f8ff;fill-opacity:1;fill-rule:nonzero;stroke:none;stroke-width:0.30000001;marker:none;enable-background:accumulate"
           d="m 333.73278,2339.5098 c -6.67133,-0.2339 -13.92332,0.9978 -18.22135,6.6507 -5.83936,5.7146 -9.48139,16.4724 -2.42717,22.781 7.85766,7.825 20.24406,7.56 28.55105,14.5073 7.08474,5.7778 8.73055,18.5041 1.01967,24.3796 -7.74629,4.0945 -16.99968,3.3406 -25.53835,3.2444 -4.43242,-0.6963 -8.09809,-4.1688 -12.51426,-4.5654 -2.77415,4.9506 -2.71757,11.2932 -3.68475,16.9175 1.95421,3.9981 8.32589,0.8501 12.09583,1.7369 12.14089,-0.6541 24.54147,0.612 36.52437,-1.5979 8.45548,-3.3894 15.63951,-10.5778 16.88876,-19.8902 1.84556,-7.6686 1.38389,-16.451 -4.44402,-22.3802 -5.94543,-7.3994 -16.81138,-8.8332 -22.3171,-16.5929 -1.373,-2.7291 -1.84039,-6.619 1.6454,-7.9953 4.1058,-2.6097 9.32176,-1.3515 13.69615,-2.5723 0.68911,-3.5027 3.93659,-8.1749 1.5527,-11.541 -3.92245,-1.2758 -8.35959,0.5158 -12.21299,-1.599 -3.36613,-1.2504 -7.00971,-1.6506 -10.61394,-1.4832 z"
           id="path4589-3-2-3"
           inkscape:connector-curvature="0" />
        <path
           style="color:#000000;display:inline;overflow:visible;visibility:visible;fill:#f8f8ff;fill-opacity:1;fill-rule:nonzero;stroke:none;stroke-width:0.30000001;marker:none;enable-background:accumulate"
           d="m 552.66274,2329.0813 c -9.31799,0.439 -18.07017,5.8774 -22.08534,14.3914 -9.74105,17.2994 -10.30418,37.8635 -9.26645,57.2143 0.45046,9.1649 3.27425,19.5941 12.30232,23.8271 8.88414,5.4948 19.82375,5.3552 29.75536,4.0185 13.46192,-12.2731 20.92133,-29.9883 24.62767,-47.5556 2.60568,-16.5161 -2.39736,-35.553 -17.11836,-44.9665 -5.31458,-3.6814 -11.56332,-7.1352 -18.2152,-6.9292 z m -0.83428,12.6996 c 8.17697,2.5571 15.67075,8.4806 20.37043,15.6892 3.66694,7.9959 5.54652,17.7117 1.55269,25.9323 -4.37437,10.409 -10.06236,21.2951 -19.42027,27.9717 -5.91228,1.2705 -12.83572,-1.4657 -16.17583,-6.5352 -3.8803,-8.4266 -1.88696,-18.3265 -1.85397,-27.3692 1.10335,-10.8648 1.42863,-23.51 10.45172,-31.1697 1.66913,-1.4342 3.0639,-3.5984 5.07523,-4.5191 z"
           id="path4591-7-3-8"
           inkscape:connector-curvature="0" />
        <path
           style="color:#000000;display:inline;overflow:visible;visibility:visible;fill:#f8f8ff;fill-opacity:1;fill-rule:nonzero;stroke:none;stroke-width:0.30000001;marker:none;enable-background:accumulate"
           d="m 652.70727,2333.6467 c -2.96655,3.0908 -1.81778,8.4139 -3.18442,12.3413 -3.49283,18.9497 -5.79969,38.3054 -10.62761,56.9042 -0.55483,1.2959 -2.49005,3.8329 -3.15174,1.066 -6.86188,-16.974 -9.67309,-35.3983 -14.65292,-53.0429 -1.6738,-5.2632 -2.25562,-11.138 -4.9064,-15.9245 -4.34317,0.3635 -10.21462,-0.8697 -13.60346,2.5492 -3.67626,11.2187 -4.16272,23.284 -6.65473,34.8171 -2.72276,16.8267 -6.32131,33.5379 -9.10396,50.3262 -0.27532,4.984 6.40057,4.3113 9.65998,4.9417 3.33783,-0.2695 8.51852,2.0271 10.61775,-1.4655 1.29755,-11.0171 1.09104,-22.2724 2.15163,-33.3571 0.50886,-3.9141 0.25487,-9.9722 1.2782,-12.7371 8.70674,15.8713 15.14032,33.0161 23.54956,48.9668 5.62458,1.0278 11.9416,1.3373 17.81701,0.9048 3.57857,-1.6556 2.57719,-7.1218 4.00381,-10.2959 5.74984,-27.2784 12.45781,-54.4342 16.43793,-82.0335 -1.10571,-4.3963 -8.00709,-2.1318 -11.60387,-3.4461 -2.66119,-0.2373 -5.35382,-0.7159 -8.02676,-0.5147 z"
           id="path4593-5-5-5"
           inkscape:connector-curvature="0" />
        <path
           style="color:#000000;display:inline;overflow:visible;visibility:visible;fill:#f8f8ff;fill-opacity:1;fill-rule:nonzero;stroke:none;stroke-width:0.30000001;marker:none;enable-background:accumulate"
           d="m 696.36812,2299.5569 c -5.23659,-1.1855 -8.56073,1.7111 -7.08268,7.0681 1.16746,7.4057 -3.74483,13.2984 -6.08047,19.8144 0.69332,3.5785 5.65768,2.6802 8.48189,3.5457 5.234,1.5259 8.01421,-3.9434 8.87585,-8.1575 1.95279,-7.0887 3.29269,-14.7418 2.5492,-21.9926 -2.04784,-1.0958 -4.53088,-0.097 -6.74379,-0.2781 z"
           id="path4595-9-5-6"
           inkscape:connector-curvature="0" />
        <path
           style="color:#000000;display:inline;overflow:visible;visibility:visible;fill:#f8f8ff;fill-opacity:1;fill-rule:nonzero;stroke:none;stroke-width:0.30000001;marker:none;enable-background:accumulate"
           d="m 753.44703,2331.561 c -14.427,0.7474 -29.01558,0.7098 -43.31323,2.6419 -3.38647,2.7323 -1.38385,8.1103 -2.01619,11.8653 0.90662,3.6373 -2.07795,10.0757 2.03936,11.68 5.42103,-1.0994 11.61508,-2.1657 16.91742,-1.3673 0.83979,22.2088 -1.71945,44.5859 0.83429,66.7195 1.44326,4.6989 7.8176,2.7919 11.44822,3.314 3.26857,-0.802 9.6837,1.8581 10.33333,-2.5956 -0.34457,-21.9549 0.6523,-44.1465 -2.59303,-65.9084 -1.57775,-3.0366 3.20608,-2.0501 4.72714,-2.4366 4.81586,-0.639 10.65235,1.2405 14.80901,-1.7116 2.83729,-6.7122 3.33838,-14.4231 3.44648,-21.5826 -3.12844,-2.5673 -8.59483,-0.1662 -12.6173,-0.7539 -1.3385,0.045 -2.677,0.09 -4.0155,0.1353 z"
           id="path4597-6-5-0"
           inkscape:connector-curvature="0" />
        <path
           style="color:#000000;display:inline;overflow:visible;visibility:visible;fill:#f8f8ff;fill-opacity:1;fill-rule:nonzero;stroke:none;stroke-width:0.30000001;marker:none;enable-background:accumulate"
           d="m 965.58684,2330.2168 c -5.05912,0.5795 -10.89788,-0.1058 -15.34155,2.5261 -5.61628,15.849 -8.64751,32.6183 -13.63866,48.7324 -3.41254,13.9024 -7.90579,27.4502 -11.01687,41.3949 -1.54758,5.0595 5.04596,3.5633 8.13208,3.9382 3.90927,0.1525 9.34716,0.3213 10.52125,-4.4959 3.90275,-8.5371 5.69512,-18.2824 7.20728,-27.1606 5.96274,1.1605 12.04594,-0.01 18.00662,0.394 3.74919,10.765 6.36942,22.2111 10.85783,32.6918 5.0338,1.2378 11.78165,0.7292 16.16367,-2.7271 1.9917,-4.1253 -1.67062,-8.6994 -2.32192,-12.7954 -8.95085,-26.7816 -17.30515,-53.7107 -23.61037,-81.2469 -0.84437,-2.0888 -3.26678,-1.0377 -4.95936,-1.2515 z m -2.1784,21.8305 c 2.37615,5.0352 2.08027,11.336 3.98602,16.6856 0.84545,3.718 2.58676,7.5981 3.12856,11.2165 -6.4449,0.5822 -13.11032,-3.0174 -19.35074,-0.9733 -1.87654,2.3676 -1.80432,-0.2906 -1.41365,-1.9467 1.50928,-7.9702 2.73083,-16.6369 5.30697,-24.1015 2.78669,-0.2343 5.64071,-0.027 8.34284,-0.8806 z"
           id="path4599-3-1-7"
           inkscape:connector-curvature="0" />
        <path
           style="color:#000000;display:inline;overflow:visible;visibility:visible;fill:#f8f8ff;fill-opacity:1;fill-rule:nonzero;stroke:none;stroke-width:0.30000001;marker:none;enable-background:accumulate"
           d="m 1065.0982,2330.5645 c -3.6802,-0.454 -6.8639,2.1588 -6.7669,5.9095 -2.2437,19.2841 -3.1187,38.8981 -6.8513,57.9251 0.2117,1.9859 -1.8812,3.511 -3.1601,1.7957 -5.2141,-8.0535 -6.7446,-17.9478 -9.6721,-26.9495 -3.5061,-11.3139 -5.1378,-23.1301 -8.4041,-34.4631 -2.3389,-4.9412 -9.0753,-3.4363 -13.3077,-3.1981 -2.8305,4.2128 -2.6601,10.3269 -3.6563,15.3994 -2.8658,24.4537 -4.3855,49.0467 -7.0447,73.5214 1.2683,3.685 7.0724,1.8006 10.1736,2.4101 3.5427,-0.6068 11.2441,2.1882 10.2252,-3.8931 0.4647,-9.7388 -0.446,-20.7013 1.1302,-29.8258 8.7637,12.4926 15.2332,26.8395 25.6379,38.0514 6.2875,0.014 13.1313,-0.159 19.3671,-1.7601 4.6534,-2.6363 2.805,-9.2715 3.7256,-13.6458 1.0941,-25.7228 2.5018,-51.4802 2.4388,-77.2216 -1.7146,-4.051 -7.6088,-3.5205 -11.3091,-4.0787 -0.8419,0.012 -1.6849,-0.026 -2.5261,0.023 z"
           id="path4601-2-1-2"
           inkscape:connector-curvature="0" />
        <path
           style="color:#000000;display:inline;overflow:visible;visibility:visible;fill:#f8f8ff;fill-opacity:1;fill-rule:nonzero;stroke:none;stroke-width:0.30000001;marker:none;enable-background:accumulate"
           d="m 1125.6302,2328.6178 c -13.7149,0.689 -28.2763,6.0704 -35.8742,18.1457 -9.5561,13.2261 -10.8928,30.0433 -9.7228,45.8139 0.4983,9.1553 0.8474,19.9229 9.0043,25.8649 9.1889,7.5245 22.2402,8.3501 33.4873,6.234 5.7216,-2.5907 13.5469,-4.68 15.7123,-11.3092 0.3056,-4.3396 0.017,-8.9879 -1.6917,-13.0009 -3.7038,-1.8324 -7.7282,1.7574 -11.4714,2.2711 -9.7223,3.4624 -22.2323,2.0718 -28.4584,-6.8597 -4.1569,-7.3723 -2.6885,-16.4823 -2.2479,-24.5882 1.1407,-12.977 13.2676,-21.3139 24.4388,-25.591 3.5585,-2.0287 8.7773,-2.2139 11.1109,-5.6946 -0.1759,-3.6658 0.3263,-8.6864 -2.8272,-11.147 -0.4584,-0.2144 -0.9727,-0.1764 -1.46,-0.139 z"
           id="path4603-1-4-9"
           inkscape:connector-curvature="0" />
        <path
           style="color:#000000;display:inline;overflow:visible;visibility:visible;fill:#f8f8ff;fill-opacity:1;fill-rule:nonzero;stroke:none;stroke-width:0.30000001;marker:none;enable-background:accumulate"
           d="m 1178.0278,2325.8137 c -7.5881,0.3977 -15.361,0.4148 -22.8269,1.5063 -3.4884,3.3387 -1.969,9.1092 -2.7957,13.4606 -1.3582,26.64 -6.0654,53.0538 -6.6827,79.7243 0.5857,4.9004 7.0567,3.0553 10.3586,3.325 13.3336,-1.181 26.6719,-0.3966 39.9533,0.9854 3.4433,-0.328 8.2611,1.6972 10.7012,-0.9069 -0.608,-6.1177 -1.1718,-12.6436 -2.5901,-18.7451 -2.9529,-5.147 -10.2267,-2.8796 -15.0634,-3.4249 -8.0156,-0.2645 -16.6553,0.7595 -24.3565,-0.5379 -0.6279,-7.4605 0.1497,-14.979 0.2086,-22.4562 7.7148,-0.6284 15.7873,0.2903 23.2904,-1.7149 2.3171,-3.7811 0.2435,-8.8331 -0.3244,-12.9314 -1.1815,-4.5373 -7.1666,-2.5426 -10.6139,-3.1384 -4.4356,-0.086 -8.9082,0.036 -13.3023,-0.6622 -0.1433,-5.0484 -0.5514,-10.107 -0.2317,-15.1562 11.5475,-1.6701 23.8146,-0.3007 34.8777,-3.8933 0.05,-4.3906 0.4335,-9.6419 -1.9235,-13.5803 -5.5694,-2.6624 -12.6629,-1.4981 -18.6787,-1.8539 z"
           id="path4605-7-2-3"
           inkscape:connector-curvature="0" />
        <path
           style="color:#000000;display:inline;overflow:visible;visibility:visible;fill:#000000;fill-opacity:1;fill-rule:nonzero;stroke:none;stroke-width:0.30000001;marker:none;enable-background:accumulate"
           d="m 95.53805,2203.822 c -17.9673,2.5159 -33.7859,14.1625 -42.74387,29.8234 -17.86284,30.1982 -28.51881,64.8619 -31.68534,99.8624 -1.81485,21.8513 0.82154,45.0018 13.53556,63.45 6.97924,11.834 15.75884,23.9143 29.49638,28.382 14.50065,5.7267 31.33036,5.8198 46.11269,1.1471 9.863,-3.0848 19.40339,-8.3475 24.61487,-17.6461 13.24947,-19.827 20.35291,-43.0611 26.54497,-65.8942 4.35373,-24.5471 -2.38414,-49.6192 -9.27497,-73.1183 -6.7404,-20.9447 -16.83648,-41.683 -33.10482,-56.7919 -6.67954,-5.2341 -14.60115,-10.1962 -23.49547,-9.2144 z m -8.88169,19.4676 c 13.96304,0.4061 25.14648,10.8069 35.30258,19.3392 14.03803,14.0426 20.24226,34.2444 20.03523,53.8103 0.94472,24.5492 1.53121,49.5793 -6.2063,73.1441 -4.03075,14.2083 -10.07747,30.8048 -24.61674,37.1411 -15.38146,4.6123 -32.97923,3.1878 -47.03035,-4.6866 -14.85708,-10.3014 -19.35829,-29.4097 -22.00608,-46.1424 -0.54929,-25.9397 -2.78142,-53.094 7.09402,-77.5458 7.52943,-18.8257 17.19845,-37.6394 31.75778,-51.9464 1.76794,-1.2595 3.49771,-2.9368 5.66986,-3.1135 z"
           id="path4071-7-4-21"
           inkscape:connector-curvature="0" />
        <path
           style="color:#000000;display:inline;overflow:visible;visibility:visible;fill:#000000;fill-opacity:1;fill-rule:nonzero;stroke:none;stroke-width:0.30000001;marker:none;enable-background:accumulate"
           d="m 441.26846,2196.3496 c -6.84311,0.925 -4.23291,10.0828 -5.16783,14.7467 -2.71312,71.0985 -5.52769,142.3243 -2.99284,213.457 0.93538,5.9975 9.08894,2.4679 12.88009,1.8025 22.14626,-5.7022 38.33001,-23.0824 53.74896,-38.8697 12.91887,-13.3832 22.05127,-30.8484 22.29533,-49.7479 0.77617,-21.5594 2.21435,-43.4375 -1.0907,-64.8291 -4.4843,-16.8177 -9.59378,-34.0951 -19.71492,-48.4507 -14.75215,-17.0317 -37.31915,-27.9779 -59.95809,-28.1088 z m 17.17345,34.3796 c 11.72066,-0.042 24.46301,2.5781 31.82332,12.6507 16.59469,19.1078 16.09049,46.4602 14.51877,70.3325 -2.02635,20.5477 -11.37738,40.3781 -24.54117,56.2208 -7.39595,7.9283 -17.16348,14.5894 -26.42202,19.2244 0.0413,-38.912 1.02355,-77.8717 1.10326,-116.8056 0.51511,-13.7026 -0.44733,-27.8218 1.48586,-41.295 0.57875,-0.3342 1.37704,-0.2852 2.03198,-0.3278 z"
           id="path4073-7-6-0"
           inkscape:connector-curvature="0" />
        <path
           style="color:#000000;display:inline;overflow:visible;visibility:visible;fill:#000000;fill-opacity:1;fill-rule:nonzero;stroke:none;stroke-width:0.30000001;marker:none;enable-background:accumulate"
           d="m 854.28338,2191.8268 c -5.79936,1.5199 -2.89828,9.7454 -4.15371,13.9928 -3.12626,74.8385 -2.95105,149.7678 -5.21958,224.6329 2.82368,3.7606 9.3636,0.2103 13.47001,-0.4588 21.81492,-6.7477 40.46446,-20.8543 56.37087,-36.9032 10.96467,-14.216 16.06579,-31.9247 21.59791,-48.7346 4.5335,-22.3749 -0.1807,-45.5435 -5.88501,-67.2791 -7.81636,-24.4698 -16.39466,-51.4541 -37.96632,-67.3442 -11.48735,-7.3707 -23.99658,-13.5817 -36.90322,-17.873 -0.43525,-0.042 -0.87494,-0.1159 -1.31095,-0.033 z m 21.8601,33.9208 c 13.43462,0.6609 20.41729,15.0856 23.8593,26.2846 8.80837,27.8354 17.43135,57.0171 15.17425,86.5227 -3.31574,18.1188 -14.87006,33.7778 -26.97281,47.1287 -4.5218,5.2689 -11.80775,8.8538 -18.4844,8.5212 -1.78647,-55.1991 -1.14814,-110.5928 -1.67146,-165.868 2.51387,-1.3507 5.16095,-2.6074 8.09512,-2.5892 z"
           id="path4075-9-5-0"
           inkscape:connector-curvature="0" />
        <path
           style="fill:#000000"
           d="m 843.29309,2434.1255 c -0.97407,-0.569 -1.53444,-1.4174 -1.24526,-1.8853 1.84587,-2.9867 3.30056,-67.7947 3.96232,-176.5263 0.21359,-35.0934 0.57563,-44.8318 1.96897,-52.9623 0.93899,-5.4792 1.50234,-10.7458 1.2519,-11.7035 -0.25045,-0.9577 0.0778,-2.4704 0.72937,-3.3615 1.07435,-1.4692 1.46044,-1.4773 4.14423,-0.086 8.40471,4.3567 17.59155,8.6134 18.58975,8.6134 0.62031,0 5.3355,2.0604 10.47819,4.5788 7.44826,3.6473 11.06121,6.241 17.76061,12.75 4.62564,4.4941 9.82266,10.2958 11.54892,12.8925 3.46845,5.2174 10.08201,18.8468 10.08201,20.7772 0,0.676 0.8643,2.8654 1.9206,4.8653 3.0478,5.7705 8.7231,23.7313 10.9443,34.6362 5.6684,27.8288 6.7053,46.6017 3.1351,56.7596 -1.1,3.1297 -2,6.7265 -2,7.9929 0,1.2663 -0.606,3.1901 -1.3468,4.275 -0.7407,1.0848 -2.5612,5.5725 -4.0456,9.9725 -4.9934,14.801 -11.12077,25.8338 -17.76301,31.9834 -16.32301,15.1122 -35.61575,28.3424 -45.29421,31.0609 -3.2723,0.9192 -6.8723,2.246 -8,2.9485 -1.1277,0.7025 -4.41834,1.5703 -7.31254,1.9283 -2.8942,0.358 -5.8192,0.8477 -6.5,1.088 -0.6808,0.2404 -2.03478,-0.029 -3.00885,-0.5975 z m 14.77103,-4.9581 c 0.55,-0.4244 3.90782,-1.7494 7.46183,-2.9446 7.99127,-2.6872 23.03375,-11.347 28.1817,-16.2239 0.74606,-0.7068 3.15647,-2.6252 5.35647,-4.2633 15.46268,-11.5128 21.46802,-19.7994 28.52448,-39.3599 9.7811,-27.1134 10.1511,-28.7632 9.5947,-42.7886 -0.6894,-17.3777 -5.3112,-41.265 -11.1009,-57.3732 -10.96846,-30.5171 -18.75324,-43.3902 -33.41234,-55.2516 -6.5245,-5.2793 -38.15906,-20.0286 -39.68496,-18.5027 -2.0351,2.0351 -3.40251,35.4212 -3.98327,97.2543 -0.23247,24.75 -0.59368,51.525 -0.8027,59.5 -1.36557,52.1021 -1.82637,69.56 -1.84766,70 -0.0133,0.275 0.0291,3.0663 0.0942,6.2029 l 0.11842,5.7028 5.25,-0.5903 c 2.8875,-0.3247 5.7,-0.9375 6.25,-1.3619 z m 9.93247,-34.0628 c -0.78348,-1.2677 -1.08927,-28.0348 -1.20974,-105.8907 -0.0793,-51.2679 -0.15675,-56.968 -0.80337,-59.147 -0.7233,-2.4374 5.39744,-5.853 10.48851,-5.853 5.88304,0 11.23817,3.0865 16.445,9.4785 3.88831,4.7733 5.22065,7.7983 10.02566,22.7632 10.39511,32.3747 15.26191,58.763 13.97212,75.7583 -0.22957,3.025 -0.56121,7.3 -0.73698,9.5 -0.42142,5.2747 -8.55237,22.1482 -13.4925,28 -0.92864,1.1 -3.39296,4.5546 -5.47627,7.6769 -2.08331,3.1224 -6.48544,8.1308 -9.7825,11.13 -5.03517,4.5802 -6.78633,5.558 -10.94071,6.1091 -2.72033,0.3608 -5.57005,0.8955 -6.33272,1.1882 -0.76267,0.2927 -1.73309,-0.028 -2.1565,-0.7135 z m 15.22773,-7.7639 c 2.66189,-2.1302 5.63385,-4.7177 6.60435,-5.75 1.55782,-1.6569 8.5027,-11.6852 11.23294,-16.22 0.54862,-0.9113 1.9437,-3.0068 3.10019,-4.6568 2.63756,-3.7631 6.12222,-11.4833 8.1247,-18 1.23834,-4.03 1.40694,-7.9101 0.86908,-20 -0.36704,-8.25 -1.28518,-17.925 -2.04031,-21.5 -2.6286,-12.4446 -4.68971,-20.56 -7.61927,-30 -1.62149,-5.225 -2.9445,-10.2125 -2.94002,-11.0834 0.004,-0.8708 -0.26604,-1.8575 -0.60116,-2.1926 -0.33511,-0.3351 -1.9083,-4.3208 -3.49597,-8.8571 -5.17117,-14.7751 -11.58758,-21.2475 -20.49735,-20.6763 -4.62525,0.2966 -4.85517,0.4542 -5.55557,3.8094 -0.7837,3.7541 -0.96641,156.9893 -0.18869,158.2477 0.2557,0.4138 2.19795,0.7523 4.3161,0.7523 2.97231,0 4.95567,-0.8839 8.69098,-3.8732 z M 79.56411,2432.025 c -8.32943,-0.8703 -20.73537,-5.3504 -27.54841,-9.9485 -2.37413,-1.6023 -6.13326,-5.0393 -8.35362,-7.6379 -4.3811,-5.1274 -13.88125,-19.8473 -17.53009,-27.1618 -3.0745,-6.1631 -6.13519,-19.2394 -7.62183,-32.5629 -1.36134,-12.2006 -0.41618,-24.7902 3.04053,-40.5 1.02865,-4.675 2.56939,-12.1815 3.42385,-16.681 2.46872,-13.0001 12.31772,-40.1868 19.80096,-54.6576 9.37672,-18.1322 18.50225,-28.2448 31.94098,-35.3957 3.38385,-1.8006 6.75887,-3.7771 7.50004,-4.3922 0.74118,-0.6151 1.34759,-0.8613 1.34759,-0.547 0,0.3143 1.50354,-0.057 3.3412,-0.8246 5.85685,-2.4472 15.58498,-0.3762 24.61525,5.2401 9.24631,5.7506 15.11566,11.5289 21.31767,20.9866 12.74647,19.4377 17.92541,32.5452 26.28783,66.5324 1.88569,7.664 4.13978,27.9949 4.42258,39.8897 0.009,0.3579 1.92797,0.4575 4.26547,0.2214 2.3375,-0.2361 7.175,-0.5289 10.75,-0.6507 l 6.5,-0.2214 0.28204,3.5 c 0.15513,1.925 0.91291,6.2 1.68397,9.5 0.77106,3.3 2.11689,10.5 2.99072,16 2.03341,12.7984 2.42274,14.5018 3.31232,14.4918 0.40202,-0.01 4.09241,-5.6194 8.20086,-12.4774 4.10845,-6.8581 8.0421,-12.6888 8.74144,-12.9572 1.59313,-0.6113 7.68689,8.7061 11.40791,17.4428 l 2.76839,6.5 1.55618,-3.7179 c 0.85589,-2.0448 1.55617,-4.2483 1.55617,-4.8967 0,-0.9193 8.88765,-28.4601 9.57496,-29.6705 0.42698,-0.752 23.56582,-0.7962 24.02951,-0.046 0.50541,0.8178 -0.40556,6.4785 -2.75832,17.1401 -0.5837,2.645 -0.80976,5.0606 -0.50237,5.368 0.30739,0.3074 0.83547,-0.7317 1.17351,-2.3091 0.33803,-1.5774 1.69102,-6.4644 3.00663,-10.8601 1.52471,-5.0942 2.04468,-8.3393 1.43406,-8.95 -2.3823,-2.3823 -0.89772,-3.5579 4.4928,-3.5579 5.91284,0 15.52027,1.7191 16.92003,3.0276 1.80186,1.6843 -7.55586,45.9674 -12.94493,61.2586 -0.92774,2.6324 -1.49669,4.9763 -1.26435,5.2086 1.16678,1.1668 15.78605,2.6172 20.47487,2.0314 2.94998,-0.3686 5.33907,-0.3003 5.30908,0.1518 -0.26551,4.0029 -4.8845,22.8016 -5.66659,23.0623 -0.5544,0.1848 -5.21038,-0.5811 -10.34662,-1.7021 -6.98593,-1.5247 -12.96983,-2.0382 -23.75207,-2.0382 l -14.41346,0 0.69423,-2.25 c 0.38183,-1.2375 1.07495,-3.825 1.54026,-5.75 0.46532,-1.925 1.94524,-7.55 3.28874,-12.5 2.96102,-10.9098 5.20169,-20.5012 7.12514,-30.5 0.79352,-4.125 1.77062,-8.5829 2.17135,-9.9064 0.49106,-1.6218 0.3763,-2.1886 -0.35199,-1.7385 -0.59432,0.3673 -1.38403,2.1251 -1.75491,3.9063 -0.69095,3.3185 -7.22573,20.4403 -8.48765,22.2386 -1.08865,1.5514 -2.8325,6.862 -6.99368,21.2981 -2.10823,7.3139 -4.41412,13.9981 -5.1242,14.8537 -0.91998,1.1085 -2.39098,1.408 -5.118,1.0423 -2.10483,-0.2823 -5.2735,-0.133 -7.04149,0.3319 -1.768,0.4649 -4.53037,0.9868 -6.13861,1.1596 -3.32262,0.3572 -3.55472,-0.142 -6.12976,-13.1856 -3.50047,-17.7313 -3.97721,-19.8704 -4.55681,-20.4471 -0.69754,-0.694 -5.04852,11.1213 -7.35178,19.9641 -0.8515,3.2691 -2.30109,7.9153 -3.22131,10.3249 l -1.67313,4.381 -4.57157,-0.7965 c -2.51436,-0.4381 -6.89454,-0.8257 -9.73372,-0.8615 -2.83918,-0.036 -5.42356,-0.3243 -5.74306,-0.6413 -0.3195,-0.317 -1.03177,-5.267 -1.58282,-11 -0.55105,-5.733 -1.65688,-14.0236 -2.45738,-18.4236 -2.39005,-13.1369 -3.4805,-24.136 -3.99231,-40.2692 -0.58998,-18.5975 -1.56456,-21.3114 -3.97692,-11.0743 -2.25846,9.584 -11.8444,36.9936 -17.17511,49.1097 -4.86842,11.0654 -16.62521,26.8198 -21.79444,29.2051 -6.75482,3.1169 -13.50823,5.3631 -22.11581,7.3556 -9.4665,2.1914 -10.50902,2.237 -22.5,0.9842 z m 22.35566,-4.3536 c 11.15378,-2.8 20.5049,-6.6463 24.52535,-10.0877 4.68232,-4.0079 15.98139,-21.5448 18.92301,-29.3698 9.8853,-26.2959 13.67578,-38.2435 16.18015,-51 1.67834,-8.549 -0.70248,-30.8679 -5.12029,-48 -6.2412,-24.2031 -8.86096,-31.4243 -17.41391,-48 -2.99168,-5.798 -12.0275,-19.2948 -15.09741,-22.5511 -3.95484,-4.195 -14.5359,-11.2495 -19.50004,-13.001 -5.38838,-1.9011 -12.25294,-1.8753 -13.85252,0.052 -0.68469,0.825 -2.19015,1.5 -3.34546,1.5 -3.24819,0 -16.25835,6.8991 -21.18043,11.2317 -5.45083,4.798 -16.32507,21.0073 -21.10884,31.465 -7.37309,16.1183 -15.17423,38.9132 -17.38648,50.8033 -0.614,3.3 -1.7395,8.7 -2.50113,12 -4.77965,20.7095 -4.91956,39.9653 -0.42868,59 2.86869,12.159 9.67554,24.9258 20.64321,38.7179 5.63583,7.0873 9.97355,10.1509 20.41888,14.4214 10.73882,4.3906 25.43076,5.533 36.24459,2.8183 z m -16.85566,-17.5391 c -8.74757,-1.1797 -17.98219,-4.1938 -23.18552,-7.5677 -3.7408,-2.4256 -10.18297,-10.8838 -13.69019,-17.9745 -3.16882,-6.4065 -7.4349,-24.917 -8.15308,-35.3762 -1.96275,-28.5846 0.7998,-53.3383 7.94618,-71.2015 1.42044,-3.5505 2.58261,-6.7573 2.58261,-7.1262 0,-0.873 6.97362,-15.0302 9.91503,-20.1286 1.25537,-2.1759 4.4628,-6.9009 7.12762,-10.5 2.66482,-3.599 5.84772,-7.9136 7.07311,-9.5879 1.22539,-1.6743 4.17404,-4.5381 6.55257,-6.3641 3.97442,-3.0511 4.70758,-3.2624 9.05466,-2.6106 7.81543,1.172 18.66182,7.6543 31.49766,18.8243 7.3626,6.4071 10.59287,11.4476 16.1462,25.1946 5.26271,13.0275 6.47768,23.1631 6.23333,52 -0.21752,25.6719 -0.20544,25.5861 -7.73304,54.9228 -2.39339,9.3275 -7.04028,19.5922 -10.58492,23.3814 -1.38703,1.4827 -3.60288,4.1013 -4.92412,5.8191 -5.57927,7.254 -19.57311,10.4912 -35.8581,8.2951 z m 25.5,-5.2049 c 9.95545,-4.8777 18.61972,-17.8418 22.86931,-34.2189 7.11226,-27.4092 7.52827,-30.0894 7.76003,-49.9946 0.22333,-19.1811 -0.82264,-35.6504 -2.73092,-43 -1.34257,-5.1708 -5.47252,-15.6749 -8.6038,-21.8828 -6.60722,-13.0992 -29.93055,-30.5811 -40.83464,-30.6075 -3.29175,-0.01 -4.78728,0.6848 -8.07453,3.7403 -8.6132,8.0058 -20.45621,27.0901 -27.24345,43.9011 -8.99234,22.2728 -11.67933,38.4355 -10.75065,64.6673 0.68202,19.2644 1.14948,22.235 5.76857,36.6586 5.28372,16.4989 12.80163,25.5389 24.42974,29.3761 11.3121,3.7329 31.09946,4.4524 37.41034,1.3604 z m 85.58137,10.7865 c 1.14475,-4.4 3.31808,-11.375 4.82963,-15.5 1.51155,-4.125 3.2569,-9.075 3.87855,-11 0.62164,-1.925 1.58321,-3.8118 2.13682,-4.1928 1.57284,-1.0826 3.57001,1.1672 3.60876,4.0652 0.0193,1.4452 0.71403,5.5526 1.54381,9.1276 0.82977,3.575 2.16661,9.9954 2.97076,14.2676 0.80414,4.2723 1.57193,8.3223 1.70619,9 0.41802,2.1103 1.74177,2.4658 6.06492,1.6287 2.29855,-0.4451 5.79131,-0.8288 7.76169,-0.8528 l 3.58249,-0.043 3.24746,-10.75 c 1.7861,-5.9125 4.40232,-14.125 5.81381,-18.25 2.43662,-7.1209 3.33106,-9.2247 6.73092,-15.8318 0.80144,-1.5574 1.89898,-4.5949 2.43899,-6.75 0.54,-2.155 2.09902,-7.5988 3.46448,-12.0973 1.36546,-4.4985 2.63042,-10.5231 2.81101,-13.3878 l 0.32835,-5.2087 -8.48408,0.2076 c -4.87734,0.1193 -8.77358,0.6759 -9.16506,1.3093 -1.14172,1.8474 -10.70956,32.0097 -11.4004,35.9395 -0.64359,3.6609 -2.98979,5.6799 -4.65982,4.0099 -0.4812,-0.4812 -2.17884,-4.3702 -3.77254,-8.6421 -2.7138,-7.2745 -7.47223,-15.5486 -8.94194,-15.5486 -0.85792,0 -8.07617,10.7359 -8.07617,12.0119 0,0.5434 -0.35599,0.9881 -0.79109,0.9881 -0.4351,0 -2.03954,2.5875 -3.56542,5.75 -4.13604,8.5722 -4.25208,8.75 -5.7122,8.75 -1.48788,0 -4.12519,-10.0221 -5.92086,-22.5 -1.63432,-11.3567 -4.99113,-24.7789 -6.32439,-25.2881 -0.65232,-0.2491 -3.97561,0 -7.38509,0.5473 -5.96789,0.9629 -6.18014,1.098 -5.69174,3.6205 0.27903,1.4412 0.86319,9.8203 1.29814,18.6203 0.73867,14.9447 4.65345,46.383 7.24759,58.2029 l 1.14189,5.2028 5.10158,0.3824 c 10.41002,0.7802 9.86271,1.13 12.18296,-7.7881 z m 96.28058,2.8332 c 1.78404,-8.8834 1.66739,-9.3332 -2.42037,-9.3332 -7.60632,0 -22.44157,-2.3288 -22.44157,-3.5228 0,-0.6612 1.33149,-4.431 2.95885,-8.3775 1.62737,-3.9464 3.64365,-9.7458 4.48063,-12.8875 3.89968,-14.6381 7.43842,-31.3684 8.03132,-37.9701 0.7494,-8.3441 0.48408,-8.6402 -7.79991,-8.7046 -4.69073,-0.036 -4.86632,0.07 -6.12818,3.7009 -2.49091,7.1682 -9.42229,34.3422 -11.54504,45.2616 -1.17613,6.05 -2.83735,13.475 -3.6916,16.5 -2.30246,8.1533 -4.16169,17.4303 -3.60742,18 0.26756,0.275 5.50732,0.3853 11.64391,0.2451 7.5897,-0.1733 12.59637,0.205 15.65743,1.1831 2.475,0.7909 6.57538,1.4681 9.11195,1.5049 l 4.61195,0.067 z m 249.42356,11.6659 c -12.88006,-3.3756 -17.38302,-7.1426 -20.30623,-16.9876 -2.95451,-9.9504 -3.14852,-11.5792 -2.97928,-25.0115 0.16771,-13.311 0.26919,-14.5137 1.93095,-22.8865 1.60202,-8.0718 1.25706,-8.2405 -2.24038,-1.0954 -3.95898,8.088 -15.70102,23.8193 -23.59842,31.6157 -7.84227,7.742 -11.65288,10.9553 -27.25365,22.9815 -6.09656,4.6996 -15.77829,8.5631 -27.25308,10.8753 -6.42027,1.2937 -8.06886,1.3507 -8.73167,0.3021 -0.73004,-1.155 -1.20757,-28.2767 -1.25525,-71.2927 -0.0291,-26.2539 1.83254,-106.7054 2.9619,-128 0.26252,-4.95 0.67949,-15.3 0.92659,-23 0.38185,-11.8989 0.69366,-14.0513 2.07768,-14.3419 2.2867,-0.4802 25.30511,2.749 28.93534,4.0592 6.87274,2.4804 22.84319,10.7572 24.5,12.6972 0.275,0.322 2.75,2.3406 5.5,4.4858 9.15984,7.1452 12.19071,11.6484 17.42641,25.8919 1.05288,2.8643 3.22587,8.3578 4.82889,12.2078 2.73265,6.5631 5.29122,15.4304 6.78069,23.5 1.17544,6.3682 1.97657,35.3459 1.23027,44.5 -0.83296,10.2171 -2.61241,28.2722 -3.30165,33.5 -0.25379,1.925 -0.18685,2.825 0.14876,2 5.47177,-13.4508 11.3173,-22.8178 15.70776,-25.1706 3.06386,-1.6419 12.55703,-3.8294 16.61846,-3.8294 6.29031,0 16.4088,5.5042 25.15101,13.6815 17.28283,16.1661 13.39868,53.6277 -8.55196,82.4814 -6.60163,8.6777 -14.86144,10.6079 -29.25314,6.8362 z m 25.43238,-7.2457 c 9.5917,-9.4964 20.28212,-35.7792 20.28212,-49.8643 0,-7.5817 -2.20376,-17.1172 -5.38306,-23.2921 -3.43038,-6.6627 -10.20933,-12.6593 -19.30501,-17.0771 -6.69605,-3.2524 -10.18028,-3.2163 -14.69237,-1.6914 -3.32779,1.1247 -2.52204,0.5657 -4.84898,1.5656 -2.06199,0.886 -3.03387,0.8613 -7.07924,4.9648 -2.97326,3.016 -5.27114,6.8235 -7.4583,12.3584 -5.36819,13.5847 -6.56855,20.7808 -6.63602,39.7827 -0.0747,21.0333 2.91861,29.1939 12.48667,34.0424 6.87399,3.4833 11.24376,4.3838 20.13419,4.1493 l 7.71788,-0.2036 z m -24.56984,-11.9092 c -7.81224,-3.8669 -9.86629,-12.3384 -8.06388,-33.2578 1.01787,-11.8138 2.50873,-19.3084 4.99029,-25.0864 1.36931,-3.1883 10.337,-12.5 12.03817,-12.5 2.33516,0 11.68879,5.285 15.49505,8.7551 5.62954,5.1323 7.07266,7.675 9.30109,16.3881 1.57905,6.1741 1.73475,8.392 0.87297,12.4355 -1.68781,7.9192 -10.57819,24.2089 -16.46651,30.1713 -4.66312,4.7218 -5.61896,5.2499 -9.5,5.2492 -2.40317,-5e-4 -6.24355,-0.9553 -8.66718,-2.155 z m 16.30382,-5.4976 c 1.95148,-2.0094 3.54814,-4.0658 3.54814,-4.5699 0,-0.504 1.25983,-2.7975 2.79962,-5.0965 4.60732,-6.8794 9.2013,-18.0074 9.18956,-22.26 -0.0118,-4.2826 -1.96561,-11.5402 -4.34577,-16.1429 -2.88807,-5.5849 -13.00747,-13.2773 -17.46639,-13.2773 -1.05727,0 -3.75698,1.9904 -5.99937,4.4231 -4.13686,4.4879 -5.73192,8.6233 -7.93679,20.5769 -1.44672,7.8433 -1.04876,30.9208 0.58293,33.8035 1.97771,3.494 7.14597,6.1885 11.87807,6.1927 3.52409,0 4.77419,-0.5855 7.75,-3.6496 z m -115.45186,20.1792 c 11.97938,-3.0558 19.00617,-6.36 26.5,-12.4609 23.52692,-19.1538 29.50825,-25.2643 40.19714,-41.0649 8.6413,-12.7738 10.94724,-23.7325 11.78366,-56 0.90568,-34.9394 -0.96121,-45.8753 -12.77993,-74.8624 -5.96088,-14.6199 -8.89304,-18.5307 -20.13198,-26.8513 -12.51582,-9.2659 -21.81029,-13.4596 -35.06889,-15.8233 -9.96313,-1.7761 -15.43333,-1.8491 -15.98189,-0.213 -0.73719,2.1986 -2.65697,52.2719 -3.15342,82.25 -0.26414,15.95 -0.82532,34.85 -1.24707,42 -0.96202,16.3094 -0.49761,98.3309 0.58009,102.452 0.6255,2.3919 1.87301,2.4689 9.30229,0.5738 z m 8.46257,-40.0907 c 0.3575,-3.0607 0.89782,-6.2107 1.20071,-7 0.30288,-0.7893 0.0407,-1.4351 -0.58254,-1.4351 -0.81553,0 -0.94567,-3.0138 -0.4642,-10.75 1.45859,-23.4362 2.18778,-78.3183 1.44491,-108.75 -0.43747,-17.9213 -0.27016,-23.6055 0.75772,-25.7419 1.30291,-2.708 1.41309,-2.7356 8.93824,-2.2378 12.5054,0.8272 18.18075,2.8412 24.34551,8.6394 10.28133,9.67 16.99712,24.6115 18.80602,41.8403 1.6557,15.7695 0.72643,34.1987 -2.34468,46.5 -4.87626,19.5317 -17.07221,40.5187 -29.33399,50.4784 -5.59199,4.5421 -6.33149,5.0459 -12.34968,8.413 -1.85933,1.0402 -4.45378,2.7277 -5.76545,3.75 -4.33051,3.3749 -5.38187,2.5374 -4.65257,-3.7063 z m 7.75701,-2.2861 c 4.92529,-2.7792 10.04327,-6.3787 12.81011,-9.0094 1.35867,-1.2918 3.44722,-3.0051 4.64121,-3.8074 2.64005,-1.7738 12.01773,-15.6041 16.15958,-23.8322 4.0498,-8.0453 9.95465,-29.3329 10.54062,-38 0.6953,-10.2844 -0.98537,-33.3895 -2.88088,-39.6049 -7.11392,-23.3265 -17.33014,-33.7532 -34.62959,-35.343 l -7.63936,-0.702 -1.37199,2.8249 c -0.84657,1.7431 -1.17616,4.5483 -0.86063,7.325 0.81172,7.1433 0.41807,95.2453 -0.48479,108.5 -0.44957,6.6 -0.64786,14.475 -0.44063,17.5 0.20722,3.025 0.39027,7.8626 0.40677,10.7502 0.0165,2.8876 0.12881,5.2501 0.24958,5.25 0.12077,-1e-4 1.69577,-0.8332 3.5,-1.8512 z m 180.47732,48.058 -7.8031,-0.2931 -4.84374,-10.2069 c -12.0668,-25.4278 -14.05006,-29.7618 -14.05006,-30.7032 0,-0.5521 -0.39203,-1.0038 -0.87117,-1.0038 -1.28928,0 -2.30666,8.6288 -3.00656,25.5 l -0.62227,15 -10.77821,-0.3491 c -7.63118,-0.2471 -11.22032,0.018 -12.29238,0.9077 -3.13866,2.6048 -3.63756,-0.4473 -1.41691,-8.6681 1.1723,-4.3398 2.27538,-9.0155 2.4513,-10.3905 0.17592,-1.375 1.23017,-7.225 2.34278,-13 1.11261,-5.775 2.30304,-12.3 2.64541,-14.5 0.74522,-4.7887 4.15278,-23.7977 5.6467,-31.5 0.58673,-3.025 1.14204,-8.2 1.23404,-11.5 l 0.16727,-6 6,-1 c 3.3,-0.55 6.56653,-1.3666 7.25895,-1.8146 4.56566,-2.954 8.91589,6.0613 13.2117,27.3795 1.06008,5.2607 2.58382,11.5607 3.38607,14 0.80226,2.4393 1.95557,6.9101 2.56291,9.9351 1.75816,8.7568 5.34205,18.2838 6.26063,16.6424 0.43495,-0.7773 1.4769,-6.0772 2.31546,-11.7778 0.83856,-5.7005 2.17667,-13.7396 2.97358,-17.8646 4.07282,-21.082 5.67215,-31.7409 5.19955,-34.6532 -0.7229,-4.4547 0.82999,-5.4789 6.36425,-4.1973 2.4568,0.5689 6.9419,1.0293 9.9669,1.0229 9.08564,-0.019 10,0.3745 10,4.303 0,1.8905 -1.38502,10.0945 -3.07783,18.231 -1.6928,8.1364 -3.23439,16.026 -3.42574,17.5322 -0.19136,1.5063 -0.81386,5.1063 -1.38335,8 -0.56949,2.8938 -1.54708,8.1864 -2.17243,11.7614 -0.62535,3.575 -1.74287,8.3 -2.48339,10.5 -0.74052,2.2 -1.58221,5.125 -1.87043,6.5 -0.28822,1.375 -1.05062,4.525 -1.69423,7 -0.6436,2.475 -1.22688,6.975 -1.29618,10 l -0.12599,5.5 -4.48521,0 c -2.46687,0 -7.99662,-0.1319 -12.28832,-0.293 z m 11.83903,-2.9723 c 0.56976,-0.4041 1.76187,-4.7847 2.64913,-9.7347 1.75533,-9.7929 2.27839,-12.1922 3.68351,-16.8965 0.50984,-1.7069 2.13258,-9.1785 3.60608,-16.6035 1.47351,-7.425 3.60455,-17.775 4.73566,-23 2.83355,-13.0892 4.67509,-24.3524 4.12841,-25.25 -0.25121,-0.4125 -2.3427,-0.761 -4.64774,-0.7745 -2.30504,-0.013 -6.16287,-0.479 -8.57296,-1.0347 -2.41008,-0.5556 -4.59438,-0.7978 -4.85399,-0.5382 -0.2596,0.2596 -0.86902,4.0206 -1.35426,8.3577 -0.48524,4.3372 -1.80824,12.3529 -2.94,17.8127 -1.13177,5.4598 -2.48929,12.852 -3.01673,16.427 -3.07608,20.85 -4.07871,25.3187 -6.34221,28.2673 -1.48873,1.9394 -4.61083,1.386 -4.61083,-0.8172 0,-0.7347 -0.85099,-2.824 -1.89109,-4.643 -1.0401,-1.8189 -2.40165,-5.5571 -3.02567,-8.3071 -4.36712,-19.2456 -9.55395,-40.2638 -11.66023,-47.25 l -2.4873,-8.25 -4.5336,0 c -5.47557,0 -8.40211,1.3984 -8.40211,4.0149 0,1.0694 -0.64715,5.4411 -1.43811,9.7148 -0.79095,4.2736 -1.92636,11.1453 -2.52311,15.2703 -0.59676,4.125 -1.71659,10.425 -2.48852,14 -0.77192,3.575 -1.91146,9.875 -2.5323,14 -0.62084,4.125 -1.29567,8.4 -1.49962,9.5 -0.52153,2.8128 -3.60039,17.5551 -4.21558,20.1851 -0.58395,2.4965 1.68694,3.1681 12.10751,3.5808 l 5.91027,0.2341 0.36073,-10 c 0.1984,-5.5 0.80128,-13.5882 1.33973,-17.9738 0.53845,-4.3856 0.979,-11.0231 0.979,-14.75 0,-6.6083 0.38756,-7.5198 2.5557,-6.0109 0.94052,0.6545 5.4443,9.4941 5.4443,10.6855 0,0.5836 7.47458,16.7221 13.78402,29.7615 l 4.69957,9.7123 7.50821,0.3364 c 4.12951,0.1851 7.7332,0.4202 8.0082,0.5224 0.275,0.1023 0.96617,-0.1447 1.53593,-0.5487 z m 325.71495,2.5153 c -0.5467,-0.6875 -0.8682,-2.0273 -0.7143,-2.9772 0.1539,-0.95 -1.8634,-7.8908 -4.4828,-15.4241 -5.2767,-15.1757 -5.3246,-15.2263 -13.7662,-14.5675 -4.3141,0.3366 -5.3111,0.7783 -5.785,2.5628 -1.969,7.4143 -2.7495,10.1151 -5.3913,18.656 l -2.9385,9.5 -10.8364,0.2464 c -13.45202,0.3059 -14.55814,-0.2279 -11.5527,-5.5753 1.219,-2.1689 2.2163,-4.5696 2.2163,-5.335 0,-0.7654 1.1776,-4.9791 2.6169,-9.3639 1.4393,-4.3847 3.4203,-11.7972 4.4021,-16.4722 0.9819,-4.675 4.2522,-17.05 7.2674,-27.5 3.0152,-10.45 5.7302,-20.35 6.0332,-22 1.2163,-6.6223 2.7109,-12.8638 3.1966,-13.3495 0.4877,-0.4878 3.4736,-0.7826 15.0395,-1.4852 2.7806,-0.1689 5.5268,-0.5982 6.1026,-0.9542 2.2589,-1.396 4.1003,2.162 5.7687,11.1465 0.9557,5.1467 2.3192,11.0058 3.0299,13.0202 0.7107,2.0144 1.6147,6.1284 2.00882,9.1423 0.6654,5.0889 7.98985,28.6675 12.32705,39.683 1.0388,2.6383 3.17632,8.8469 4.75002,13.7969 2.97001,9.3418 5.45721,13.8452 5.45721,9.8809 0,-1.1262 0.2703,-2.3179 0.6007,-2.6483 0.3304,-0.3304 0.7562,-2.5429 0.9462,-4.9167 0.19,-2.3738 0.8285,-7.9159 1.419,-12.3159 1,-7.4515 2.2276,-20.0343 3.4634,-35.5 1.1476,-14.3612 1.5669,-18.6936 2.226,-23 0.3788,-2.475 0.67,-7.3035 0.647,-10.7299 l -0.042,-6.2298 9.1197,0.6272 c 12.7087,0.8742 13.0996,1.072 12.7681,6.4624 -0.6287,10.2237 13.3063,58.8154 16.0734,56.0483 1.0171,-1.0171 1.5457,-3.8369 2.2832,-12.1782 0.2674,-3.025 1.1993,-13.375 2.0708,-23 0.8715,-9.625 1.5654,-19.8625 1.5421,-22.75 l -0.042,-5.25 4.2122,-0.091 c 14.5123,-0.3125 19.2973,0.4468 20.8269,3.3049 0.6918,1.2925 0.8158,5.9345 0.3575,13.3824 -0.3859,6.2719 -0.4786,11.4034 -0.2061,11.4034 0.2726,0 1.723,-2.426 3.2232,-5.3912 6.6486,-13.1407 19.1663,-22.0563 33.2484,-23.6809 3.7193,-0.4291 7.9679,-1.0847 9.4414,-1.457 2.4975,-0.6311 2.7545,-0.382 3.7939,3.6761 0.6132,2.3941 1.7033,6.2346 2.4224,8.5344 0.7191,2.2998 1.0369,4.5774 0.7061,5.0615 -0.3308,0.484 -3.631,1.6877 -7.3339,2.6749 -6.9831,1.8616 -15.5472,5.8807 -20.7894,9.7565 -6.6595,4.9236 -10.7152,17.0539 -9.7446,29.1454 0.9829,12.2452 5.7938,16.9857 17.7665,17.5065 8.4687,0.3683 15.3638,-1.9576 19.7122,-6.6497 1.9092,-2.06 2.7514,-2.3739 4.0956,-1.5261 0.9307,0.587 1.7343,2.1433 1.7857,3.4584 0.052,1.3152 0.3962,3.9662 0.766,5.8912 0.3699,1.925 0.7956,4.4 0.9461,5.5 0.1504,1.1 0.744,2.8238 1.3189,3.8307 0.8757,1.5336 1.0683,1.2213 1.1865,-1.9234 0.078,-2.0648 0.5764,-7.1636 1.1083,-11.3307 0.532,-4.1672 1.2484,-10.6392 1.5921,-14.3823 0.3437,-3.7431 0.816,-7.7931 1.0496,-9 0.9325,-4.8186 3.439,-34.1242 3.439,-40.209 0,-3.9523 -0.4192,-6.4853 -1.0733,-6.4853 -0.5904,0 -0.923,-0.7807 -0.7393,-1.7348 0.4858,-2.5226 5.4812,-3.1937 28.5022,-3.8289 24.9159,-0.6876 23.8104,-1.2669 23.8104,12.4763 l 0,9.4109 -10,0.2334 c -5.5,0.1284 -10.9,0.2838 -12,0.3454 -1.1,0.062 -3.9645,0.1143 -6.3656,0.1172 -2.4011,0 -4.7636,0.2513 -5.25,0.5519 -0.4864,0.3007 -0.8844,2.9469 -0.8844,5.8806 0,3.9609 0.4107,5.4916 1.5956,5.9463 0.8776,0.3368 5.8751,0.5674 11.1055,0.5125 5.8825,-0.062 9.9422,0.3324 10.6432,1.0335 0.6233,0.6233 1.1681,3.4783 1.2107,6.3445 0.043,2.8661 0.4245,6.8419 0.8488,8.835 l 0.7714,3.6238 -5.3376,0.6259 c -2.9357,0.3443 -8.4147,0.6924 -12.1756,0.7737 -4.1214,0.089 -7.014,0.6066 -7.2812,1.3027 -0.2437,0.6353 -0.5417,4.9422 -0.662,9.5708 l -0.2188,8.4158 19.7708,-0.2459 c 15.3379,-0.1907 19.8617,0.041 20.176,1.0318 0.2228,0.7027 0.6468,5.367 0.9422,10.3651 0.2953,4.9982 1.0151,10.3451 1.5995,11.8821 1.2834,3.3757 0.3904,6.8898 -1.5606,6.1411 -0.7652,-0.2937 -4.4371,-0.7926 -8.1596,-1.1087 -3.7226,-0.3162 -11.0433,-1.0549 -16.2683,-1.6417 -5.6184,-0.6309 -13.1773,-0.7532 -18.5,-0.2993 -12.0651,1.0288 -21.5869,1.1074 -22.1583,0.1829 -0.257,-0.4158 -0.492,-2.5533 -0.5223,-4.75 -0.03,-2.1967 -0.3396,-3.9896 -0.6873,-3.9842 -0.3476,0.01 -2.5332,1.5212 -4.8568,3.3686 -2.3236,1.8474 -6.9459,4.3766 -10.2719,5.6204 -5.253,1.9645 -7.3904,2.2007 -16.2753,1.7985 -7.6312,-0.3455 -11.4976,-1.0251 -15.2281,-2.6767 -5.2178,-2.3102 -14.5,-10.563 -14.5,-12.892 0,-0.7406 -0.4219,-1.0858 -0.9375,-0.7672 -0.5156,0.3187 -0.9375,3.4723 -0.9375,7.008 0,9.4986 -0.8861,10.6155 -7.9005,9.9587 -3.1485,-0.2948 -8.8338,-0.1335 -12.6341,0.3585 -6.103,0.79 -7.1243,0.6796 -8.75,-0.9461 -1.0122,-1.0122 -1.8404,-2.295 -1.8404,-2.8507 0,-0.9459 -5.7219,-9.6595 -8.5299,-12.9897 -1.7372,-2.0603 -6.3214,-9.907 -7.7409,-13.25 -0.6422,-1.5125 -1.563,-2.75 -2.0462,-2.75 -0.4832,0 -0.7278,6.545 -0.5437,14.5445 0.2751,11.9499 0.074,14.7059 -1.1294,15.4494 -0.9784,0.6047 -2.0444,0.3799 -3.2128,-0.6776 -2.4684,-2.2338 -16.5431,-1.384 -18.3659,1.1088 -0.6857,0.9377 -1.8507,1.6047 -2.5889,1.4822 -0.7382,-0.1225 -2.0172,0.01 -2.8422,0.2952 -2.13021,0.7356 -18.46518,3.7975 -20.25928,3.7975 -0.82272,0 -1.94312,-0.5625 -2.48982,-1.25 z m 15.58777,-4.9464 c 2.42522,-0.7389 3.19602,-1.4669 2.81722,-2.6604 -0.2868,-0.9038 -4.57432,-13.7932 -9.52762,-28.6432 -4.95335,-14.85 -10.94617,-35.2425 -13.31717,-45.3167 l -4.3111,-18.3167 -8.5,0.6649 c -5.4732,0.4281 -8.9,1.1705 -9.6234,2.0847 -0.6179,0.781 -1.7044,4.2243 -2.4143,7.6518 -0.71,3.4276 -1.4243,6.682 -1.5872,7.232 -0.8461,2.8553 -2.5248,9.197 -5.2939,20 -1.6918,6.6 -3.5327,13.0457 -4.0908,14.3239 -0.5582,1.2781 -1.9562,6.6781 -3.1068,12 -1.1505,5.3218 -2.5606,10.5566 -3.1335,11.6327 -1.0671,2.0045 -4.7501,15.8987 -4.7501,17.92 0,0.9151 9.8253,1.4239 14.2243,0.7365 2.3863,-0.3728 8.7158,-20.8907 8.7557,-28.3822 0.019,-3.6219 0.1273,-3.7401 2.77,-3.0274 3.0638,0.8263 11.1459,0.7904 14.5524,-0.065 3.2052,-0.8044 4.8536,0.6274 5.1571,4.4797 0.1465,1.8598 2.1582,8.7814 4.4705,15.3814 2.3123,6.6 4.38762,12.5696 4.61182,13.2658 0.4401,1.3668 6.10865,0.9233 12.29685,-0.9622 z m -45.52397,-45.4261 c -0.3425,-0.8923 0.612,-6.8548 2.121,-13.25 1.5089,-6.3951 2.9509,-12.6962 3.2043,-14.0024 0.4126,-2.1263 0.8647,-2.3208 4.318,-1.8576 2.1214,0.2846 4.3297,0.045 4.9072,-0.5327 1.9001,-1.9001 3.9681,1.0605 3.9681,5.6808 0,4.268 3.2105,16.9788 5.3936,21.3546 1.8897,3.7874 0.039,4.2521 -10.1102,2.5388 -8.6598,-1.4618 -9.454,-1.4577 -10.2997,0.053 -1.169,2.0889 -2.704,2.0955 -3.5023,0.015 z m 19.2745,-4.6275 c -0.3542,-1.2375 -1.6442,-6.1862 -2.8666,-10.997 -2.1543,-8.4782 -3.9384,-10.9738 -6.6481,-9.2991 -1.0687,0.6605 -3.5718,8.9961 -4.5489,15.1487 -0.6075,3.8253 -0.4615,4.1777 2.1614,5.214 1.5472,0.6114 4.388,1.2807 6.313,1.4874 1.925,0.2068 4.115,0.4479 4.8666,0.5359 0.96,0.1124 1.175,-0.5095 0.7226,-2.0899 z m 103.6574,48.8297 c 1.5107,-0.044 2.7773,-0.4089 2.8145,-0.8112 0.037,-0.4024 0.4945,-2.2024 1.0159,-4 0.5215,-1.7977 1.1656,-13.8435 1.4314,-26.7685 0.4834,-23.512 1.4156,-49.734 1.9779,-55.6384 0.2336,-2.4525 -0.1955,-3.3637 -1.9634,-4.1692 -3.8072,-1.7347 -10.8721,-2.3966 -13.773,-1.2905 -2.3086,0.8802 -2.75,1.6365 -2.75,4.711 0,2.0144 -0.6544,9.338 -1.4542,16.2748 -0.7999,6.9367 -1.9371,18.2373 -2.5273,25.1123 -1.0845,12.6344 -2.8628,20.1147 -4.9471,20.8095 -0.6263,0.2088 -1.86,-0.2191 -2.7417,-0.9508 -1.6232,-1.3472 -5.7888,-9.7457 -5.4999,-11.0889 0.086,-0.4016 -0.7188,-3.1016 -1.7892,-6 -2.59,-7.0135 -8.5185,-30.4389 -10.1289,-40.0228 -1.177,-7.005 -1.5113,-7.7122 -3.8503,-8.1464 -2.1906,-0.4067 -7.1198,-0.2763 -9.1835,0.2429 -1.533,0.3856 -4.449,23.9244 -6.3993,51.6565 -0.3095,4.4 -0.9659,11.825 -1.4587,16.5 -0.4929,4.675 -1.1529,11.0875 -1.4667,14.25 l -0.5706,5.75 8.7588,0 8.7586,0 -0.011,-16.0747 c -0.011,-16.1754 0.5088,-18.6654 3.6346,-17.4008 0.7572,0.3063 2.7249,3.3516 4.3727,6.7672 2.829,5.864 15.8421,26.0736 19.3423,30.039 1.4082,1.5954 2.5107,1.7332 8.638,1.0798 3.863,-0.412 8.2597,-0.7849 9.7704,-0.8288 z m 58.1829,-4.2246 c 3.6146,-1.9194 7.0278,-4.3413 7.5848,-5.3819 1.0364,-1.9366 0.3382,-11.7847 -0.9876,-13.9299 -0.5264,-0.8517 -1.7835,-0.626 -4.6248,0.8304 -5.5558,2.8477 -15.0409,4.5575 -20.6318,3.7191 -5.6126,-0.8417 -13.7092,-5.956 -15.5585,-9.8277 -3.777,-7.9075 -3.6584,-23.6651 0.2485,-33.0157 3.4463,-8.248 13.649,-15.7794 27.5356,-20.326 4.1371,-1.3545 6.4447,-2.6379 6.3407,-3.5265 -0.09,-0.7683 -0.4588,-3.1426 -0.8196,-5.2763 l -0.6561,-3.8794 -6.6804,0.5043 c -9.5152,0.7182 -18.8675,4.8546 -25.1845,11.1385 -4.6914,4.6669 -10.4615,14.3266 -11.4186,19.116 -0.2198,1.1 -0.8403,3.1371 -1.3789,4.5268 -2.9471,7.6049 -1.8827,40.7536 1.473,45.875 5.0724,7.7416 11.6188,11.5316 22.3286,12.9271 9.4562,1.2321 15.2601,0.3332 22.4296,-3.4738 z m 76.1367,0.2764 c -0.2841,-1.7223 -0.8102,-5.8979 -1.169,-9.2789 -0.3589,-3.3811 -1.0281,-6.7561 -1.4873,-7.5 -0.8967,-1.4528 -5.6684,-1.5796 -27.1561,-0.7216 -12.5643,0.5018 -13.2504,0.2434 -12.2978,-4.631 0.215,-1.1 0.4253,-6.3875 0.4674,-11.75 l 0.077,-9.75 9.375,0 c 5.1563,0 10.7596,-0.2769 12.4519,-0.6154 2.6663,-0.5333 3.0162,-0.967 2.6221,-3.25 -0.5838,-3.3822 -1.2613,-8.2818 -1.3668,-9.8846 -0.061,-0.9255 -3.1761,-1.25 -11.9989,-1.25 -7.5398,0 -12.047,-0.3912 -12.2716,-1.0649 -0.1952,-0.5858 -0.1048,-3.3983 0.201,-6.25 0.3057,-2.8518 0.1252,-6.2098 -0.4013,-7.4623 -1.5692,-3.7333 0.4548,-4.6913 9.2103,-4.3596 4.2844,0.1624 10.6898,-0.2434 14.2341,-0.9016 3.5443,-0.6583 7.7337,-1.1726 9.3098,-1.1429 l 2.8656,0.054 -0.4305,-5.9513 c -0.2368,-3.2732 -0.9695,-6.4903 -1.6283,-7.1491 -1.3989,-1.3989 -31.0058,-1.2541 -35.9921,0.1759 -1.6664,0.4779 -3.276,0.6227 -3.577,0.3216 -1.3048,-1.3047 -2.5215,5.3392 -2.5082,13.696 0.01,4.9764 -0.19,9.3823 -0.4399,9.791 -0.2499,0.4087 -0.7646,5.2385 -1.1439,10.7328 -0.3792,5.4943 -0.8703,10.2822 -1.0912,10.6396 -0.2209,0.3575 -0.6363,3.5121 -0.923,7.0104 -0.2867,3.4982 -0.9497,11.0853 -1.4733,16.8603 -2.4504,27.0281 -2.4634,24.6479 0.1387,25.367 1.2856,0.3552 7.2875,0.1458 13.3375,-0.4654 8.8187,-0.8909 13.4788,-0.8227 23.5,0.3441 6.875,0.8005 14.2061,1.4693 16.2914,1.4864 3.6961,0.03 3.7784,-0.048 3.2749,-3.1005 z m -470.01466,7.5846 c -0.15722,-0.1561 -2.32234,-0.3247 -4.81139,-0.3746 -6.24999,-0.1255 -7.10585,-0.831 -6.00873,-4.9532 0.98318,-3.6941 0.68149,-63.4112 -0.32861,-65.0456 -0.68311,-1.1053 -5.97442,-0.6082 -11.37986,1.069 -6.90015,2.1411 -7.11494,1.6867 -6.72994,-14.237 l 0.34271,-14.1747 6.43215,-0.1801 c 38.38813,-1.0748 60.88655,-1.2027 61.41406,-0.3492 0.33582,0.5434 0.16393,1.8225 -0.38197,2.8425 -0.54591,1.0201 -1.70409,6.3169 -2.57374,11.7707 -2.28324,14.319 -1.46442,13.225 -9.47017,12.6522 -3.79228,-0.2713 -8.10257,-0.1903 -9.57842,0.1801 -2.52024,0.6326 -2.63186,0.8987 -1.83628,4.3786 0.46589,2.0379 0.91196,9.1052 0.99127,15.7052 0.0793,6.6 0.60032,20.325 1.15782,30.5 0.64313,11.738 0.665,18.8655 0.0598,19.5 -0.81963,0.8593 -16.50073,1.5085 -17.29872,0.7161 z m 13.33238,-3.7655 c 1.64412,-1.641 -0.8957,-64.555 -2.69352,-66.7212 -0.64308,-0.7749 -0.72682,-1.8614 -0.20814,-2.7007 0.66539,-1.0766 3.07835,-1.3452 10.34367,-1.1516 5.21171,0.139 9.73345,-0.1642 10.04832,-0.6736 0.31487,-0.5095 1.25224,-5.1291 2.08304,-10.2659 1.1898,-7.3563 1.24855,-9.5042 0.27664,-10.1154 -0.67865,-0.4268 -4.83391,-0.5544 -9.23391,-0.2836 -4.4,0.2708 -15.425,0.6978 -24.5,0.9488 -9.075,0.2511 -18.4125,0.7534 -20.75,1.1162 l -4.25,0.6597 0,10.4849 0,10.4849 2.75,-0.6119 c 1.5125,-0.3366 5.71944,-0.8986 9.34876,-1.2489 6.13934,-0.5927 6.63714,-0.4903 7.1501,1.4713 0.30324,1.1596 0.25055,3.5817 -0.1171,5.3824 -0.50725,2.4845 -0.69573,55.3313 -0.21891,61.3793 0.0479,0.608 1.51016,1.5135 3.24939,2.0123 3.39346,0.9732 15.70244,0.8503 16.72166,-0.167 z m -447.29868,2.5058 c -4.14691,-1.24 -4.55761,-2.5234 -2.522,-7.8807 0.98934,-2.6037 2.11728,-7.549 2.50653,-10.9895 0.85559,-7.5625 2.35977,-8.5144 6.74615,-4.2692 4.81869,4.6636 9.68375,6.2945 17.99314,6.0318 8.01353,-0.2533 16.91371,-3.4519 18.16041,-6.5267 3.08539,-7.6094 2.26015,-12.5258 -2.9825,-17.7685 -2.53562,-2.5356 -5.6596,-4.103 -12.19778,-6.1198 -14.42562,-4.4499 -19.09705,-7.9253 -21.99899,-16.3665 -1.01142,-2.942 -0.92915,-4.3495 0.49946,-8.5448 2.18726,-6.423 10.18623,-14.5995 15.98103,-16.3357 5.90324,-1.7686 15.07608,-1.6577 20.6961,0.2504 2.87674,0.9767 7.12568,1.5279 10.44185,1.3548 l 5.59138,-0.292 -0.39755,3 c -0.21866,1.65 -0.44366,5.25 -0.50001,8 -0.13936,6.8014 -1.30199,7.8562 -7.0608,6.4061 -3.51315,-0.8846 -5.23196,-0.8628 -7.54556,0.095 -2.97342,1.2317 -3.24609,1.6095 -3.24609,4.4984 0,0.825 0.0562,2.0802 0.125,2.7893 0.13744,1.4176 9.94027,7.3753 13.67958,8.3138 3.10142,0.7784 11.15798,9.4647 13.10864,14.1333 1.87895,4.497 1.12819,18.4068 -1.18392,21.9356 -0.81361,1.2417 -1.48648,2.836 -1.49526,3.5428 -0.0235,1.8934 -4.79369,6.8033 -10.43848,10.7442 -4.68131,3.2682 -5.56338,3.4987 -16,4.1802 -14.95265,0.9764 -34.3972,0.8828 -37.96033,-0.1827 z m 49.43316,-5.4592 c 10.11466,-5.2109 13.78318,-10.338 15.12392,-21.1373 1.0964,-8.8313 0.20817,-12.5582 -4.17911,-17.5349 -1.61218,-1.8287 -2.93844,-3.5678 -2.94723,-3.8646 -0.009,-0.2967 -4.23024,-2.6878 -9.38102,-5.3135 -9.45111,-4.818 -11.00892,-6.3994 -11.98243,-12.1645 -0.39515,-2.3401 0.0693,-3.575 2.06871,-5.5 2.10788,-2.0295 3.68006,-2.5128 8.6173,-2.6489 l 6.03903,-0.1665 1.29604,-4.3335 c 1.83653,-6.1407 1.83037,-6.1507 -3.4236,-5.5556 -3.52103,0.3988 -5.90719,0.012 -9.22255,-1.4963 -3.63242,-1.6522 -5.73609,-1.9285 -11.19905,-1.4705 -3.69957,0.3102 -7.76192,1.0971 -9.02744,1.7486 -3.42681,1.7643 -7.7784,6.055 -9.51499,9.3819 -3.0407,5.8252 -3.34933,8.6267 -1.42868,12.9687 2.14791,4.8557 7.66421,8.2152 19.14271,11.6584 9.32871,2.7983 11.30504,4.0686 15.29782,9.8334 2.60687,3.7637 3.20781,5.638 3.31247,10.3311 0.24437,10.9572 -6.33866,15.7617 -22.61029,16.5018 -9.02515,0.4104 -9.79808,0.2802 -15.46359,-2.6046 -3.27997,-1.6701 -6.01345,-2.9452 -6.0744,-2.8335 -0.69351,1.271 -2.9551,14.7238 -2.63614,15.6807 0.33595,1.0078 5.13032,1.177 22.56874,0.7965 18.69411,-0.408 22.68435,-0.7625 25.62378,-2.2769 z m 343.48162,-89.4349 c -1.1,-0.446 -5.2625,-1.1381 -9.25,-1.5381 -7.58759,-0.7611 -9.11204,-2.1066 -5.36234,-4.733 1.03821,-0.7272 3.32509,-3.76 5.08194,-6.7397 2.74471,-4.655 3.13137,-6.1306 2.74727,-10.4845 -0.24586,-2.7869 -0.75205,-5.967 -1.12487,-7.067 -0.47266,-1.3946 -0.0984,-2.3566 1.23635,-3.1781 2.11829,-1.3037 15.6659,-2.161 16.76594,-1.061 2.0384,2.0384 1.54993,11.4779 -1.16913,22.5925 -3.28626,13.4333 -3.8851,14.2524 -8.92516,12.2089 z m 5.23432,-10.5623 c 1.5214,-4.4044 2.48245,-9.5956 2.59184,-14 l 0.17384,-7 -6,0 c -5.45513,0 -5.96682,0.1816 -5.63462,2 1.19398,6.5355 0.29631,12.151 -2.77369,17.3512 -1.73755,2.9432 -3.2565,5.8279 -3.37544,6.4106 -0.11894,0.5826 1.58375,1.2337 3.78375,1.4468 2.2,0.2131 4.45,0.5605 5,0.772 2.63628,1.0137 4.00053,-0.5139 6.23432,-6.9806 z"
           id="path3144-4-8-1"
           inkscape:connector-curvature="0"
           sodipodi:nodetypes="ssssscsssssscssscssssssscsssssssssscscsccsssssssssssscssssssssscsssssssssssssssssssssscsscssscssscssssscsssssscssssscssssssssssssssssscsccsssssssscssssssssssssssssccssssssssssssssssssssssscsssssssssscssssccsssssscsssssssssssscssscsssssssssssssssscssssssssssssssssssssssssssssssssssssssscsssssssssssssssssssscsssssssssssssssssssssssssssssssssscsssssssscsssscsssssssscsssssssssssssssssssscsssssssccscsssssssscssssssssscsssssscscscssssscsssscscsscsscssssssssccssccsccscsssssssssssscsccccccscsscsscsccssssscccsscscsccccssscccssssscssscsscsscccccsccccsscssccsccssscssssccccccssscsscccscscscccccscsssccccccsssccscccssscscccccssssscccssccssccccscccssccscccssccsccccsccsssssccccssssscssssssssssccsssssscssscccsssscsscsssssssssssscssscscssssssccssscsssscsssssssssssscssssssssssssssscsssssss" />
      </g>
      <path
         inkscape:connector-curvature="0"
         id="path3422"
         d="m 970.37871,2932.5885 c -0.8755,-2.2813 0.4179,-4.1175 2.9002,-4.1175 1.1241,0 4.2349,-1.8756 6.913,-4.168 5.9618,-5.1031 13.4318,-19.8734 15.8693,-31.378 1.908,-9.0061 2.3219,-25.2046 0.6287,-24.6097 -0.6055,0.2127 -3.8975,4.0426 -7.3154,8.5107 -7.3406,9.5961 -10.7687,10.8765 -14.6244,5.4617 -1.3208,-1.8549 -2.8975,-5.5806 -3.5039,-8.2793 -1.4648,-6.5194 -1.9871,-6.8017 -3.5911,-1.9412 -1.8267,5.5347 -8.5616,12.0545 -13.3875,12.9598 -4.8531,0.9105 -11.8114,-1.2756 -13.3781,-4.2027 -0.7972,-1.4897 -0.7836,-6.4197 0.042,-15.2845 0.6705,-7.1971 1.3346,-20.8631 1.4759,-30.3692 0.2251,-15.141 0.5128,-17.443 2.321,-18.5689 3.366,-2.0961 4.1392,0.9036 3.4513,13.3882 l -0.6303,11.439 3.4787,0 c 4.6304,0 10.4585,4.0766 15.4277,10.7914 l 4.062,5.4888 0.3451,-6.3028 c 0.3928,-7.1712 2.5311,-10.0851 5.5577,-7.5733 1.3106,1.0878 1.6247,2.5495 1.0902,5.0746 -2.7751,13.1105 -2.9964,17.235 -1.2476,23.2505 2.7712,9.5329 4.1637,9.8625 9.4652,2.241 8.2522,-11.8633 9.6413,-15.3645 9.6936,-24.4319 0.037,-6.4771 0.4513,-8.4448 1.8933,-8.9982 1.0152,-0.3895 2.2494,-0.4586 2.74279,-0.1536 1.3991,0.8646 2.1767,35.0036 1.0185,44.7148 -2.02529,16.9826 -8.88359,32.9306 -18.45419,42.9126 -5.7333,5.9798 -10.8723,7.7198 -12.2439,4.1457 z m -13.1311,-54.0624 c 2.7905,-1.4934 9.1827,-12.4449 9.1975,-15.7574 0.014,-3.0081 -5.9477,-10.7098 -10.5483,-13.6284 -2.1926,-1.3911 -4.4168,-1.8968 -6.2823,-1.4287 -2.6872,0.6746 -2.9043,1.2682 -3.1225,8.5365 -0.1289,4.2966 -0.1236,9.3785 0.012,11.2935 0.1354,1.9149 0.2633,4.7873 0.2843,6.383 0.021,1.5958 0.2604,3.5543 0.532,4.3521 0.5981,1.7564 6.8196,1.9128 9.9274,0.2494 z m 555.44539,46.85 c -1.3958,-1.3957 -0.8048,-13.4288 1.5439,-31.4411 1.27,-9.7392 2.5277,-22.2732 2.7949,-27.8534 0.2672,-5.5801 0.5318,-10.5373 0.5881,-11.0161 0.056,-0.4787 0.9616,-0.8704 2.0119,-0.8704 1.7087,0 1.8322,1.4966 1.1739,14.2169 -0.4048,7.8192 -1.0741,16.7253 -1.4874,19.7912 l -0.7514,5.5744 3.3494,-0.7819 c 10.1031,-2.3589 21.8984,-10.8575 24.8036,-17.8714 1.9231,-4.6428 -0.1618,-10.6246 -4.9757,-14.2755 -6.8146,-5.1684 -17.5138,-10.1303 -21.8491,-10.1329 -4.3059,0 -7.6079,-2.4232 -6.2664,-4.5939 1.639,-2.652 9.5938,-1.1738 18.9413,3.5199 14.3224,7.1916 18.8084,12.5606 18.8084,22.511 0,9.9714 -14.9314,23.184 -28.8591,25.537 l -4.5441,0.7678 -0.7897,7.3745 c -0.4343,4.056 -0.7898,10.2867 -0.7898,13.846 0,6.1054 -1.298,8.1027 -3.7027,5.6979 z m -116.1583,-29.1107 c -0.4819,-0.4787 -1.6492,-2.6983 -2.594,-4.9324 -3.6582,-8.6501 -3.3883,-38.83 0.3601,-40.2684 3.1551,-1.2107 3.7338,1.2771 2.4113,10.3667 -1.2734,8.7522 -0.046,27.6089 1.924,29.5798 1.5001,1.5 5.1338,-3.816 6.9214,-10.1259 0.995,-3.5122 2.166,-10.6652 2.6023,-15.8956 0.5573,-6.6832 1.2935,-9.7017 2.4769,-10.1558 3.0962,-1.1882 3.754,0.5729 3.5749,9.5715 -0.247,12.4087 2.7172,21.1249 7.184,21.1249 3.7423,0 4.5478,-2.9171 5.1095,-18.5075 0.5857,-16.255 1.7429,-19.985 4.8811,-15.7321 1.2457,1.6882 1.5294,4.0528 1.0441,8.7042 -0.6605,6.3315 -0.649,6.3614 1.3495,3.4848 4.4849,-6.4553 12.0092,-12.7663 15.1995,-12.7484 4.6068,0.026 5.883,1.2178 8.4017,7.8462 4.0715,10.7152 4.2234,37.9782 0.2115,37.9782 -1.0823,0 -1.534,-4.0425 -1.757,-15.7268 -0.2539,-13.2969 -0.6604,-16.3451 -2.6316,-19.7295 -2.8633,-4.9157 -5.8708,-5.4385 -10.029,-1.7434 -4.0038,3.558 -7.1971,9.8664 -9.1369,18.0504 -1.8302,7.7212 -4.2021,11.7742 -6.7126,11.4695 -1.0274,-0.1247 -3.304,0.3643 -5.0594,1.0865 -4.572,1.8813 -8.5895,0.052 -9.5564,-4.3492 -1.1894,-5.4154 -2.4278,-5.2002 -4.6668,0.811 -3.165,8.4966 -8.3763,12.9531 -11.5081,9.8413 z m 69.3285,-1.0098 c -0.3969,-1.034 0.1345,-6.9094 1.1806,-13.0563 2.5341,-14.8881 5.5313,-50.769 4.6794,-56.0187 -0.7789,-4.7993 0.8331,-6.5404 3.5449,-3.8287 2.1219,2.122 2.3195,7.6424 0.7489,20.9235 -0.597,5.0484 -1.6799,14.6625 -2.4064,21.3648 -0.7265,6.7022 -1.8418,15.2657 -2.4783,19.03 -0.857,5.0682 -0.8038,7.0626 0.2051,7.6862 1.0272,0.6348 1.0373,1.4495 0.041,3.3107 -1.5651,2.9246 -4.499,3.2376 -5.5155,0.5885 z m 17.4517,0.1796 c -9.2684,-6.4919 -7.7341,-31.7782 2.397,-39.5056 2.0876,-1.5923 4.4202,-2.8951 5.1837,-2.8951 0.7635,0 2.8627,-1.0901 4.6648,-2.4225 5.0959,-3.7675 8.3269,-2.6052 11.5745,4.1634 4.9245,10.2635 3.5351,23.3038 -3.6167,33.9449 -1.8226,2.712 -4.8301,5.7149 -6.6833,6.6732 -4.2829,2.2148 -10.3906,2.2336 -13.52,0.042 z m 15.1209,-6.7894 c 7.001,-7.4443 9.5427,-20.4657 5.8138,-29.785 -2.0882,-5.2188 -5.2833,-6.1933 -7.6869,-2.3446 -0.7972,1.2766 -2.2522,2.3212 -3.2333,2.3212 -8.9191,0 -15.1865,20.1909 -9.2763,29.8844 1.9178,3.1453 3.0026,3.7718 6.5319,3.7718 3.2905,0 5.0372,-0.8561 7.8508,-3.8478 z m -138.0081,2.4361 c -3.6153,-0.8752 -5.2228,-2.0983 -7.0616,-5.3733 -2.3289,-4.1482 -2.3457,-4.6819 -0.7715,-24.5501 0.9224,-11.6407 1.3919,-28.5759 1.1002,-39.6755 -0.5692,-21.6507 -0.3552,-22.2368 6.8691,-18.8086 8.6209,4.0908 17.4501,16.0316 21.9852,29.7332 1.1141,3.3659 2.6072,7.3765 3.3178,8.9123 0.7107,1.5357 1.2912,8.5861 1.2902,15.6675 0,10.29 -0.5434,14.5588 -2.6987,21.2597 -4.3075,13.3926 -9.7398,16.294 -24.0307,12.8348 z m 15.7385,-6.2288 c 5.5809,-5.581 8.9185,-23.5599 6.9539,-37.4589 -1.8185,-12.8648 -13.2132,-32.7383 -21.1133,-36.8236 l -3.2815,-1.697 -0.096,11.3453 c -0.053,6.2399 -0.2676,14.2177 -0.4767,17.7284 -0.2092,3.5107 -0.6837,14.6913 -1.0545,24.8457 -0.3708,10.1546 -0.9397,18.7282 -1.2641,19.0526 -1.4603,1.4603 -0.2648,2.4773 3.7623,3.2006 2.3936,0.43 5.0968,1.1785 6.0069,1.6636 2.7925,1.4883 8.1624,0.5445 10.5636,-1.8567 z m -270.9702,3.4658 c -1.0195,-1.0195 -2.5636,-1.5811 -3.4314,-1.2481 -0.8677,0.333 -2.5968,-0.108 -3.8425,-0.9808 -2.6893,-1.8837 -15.4673,-4.1372 -21.2129,-3.7412 -4.666,0.3217 -4.4607,1.6222 -2.5219,-15.9678 0.7036,-6.3831 1.8486,-21.4298 2.5445,-33.4371 1.3441,-23.1904 1.6655,-25.1712 4.0853,-25.1712 2.5333,0 2.9997,3.9025 1.3328,11.1489 -0.8653,3.7619 -1.6859,10.2344 -1.8235,14.3834 -0.1375,4.149 -0.7419,14.5941 -1.3431,23.2112 -0.6013,8.6172 -1.0978,16.5275 -1.1033,17.5783 -0.012,1.5089 2.04,2.2159 9.7368,3.3609 5.3608,0.7977 10.5212,1.153 11.4675,0.7899 1.0877,-0.4174 1.7444,-2.294 1.7852,-5.1017 0.086,-5.9355 1.9475,-13.9096 4.7995,-20.5628 1.765,-4.1177 3.3264,-5.8649 6.3822,-7.1417 7.3326,-3.0637 11.9339,-3.2286 16.2175,-0.5813 4.99,3.084 5.3079,4.0298 5.3079,15.7885 0,9.0364 0.2045,9.8772 2.8193,11.5904 1.5673,1.0269 4.5047,1.6831 6.6145,1.4774 l 3.7952,-0.3697 -0.3408,-6.3831 c -0.1876,-3.5107 -0.4908,-8.7315 -0.6742,-11.6018 -0.3948,-6.1824 0.9849,-10.4489 3.3788,-10.4489 1.4291,0 1.7088,2.2789 1.6382,13.3498 -0.094,14.7943 1.362,19.1459 6.4075,19.1459 5.9968,0 8.8572,-7.5636 8.8572,-23.4208 0,-9.2821 0.3426,-11.6003 1.7966,-12.1582 1.0339,-0.3968 2.5112,0.2345 3.4799,1.4871 1.3364,1.728 1.5338,4.5923 0.9579,13.9 -0.8097,13.0874 0.2915,18.286 4.7629,22.4866 l 2.8059,2.636 5.8645,-4.305 c 6.6355,-4.8709 6.4598,-3.9763 4.2243,-21.5158 -1.2172,-9.5489 -1.249,-12.5124 -0.1469,-13.6948 2.213,-2.3743 3.7656,0.4762 4.5542,8.3609 0.3769,3.7686 0.9225,7.089 1.2123,7.379 0.2899,0.2897 1.2777,-1.2697 2.1952,-3.4656 3.3347,-7.9812 9.5515,-10.5255 18.1973,-7.4474 3.8632,1.3754 4.2752,1.2585 8.4175,-2.3866 2.3955,-2.108 5.2679,-3.8929 6.383,-3.9664 10.2704,-0.6769 12.081,3.8457 5.9143,14.7727 -4.0259,7.1333 -10.5273,14.0606 -14.7023,15.6653 -3.9993,1.537 -2.9204,5.7688 2.1114,8.2825 4.1241,2.0601 14.0685,2.5721 19.6554,1.0118 4.4556,-1.2442 6.0926,-10.2892 4.8286,-26.6793 -0.593,-7.6891 -0.4166,-9.8391 0.8471,-10.324 2.323,-0.8914 3.6398,1.9009 3.702,7.8497 l 0.054,5.2225 2.5243,-3.4817 c 1.3883,-1.9149 4.3098,-5.2058 6.4921,-7.3131 3.3609,-3.2453 4.6824,-3.7779 8.6384,-3.4817 5.8264,0.4364 8.4633,3.6831 10.1812,12.5357 1.6461,8.483 0.3137,31.3351 -1.8271,31.3351 -2.3557,0 -2.6268,-1.999 -2.0463,-15.0873 0.6396,-14.4198 -1.0097,-20.8369 -5.7926,-22.5376 -2.4502,-0.8712 -3.7413,-0.5028 -7.0308,2.0061 -6.2496,4.7669 -8.7561,9.8532 -10.1894,20.6773 -1.5537,11.7338 -2.2383,13.1519 -6.4544,13.3699 -1.8002,0.093 -5.3622,0.7333 -7.9154,1.4229 -14.8593,4.0135 -26.0973,-2.2804 -26.1083,-14.622 0,-2.6982 1.3013,-8.3746 2.8971,-12.6141 1.5958,-4.2397 2.9014,-7.901 2.9014,-8.1365 0,-1.3347 -13.4692,0.9809 -15.29,2.6288 -2.9325,2.6539 -5.6001,12.2358 -5.6001,20.1152 0,7.8053 -2.1781,11.8223 -5.0969,9.3998 -1.0265,-0.8519 -1.8664,-2.3349 -1.8664,-3.2955 0,-1.1018 -1.9181,0.022 -5.1967,3.0435 -7.8652,7.25 -11.7121,6.1434 -16.4859,-4.7423 l -1.381,-3.1493 -4.0197,4.0197 c -4.8178,4.8177 -11.4234,5.6467 -13.5364,1.6986 -1.0413,-1.9458 -2.4299,-2.3211 -8.5884,-2.3211 -5.4799,0 -8.0641,-0.5646 -10.1713,-2.2221 l -2.8248,-2.2221 -2.264,3.476 c -2.9631,4.5491 -14.1044,12.5738 -17.4574,12.5738 -1.4462,0 -3.4636,-0.8341 -4.4831,-1.8536 z m 9.3735,-5.6454 c 7.9909,-3.9864 13.2165,-12.8422 13.1873,-22.3482 -0.034,-10.8309 -5.2068,-14.632 -13.1949,-9.695 -6.3804,3.9433 -10.7006,20.5192 -7.7098,29.5813 1.5157,4.5928 2.6929,4.9684 7.7174,2.4619 z m 114.1322,-21.515 c 7.5275,-10.6081 8.2604,-17.6358 1.4505,-13.9097 -3.3085,1.8103 -12.3795,17.9243 -11.1813,19.863 0.8943,1.4471 7.2302,-2.4292 9.7308,-5.9533 z"
         style="fill:#000000" />
      <path
         sodipodi:nodetypes="cssscscsccccccccsccsccccsscscscccccccssssssccscsssccssccscccsccsscscccccsssccsssccccscssscsccssccccsccccssccscsscccscscsscscccccccsssscsssccccscssssscsssssssscsssssccsccscccsssscccsccccsssscsscccccsccsccsccc"
         inkscape:connector-curvature="0"
         id="path3466"
         d="m 785.82334,2943.2302 c -1.76282,-2.1242 -0.40917,-2.7203 6.17566,-2.7203 6.30715,0 9.71556,-1.3829 13.51907,-5.4848 13.14366,-14.175 18.02571,-37.9216 13.00601,-63.2634 l -1.60544,-8.1047 -2.9051,6.885 c -3.81073,9.0314 -12.45925,14.9168 -16.7219,11.3795 -2.4376,-2.0232 -4.36116,-1.5927 -9.34467,2.0919 -7.46054,5.5159 -13.27947,4.9157 -16.58276,-1.7102 -3.78637,-7.5944 -4.91177,-7.8777 -7.2162,-1.8164 -1.18503,3.1165 -4.61936,6.7896 -7.63173,8.162 -4.69674,2.14 -6.11881,1.8541 -9.9785,-2.0054 -4.06467,-4.0649 -4.95921,-4.2011 -9.22694,-1.4048 -6.32957,4.1475 -11.36723,1.831 -13.44359,-6.1813 l -1.70701,-6.5877 -4.70999,6.6147 c -5.48653,7.7051 -11.41446,7.4124 -15.132,-0.7466 -6.38151,-14.006 0.32597,-29.5576 12.15233,-28.1754 5.67613,0.6634 5.74966,0.5001 7.88032,-17.499 1.27395,-10.7631 3.02178,-17.7332 4.28804,-17.1 2.50344,1.2517 2.53059,17.8413 0.0684,41.0551 -1.48107,13.9587 -1.18631,17.3312 1.93144,22.0893 3.39264,5.1779 3.97041,5.3519 7.41735,2.2324 2.42691,-2.1962 3.42726,-5.5002 2.85206,-9.4197 -1.23163,-8.3914 4.62705,-21.2686 10.9968,-24.1708 6.38492,-2.9092 12.00355,-1.1881 12.00355,3.6771 0,2.8599 -0.597,3.0395 -3.12673,0.9399 -2.54405,-2.1113 -4.13777,-1.5042 -8.55,3.2567 -7.56675,8.1648 -8.03422,20.3678 -1.05485,27.5362 3.86759,3.9728 4.20061,3.9868 8.22552,0.3442 3.97148,-3.5941 6.80687,-13.6971 7.85703,-27.9967 0.77142,-10.501 0.90266,-10.822 3.06153,-7.4812 1.13972,1.7634 2.14114,7.0537 2.22557,11.7562 0.18169,10.139 4.2641,22.8679 7.6924,23.9862 1.34026,0.4369 5.01249,-1.421 8.1606,-4.1288 5.12525,-4.4087 5.47694,-5.5729 3.36252,-11.1341 -3.84968,-10.1254 0.71222,-31.4431 6.02576,-28.1591 1.6226,1.0029 1.63371,3.1185 0.0389,7.2208 -4.70972,12.1117 -1.31433,30.3838 5.64642,30.3838 3.82147,0 9.59851,-10.7956 9.59851,-17.9365 0,-2.9281 0.85282,-5.851 1.89525,-6.4952 5.13801,-3.1753 11.30703,17.3155 11.30703,37.5568 0,20.0232 -6.88256,40.2116 -16.62513,48.7657 -7.83864,6.8825 -17.81858,8.615 -21.82406,3.7886 z m -67.9847,-75.5341 c 2.9645,-8.7005 2.9521,-9.7106 -0.13466,-10.8952 -8.36682,-3.2106 -16.16998,10.0026 -11.70025,19.8125 3.34262,7.3362 7.3173,4.3415 11.83491,-8.9173 z m -317.58804,24.3975 c -2.30829,-2.3083 -5.11397,-6.8281 -6.23509,-10.0441 l -2.03853,-5.8474 -8.83407,8.1554 c -4.85876,4.4856 -9.81306,8.1558 -11.00984,8.1558 -4.37546,0 -20.75085,-9.0665 -22.57499,-12.4989 -1.07089,-2.0152 -1.08179,-8.5341 -0.0257,-15.1783 2.24993,-14.1508 8.06713,-20.4555 20.58541,-22.3109 7.56268,-1.1209 9.72498,-0.5669 13.60775,3.4869 2.53892,2.6509 5.90976,7.7055 7.49044,11.2324 1.58089,3.5269 2.91192,5.2421 2.95787,3.8117 0.13894,-4.3038 14.8738,-17.7054 19.46771,-17.7054 4.75295,0 14.43967,5.4352 18.5567,10.4122 6.37659,7.7086 -0.0385,30.1901 -10.56438,37.0249 -8.4506,5.4869 -16.69857,5.9905 -21.38333,1.3057 z m 23.38895,-9.7376 c 6.6876,-8.183 8.30013,-18.466 3.93984,-25.1209 -1.92246,-2.934 -4.83567,-5.3343 -6.47406,-5.3343 -1.63839,0 -3.29944,-0.9336 -3.69146,-2.0746 -0.43071,-1.2544 -2.80718,-1.027 -6.01087,0.575 -6.45375,3.227 -14.4837,16.9127 -13.75716,23.4466 0.29177,2.6243 0.61068,5.9054 0.7088,7.2909 0.0983,1.3856 1.7784,4.1194 3.73421,6.0753 4.93976,4.9399 15.4864,2.5624 21.5507,-4.858 z m -43.0501,-1.6733 c 9.47254,-8.9339 9.96609,-19.2743 1.37761,-28.8688 l -5.87812,-6.5667 -8.16226,3.4166 c -5.70349,2.3877 -9.08395,5.6228 -11.22187,10.7396 -4.75829,11.3878 -3.86973,17.2035 3.51127,22.9799 8.62631,6.7511 11.68229,6.4962 20.37337,-1.7006 z m -54.98676,11.6524 c -0.14108,-1.6655 -0.19665,-9.5539 -0.12398,-17.5296 l 0.13039,-14.5017 -7.63087,1.4316 c -9.97144,1.8707 -8.90868,-3.4688 1.2126,-6.0914 l 6.93469,-1.7972 -0.28429,-16.4698 c -0.37812,-21.9044 -0.3358,-22.2845 2.2976,-20.6569 1.25407,0.775 2.13707,6.8434 1.96244,13.4854 -0.53737,20.4398 -0.14535,23.7533 2.70458,22.8753 9.98234,-3.0752 14.42812,-3.2157 14.42812,-0.4558 0,1.7353 -3.72801,3.7341 -9.08437,4.8704 l -9.08438,1.9269 0,16.3586 c 0,8.9969 -0.7214,17.0838 -1.60312,17.9704 -0.88172,0.8866 -1.71791,0.2492 -1.85813,-1.4162 z m 223.29842,-10.6242 c 0.74984,-7.1736 2.83561,-18.725 4.63517,-25.6693 1.79935,-6.9443 3.48947,-18.1602 3.7558,-24.9242 0.38518,-9.7806 1.25023,-12.4448 4.22498,-13.0142 2.66953,-0.5109 3.77697,0.7062 3.8676,4.2502 0.18382,7.2194 9.05295,30.1502 12.03711,31.1252 1.45158,0.4742 3.51021,-2.6717 4.79057,-7.32 1.23484,-4.4835 3.76456,-13.6825 5.62184,-20.4422 5.84008,-21.2562 8.48053,-16.972 16.7657,27.2036 3.05427,16.2857 5.05454,30.1088 4.44492,30.7185 -2.58701,2.5872 -4.84335,-4.0297 -7.35021,-21.5567 -1.46932,-10.2711 -3.88021,-22.7688 -5.35765,-27.7727 l -2.68619,-9.0979 -3.65385,12.8103 c -7.59368,26.623 -8.35613,28.8418 -9.91201,28.8418 -2.54085,0 -12.62792,-18.395 -14.08677,-25.6888 -0.7306,-3.6526 -2.08748,-5.8595 -3.01537,-4.9043 -2.53401,2.6082 -10.80079,48.8274 -9.39068,52.502 0.71478,1.8627 -0.28963,3.7701 -2.41516,4.5858 -3.26738,1.2538 -3.49973,0.065 -2.2758,-11.6471 z m -370.81328,6.294 c -11.72077,-5.1714 -20.04804,-18.6505 -19.53119,-31.6137 0.47772,-11.9788 8.47967,-31.1336 16.16548,-38.696 10.41433,-10.2475 27.16057,-16.3831 27.16057,-9.9517 0,1.5775 -3.75836,3.994 -8.35185,5.3703 -14.0733,4.2165 -26.73735,22.0291 -28.60937,40.241 -1.88656,18.3524 15.18758,35.0845 32.19203,31.5478 4.38637,-0.9125 8.69685,-1.4971 9.57856,-1.2992 0.88173,0.1988 1.71407,-0.8426 1.8498,-2.312 0.13466,-1.4697 0.47004,-3.6338 0.74299,-4.8094 0.27317,-1.1756 0.64318,-4.6523 0.8223,-7.7261 0.17955,-3.0737 2.9707,-8.5655 6.20366,-12.2039 6.17909,-6.9545 13.68193,-9.413 20.84063,-6.8292 2.35125,0.8485 5.91446,0.5198 7.91837,-0.7307 5.76077,-3.5945 6.77844,-0.265 3.97618,13.0088 -2.63789,12.4949 -1.1239,21.9174 4.03389,25.1051 1.26412,0.7812 6.37338,-0.824 11.35375,-3.5671 l 9.05531,-4.9874 0.62437,-16.5317 c 0.36102,-9.5603 1.55652,-16.5315 2.83518,-16.5315 1.25364,0 1.94661,3.6634 1.60034,8.4589 -0.69105,9.5704 1.30729,13.3809 3.46018,6.598 2.52162,-7.945 12.14165,-15.06 20.31438,-15.0244 4.12665,0.022 8.94586,0.9652 10.7093,2.105 3.44693,2.2273 2.87601,2.4219 -8.55,2.9121 -13.43867,0.5763 -20.36674,8.877 -23.29319,27.9076 -1.32055,8.5876 -5.70948,12.7343 -6.98664,6.6014 -0.59935,-2.8773 -1.89639,-2.553 -8.07611,2.0193 -4.04907,2.9959 -8.94993,5.4471 -10.89056,5.4471 -3.95075,0 -10.6035,-6.4758 -10.6035,-10.3215 0,-4.2006 -3.58801,-2.8016 -7.2846,2.8402 -2.71184,4.1388 -5.32195,5.3438 -11.57477,5.3438 -4.44024,0 -9.17116,-1.0981 -10.5133,-2.4402 -1.82885,-1.8288 -4.29359,-1.5609 -9.83507,1.0687 -9.58647,4.549 -15.23011,4.3427 -27.33712,-0.9994 z m 58.83789,-9.9198 c 2.84822,-4.4086 5.80567,-11.0584 6.57196,-14.7774 1.16237,-5.6411 0.65535,-6.996 -3.05877,-8.1749 -7.95085,-2.5235 -16.76826,0.939 -21.37585,8.3943 -7.41627,11.9994 -4.4289,22.5737 6.37702,22.5737 4.94232,0 7.42738,-1.7343 11.48564,-8.0157 z m 203.01291,-0.3137 c 0.73936,-7.5201 1.34406,-17.8601 1.34406,-22.9781 0,-5.1177 0.96187,-9.305 2.1375,-9.305 1.17562,0 2.1375,1.6159 2.1375,3.591 0,2.3672 2.60604,0.5463 7.64776,-5.3438 4.20639,-4.9141 8.57501,-8.9347 9.7081,-8.9347 3.7263,0 9.92334,7.3328 13.54833,16.0312 4.66637,11.1977 6.68268,36.0404 2.82086,34.7566 -1.76151,-0.5856 -2.86147,-5.5387 -3.09788,-13.9493 -0.38668,-13.7538 -5.57482,-27.8319 -11.02822,-29.9246 -4.25683,-1.6335 -14.81116,10.9989 -17.43131,20.863 -1.0944,4.1205 -2.35168,11.1321 -2.79393,15.5813 -0.44224,4.4492 -2.04879,9.2586 -3.57048,10.6875 -2.25335,2.1164 -2.51712,0.065 -1.42229,-11.0751 z m 184.93778,9.403 c -10.59687,-5.7595 -13.13215,-28.1394 -4.38422,-38.7005 9.14807,-11.044 19.09343,-12.0628 26.9233,-2.7574 4.62705,5.4989 5.35273,7.9798 4.2205,14.4282 -2.08406,11.8691 -8.52414,25.3217 -13.36173,27.9107 -5.44635,2.9147 -6.54716,2.8425 -13.39785,-0.881 z m 17.89601,-12.2216 c 8.61797,-18.5632 6.32742,-30.4648 -5.50684,-28.6134 -12.68008,1.9838 -19.24477,15.1711 -15.14932,30.433 1.5001,5.5904 9.19895,9.457 13.93479,6.9985 1.90409,-0.9887 4.92865,-4.9567 6.72137,-8.8181 z m 190.83294,13.4331 c -1.62947,-2.6364 2.4799,-5.0676 5.4563,-3.2281 3.5111,2.1703 12.6212,-3.5047 12.6212,-7.8618 0,-2.0942 -4.2291,-7.3424 -9.3978,-11.663 -11.18298,-9.3478 -15.05832,-16.5255 -12.00359,-22.2334 3.95099,-7.3822 26.74509,-11.1425 26.74509,-4.4119 0,2.1213 -2.5291,3.206 -7.912,3.3927 -7.8294,0.2719 -14.5317,3.8702 -14.5317,7.8018 0,1.1181 4.8093,6.7918 10.6875,12.6084 11.9173,11.7928 13.6464,18.8577 5.9369,24.2576 -5.236,3.6674 -15.672,4.4605 -17.6019,1.3377 z m -142.4517,-2.6934 c -0.1197,-1.5389 -0.0535,-5.8212 0.14322,-9.516 0.55895,-10.415 -3.83639,-23.7769 -9.01449,-27.4038 -5.82981,-4.0833 -6.90626,-4.0859 -10.96644,-0.026 -2.92218,2.9222 -7.18413,26.0545 -5.9664,32.3834 0.6498,3.3759 -4.02983,6.0854 -5.74731,3.3274 -0.75027,-1.2049 -1.05123,-12.1493 -0.66882,-24.3207 0.64146,-20.4195 0.94947,-21.7995 3.98579,-17.855 2.27323,2.9531 3.6004,3.4487 4.29232,1.6031 2.75096,-7.3388 20.40179,0.4381 24.10971,10.6226 3.44266,9.4557 4.89338,30.9882 2.19992,32.6529 -1.18354,0.7314 -2.2493,0.071 -2.36835,-1.4681 z"
         style="fill:#4d2981;fill-opacity:1" />
    </g>
  </g>
</svg>
